<svg width="1340" height="300" fill="none" xmlns="http://www.w3.org/2000/svg"><g clip-path="url(#clip0_93_14912)"><rect width="1340" height="300" rx="20" fill="#0187B2"/><g clip-path="url(#clip1_93_14912)"><path d="M1386.88 208.309l8.4 129.85L8.17 427.822-4.394 233.45c39.746-13.898 83.778-22.269 145.888-22.907 143.26-1.504 207.517 144.853 485.212 73.413 141.014-36.266 211.854-19.499 306.58 7.36 94.724 26.858 206.344 44.868 361.224-46.649 31.72-18.737 62.63-30.166 92.37-36.358z" fill="#007AA1"/><path d="M1387.27 214.256l8.01 123.903L8.17 427.822-4.247 235.729c33.584-9.258 71.675-14.706 121.312-15.236 143.26-1.503 207.518 144.854 485.213 73.413 141.013-36.265 211.853-19.498 306.58 7.36 94.722 26.859 206.322 44.87 361.232-46.649 40.65-24.029 79.91-35.999 117.18-40.361z" fill="#00B1CD"/></g><g clip-path="url(#clip2_93_14912)"><path d="M-71.784 96.849l-6.654-132.433 1412.218-70.95 9.96 198.238c-40.63 13.576-85.54 21.458-148.72 21.194-145.75-.576-208.982-150.65-492.481-81.942-143.961 34.876-215.774 16.75-311.736-12.011C294.84-9.816 181.564-29.81 22.696 61.162-9.84 79.786-41.439 90.977-71.784 96.849z" fill="#007AA1"/><path d="M-72.089 90.784l-6.349-126.368 1412.218-70.95 9.84 195.914c-34.29 8.939-73.12 13.93-123.61 13.739-145.74-.576-208.98-150.65-492.479-81.943-143.96 34.877-215.773 16.75-311.736-12.01-95.962-28.762-209.21-48.756-368.106 42.217C5.99 75.269-34.117 86.887-72.09 90.783z" fill="#00B1CD"/></g></g><defs><clipPath id="clip0_93_14912"><rect width="1340" height="300" rx="20" fill="#fff"/></clipPath><clipPath id="clip1_93_14912"><path fill="#fff" transform="rotate(-3.698 3389.618 191.993)" d="M0 0h1390v210H0z"/></clipPath><clipPath id="clip2_93_14912"><path fill="#fff" transform="rotate(177.124 670.905 70.07)" d="M0 0h1414v214H0z"/></clipPath></defs></svg>