<svg width="456" height="420" fill="none" xmlns="http://www.w3.org/2000/svg"><g clip-path="url(#clip0_91_10512)"><path d="M211.577 421.401c116.61 0 211.142-94.333 211.142-210.7C422.719 94.334 328.187 0 211.577 0S.437 94.334.437 210.701c0 116.367 94.53 210.7 211.14 210.7z" fill="#FEAF86"/><mask id="a" style="mask-type:luminance" maskUnits="userSpaceOnUse" x="0" y="0" width="423" height="422"><path d="M211.587 421.401c116.61 0 211.141-94.333 211.141-210.7C422.728 94.334 328.197 0 211.587 0 94.977 0 .447 94.334.447 210.701c0 116.367 94.53 210.7 211.14 210.7z" fill="#fff"/></mask><g mask="url(#a)"><path d="M333.059 177.774l-22.622 14.244 33.269 52.618 22.621-14.244-33.268-52.618z" fill="#FEAF86"/><path d="M343.654 250.835a6.345 6.345 0 01-5.348-2.947l-33.276-52.629a6.31 6.31 0 011.981-8.704l22.625-14.252a6.34 6.34 0 018.722 1.968l33.279 52.629a6.305 6.305 0 01-1.983 8.715l-22.625 14.25a6.338 6.338 0 01-3.375.97zm-24.481-56.964l26.454 41.901 11.929-7.504-26.516-41.935-11.867 7.538zm-21.588-5.839c9.714-4.713 13.493-16.937 8.442-27.304-5.051-10.367-17.02-14.951-26.732-10.238-9.714 4.712-13.493 16.937-8.442 27.304 5.051 10.366 17.02 14.95 26.732 10.238z" fill="#182A34"/><path d="M289.501 196.09a27.467 27.467 0 01-14.419-4.343 27.372 27.372 0 01-9.946-11.287 27.716 27.716 0 01-1.676-20.398 24.988 24.988 0 014.904-9.039 25.054 25.054 0 018.132-6.307c12.837-6.221 28.615-.327 35.186 13.156a27.695 27.695 0 011.678 20.388 25.047 25.047 0 01-13.036 15.409 24.68 24.68 0 01-10.823 2.421zm-2.11-41.228c-1.827.002-3.63.416-5.273 1.211a12.504 12.504 0 00-6.477 7.715 15.107 15.107 0 00.961 11.146c3.512 7.221 11.707 10.526 18.268 7.368a12.642 12.642 0 006.476-7.714 15.153 15.153 0 00-.96-11.147 14.735 14.735 0 00-5.289-6.15 14.788 14.788 0 00-7.747-2.429h.041z" fill="#182A34"/><path d="M397.883 137.635c9.713-4.713 13.493-16.937 8.442-27.304-5.051-10.367-17.021-14.95-26.734-10.238-9.712 4.712-13.491 16.937-8.44 27.304 5.051 10.367 17.019 14.95 26.732 10.238z" fill="#FEAF86"/><path d="M389.841 145.694a27.47 27.47 0 01-14.427-4.34 27.387 27.387 0 01-9.949-11.29c-6.571-13.483-1.466-29.472 11.371-35.787 12.835-6.315 28.614-.326 35.185 13.147a27.715 27.715 0 011.668 20.398 24.978 24.978 0 01-4.9 9.037 25.044 25.044 0 01-8.128 6.309 24.682 24.682 0 01-10.82 2.526zm-2.11-41.239a12.25 12.25 0 00-5.327 1.221c-6.551 3.158-9.028 11.642-5.516 18.862 3.512 7.221 11.719 10.526 18.278 7.368a12.524 12.524 0 006.477-7.715 15.173 15.173 0 00-.959-11.147 14.758 14.758 0 00-5.287-6.155 14.791 14.791 0 00-7.751-2.434h.085z" fill="#182A34"/><path d="M275.696 131.991s-4.218 24.209 8.438 44.397 25.547 23.094 25.547 23.094 24.259-15.99 49.573-23.378c33.003-9.631 69.329 10.083 82.429 4.083 10.009-4.578-29.428-140.263-68.686-140.968-12.92-.232-17.192 51.386-49.921 70.521-27.899 16.42-47.38 22.251-47.38 22.251z" fill="#00B1CD"/><path d="M309.68 205.796c-.473 0-.944-.054-1.403-.158-1.572-.358-15.705-4.115-29.417-25.883-13.85-21.998-9.493-47.764-9.345-48.848a6.328 6.328 0 014.409-4.958c.189-.063 19.196-5.884 46.039-21.609 17.129-10.041 25.821-30.292 32.793-46.565 6.191-14.42 10.674-24.872 20.209-24.872h.243c15.821.285 31.873 16.452 47.601 48.05a343.109 343.109 0 0126.463 75.447c3.935 18.767 3.165 26.767-2.848 29.471-7.383 3.399-17.763 1.211-30.861-1.548-15.527-3.272-34.86-7.368-52.444-2.22-24.089 7.03-47.717 22.452-47.958 22.609a6.338 6.338 0 01-3.481 1.084zm-28.088-69.1c-.507 6.989-.507 22.851 7.983 36.334 7.933 12.63 15.728 17.61 19.418 19.419 7.236-4.472 27.424-16.229 48.521-22.408 20.641-6.031 41.704-1.59 58.611 1.979 8.069 1.704 16.37 3.452 20.916 2.936.507-13.883-16.876-78.489-41.968-112.497-7.932-10.736-15.441-16.567-21.761-16.915-2.299 1.643-6.137 10.6-8.976 17.2-7.298 17.019-17.298 40.333-38.022 52.48-21.169 12.409-37.539 18.893-44.774 21.472h.052z" fill="#182A34"/><mask id="b" style="mask-type:luminance" maskUnits="userSpaceOnUse" x="275" y="39" width="169" height="161"><path d="M275.695 131.991s-4.218 24.209 8.438 44.397c12.657 20.188 25.547 23.094 25.547 23.094s24.259-15.99 49.574-23.378c33.002-9.631 69.328 10.083 82.428 4.083 10.009-4.578-29.428-140.263-68.686-140.968-12.92-.232-17.192 51.386-49.92 70.521-27.9 16.42-47.381 22.251-47.381 22.251z" fill="#fff"/></mask><g mask="url(#b)"><path d="M313.77 104.204s1.456 28.229 12.426 50.712c10.97 22.482 37.443 37.219 37.443 37.219l-64.857 25.081-54.383-80.625 69.371-32.387z" fill="#FEAF86"/><path d="M298.783 223.531a6.322 6.322 0 01-5.273-2.788l-54.373-80.626a6.327 6.327 0 01-.996-2.512 6.331 6.331 0 01.148-2.697 6.342 6.342 0 011.263-2.389 6.343 6.343 0 012.148-1.643l69.372-32.388a6.334 6.334 0 018.1 2.468c.534.886.841 1.889.897 2.922 0 .273 1.539 27.261 11.792 48.27 9.935 20.377 34.606 34.333 34.807 34.47a6.338 6.338 0 012.485 2.511 6.303 6.303 0 01-.476 6.76 6.324 6.324 0 01-2.811 2.14l-64.804 25.114a6.146 6.146 0 01-2.279.388zm-45.006-84.34l47.463 70.311 48.731-18.841c-9.25-6.81-22.255-18.273-29.439-32.977-7.616-15.588-10.853-33.408-12.193-44.007l-54.562 25.514z" fill="#182A34"/></g><path d="M309.68 205.796c-.473 0-.944-.054-1.403-.158-1.572-.358-15.705-4.115-29.417-25.883-13.85-21.998-9.493-47.764-9.345-48.848a6.328 6.328 0 014.409-4.958c.189-.063 19.196-5.884 46.039-21.609 17.129-10.041 25.821-30.292 32.793-46.565 6.191-14.42 10.674-24.872 20.209-24.872h.243c15.821.285 31.873 16.452 47.601 48.05a343.109 343.109 0 0126.463 75.447c3.935 18.767 3.165 26.767-2.848 29.471-7.383 3.399-17.763 1.211-30.861-1.548-15.527-3.272-34.86-7.368-52.444-2.22-24.089 7.03-47.717 22.452-47.958 22.609a6.338 6.338 0 01-3.481 1.084zm-28.088-69.1c-.507 6.989-.507 22.851 7.983 36.334 7.933 12.63 15.728 17.61 19.418 19.419 7.236-4.472 27.424-16.229 48.521-22.408 20.641-6.031 41.704-1.59 58.611 1.979 8.069 1.704 16.37 3.452 20.916 2.936.507-13.883-16.876-78.489-41.968-112.497-7.932-10.736-15.441-16.567-21.761-16.915-2.299 1.643-6.137 10.6-8.976 17.2-7.298 17.019-17.298 40.333-38.022 52.48-21.169 12.409-37.539 18.893-44.774 21.472h.052z" fill="#182A34"/><path d="M441.755 180.268c13.704-6.649 9.439-43.597-9.528-82.524s-45.453-65.093-59.157-58.443c-13.704 6.65-9.439 43.597 9.528 82.524s45.451 65.092 59.157 58.443z" fill="#182A34"/><path d="M436.956 187.577c-19.302 0-43.846-29.746-60.12-63.07-9.493-19.451-15.738-39.134-17.615-55.407-2.732-23.65 4.483-32.397 11.011-35.565 6.529-3.169 17.869-3.432 34.807 13.325 11.676 11.525 23.321 28.587 32.793 48.038 9.472 19.452 15.736 39.124 17.614 55.407 2.732 23.651-4.472 32.387-11.001 35.556a17.024 17.024 0 01-7.489 1.716zM377.721 44.513a4.381 4.381 0 00-1.919.39c-3.165 1.504-5.537 9.125-3.967 22.755 1.72 14.894 7.553 33.124 16.423 51.323 8.871 18.199 19.641 34.04 30.314 44.586 9.767 9.652 17.277 12.441 20.388 10.936 3.113-1.505 5.538-9.125 3.966-22.756-1.719-14.894-7.551-33.124-16.423-51.322-8.87-18.21-19.628-34.04-30.313-44.587-8.131-8.041-14.704-11.325-18.469-11.325z" fill="#182A34"/><mask id="c" style="mask-type:luminance" maskUnits="userSpaceOnUse" x="365" y="38" width="85" height="144"><path d="M441.766 180.268c13.705-6.649 9.44-43.597-9.527-82.524-18.966-38.927-45.451-65.093-59.157-58.443-13.705 6.65-9.44 43.597 9.527 82.524 18.968 38.927 45.453 65.092 59.157 58.443z" fill="#fff"/></mask><g mask="url(#c)"><path d="M401.108 144.251c13.139-6.375 18.252-22.91 11.419-36.931-6.831-14.021-23.02-20.22-36.159-13.844-13.139 6.375-18.252 22.909-11.421 36.93 6.831 14.022 23.021 20.22 36.161 13.845z" fill="#FEAF86"/><path d="M390.137 152.988a32.975 32.975 0 01-11.771-2.21 35.98 35.98 0 01-19.115-17.72 35.865 35.865 0 01-2.106-25.95 31.46 31.46 0 016.188-11.438 31.56 31.56 0 0110.286-7.973 31.631 31.631 0 0125.473-.946 35.997 35.997 0 0119.146 17.708 35.888 35.888 0 012.14 25.963 31.602 31.602 0 01-6.198 11.429 31.697 31.697 0 01-10.278 7.98 31.27 31.27 0 01-13.765 3.157zm-2.857-55.785a18.552 18.552 0 00-8.175 1.874 19.153 19.153 0 00-9.927 11.778 23.277 23.277 0 001.421 16.709A23.343 23.343 0 00382.891 139a18.954 18.954 0 0021.612-5.344 18.877 18.877 0 003.703-6.939 22.788 22.788 0 00-1.425-16.715 22.783 22.783 0 00-12.299-11.43 20.069 20.069 0 00-7.202-1.39v.021z" fill="#182A34"/></g><path d="M436.956 187.577c-19.302 0-43.846-29.746-60.12-63.07-9.493-19.451-15.738-39.134-17.615-55.407-2.732-23.65 4.483-32.397 11.011-35.565 6.529-3.169 17.869-3.432 34.807 13.325 11.676 11.525 23.321 28.587 32.793 48.038 9.472 19.452 15.736 39.124 17.614 55.407 2.732 23.651-4.472 32.387-11.001 35.556a17.024 17.024 0 01-7.489 1.716zM377.721 44.513a4.381 4.381 0 00-1.919.39c-3.165 1.504-5.537 9.125-3.967 22.755 1.72 14.894 7.553 33.124 16.423 51.323 8.871 18.199 19.641 34.04 30.314 44.586 9.767 9.652 17.277 12.441 20.388 10.936 3.113-1.505 5.538-9.125 3.966-22.756-1.719-14.894-7.551-33.124-16.423-51.322-8.87-18.21-19.628-34.04-30.313-44.587-8.131-8.041-14.704-11.325-18.469-11.325zM39.78 441.536S2.197 492.563-5.3 521.099c-7.732 29.365 7.182 43.154 17.645 40.08 14.208-4.126 25.725-17.525 37.317-50.869 11.592-33.345 32.845-63.532 32.845-63.532s-6.14 61.364-1.413 83.015c4.725 21.651 17.805 52.701 37.645 51.354 19.839-1.347 15.821-38.502 13.152-53.681-2.669-15.177 14.883-77.942 27.919-83.646 13.036-5.705 38.425 11.094 52.2 25.471 13.774 14.379 22.15 16.315 33.614 61.669 10.897 43.008 37.38 45.914 48.898 27.63 11.518-18.283 2.522-55.153-11.179-79.067-13.701-23.914-48.593-48.239-42.718-61.911 2.268-5.264 20.145-8.179 44.554 6.893 27.623 17.062-43.14-71.858-43.14-71.858l-137.202 5.064-65.058 83.825z" fill="#182A34"/><path d="M117.461 587.505c-22.296 0-36.822-30.072-42.558-56.374-2.839-13.063-2.004-38.946-.77-58.776a254.89 254.89 0 00-18.49 39.997c-11.603 33.378-24.028 49.786-41.537 54.859-6.328 1.832-13.279-.168-18.616-5.357-4.324-4.21-13.659-16.756-6.92-42.397 7.722-29.355 44.543-79.573 46.104-81.7l.095-.126 65.068-83.824a6.335 6.335 0 014.767-2.443l137.202-5.074a6.346 6.346 0 015.19 2.38c.127.168 13.776 17.336 26.633 34.956 7.604 10.42 13.468 18.998 17.435 25.492 6.328 10.337 8.976 16.841 4.924 21.346-4.65 5.262-11.792.811-14.143-.642-19.376-11.967-32.624-10.8-35.557-9.241-.812 4.895 11.003 17.692 18.924 26.314 8.733 9.473 17.751 19.23 23.626 29.471 14.988 26.167 23.964 65.059 11.042 85.573-6.274 9.946-16.222 14.915-26.61 13.272-15.2-2.39-27.508-17.967-33.752-42.722-9.303-36.725-15.938-43.156-25.969-52.797-1.929-1.863-3.923-3.778-6.095-6.052-15.19-15.862-37.096-27.556-45.082-24.051-2.583 1.21-9.312 11.662-16.4 34.544-6.086 19.652-8.754 36.903-7.826 42.229 2.53 14.514 5.273 40.787-4.82 53.607a19.177 19.177 0 01-6.255 5.278 19.248 19.248 0 01-7.89 2.196c-.59.051-1.151.062-1.72.062zM82.507 440.464c.753-.002 1.5.133 2.205.4a6.315 6.315 0 014.091 6.547c-.062.599-5.979 60.606-1.528 81.046 5.18 23.756 17.499 47.365 31.031 46.408a6.528 6.528 0 005.041-2.674c4.926-6.317 5.834-23.398 2.309-43.65-1.676-9.6 2.943-31.187 8.27-48.323 5.273-16.841 13.543-37.891 23.342-42.175 17.225-7.548 45.523 12.493 59.309 26.893 2.004 2.104 3.913 3.925 5.749 5.693 10.758 10.379 19.248 18.567 29.437 58.786 4.895 19.334 13.713 31.798 23.49 33.344 5.273.842 10.368-1.904 13.911-7.525 9.79-15.546 1.753-49.775-11.317-72.574-5.157-8.999-13.711-18.251-21.939-27.187-14.081-15.252-26.23-28.42-21.094-40.355.949-2.189 3.163-5.157 8.564-6.852 7.383-2.327 20.21-1.716 35.861 5.778-8.532-13.44-24.754-35.45-40.174-54.964l-131.033 4.831-63.2 81.425C43.354 447.357 7.808 496.102.815 522.71c-5.2 19.756 1.372 28.072 3.502 30.145 2.13 2.074 4.367 2.821 6.255 2.273 9.25-2.683 20.41-10.346 33.109-46.869 11.75-33.788 32.75-63.839 33.647-65.101a6.32 6.32 0 015.178-2.694z" fill="#182A34"/><path d="M117.461 587.505c-22.296 0-36.822-30.072-42.558-56.374-2.839-13.063-2.004-38.946-.77-58.776a254.89 254.89 0 00-18.49 39.997c-11.603 33.378-24.028 49.786-41.537 54.859-6.328 1.832-13.279-.168-18.616-5.357-4.324-4.21-13.659-16.756-6.92-42.397 7.722-29.355 44.543-79.573 46.104-81.7l.095-.126 65.068-83.824a6.335 6.335 0 014.767-2.443l137.202-5.074a6.346 6.346 0 015.19 2.38c.127.168 13.776 17.336 26.633 34.956 7.604 10.42 13.468 18.998 17.435 25.492 6.328 10.337 8.976 16.841 4.924 21.346-4.65 5.262-11.792.811-14.143-.642-19.376-11.967-32.624-10.8-35.557-9.241-.812 4.895 11.003 17.692 18.924 26.314 8.733 9.473 17.751 19.23 23.626 29.471 14.988 26.167 23.964 65.059 11.042 85.573-6.274 9.946-16.222 14.915-26.61 13.272-15.2-2.39-27.508-17.967-33.752-42.722-9.303-36.725-15.938-43.156-25.969-52.797-1.929-1.863-3.923-3.778-6.095-6.052-15.19-15.862-37.096-27.556-45.082-24.051-2.583 1.21-9.312 11.662-16.4 34.544-6.086 19.652-8.754 36.903-7.826 42.229 2.53 14.514 5.273 40.787-4.82 53.607a19.177 19.177 0 01-6.255 5.278 19.248 19.248 0 01-7.89 2.196c-.59.051-1.151.062-1.72.062zM82.507 440.464c.753-.002 1.5.133 2.205.4a6.315 6.315 0 014.091 6.547c-.062.599-5.979 60.606-1.528 81.046 5.18 23.756 17.499 47.365 31.031 46.408a6.528 6.528 0 005.041-2.674c4.926-6.317 5.834-23.398 2.309-43.65-1.676-9.6 2.943-31.187 8.27-48.323 5.273-16.841 13.543-37.891 23.342-42.175 17.225-7.548 45.523 12.493 59.309 26.893 2.004 2.104 3.913 3.925 5.749 5.693 10.758 10.379 19.248 18.567 29.437 58.786 4.895 19.334 13.713 31.798 23.49 33.344 5.273.842 10.368-1.904 13.911-7.525 9.79-15.546 1.753-49.775-11.317-72.574-5.157-8.999-13.711-18.251-21.939-27.187-14.081-15.252-26.23-28.42-21.094-40.355.949-2.189 3.163-5.157 8.564-6.852 7.383-2.327 20.21-1.716 35.861 5.778-8.532-13.44-24.754-35.45-40.174-54.964l-131.033 4.831-63.2 81.425C43.354 447.357 7.808 496.102.815 522.71c-5.2 19.756 1.372 28.072 3.502 30.145 2.13 2.074 4.367 2.821 6.255 2.273 9.25-2.683 20.41-10.346 33.109-46.869 11.75-33.788 32.75-63.839 33.647-65.101a6.32 6.32 0 015.178-2.694z" fill="#182A34"/><path d="M246.014 195.143l-4.536-23.282c-5.262-27.006-21.061-50.82-43.92-66.203a104.131 104.131 0 00-77.966-15.822c-27.06 5.252-50.921 21.017-66.334 43.826a103.551 103.551 0 00-15.852 77.796l4.64 23.829S21.1 247.718 27.28 279.421c5.274 26.998 29.206 29.999 29.206 29.999l4.715 24.155c3.67 18.841-2.71 44.156-13.5 55.787-10.548 11.335-51.378 38.049-67.78 46.743-16.401 8.694-46.778 26.776-54.045 46.229-7.267 19.45-1.677 36.776 8.807 38.765 15.653 2.979 33.752-25.588 55.048-37.25 15.6-8.526 62.831-32.493 76.554-42.934 27.55-20.978 42.115-62.332 62.62-60.291 20.504 2.042 17.509 17.662 14.631 31.251-2.881 13.589-29.535 64.911-15.421 116.835 14.112 51.922 44.203 72.151 64.043 70.804 19.84-1.347 27.572-18.387 24.546-31.334-3.028-12.947-48.141-43.313-48.35-75.364-.212-32.051 9.408-59.994 20.039-80.11 10.633-20.113 15.557-33.607 29.775-32.85 14.22.758 36.359 32.577 50.419 42.881 14.06 10.305 48.591 37.187 63.284 50.387 14.694 13.199 32.698 43.806 52.01 42.564 19.313-1.241 22.372-24.397 20.315-37.545-2.057-13.146-11.993-35.786-34.069-51.047-22.075-15.262-51.863-33.409-68.558-47.365 14.186 5.768 40.006 16.408 76.258 11.335 44.226-6.189 63.464-48.733 62.157-96.066-1.055-37.019-58.192-90.363-105.57-79.215-26.823 6.315-13.913 42.101-1.298 49.543 30.103 17.726 46.177 48.154 31.179 72.489-12.658 20.578-27.846 23.156-56.556 9.125-29.428-14.345-40.081-40.869-45.206-66.941-1.911-9.631-2.11-10.8-2.11-10.8s20.463-18.093 15.609-39.46c-4.43-19.599-30.018-34.598-30.018-34.598z" fill="#007AA1"/><path d="M95.184 150.231c-4.567-2.431-12.658-4.821-22.045 3.526-9.387 8.347-7.108 29.208 3.44 33.177 10.547 3.969 20.545-6.748 23.72-13.631 3.176-6.884 2.584-18.988-5.115-23.072zm18.67-27.945c-2.279-1.21-6.328-2.41-11.022 1.768-4.694 4.179-3.554 14.61 1.73 16.589 5.285 1.978 10.274-3.369 11.856-6.81 1.581-3.442 1.296-9.494-2.564-11.547z" fill="#00B1CD"/><path d="M-55.475 519.404s3.755-35.545 32.592-55.186c28.837-19.639 64.804-25.86 88.673-39.996a243.709 243.709 0 0044.131-33.786c3.491-3.391-34.365 43.922-53.962 55.501-19.597 11.577-61.418 32.975-72.872 41.217-11.455 8.241-38.562 32.25-38.562 32.25z" fill="#FEAF86"/><path d="M201.093 389.646s-38.404 25.775-50.281 63.436c-11.876 37.661-2.109 64.712 8.838 84.025 10.949 19.316 46.843 45.06 54.479 41.703 7.637-3.358 5.168-17.894-6.666-28.418-11.834-10.526-36.147-34.64-37.834-58.755-1.688-24.114 5.284-70.49 31.464-101.991zm38.658 4.305s32.222 17.567 63.285 23.956c31.063 6.389 58.454 31.156 67.083 44.523 8.627 13.368 28.477 49.638 21.094 51.439-7.383 1.799-25.314-2.547-38.72-17.894-13.406-15.346-29.734-28.84-48.012-43.344-18.278-14.505-58.909-43.387-64.73-58.68zm117.394-18.4s29.628-8.219 42.864-29.102c25.547-40.303 14.313-73.784-2.573-95.551-9.334-12.042-40.976-32.346-51.555-15.399-10.58 16.947 6.274 26.314 19.142 39.587 10.907 11.241 25.958 27.367 21.36 50.775-3.755 18.945-15.315 37.765-29.238 49.69z" fill="#00B1CD"/><path d="M42.036 241.605a6.34 6.34 0 01-4.02-1.448 6.312 6.312 0 01-2.182-3.669l-4.64-23.819a109.82 109.82 0 01.182-42.938 109.93 109.93 0 0116.636-39.599 110.16 110.16 0 0130.555-30.233 110.394 110.394 0 0139.822-16.262 110.512 110.512 0 0143.029.183 110.4 110.4 0 0139.681 16.601 110.157 110.157 0 0130.296 30.491 109.915 109.915 0 0116.297 39.739l4.535 23.283a6.326 6.326 0 01-.01 2.464 6.325 6.325 0 01-7.465 4.929 6.303 6.303 0 01-2.276-.952 6.332 6.332 0 01-2.674-4.031l-4.536-23.282a97.416 97.416 0 00-41.411-61.656 97.794 97.794 0 00-72.915-14.652 97.642 97.642 0 00-62.097 40.855 97.263 97.263 0 00-15.236 72.65l4.652 23.819a6.304 6.304 0 01-.983 4.715 6.32 6.32 0 01-4.027 2.652 6.79 6.79 0 01-1.213.16zm148.213 364.267c-23.404 0-53.993-23.158-68.242-75.532-11.854-43.503 3.365-85.657 11.539-108.308a120.447 120.447 0 003.798-11.473c1.402-6.62 3.321-15.703.295-19.83-1.52-2.105-4.673-3.367-9.366-3.831-8.228-.8-17.551 11.694-27.424 24.956-8.596 11.577-18.332 24.63-30.725 34.072-10.97 8.336-40.66 24.008-62.336 35.46-6.149 3.242-11.454 6.041-15.02 7.988-7.952 4.348-15.652 11.473-23.099 18.358-12.193 11.282-23.721 21.924-36.167 19.566-5.348-1.053-10-4.589-13.08-10.041-5.4-9.579-5.579-23.463-.474-37.135 7.447-19.946 35.113-37.986 56.957-49.607 16.876-8.947 56.65-35.292 66.101-45.46 9.45-10.167 15.136-33.786 11.93-50.27L50.22 310.63a6.301 6.301 0 01.966-4.738 6.35 6.35 0 011.753-1.735 6.362 6.362 0 012.286-.933 6.354 6.354 0 014.746.965 6.322 6.322 0 012.674 4.031l4.715 24.155c3.997 20.525-2.764 48.017-15.084 61.27-11.212 12.073-52.895 39.26-69.434 48.028-28.214 14.968-46.409 30.186-51.092 42.859-4.493 12.062-2.996 21.83-.348 26.526.865 1.525 2.331 3.43 4.409 3.83 6.18 1.169 15.821-7.768 25.198-16.42 8.016-7.368 16.296-15.072 25.63-20.176 3.65-1.99 8.987-4.81 15.178-8.074 20.04-10.609 50.439-26.63 60.575-34.335 10.969-8.357 20.146-20.682 28.246-31.577 12.594-16.913 23.458-31.522 38.836-29.986 8.438.831 14.588 3.842 18.332 8.936 6.328 8.684 3.871 20.451 1.867 29.902a117.567 117.567 0 01-4.22 13.148c-7.699 21.334-22.033 61.047-11.233 100.718 13.711 50.47 41.937 67.205 57.505 66.164 6.698-.453 12.045-3.158 15.484-7.767a19.778 19.778 0 003.323-15.842c-.685-2.958-7.943-10.673-13.765-16.841-14.598-15.515-34.595-36.776-34.743-59.891-.243-35.786 11.169-64.931 20.789-83.15a643.835 643.835 0 003.66-7.032c8.649-16.841 15.495-30.041 32.053-29.187 11.603.62 23.902 13.747 36.917 27.651 6.329 6.715 12.256 13.061 16.877 16.462 13.954 10.219 48.739 37.259 63.727 50.784a171 171 0 0113.954 15.084c10.421 12.147 22.151 25.883 32.697 25.883h.75a12.833 12.833 0 005.384-1.363 12.772 12.772 0 004.298-3.511c5.043-6.315 6.023-17.556 4.789-25.388-1.634-10.452-10.093-32.081-31.42-46.839-7.258-5.019-15.211-10.262-23.628-15.788-16.685-10.988-33.952-22.356-45.353-31.924a6.304 6.304 0 01-1.345-8.092 6.32 6.32 0 013.42-2.73 6.327 6.327 0 014.379.14l3.903 1.621c14.07 5.904 35.335 14.83 66.597 9.778 14.492-2.338 29.005-12.632 39.806-28.294 13.892-20.103 19.491-45.112 14.989-66.889-4.505-21.778-25.705-48.787-49.248-62.5-10.326-6.011-25.798-12.168-40.807-7.368-9.198 2.957-14.451 7.536-15.622 13.629-1.761 9.148 5.506 21.483 13.553 28.125 2.648 2.189 5.602 4.39 8.735 6.726 18.363 13.682 43.529 32.534 26.252 67.921-5.569 11.399-13.405 18.947-23.309 22.304-12.014 4.126-26.76 2-43.847-6.315-34.226-16.694-44.152-48.744-48.635-71.395-1.866-9.473-2.108-10.841-2.108-10.967a6.299 6.299 0 011.134-4.643 6.339 6.339 0 018.742-1.475 6.314 6.314 0 012.601 4.012s.264 1.474 2.11 10.62c6.38 32.25 19.259 51.523 41.767 62.501 13.954 6.8 25.451 8.726 34.164 5.737 6.708-2.306 11.96-7.506 16.053-15.904 11.813-24.209-1.223-36.399-22.467-52.27-3.248-2.431-6.328-4.727-9.206-7.115-10.665-8.8-20.822-25.146-17.931-40.229 1.455-7.548 6.824-17.705 24.174-23.272 15.41-4.947 33.067-2.01 51.071 8.472 26.759 15.579 49.995 45.375 55.259 70.859 5.189 25.083-1.15 53.679-16.961 76.605-12.941 18.735-30.06 30.66-48.202 33.597a120.404 120.404 0 01-38.868.126c4.041 2.684 8.143 5.389 12.215 8.073 8.111 5.336 16.497 10.864 23.869 15.968 23.205 16.072 34.301 39.817 36.716 55.259 1.571 10.041.569 25.261-7.383 35.239a25.456 25.456 0 01-8.339 6.815 25.474 25.474 0 01-10.414 2.763c-.528 0-1.055.052-1.583.052-16.265 0-30.049-16.061-42.254-30.302a162.886 162.886 0 00-12.889-13.925c-14.692-13.251-48.961-39.893-62.726-49.976-5.579-4.095-11.93-10.851-18.638-18.009-9.229-9.841-21.864-23.324-28.373-23.662-7.709-.421-11.244 5.127-20.124 22.347a684.576 684.576 0 01-3.722 7.146c-8.935 16.893-19.556 43.987-19.325 77.122.117 18.167 18.153 37.334 31.316 51.333 8.945 9.472 15.4 16.367 16.877 22.64a32.26 32.26 0 01-5.485 26.219c-5.622 7.589-14.43 12.147-24.797 12.852-.802.051-1.572.074-2.364.074z" fill="#182A34"/><path d="M58.184 309.093a25.243 25.243 0 01-8.638-.588 34.081 34.081 0 01-8.333-3.159 38.608 38.608 0 01-13.416-12.261 50.606 50.606 0 01-7.288-16.631 39.05 39.05 0 01-.929-4.599 35.294 35.294 0 01-.38-4.842 36.538 36.538 0 014.873-18.704 43.032 43.032 0 012.542-4.01 49.269 49.269 0 012.943-3.631 58.002 58.002 0 0113.891-11.285 78.831 78.831 0 0115.727-7.061 70.414 70.414 0 0116.611-3.401c-4.851 2.875-9.492 5.758-14.006 8.779a130.514 130.514 0 00-12.657 9.557c-7.88 6.694-14.355 14.546-16.444 23.156a29.253 29.253 0 00-.833 6.567c-.005 1.126.048 2.25.158 3.37.1 1.172.27 2.339.506 3.494.426 2.436 1 4.843 1.72 7.21.327 1.18.727 2.326 1.139 3.484.411 1.157.907 2.263 1.413 3.368a41.938 41.938 0 0021.454 21.177l-.053.01z" fill="#182A34"/><path d="M56.37 315.093c-.2.01-.4.01-.6 0-1.161-.106-28.595-3.105-35.862-40.165a6.301 6.301 0 01.965-4.738 6.35 6.35 0 011.754-1.735 6.362 6.362 0 012.285-.933 6.354 6.354 0 014.747.965 6.322 6.322 0 012.674 4.031c5.347 27.46 23.858 29.914 24.649 30.007a6.344 6.344 0 014.258 2.269 6.307 6.307 0 011.417 4.606 6.317 6.317 0 01-6.287 5.693z" fill="#182A34"/><path d="M74.808 294.315c15.426 0 27.929-12.479 27.929-27.872 0-15.392-12.503-27.871-27.929-27.871-15.425 0-27.93 12.479-27.93 27.871 0 15.393 12.505 27.872 27.93 27.872z" fill="#DEFBFF"/><path d="M74.798 300.631a34.311 34.311 0 01-23.64-9.444 34.167 34.167 0 01-10.584-23.112 34.157 34.157 0 018.315-24.019 34.32 34.32 0 0147.064-4.529 34.173 34.173 0 0112.762 21.988 34.139 34.139 0 01-5.962 24.704 34.271 34.271 0 01-21.395 13.78 34.893 34.893 0 01-6.56.632zm.064-55.785a22.343 22.343 0 00-4.168.4 21.603 21.603 0 00-11.09 5.846c-3.036 3-5.112 6.83-5.966 11.009a21.515 21.515 0 001.17 12.462 21.567 21.567 0 007.91 9.712 21.638 21.638 0 0024.005.111 21.583 21.583 0 008.001-9.638 21.523 21.523 0 00-6.163-24.957 21.652 21.652 0 00-13.71-4.945h.01z" fill="#182A34"/><path d="M74.806 279.181c7.048 0 12.762-5.702 12.762-12.737 0-7.034-5.714-12.736-12.762-12.736-7.049 0-12.762 5.702-12.762 12.736 0 7.035 5.713 12.737 12.762 12.737zm184.139-9.053a41.792 41.792 0 0011.939-27.651c.065-1.211 0-2.442 0-3.652s-.106-2.442-.243-3.662a62.266 62.266 0 00-1.117-7.316 33.602 33.602 0 00-.843-3.442 33.194 33.194 0 00-1.12-3.159 29.25 29.25 0 00-3.237-5.767c-5.168-7.211-14.123-12.062-23.942-15.325a133.003 133.003 0 00-15.379-4.116c-5.275-1.115-10.706-2.041-16.276-2.895a70.278 70.278 0 0116.677-3.051 79.053 79.053 0 0117.234.651 58.826 58.826 0 0117.119 5.264 49.25 49.25 0 014.083 2.263 46.637 46.637 0 013.869 2.767 37.876 37.876 0 016.783 6.947 37.428 37.428 0 014.758 8.578 36.306 36.306 0 011.466 4.632 39.24 39.24 0 01.864 4.611 50.465 50.465 0 01-.507 18.135 38.506 38.506 0 01-7.836 16.389 33.54 33.54 0 01-6.55 6.041 24.787 24.787 0 01-7.742 3.758z" fill="#182A34"/><path d="M260.518 275.475a6.338 6.338 0 01-3.909-1.335 6.314 6.314 0 01-2.251-3.458 6.309 6.309 0 013.196-7.111c.812-.442 16.875-9.673 11.601-37.029a6.345 6.345 0 01.011-2.464 6.327 6.327 0 017.465-4.93 6.31 6.31 0 014.015 2.703 6.34 6.34 0 01.935 2.28c7.225 37.06-17.088 50.102-18.12 50.639a6.424 6.424 0 01-2.943.705z" fill="#182A34"/><path d="M227.514 264.676c15.425 0 27.931-12.478 27.931-27.871 0-15.394-12.506-27.873-27.931-27.873-15.426 0-27.929 12.479-27.929 27.873 0 15.393 12.503 27.871 27.929 27.871z" fill="#DEFBFF"/><path d="M227.504 271.002a34.348 34.348 0 01-21.775-7.828 34.228 34.228 0 01-11.84-19.843 34.102 34.102 0 012.044-19.735 34.19 34.19 0 0112.682-15.277 34.293 34.293 0 0138.048.173 34.19 34.19 0 0112.546 15.39 34.129 34.129 0 011.863 19.752 34.17 34.17 0 01-9.446 17.457 34.283 34.283 0 01-17.572 9.279 34.698 34.698 0 01-6.55.632zm-21.19-30.082a21.547 21.547 0 005.86 11.067 21.616 21.616 0 0011.034 5.953c4.188.85 8.533.443 12.489-1.171a21.588 21.588 0 009.731-7.897 21.535 21.535 0 003.694-11.962 21.537 21.537 0 00-3.59-11.994 21.6 21.6 0 00-9.663-7.981 21.64 21.64 0 00-12.479-1.276 21.623 21.623 0 00-13.77 9.108 21.545 21.545 0 00-3.306 16.153z" fill="#182A34"/><path d="M227.512 249.54c7.048 0 12.764-5.702 12.764-12.735 0-7.034-5.716-12.736-12.764-12.736-7.048 0-12.762 5.702-12.762 12.736 0 7.033 5.714 12.735 12.762 12.735zm-69.01 53.28c-8.206 0-16.96-3.6-21.306-13.882a6.308 6.308 0 013.376-8.273 6.326 6.326 0 016.905 1.326 6.302 6.302 0 011.384 2.041c2.829 6.705 9.188 6.547 12.731 5.863 6.056-1.179 9.113-4.557 9.63-10.642a6.3 6.3 0 012.148-4.451 6.295 6.295 0 012.194-1.252 6.324 6.324 0 016.888 2.01 6.303 6.303 0 011.375 4.746c-.991 11.705-8.216 19.714-19.819 21.966a29.403 29.403 0 01-5.506.548z" fill="#182A34"/></g><path d="M309.683 205.796c-.474 0-.944-.054-1.404-.158-1.572-.358-15.705-4.115-29.416-25.883-13.85-21.998-9.493-47.764-9.345-48.848a6.328 6.328 0 014.409-4.958c.189-.063 19.196-5.884 46.039-21.609 17.129-10.041 25.821-30.292 32.792-46.565 6.191-14.42 10.675-24.872 20.21-24.872h.243c15.821.285 31.873 16.452 47.6 48.05a343.016 343.016 0 0126.463 75.446c3.936 18.768 3.165 26.768-2.847 29.472-7.383 3.399-17.763 1.211-30.862-1.548-15.526-3.272-34.859-7.368-52.443-2.22-24.089 7.03-47.717 22.452-47.958 22.609a6.338 6.338 0 01-3.481 1.084zm-28.089-69.1c-.506 6.989-.506 22.851 7.984 36.334 7.933 12.63 15.727 17.61 19.418 19.419 7.236-4.472 27.424-16.229 48.52-22.408 20.642-6.031 41.705-1.59 58.612 1.978 8.069 1.705 16.37 3.453 20.916 2.937.506-13.883-16.876-78.489-41.969-112.497-7.931-10.736-15.441-16.567-21.76-16.915-2.299 1.643-6.137 10.6-8.976 17.2-7.298 17.019-17.298 40.333-38.023 52.48-21.169 12.409-37.538 18.893-44.774 21.472h.052z" fill="#182A34"/><path d="M441.755 180.268c13.704-6.649 9.439-43.597-9.528-82.524-18.965-38.927-45.451-65.093-59.155-58.443-13.706 6.65-9.439 43.597 9.526 82.524 18.967 38.927 45.452 65.092 59.157 58.443z" fill="#182A34"/><path d="M436.959 187.577c-19.302 0-43.846-29.746-60.12-63.07-9.493-19.451-15.738-39.134-17.616-55.407-2.731-23.65 4.484-32.397 11.012-35.565 6.529-3.169 17.868-3.432 34.807 13.325 11.676 11.525 23.321 28.587 32.793 48.038 9.472 19.452 15.736 39.124 17.613 55.407 2.733 23.651-4.471 32.387-11 35.556a17.027 17.027 0 01-7.489 1.716zM377.724 44.513a4.381 4.381 0 00-1.919.39c-3.165 1.504-5.537 9.125-3.967 22.755 1.72 14.894 7.553 33.124 16.423 51.323 8.87 18.199 19.641 34.039 30.314 44.586 9.767 9.652 17.277 12.441 20.388 10.936 3.113-1.505 5.538-9.126 3.966-22.756-1.719-14.894-7.551-33.124-16.423-51.323-8.87-18.209-19.628-34.04-30.313-44.586-8.131-8.041-14.704-11.325-18.469-11.325z" fill="#182A34"/><mask id="d" style="mask-type:luminance" maskUnits="userSpaceOnUse" x="365" y="38" width="85" height="144"><path d="M441.768 180.267c13.705-6.649 9.439-43.597-9.528-82.523-18.965-38.927-45.45-65.093-59.156-58.443-13.705 6.65-9.44 43.596 9.527 82.523s45.453 65.092 59.157 58.443z" fill="#fff"/></mask><g mask="url(#d)"><path d="M401.11 144.25c13.138-6.375 18.252-22.909 11.419-36.93-6.832-14.022-23.021-20.22-36.159-13.845-13.139 6.375-18.252 22.91-11.421 36.931 6.831 14.021 23.02 20.22 36.161 13.844z" fill="#FEAF86"/><path d="M390.139 152.988a32.975 32.975 0 01-11.771-2.21 35.98 35.98 0 01-19.115-17.72 35.865 35.865 0 01-2.106-25.95 31.46 31.46 0 016.188-11.438 31.56 31.56 0 0110.286-7.973 31.631 31.631 0 0125.473-.946 35.997 35.997 0 0119.146 17.708 35.894 35.894 0 012.14 25.963 31.602 31.602 0 01-6.198 11.429 31.697 31.697 0 01-10.278 7.98 31.27 31.27 0 01-13.765 3.157zm-2.858-55.785a18.551 18.551 0 00-8.174 1.874 19.153 19.153 0 00-9.927 11.778 23.277 23.277 0 001.421 16.709A23.343 23.343 0 00382.893 139a18.954 18.954 0 0021.612-5.344 18.877 18.877 0 003.703-6.939 22.788 22.788 0 00-1.425-16.715 22.783 22.783 0 00-12.299-11.43 20.07 20.07 0 00-7.203-1.39v.021z" fill="#182A34"/></g><path d="M436.959 187.577c-19.302 0-43.846-29.746-60.12-63.07-9.493-19.451-15.738-39.134-17.616-55.407-2.731-23.65 4.484-32.397 11.012-35.565 6.529-3.169 17.868-3.432 34.807 13.325 11.676 11.525 23.321 28.587 32.793 48.038 9.472 19.452 15.736 39.124 17.613 55.407 2.733 23.651-4.471 32.387-11 35.556a17.027 17.027 0 01-7.489 1.716zM377.724 44.513a4.381 4.381 0 00-1.919.39c-3.165 1.504-5.537 9.125-3.967 22.755 1.72 14.894 7.553 33.124 16.423 51.323 8.87 18.199 19.641 34.039 30.314 44.586 9.767 9.652 17.277 12.441 20.388 10.936 3.113-1.505 5.538-9.126 3.966-22.756-1.719-14.894-7.551-33.124-16.423-51.323-8.87-18.209-19.628-34.04-30.313-44.586-8.131-8.041-14.704-11.325-18.469-11.325z" fill="#182A34"/></g><defs><clipPath id="clip0_91_10512"><path fill="#fff" d="M0 0h456v420H0z"/></clipPath></defs></svg>