<svg width="35" height="36" fill="none" xmlns="http://www.w3.org/2000/svg"><g clip-path="url(#clip0_2002_8423)"><path d="M19.96 16.98c.434.172.855.36 1.266.565.41.205.809.438 1.196.7a7.825 7.825 0 00-1.248 1.811 10.8 10.8 0 00-2.802-1.298 10.624 10.624 0 00-3.06-.444c-1.002 0-1.97.13-2.905.393-.934.262-1.806.626-2.615 1.093a10.309 10.309 0 00-2.204 1.71 11.62 11.62 0 00-1.71 2.221c-.478.81-.848 1.68-1.11 2.615a10.707 10.707 0 00-.393 2.905H2.187c0-1.367.2-2.683.599-3.948A12.71 12.71 0 014.512 21.8a14.073 14.073 0 012.666-2.854 12.161 12.161 0 013.486-1.965c-1.287-.843-2.29-1.903-3.008-3.179-.718-1.276-1.082-2.689-1.093-4.238 0-1.208.227-2.342.683-3.401A8.984 8.984 0 019.11 3.377a8.587 8.587 0 012.786-1.88 8.638 8.638 0 013.418-.683c1.207 0 2.34.228 3.4.683A8.984 8.984 0 0121.5 3.36a8.587 8.587 0 011.88 2.786 8.638 8.638 0 01.683 3.418 8.92 8.92 0 01-.273 2.204 8.1 8.1 0 01-.82 2.034 9.81 9.81 0 01-1.282 1.76 8.14 8.14 0 01-1.726 1.419zM8.75 9.565c0 .911.17 1.76.513 2.546a6.85 6.85 0 001.401 2.085 6.446 6.446 0 002.085 1.418 6.438 6.438 0 002.563.513c.9 0 1.75-.17 2.547-.513a6.584 6.584 0 002.085-1.4 6.827 6.827 0 001.418-2.086 6.067 6.067 0 00.513-2.563c0-.9-.17-1.75-.513-2.547a6.584 6.584 0 00-1.401-2.085 6.77 6.77 0 00-2.102-1.418A6.097 6.097 0 0015.312 3c-.911 0-1.76.171-2.546.513a6.85 6.85 0 00-2.085 1.401 6.398 6.398 0 00-1.418 2.102 6.476 6.476 0 00-.513 2.547zm25.156 14.218c0 .593-.09 1.168-.273 1.727a5.23 5.23 0 01-.82 1.555v8.75l-4.376-2.188-4.375 2.188v-8.75a5.454 5.454 0 01-.803-1.555 5.891 5.891 0 01-.29-1.727c0-.752.142-1.458.427-2.119a5.483 5.483 0 011.162-1.726 5.669 5.669 0 011.743-1.179 5.238 5.238 0 012.137-.444 5.345 5.345 0 013.845 1.607c.49.5.883 1.082 1.179 1.742.296.661.444 1.367.444 2.12zm-5.468-3.28c-.456 0-.883.085-1.282.256a3.29 3.29 0 00-1.043.7c-.296.297-.53.644-.7 1.043a3.22 3.22 0 00-.257 1.281 3.276 3.276 0 00.957 2.325 3.287 3.287 0 002.325.957 3.287 3.287 0 002.324-.957c.296-.296.53-.644.7-1.043a3.22 3.22 0 00.257-1.282 3.22 3.22 0 00-.257-1.281 3.293 3.293 0 00-.7-1.043 3.29 3.29 0 00-1.043-.7 3.219 3.219 0 00-1.282-.257zm2.187 11.774V28.79a5.27 5.27 0 01-2.188.461 5.27 5.27 0 01-2.187-.461v3.486c.365-.182.73-.359 1.094-.53.364-.17.729-.358 1.093-.564.365.194.73.376 1.094.547.365.171.73.353 1.094.547z" fill="#fff"/></g><defs><clipPath id="clip0_2002_8423"><path fill="#fff" transform="translate(0 .814)" d="M0 0h35v35H0z"/></clipPath></defs></svg>