<svg width="35" height="36" fill="none" xmlns="http://www.w3.org/2000/svg"><g clip-path="url(#clip0_2002_8441)"><path d="M14.834 25.782c.74.376 1.407.837 2 1.384a9.203 9.203 0 011.538 1.846c.433.684.757 1.413.974 2.188.216.774.33 1.583.341 2.426H17.5c0-.9-.17-1.749-.513-2.546a6.585 6.585 0 00-1.401-2.085 6.77 6.77 0 00-2.102-1.419 6.097 6.097 0 00-2.546-.512c-.912 0-1.76.17-2.547.512a6.85 6.85 0 00-2.085 1.402 6.4 6.4 0 00-1.418 2.102 6.476 6.476 0 00-.513 2.546H2.187c0-.831.114-1.635.342-2.41a8.972 8.972 0 01.974-2.187 8.755 8.755 0 011.521-1.846 9.095 9.095 0 012.017-1.401 6.545 6.545 0 01-2.666-5.28c0-.9.17-1.75.513-2.547a6.585 6.585 0 011.401-2.085 6.827 6.827 0 012.085-1.418 6.067 6.067 0 012.563-.513 6.545 6.545 0 015.28 2.666 8.915 8.915 0 013.949-3.948 6.544 6.544 0 01-2.666-5.28c0-.9.17-1.75.513-2.547a6.584 6.584 0 011.401-2.085A6.826 6.826 0 0121.5 1.326a6.068 6.068 0 012.564-.512c.9 0 1.748.17 2.546.512a6.584 6.584 0 012.085 1.402 6.769 6.769 0 011.418 2.102c.354.809.524 1.658.513 2.546a6.544 6.544 0 01-2.666 5.28 8.87 8.87 0 012 1.385 9.203 9.203 0 011.538 1.846c.433.684.757 1.413.974 2.188.216.774.33 1.583.342 2.426h-2.188c0-.9-.17-1.749-.513-2.546a6.585 6.585 0 00-1.401-2.085 6.77 6.77 0 00-2.102-1.418 6.097 6.097 0 00-2.547-.513c-.911 0-1.76.17-2.546.512a6.85 6.85 0 00-2.085 1.402 6.4 6.4 0 00-1.418 2.102A6.476 6.476 0 0017.5 20.5a6.544 6.544 0 01-2.666 5.28zm4.854-18.406c0 .604.113 1.168.341 1.692.228.524.541.991.94 1.402.399.41.86.723 1.384.94a4.67 4.67 0 001.71.341 4.21 4.21 0 001.691-.341 4.66 4.66 0 001.402-.94c.41-.4.723-.86.94-1.385.216-.524.33-1.094.341-1.709 0-.604-.113-1.168-.341-1.692a4.661 4.661 0 00-.94-1.401 4.09 4.09 0 00-1.384-.94 4.663 4.663 0 00-1.71-.342c-.603 0-1.167.114-1.691.342a4.66 4.66 0 00-1.402.94 4.09 4.09 0 00-.94 1.384 4.662 4.662 0 00-.341 1.71zM6.563 20.501c0 .604.113 1.168.341 1.692.228.524.541.991.94 1.401.399.41.86.724 1.385.94.524.217 1.093.33 1.709.342a4.21 4.21 0 001.691-.341 4.66 4.66 0 001.402-.94c.41-.4.723-.86.94-1.385.216-.524.33-1.094.341-1.709 0-.604-.113-1.168-.341-1.692a4.662 4.662 0 00-.94-1.401 4.088 4.088 0 00-1.385-.94 4.663 4.663 0 00-1.709-.342c-.603 0-1.167.114-1.691.342a4.657 4.657 0 00-1.402.94 4.09 4.09 0 00-.94 1.384 4.663 4.663 0 00-.341 1.71zm25.703 15.313l-4.922-3.845-4.922 3.845 1.982-6.153-4.716-3.691h5.896l1.76-5.469 1.76 5.469H35l-4.717 3.691 1.983 6.153z" fill="#fff"/></g><defs><clipPath id="clip0_2002_8441"><path fill="#fff" transform="translate(0 .814)" d="M0 0h35v35H0z"/></clipPath></defs></svg>