<svg width="36" height="36" fill="none" xmlns="http://www.w3.org/2000/svg"><path d="M5.165 31.696c-.79 0-1.45-.258-1.978-.773-.529-.515-.794-1.158-.795-1.93v-16.34c0-.77.265-1.414.795-1.929.53-.515 1.188-.773 1.976-.774h7.523V7.633c0-.77.265-1.412.795-1.929.53-.516 1.189-.774 1.978-.773h4.75c.79 0 1.45.258 1.979.773.53.515.794 1.158.792 1.929V9.95h7.524c.789 0 1.448.258 1.976.774.529.517.793 1.16.795 1.929v16.341c0 .77-.265 1.413-.795 1.93-.53.516-1.188.773-1.976.772H5.164zM14.402 9.95h6.863V7.633c0-.257-.11-.492-.33-.708-.22-.215-.461-.322-.725-.32h-4.753c-.263 0-.505.106-.726.32-.22.214-.33.45-.329.708V9.95zm17.157 12.546H21.265v1.157c0 .388-.132.71-.395.967s-.594.385-.992.385h-4.09c-.398 0-.728-.128-.991-.385a1.294 1.294 0 01-.395-.967v-1.157H4.108v6.498c0 .257.11.493.33.708.219.215.46.322.725.321h25.34c.264 0 .506-.107.727-.32.22-.215.33-.451.329-.71v-6.497zm-15.441.836h3.431v-3.346h-3.431v3.346zm-12.01-2.51h10.294v-1.157c0-.388.132-.71.395-.966.263-.257.593-.385.991-.385h4.09c.398 0 .73.128.992.384.263.257.395.58.395.967v1.158h10.294v-8.17c0-.258-.11-.494-.33-.71-.22-.214-.461-.322-.725-.32H5.163c-.263 0-.505.107-.726.32-.22.215-.33.451-.33.71v8.17z" fill="#fff"/></svg>