<svg width="33" height="36" fill="none" xmlns="http://www.w3.org/2000/svg"><path d="M16.5 16.126a5.516 5.516 0 01-3.889-1.602 5.453 5.453 0 01-1.61-3.866c0-1.45.579-2.842 1.61-3.868a5.516 5.516 0 013.89-1.601c1.458 0 2.857.576 3.888 1.601A5.453 5.453 0 0122 10.658c0 1.45-.58 2.84-1.61 3.867a5.516 5.516 0 01-3.89 1.601zm0-8.75a3.286 3.286 0 00-3.3 3.282 3.286 3.286 0 003.3 3.28c1.826 0 3.3-1.465 3.3-3.28a3.286 3.286 0 00-3.3-3.282zm13.2 17.5c-.616 0-1.1-.481-1.1-1.094 0-.612.484-1.093 1.1-1.093.616 0 1.1-.482 1.1-1.094a5.46 5.46 0 00-1.61-3.867 5.516 5.516 0 00-3.89-1.602h-2.2c-.616 0-1.1-.481-1.1-1.094 0-.612.484-1.093 1.1-1.093 1.826 0 3.3-1.466 3.3-3.281a3.286 3.286 0 00-3.3-3.282c-.616 0-1.1-.481-1.1-1.094 0-.612.484-1.093 1.1-1.093a5.52 5.52 0 013.89 1.601 5.453 5.453 0 011.61 3.868 5.348 5.348 0 01-1.32 3.543c3.278.875 5.72 3.85 5.72 7.394a3.286 3.286 0 01-3.3 3.281zm-26.4 0A3.286 3.286 0 010 21.595c0-3.544 2.42-6.519 5.72-7.394-.814-.962-1.32-2.187-1.32-3.543 0-1.45.58-2.842 1.61-3.868a5.516 5.516 0 013.89-1.6c.616 0 1.1.481 1.1 1.093 0 .613-.484 1.094-1.1 1.094a3.286 3.286 0 00-3.3 3.282 3.286 3.286 0 003.3 3.28c.616 0 1.1.482 1.1 1.095 0 .612-.484 1.093-1.1 1.093H7.7a5.516 5.516 0 00-3.89 1.602 5.453 5.453 0 00-1.61 3.867c0 .613.484 1.094 1.1 1.094.616 0 1.1.481 1.1 1.093 0 .613-.484 1.094-1.1 1.094zm19.8 6.563H9.9a3.286 3.286 0 01-3.3-3.282V25.97c0-4.222 3.454-7.656 7.7-7.656h4.4c4.246 0 7.7 3.434 7.7 7.656v2.188a3.286 3.286 0 01-3.3 3.28zM14.3 20.5a5.516 5.516 0 00-3.89 1.602A5.453 5.453 0 008.8 25.97v2.188c0 .612.484 1.093 1.1 1.093h13.2c.616 0 1.1-.481 1.1-1.094V25.97a5.46 5.46 0 00-1.61-3.867 5.516 5.516 0 00-3.89-1.602h-4.4z" fill="#fff"/></svg>