<svg width="36" height="36" fill="none" xmlns="http://www.w3.org/2000/svg"><g clip-path="url(#clip0_2002_7817)"><path d="M21.477 33.915a.88.88 0 00.316.068.88.88 0 00.316-.068l10.625-3.228c-.037-.548-.202-.943-.497-1.184a1.554 1.554 0 00-1.007-.362h-8.668c-.772 0-1.472-.03-2.1-.09a8.373 8.373 0 01-1.928-.429l-3.13-.994a.863.863 0 01-.54-.486.94.94 0 01-.04-.721.882.882 0 01.468-.522.945.945 0 01.727-.042l2.831 1.01a8.09 8.09 0 001.951.379c.713.055 1.595.086 2.647.094h.475c0-.562-.105-1.016-.316-1.362a1.67 1.67 0 00-.9-.724l-10.512-3.805a1.195 1.195 0 00-.385-.069H7.974v8.662l13.503 3.873zm-.466 1.78L7.974 31.932c-.174.711-.543 1.278-1.106 1.7-.562.423-1.177.635-1.845.635H3.617a2.856 2.856 0 01-2.083-.856c-.578-.57-.867-1.254-.867-2.053v-8.872c0-.8.288-1.485.866-2.054a2.863 2.863 0 012.084-.855h8.153c.17 0 .345.019.524.057.18.037.348.082.502.133l10.557 3.814c.654.245 1.217.685 1.688 1.32.473.636.709 1.447.709 2.436h5.48c1.1 0 1.943.34 2.528 1.018.586.68.88 1.541.88 2.585 0 .36-.1.664-.297.911-.197.247-.486.434-.867.56l-10.75 3.27a3.65 3.65 0 01-.84.13 2.538 2.538 0 01-.875-.12M2.494 31.358c0 .324.106.59.316.798.211.207.48.311.808.311h1.406c.328 0 .597-.086.808-.259.21-.173.316-.456.316-.85V21.38h-2.53c-.328 0-.597.104-.808.311-.21.208-.316.474-.316.798v8.867zM24.942 17.62a3.04 3.04 0 01-2.03-.783l-4.848-4.586a11.056 11.056 0 01-2.011-2.558 6.123 6.123 0 01-.806-3.08c0-1.327.47-2.452 1.41-3.378.94-.927 2.08-1.391 3.422-1.391.997 0 1.905.266 2.722.798A9.05 9.05 0 0124.94 4.58a9.034 9.034 0 012.14-1.938 4.878 4.878 0 012.723-.798c1.343 0 2.484.464 3.423 1.39.94.928 1.41 2.053 1.412 3.376a6.16 6.16 0 01-.8 3.083 10.976 10.976 0 01-2.008 2.558l-4.859 4.586a2.933 2.933 0 01-.959.587c-.35.13-.707.195-1.07.196zm.774-2.078l4.695-4.437c.65-.617 1.212-1.3 1.688-2.05a4.48 4.48 0 00.712-2.445c0-.821-.292-1.52-.876-2.098-.585-.578-1.296-.867-2.132-.867a3.21 3.21 0 00-1.966.647c-.58.43-1.1.937-1.562 1.522l-.305.364a1.254 1.254 0 01-1.023.492 1.29 1.29 0 01-1.036-.492l-.305-.364a8.31 8.31 0 00-1.561-1.522 3.21 3.21 0 00-1.966-.647c-.834 0-1.544.289-2.128.865a2.844 2.844 0 00-.879 2.1c0 .88.237 1.696.712 2.445.475.75 1.037 1.433 1.687 2.05l4.696 4.437c.21.207.468.311.773.311.304 0 .562-.104.773-.311" fill="#fff"/></g><defs><clipPath id="clip0_2002_7817"><path fill="#fff" transform="translate(.667 .814)" d="M0 0h35v35H0z"/></clipPath></defs></svg>