<svg width="318" height="221" fill="none" xmlns="http://www.w3.org/2000/svg"><path d="M200.581 158.501c-1.968-.371-3.756-1.024-5.363-1.959-1.607-.934-3.009-2.284-4.205-4.048l-43.121-63.16c-2.396-3.508-3.163-7.22-2.303-11.133.86-3.914 2.927-7.091 6.199-9.532 3.509-2.395 7.307-3.269 11.393-2.62 4.087.647 7.324 2.72 9.711 6.217l22.459 32.895L215.25-.381c.788-4.182 2.866-7.418 6.233-9.708 3.366-2.29 7.137-3.047 11.311-2.27 4.174.777 7.415 2.855 9.723 6.236 2.308 3.38 3.06 7.15 2.255 11.308l-19.898 105.542 32.895-22.459c3.509-2.395 7.284-3.15 11.326-2.267 4.042.885 7.255 3.085 9.639 6.602 2.15 3.463 2.917 7.174 2.303 11.134-.614 3.961-2.68 7.138-6.199 9.532l-63.159 43.121c-1.755 1.198-3.551 1.944-5.39 2.24-1.839.295-3.742.252-5.708-.129zm-100.882 48.62c-8.119-1.53-14.522-5.728-19.209-12.594-4.688-6.866-6.27-14.364-4.747-22.494l5.566-29.522c.788-4.183 2.866-7.419 6.233-9.709 3.366-2.29 7.137-3.046 11.31-2.269 4.175.776 7.416 2.855 9.724 6.235 2.308 3.38 3.06 7.15 2.255 11.309l-5.566 29.522 177.134 33.396 5.566-29.522c.788-4.182 2.866-7.419 6.233-9.709 3.366-2.29 7.137-3.046 11.311-2.269 4.174.777 7.415 2.855 9.723 6.235 2.308 3.38 3.06 7.15 2.255 11.309l-5.566 29.522c-1.53 8.119-5.73 14.527-12.597 19.224-6.867 4.697-14.365 6.275-22.491 4.732L99.699 207.121z" fill="#0187B2"/></svg>