<svg width="355" height="221" fill="none" xmlns="http://www.w3.org/2000/svg"><path d="M284.27-2.644c12.821 0 23.795.109 32.922.326 9.127.218 17.493.544 25.099.978 7.605.435 15.211.978 22.817 1.63l-7.498 25.425c-4.563-.435-13.364-.76-26.402-.978-13.038-.218-28.684-.326-46.938-.326-14.559 0-25.424 2.716-32.595 8.149-7.172 5.215-11.952 15.102-14.343 29.662-1.955 14.342-.543 25.533 4.238 33.573 4.781 7.823 14.451 11.735 29.01 11.735h74.318l-1.63 26.402c-4.346 0-8.8.109-13.364.326-4.563 0-9.779.109-15.646.326-5.65 0-12.169.109-19.557.326h-26.077c-8.04 0-14.668 1.847-19.883 5.541-5.215 3.477-9.561 9.345-13.038 17.602L207.67 225.2h-35.529l29.988-69.429c3.477-7.388 7.062-13.364 10.757-17.927 3.911-4.564 7.931-8.041 12.06-10.431 4.346-2.39 8.91-3.803 13.69-4.237l.326-1.304c-9.996-1.739-17.71-5.759-23.143-12.061-5.432-6.301-9.018-14.016-10.756-23.143-1.521-9.344-1.63-19.014-.326-29.01 2.173-15.21 6.41-27.163 12.712-35.855 6.302-8.91 14.994-15.211 26.077-18.905 11.299-3.695 24.881-5.542 40.744-5.542zM365.108.29L333.49 225.2h-32.922L332.186.29h32.922z" fill="#FBA579"/><path d="M147.576.29c3.042 0 5.541.978 7.497 2.934 2.173 1.738 3.368 3.911 3.585 6.519L199.403 225.2h-32.596L136.493 44.62l-1.303-9.779a185.182 185.182 0 01-.978-9.778h-9.779c-1.304 2.825-2.716 6.084-4.237 9.778a101.819 101.819 0 01-4.238 9.78L35.121 225.2H.569L102.268 8.765c.869-3.042 2.39-5.215 4.563-6.52C109.004.943 111.503.29 114.328.29h33.248zm22.817 129.405l-3.26 27.38H52.396l3.586-27.38h114.411z" fill="#FFC1A0"/></svg>