<svg width="200" height="52" fill="none" xmlns="http://www.w3.org/2000/svg"><g clip-path="url(#clip0_297_1136)"><path d="M68.929.073a20 20 0 011.615.055c.444.037.852.086 1.222.146.384.065.765.15 1.14.257L72.65 3.06a28.113 28.113 0 00-1.152-.045l-1.13-.02c-.401 0-.882-.008-1.442-.008-.498 0-.896.104-1.176.312-.28.208-.484.573-.593 1.098a11.438 11.438 0 00-.165 2.217c-.017.742.039 1.484.165 2.215.11.525.307.892.593 1.1.285.207.678.311 1.176.311.888 0 1.627-.012 2.217-.037a29.87 29.87 0 001.778-.129l.256 2.508a9.835 9.835 0 01-1.87.441c-.79.094-1.585.137-2.38.129-1.35 0-2.43-.21-3.239-.631-.808-.42-1.392-1.106-1.75-2.056-.36-.953-.54-2.235-.54-3.846.002-1.611.181-2.894.54-3.847.358-.952.942-1.637 1.75-2.056.81-.419 1.89-.633 3.24-.642zm13.997 3.754v2.49H73.84v-2.49h9.086zm-2.882 0v9.103h-3.301V3.827h3.301zm6.761 0l.33 1.542.327.275v5.99l-.091.219c.037.379.064.784.082 1.218.018.433.022.852.009 1.255v1.996H84.16V3.827h2.645zm3.704-.22c1.167 0 1.997.421 2.489 1.264.492.842.739 2.045.74 3.609 0 1.232-.129 2.187-.384 2.865-.256.679-.636 1.155-1.14 1.43-.505.274-1.134.412-1.888.412a5.9 5.9 0 01-1.897-.302 3.36 3.36 0 01-1.496-.999l.216-1.373c.317.097.611.191.885.284.328.099.67.145 1.012.137.261.014.52-.047.749-.175.181-.115.316-.348.4-.695.101-.515.144-1.04.128-1.566a7.744 7.744 0 00-.119-1.575c-.078-.355-.206-.589-.384-.706a1.265 1.265 0 00-.702-.173 2.216 2.216 0 00-.896.164c-.28.127-.552.274-.811.44l-.44-1.356a3 3 0 01.831-.86 4.318 4.318 0 011.25-.605c.471-.146.963-.22 1.457-.22zm12.331 3.737l-.019 1.685h-3.885a.901.901 0 00-.602.21.686.686 0 00-.2.522v.348a.669.669 0 00.227.541c.2.143.445.21.69.192.332-.006.66-.074.966-.202a4.757 4.757 0 001.003-.549c.313-.218.601-.47.858-.751v1.173a6.52 6.52 0 01-.447.732 5.62 5.62 0 01-.775.888 4.09 4.09 0 01-4.232.743 2.562 2.562 0 01-1.104-.861c-.286-.42-.43-.92-.41-1.43V9.67c0-.733.258-1.304.775-1.713.517-.41 1.22-.614 2.107-.613h5.048zm-2.463-3.774c.701-.019 1.4.093 2.061.33a2.46 2.46 0 011.28 1.1c.292.514.438 1.222.438 2.125v5.806h-2.648l-.456-1.96-.218-.33V7.105c-.013-.378-.108-.65-.283-.815-.176-.164-.497-.246-.959-.246-.462 0-1.057.009-1.75.027-.694.018-1.417.052-2.176.1l-.292-2.142c.45-.086.979-.162 1.587-.229a36.777 36.777 0 011.815-.166 26.928 26.928 0 011.601-.064zm13.991.257v2.49h-9.086v-2.49h9.086zm-2.882 0v9.103h-3.302V3.827h3.302zm8.61-.257c1.629 0 2.79.27 3.485.807.694.538 1.047 1.332 1.057 2.381.013.842-.221 1.458-.702 1.85-.48.39-1.316.585-2.508.585h-4.98v-1.67h4.05c.401 0 .657-.061.768-.183.111-.121.169-.341.174-.659 0-.355-.094-.593-.283-.714-.189-.122-.508-.183-.957-.184a2.169 2.169 0 00-.977.146c-.225.11-.38.33-.465.66a6.43 6.43 0 00-.128 1.484 5.717 5.717 0 00.154 1.52 1.173 1.173 0 00.566.75c.273.146.659.221 1.158.221a36.88 36.88 0 003.576-.202l.305 2.019c-.411.2-.845.352-1.292.452a10.93 10.93 0 01-1.45.238c-.499.049-.998.073-1.496.073-1.204 0-2.174-.171-2.91-.514a3.133 3.133 0 01-1.587-1.565c-.322-.703-.484-1.585-.484-2.647 0-1.199.165-2.152.493-2.857a2.98 2.98 0 011.578-1.53c.723-.307 1.675-.46 2.855-.46zm8.482.129c.84 0 1.706.012 2.599.037a14.99 14.99 0 012.4.238l-.164 2.325h-3.339a.822.822 0 00-.548.147c-.108.098-.163.275-.163.532v5.952h-3.284V6.006c0-.793.204-1.376.612-1.748.407-.373 1.037-.56 1.887-.56zm15.519.128v9.103l-2.956.037V8.85c0-.269.012-.529.037-.779.025-.25.055-.528.091-.834h-.073a6.836 6.836 0 01-.747 1.52l-2.828 4.177h-2.918V3.827h2.955v4.305c0 .226-.013.452-.037.677-.025.22-.055.463-.091.732h.073c.08-.245.183-.48.309-.705.123-.213.25-.424.384-.631l2.9-4.378h2.901zm11.352 0v9.103l-2.957.037V8.85c0-.269.013-.529.037-.779.025-.25.055-.528.091-.834h-.076a6.004 6.004 0 01-.338.806 6.107 6.107 0 01-.41.714l-2.828 4.177h-2.918V3.827h2.955v4.305c0 .226-.012.452-.037.677-.024.22-.054.464-.091.732h.073c.08-.245.184-.48.31-.705.122-.213.25-.424.384-.631l2.9-4.378h2.905zM68.181 22.793c1.195 0 2.15.155 2.864.466a2.917 2.917 0 011.55 1.524c.317.702.475 1.645.475 2.827s-.158 2.113-.475 2.792a2.921 2.921 0 01-1.55 1.502c-.718.313-1.673.469-2.864.468-1.19 0-2.14-.157-2.846-.468a2.959 2.959 0 01-1.56-1.502c-.321-.685-.482-1.616-.482-2.792 0-1.176.16-2.118.482-2.827a2.949 2.949 0 011.56-1.52c.722-.314 1.67-.47 2.846-.47zm0 2.326a1.557 1.557 0 00-.857.201c-.207.134-.353.378-.438.733a7.082 7.082 0 00-.128 1.557 6.968 6.968 0 00.128 1.542c.085.354.23.595.438.723.263.142.56.21.857.193.304.017.607-.05.876-.193.207-.128.35-.369.428-.723a7.512 7.512 0 00.12-1.542 7.634 7.634 0 00-.12-1.557c-.079-.355-.221-.6-.428-.733a1.6 1.6 0 00-.876-.201zm14.939-6.52l.476 2.527a4.612 4.612 0 01-1.242.476 6.514 6.514 0 01-1.167.146c-.377.013-.751.028-1.122.046a5.53 5.53 0 00-1.121.174c-.287.08-.562.194-.822.339a2.023 2.023 0 00-.857.944 1.831 1.831 0 00-.264.643l-.137.714h.073c.177-.19.369-.364.575-.521a3.347 3.347 0 011.532-.642c.352-.057.71-.085 1.067-.082.996 0 1.784.147 2.362.44a2.58 2.58 0 011.25 1.382c.255.628.383 1.455.383 2.482 0 1.05-.146 1.924-.437 2.62a3.029 3.029 0 01-1.46 1.563c-.683.343-1.607.517-2.772.522-.974 0-1.768-.098-2.382-.293a3.502 3.502 0 01-1.45-.825 3.214 3.214 0 01-.776-1.285 6.812 6.812 0 01-.31-1.638 27.827 27.827 0 01-.063-1.915 19.34 19.34 0 01.137-2.39c.077-.671.24-1.33.484-1.96a4.068 4.068 0 011.012-1.492 4.772 4.772 0 011.724-.99 6.8 6.8 0 011.359-.32 19.09 19.09 0 011.322-.12c.44-.023.879-.071 1.314-.143a5.405 5.405 0 001.313-.402zm-3.83 6.757c-.401 0-.706.068-.912.202a1.046 1.046 0 00-.42.696 9.015 9.015 0 00.018 2.903c.086.348.228.586.429.715a1.945 1.945 0 001.688 0c.207-.13.35-.367.429-.715a7.43 7.43 0 00.118-1.511 6.58 6.58 0 00-.118-1.438c-.08-.324-.214-.546-.402-.668a1.533 1.533 0 00-.83-.184zm9.613-2.307v9.103H85.71v-9.104h3.192zm11.821 6.887v2.216H88.776l-.02-2.216h11.968zm-6.75-6.887v9.103h-2.919v-9.104h2.92zm5.346 0v9.103h-3.175v-9.104h3.175zm1.407 9.01v2.618h-2.211l-.233-2.617h2.444zm5.816-9.266c1.63 0 2.791.268 3.484.806.693.536 1.044 1.33 1.053 2.38.011.843-.223 1.46-.702 1.85-.48.391-1.312.587-2.497.587h-4.991v-1.67h4.05c.402 0 .66-.062.776-.185.116-.122.173-.341.173-.659 0-.354-.094-.593-.283-.714-.188-.122-.512-.184-.957-.184-.427-.011-.752.038-.977.148-.224.11-.378.33-.46.659a6.31 6.31 0 00-.128 1.483 5.717 5.717 0 00.154 1.52 1.192 1.192 0 00.566.752c.274.146.659.22 1.158.22.402 0 .922-.016 1.56-.047.638-.03 1.31-.082 2.016-.155l.286 2.018a5.776 5.776 0 01-1.279.458c-.478.112-.962.192-1.45.238-.499.05-.998.074-1.496.074-1.205 0-2.175-.172-2.909-.514a3.131 3.131 0 01-1.588-1.566c-.323-.702-.483-1.584-.483-2.647 0-1.2.165-2.152.493-2.858a2.978 2.978 0 011.578-1.53c.722-.31 1.673-.464 2.853-.464zm10.379 0c.353 0 .742.018 1.167.054a10.4 10.4 0 011.28.192c.401.084.792.21 1.167.376l-.346 2.07c-.547 0-1.039-.003-1.477-.01a88.857 88.857 0 00-1.222-.008 2.76 2.76 0 00-1.077.173 1.06 1.06 0 00-.574.632c-.116.306-.174.746-.174 1.319-.018.441.04.882.171 1.304a1.053 1.053 0 00.575.642c.343.13.709.19 1.076.175.205 0 .464-.003.775-.009.312-.006.648-.018 1.008-.037.365-.018.729-.046 1.094-.082l.292 2.088a5.96 5.96 0 01-1.77.544 13.05 13.05 0 01-1.988.156c-1.155 0-2.079-.156-2.773-.468a2.813 2.813 0 01-1.487-1.52c-.299-.701-.447-1.633-.447-2.793 0-1.184.152-2.126.456-2.827a2.859 2.859 0 011.505-1.511c.704-.307 1.627-.46 2.769-.46zm13.499.256v2.49h-9.086v-2.49h9.086zm-2.882 0v9.103h-3.302v-9.104h3.302zm8.829-.109c1.024 0 1.829.07 2.416.21.587.14 1.013.385 1.28.732.261.348.392.84.393 1.474 0 .648-.153 1.14-.457 1.475-.305.336-.817.534-1.536.595v.073c.864.062 1.469.297 1.815.706.345.409.518.973.519 1.693 0 .624-.136 1.113-.409 1.466-.273.354-.696.601-1.269.742a9.627 9.627 0 01-2.225.21c-.778 0-1.465-.002-2.062-.008a60.146 60.146 0 01-1.65-.038c-.505-.018-1.016-.04-1.536-.064l.256-2.069c.28.012.818.02 1.615.027.797.007 1.735.01 2.815.01.24.007.479-.018.712-.074a.566.566 0 00.364-.284c.083-.187.121-.39.111-.595 0-.366-.089-.61-.265-.732-.177-.122-.496-.183-.958-.184h-4.415v-1.684h4.409c.221.006.441-.016.657-.065a.517.517 0 00.337-.246 1.03 1.03 0 00.1-.495.862.862 0 00-.11-.477.624.624 0 00-.364-.237 2.706 2.706 0 00-.712-.074c-.656 0-1.234-.003-1.733-.009a52.75 52.75 0 00-1.368 0c-.413.007-.815.02-1.204.045l-.256-2.014c.473-.037.939-.061 1.395-.074.455-.013.952-.02 1.487-.027.535-.006 1.154-.009 1.848-.009zm-1.606.108v9.158h-3.119v-9.158h3.119zm12.076-.255c1.63 0 2.791.268 3.484.806.693.536 1.046 1.33 1.058 2.38.011.843-.223 1.46-.702 1.85-.48.391-1.316.587-2.509.587h-4.979v-1.67h4.049c.402 0 .66-.062.775-.185.116-.122.173-.342.173-.659 0-.354-.094-.593-.281-.714-.19-.122-.512-.184-.959-.184-.426-.011-.751.038-.975.148-.225.109-.384.329-.466.659a6.42 6.42 0 00-.128 1.483 5.718 5.718 0 00.156 1.52 1.187 1.187 0 00.565.752c.274.146.658.22 1.151.22.402 0 .922-.016 1.56-.047.639-.03 1.311-.082 2.016-.155l.292 2.015a5.792 5.792 0 01-1.286.457 10.96 10.96 0 01-1.45.239 15.29 15.29 0 01-1.496.073c-1.203 0-2.173-.171-2.909-.514a3.13 3.13 0 01-1.587-1.566c-.322-.702-.484-1.584-.484-2.647 0-1.2.165-2.152.493-2.858a2.98 2.98 0 011.578-1.53c.728-.306 1.681-.46 2.861-.46zm9.303.256v9.103h-3.284v-9.104h3.284zm2.955 3.223v2.185h-3.083v-2.185h3.083zm3.083-3.223v9.103h-3.247v-9.104h3.247zm5.235 0v9.103h-3.282v-9.104h3.282zm2.956 3.223v2.185h-3.083v-2.185h3.083zm3.083-3.223v9.103h-3.249v-9.104h3.249zm5.163 0v9.103h-3.211v-9.104h3.211zm.966 3.004c1.118 0 2 .091 2.645.275.645.183 1.104.497 1.377.943.274.445.411 1.07.411 1.877 0 .806-.134 1.435-.402 1.886a2.156 2.156 0 01-1.258.952c-.573.185-1.308.276-2.208.275-.693 0-1.301-.003-1.824-.009a50.108 50.108 0 01-1.451-.036c-.444-.019-.895-.04-1.358-.064l.218-2.125c.243.013.712.024 1.408.037.696.013 1.508.018 2.444.018a2.4 2.4 0 00.685-.073.49.49 0 00.319-.311 2 2 0 00.09-.678c0-.429-.067-.713-.2-.852-.134-.14-.433-.21-.896-.211h-3.868v-1.904h3.868zm8.738-3.005v9.104h-3.339v-9.104h3.339zm4.559.001l2.336 4.45-2.537 4.653h-3.319l2.718-4.652-2.499-4.451h3.301zm3.485 3.443v1.942h-3.339v-1.942h3.339zm3.43-3.444l-2.519 4.452 2.718 4.652h-3.319l-2.539-4.652 2.353-4.451h3.306zM73.052 42.27v9.103l-2.955.038v-4.122c0-.268.011-.529.036-.772.024-.242.055-.528.09-.833h-.073a6.06 6.06 0 01-.336.805 6.234 6.234 0 01-.41.715l-2.83 4.176h-2.917v-9.11h2.955v4.304c0 .227-.012.453-.037.679-.024.22-.054.464-.09.732h.072c.08-.245.185-.481.311-.705.12-.214.248-.424.384-.631l2.9-4.378h2.9zm5.034-.238c.9-.014 1.798.045 2.688.175.688.115 1.19.35 1.505.705.316.355.474.892.475 1.611 0 .708-.155 1.222-.465 1.542-.31.32-.818.514-1.524.579v.073c.84.06 1.437.285 1.791.677.355.392.535.96.54 1.704 0 .732-.162 1.278-.484 1.638-.323.36-.806.595-1.45.706-.797.12-1.603.176-2.409.164-.705 0-1.41-.028-2.115-.082a16.41 16.41 0 01-2.176-.32l.22-2.162c.692.074 1.37.126 2.033.156.662.03 1.26.045 1.791.046.475 0 .794-.043.957-.128.164-.085.247-.3.247-.643a.773.773 0 00-.1-.44.533.533 0 00-.365-.192 6.326 6.326 0 00-.757-.064l-2.846-.054v-1.928l2.827-.055c.215-.004.429-.026.64-.064a.433.433 0 00.302-.182.793.793 0 00.082-.395.734.734 0 00-.101-.44.564.564 0 00-.356-.173 4.663 4.663 0 00-.768-.046 28.29 28.29 0 00-3.394.202l-.219-2.162a9.022 9.022 0 011.88-.375 21.87 21.87 0 011.551-.073zm18.022.238c.742 0 1.119.38 1.13 1.137l.238 7.967h-2.991l-.237-6.682h-.237l-1.076 4.415a1.248 1.248 0 01-.41.76 1.261 1.261 0 01-.831.265h-1.46a1.25 1.25 0 01-.828-.266 1.235 1.235 0 01-.411-.76l-1.114-4.414h-.22l-.181 6.681h-2.991l.219-7.966c.012-.758.396-1.137 1.152-1.136h2.79c.298-.014.592.077.83.257.23.2.37.483.393.788l.82 3.37c.06.219.104.442.128.668.024.226.042.455.055.688h.164c.024-.233.046-.462.064-.688.018-.226.058-.45.119-.668l.802-3.37c.108-.696.522-1.044 1.24-1.044l2.843-.001zm7.698-.256c1.631 0 2.792.269 3.485.806.693.537 1.046 1.33 1.058 2.38.012.843-.222 1.46-.702 1.85-.48.392-1.316.587-2.508.587h-4.981v-1.67h4.05c.4 0 .659-.061.776-.183.117-.122.174-.342.173-.66 0-.353-.095-.591-.283-.714-.188-.122-.512-.183-.958-.183-.426-.012-.751.036-.976.146-.225.11-.384.33-.464.66a6.319 6.319 0 00-.128 1.483 5.706 5.706 0 00.158 1.524 1.173 1.173 0 00.566.75c.274.147.659.22 1.158.22.402 0 .922-.015 1.56-.045s1.309-.081 2.012-.154l.291 2.015a5.817 5.817 0 01-1.279.457c-.478.111-.962.19-1.45.238-.499.05-.998.074-1.496.074-1.205 0-2.175-.172-2.91-.514a3.127 3.127 0 01-1.587-1.567c-.323-.701-.483-1.583-.483-2.646 0-1.199.164-2.151.492-2.857a2.982 2.982 0 011.578-1.53c.72-.311 1.669-.467 2.848-.467zm9.304.256v9.103h-3.284v-9.102h3.284zm2.961 3.225v2.184h-3.089v-2.184h3.089zm3.072-3.224v9.102h-3.242v-9.102h3.242zm6.5-.257c1.629 0 2.79.269 3.483.806.693.537 1.045 1.33 1.058 2.38.011.843-.223 1.46-.702 1.85-.48.392-1.316.587-2.509.587h-4.979v-1.67h4.049c.402 0 .66-.061.776-.183.115-.122.172-.342.172-.66 0-.354-.093-.592-.283-.714-.189-.122-.511-.183-.957-.183-.426-.012-.751.036-.975.146-.224.11-.384.33-.466.66-.1.487-.143.985-.128 1.483a5.79 5.79 0 00.155 1.524 1.173 1.173 0 00.566.75c.274.147.658.22 1.152.22.401 0 .921-.015 1.56-.045.638-.03 1.312-.081 2.021-.154l.292 2.015a5.835 5.835 0 01-1.279.457c-.478.112-.962.19-1.45.238-.499.05-.998.074-1.496.074-1.203 0-2.173-.172-2.909-.514a3.123 3.123 0 01-1.587-1.567c-.323-.701-.484-1.583-.484-2.646 0-1.199.164-2.151.493-2.857a2.973 2.973 0 011.578-1.53c.722-.311 1.672-.467 2.849-.467zm9.302.256v9.103h-3.284v-9.102h3.284zm2.955 3.225v2.184h-3.083v-2.184h3.083zm3.083-3.224v9.102h-3.247v-9.102h3.247zm11.346-.001v9.103l-2.955.038v-4.122a7.6 7.6 0 01.037-.771 38.4 38.4 0 01.091-.834h-.073a6.328 6.328 0 01-.338.806 6.02 6.02 0 01-.41.714l-2.828 4.176h-2.919v-9.11h2.955v4.304c0 .227-.012.454-.037.679a38.1 38.1 0 01-.091.732h.073a3.85 3.85 0 01.31-.705c.122-.214.25-.424.384-.631l2.899-4.378h2.902zm11.348 0v9.103l-2.956.038v-4.122c0-.268.013-.529.037-.771.025-.243.055-.528.091-.834h-.073a6.927 6.927 0 01-.747 1.52L157.2 51.38h-2.917v-9.11h2.955v4.304c0 .227-.013.453-.038.679-.024.219-.055.463-.09.732h.073c.08-.245.183-.48.309-.705.121-.214.249-.424.384-.631l2.9-4.378h2.901zm-3.613-4.047h2.062a2.412 2.412 0 01-.237 1.456 2.753 2.753 0 01-1.086 1.126 3.938 3.938 0 01-3.62 0 2.797 2.797 0 01-1.104-1.126 2.37 2.37 0 01-.247-1.456h2.062c-.049.549.024.93.219 1.144.194.214.486.321.875.321s.678-.107.867-.32c.188-.214.257-.596.208-1.145h.001z" fill="#182A34"/><path d="M25.618 51.883c14.148 0 25.617-11.515 25.617-25.721S39.765.44 25.618.44C11.469.44 0 11.956 0 26.162c0 14.206 11.47 25.721 25.618 25.721z" fill="#FEAF86"/><mask id="a" style="mask-type:luminance" maskUnits="userSpaceOnUse" x="0" y="0" width="52" height="52"><path d="M25.618 51.883c14.148 0 25.617-11.515 25.617-25.721S39.765.44 25.618.44C11.469.44 0 11.956 0 26.162c0 14.206 11.47 25.721 25.618 25.721z" fill="#fff"/></mask><g mask="url(#a)"><path d="M40.349 22.131l-2.745 1.739 4.037 6.423 2.744-1.738-4.036-6.424z" fill="#00B1CD"/><path d="M41.642 31.061a.768.768 0 01-.65-.36l-4.036-6.424a.77.77 0 01.24-1.064l2.744-1.739a.767.767 0 011.06.24l4.036 6.425a.77.77 0 01-.24 1.064l-2.744 1.739a.764.764 0 01-.41.12zm-2.978-6.954l3.218 5.12 1.446-.917-3.218-5.119-1.446.916zm-2.616-.722c1.178-.575 1.637-2.068 1.024-3.333-.613-1.266-2.065-1.825-3.243-1.25-1.179.575-1.637 2.068-1.024 3.333.612 1.266 2.065 1.825 3.243 1.25z" fill="#182A34"/><path d="M35.072 24.378a3.318 3.318 0 01-2.95-1.908 3.402 3.402 0 01-.203-2.49 3.06 3.06 0 011.574-1.879c1.557-.76 3.473-.04 4.27 1.605a3.4 3.4 0 01.203 2.49 3.06 3.06 0 01-1.58 1.874 2.987 2.987 0 01-1.314.308zm-.256-5.034a1.473 1.473 0 00-1.13.537 1.53 1.53 0 00-.295.554 1.86 1.86 0 00.116 1.36c.428.882 1.422 1.286 2.218.894a1.525 1.525 0 00.786-.942 1.868 1.868 0 00-.117-1.36 1.797 1.797 0 00-1.585-1.043h.007z" fill="#182A34"/><path d="M48.217 17.232c1.178-.576 1.636-2.068 1.024-3.333-.613-1.266-2.065-1.826-3.244-1.25-1.178.575-1.637 2.067-1.024 3.333.613 1.265 2.065 1.825 3.244 1.25z" fill="#FEAF86"/><path d="M47.24 18.23a3.318 3.318 0 01-1.754-.531 3.337 3.337 0 01-1.207-1.382c-.798-1.645-.18-3.598 1.378-4.37 1.557-.77 3.473-.039 4.27 1.607a3.41 3.41 0 01.208 2.492 3.053 3.053 0 01-1.582 1.873 2.98 2.98 0 01-1.313.311zm-.256-5.034a1.447 1.447 0 00-.646.149c-.796.385-1.096 1.42-.67 2.301.426.88 1.422 1.285 2.217.9a1.52 1.52 0 00.785-.942 1.854 1.854 0 00-.116-1.361 1.797 1.797 0 00-1.574-1.051l.004.004z" fill="#182A34"/><path d="M33.4 16.56s-.51 2.955 1.025 5.42c1.535 2.464 3.089 2.819 3.089 2.819s2.95-1.952 6.025-2.856c4.005-1.175 8.413 1.231 10.002.499 1.214-.56-3.57-17.122-8.333-17.208-1.57-.028-2.088 6.272-6.058 8.61-3.39 1.996-5.75 2.716-5.75 2.716z" fill="#00B1CD"/><path d="M37.514 25.563a.767.767 0 01-.17-.02c-.191-.043-1.906-.502-3.57-3.16-1.68-2.684-1.151-5.83-1.133-5.963a.772.772 0 01.535-.606c.023 0 2.329-.717 5.584-2.638 2.08-1.226 3.133-3.698 3.98-5.684.75-1.76 1.294-3.037 2.452-3.037h.028c1.92.035 3.868 2.009 5.776 5.866a42.072 42.072 0 013.212 9.21c.477 2.292.384 3.268-.347 3.605-.896.413-2.154.148-3.743-.189-1.884-.4-4.23-.9-6.363-.271-2.924.858-5.79 2.74-5.819 2.759a.767.767 0 01-.422.128zm-3.408-8.437c-.063.855-.061 2.791.969 4.437.962 1.542 1.908 2.15 2.354 2.37.878-.545 3.328-1.98 5.895-2.736 2.504-.735 5.059-.193 7.111.243.98.207 1.986.421 2.538.357.062-1.695-2.048-9.58-5.092-13.732-.962-1.31-1.873-2.024-2.64-2.065-.28.2-.746 1.294-1.089 2.1-.886 2.077-2.099 4.923-4.614 6.406-2.568 1.515-4.555 2.31-5.432 2.62z" fill="#182A34"/><mask id="b" style="mask-type:luminance" maskUnits="userSpaceOnUse" x="33" y="5" width="21" height="20"><path d="M33.4 16.56s-.51 2.955 1.025 5.42c1.535 2.464 3.089 2.819 3.089 2.819s2.95-1.952 6.025-2.856c4.005-1.175 8.413 1.231 10.002.499 1.214-.56-3.57-17.122-8.333-17.208-1.57-.028-2.088 6.272-6.058 8.61-3.39 1.996-5.75 2.716-5.75 2.716z" fill="#fff"/></mask><g mask="url(#b)"><path d="M38.016 13.16s.178 3.447 1.507 6.192c1.33 2.744 4.545 4.543 4.545 4.543l-7.87 3.062-6.598-9.842 8.416-3.954z" fill="#FEAF86"/><path d="M36.199 27.728a.762.762 0 01-.64-.34l-6.599-9.843a.774.774 0 01.313-1.13l8.415-3.953a.766.766 0 011.093.66c0 .031.187 3.327 1.43 5.892 1.206 2.487 4.198 4.191 4.224 4.208a.77.77 0 01.243 1.13.77.77 0 01-.34.261l-7.866 3.062a.773.773 0 01-.273.053zm-5.461-10.297l5.759 8.584 5.913-2.3c-1.123-.831-2.701-2.23-3.571-4.027-.92-1.897-1.315-4.077-1.477-5.367l-6.624 3.11z" fill="#182A34"/></g><path d="M37.514 25.563a.767.767 0 01-.17-.02c-.191-.043-1.906-.502-3.57-3.16-1.68-2.684-1.151-5.83-1.133-5.963a.772.772 0 01.535-.606c.023 0 2.329-.717 5.584-2.638 2.08-1.226 3.133-3.698 3.98-5.684.75-1.76 1.294-3.037 2.452-3.037h.028c1.92.035 3.868 2.009 5.776 5.866a42.072 42.072 0 013.212 9.21c.477 2.292.384 3.268-.347 3.605-.896.413-2.154.148-3.743-.189-1.884-.4-4.23-.9-6.363-.271-2.924.858-5.79 2.74-5.819 2.759a.767.767 0 01-.422.128zm-3.408-8.437c-.063.855-.061 2.791.969 4.437.962 1.542 1.908 2.15 2.354 2.37.878-.545 3.328-1.98 5.895-2.736 2.504-.735 5.059-.193 7.111.243.98.207 1.986.421 2.538.357.062-1.695-2.048-9.58-5.092-13.732-.962-1.31-1.873-2.024-2.64-2.065-.28.2-.746 1.294-1.089 2.1-.886 2.077-2.099 4.923-4.614 6.406-2.568 1.515-4.555 2.31-5.432 2.62z" fill="#182A34"/><path d="M53.54 22.439c1.663-.812 1.145-5.323-1.156-10.075-2.3-4.752-5.514-7.946-7.177-7.134-1.663.812-1.145 5.322 1.156 10.074s5.514 7.946 7.177 7.135z" fill="#182A34"/><path d="M52.963 23.337c-2.343 0-5.32-3.63-7.295-7.699-1.151-2.374-1.91-4.776-2.137-6.762-.331-2.889.543-3.955 1.335-4.342.792-.387 2.168-.419 4.223 1.627 1.415 1.413 2.828 3.49 3.979 5.864 1.15 2.375 1.909 4.776 2.137 6.763.331 2.887-.544 3.955-1.336 4.341a2.057 2.057 0 01-.906.208zM45.775 5.874a.524.524 0 00-.232.046c-.377.184-.673 1.116-.481 2.778.208 1.82.916 4.044 1.992 6.267 1.076 2.223 2.382 4.154 3.678 5.45 1.185 1.176 2.096 1.518 2.474 1.334.378-.183.672-1.115.481-2.778-.209-1.82-.916-4.043-1.992-6.266-1.077-2.222-2.383-4.154-3.678-5.443-.988-.982-1.786-1.388-2.242-1.388z" fill="#182A34"/><mask id="c" style="mask-type:luminance" maskUnits="userSpaceOnUse" x="44" y="5" width="11" height="18"><path d="M53.542 22.439c1.662-.812 1.145-5.323-1.156-10.075-2.302-4.752-5.515-7.946-7.178-7.134-1.663.812-1.145 5.322 1.156 10.074s5.515 7.946 7.178 7.135z" fill="#fff"/></mask><g mask="url(#c)"><path d="M48.608 18.04c1.594-.779 2.214-2.797 1.385-4.509-.829-1.712-2.793-2.468-4.387-1.69-1.594.778-2.214 2.797-1.386 4.508.83 1.712 2.794 2.469 4.388 1.69z" fill="#DBF06D"/><path d="M47.282 19.116a3.953 3.953 0 01-1.428-.27 4.379 4.379 0 01-2.323-2.162 4.406 4.406 0 01-.26-3.169 3.852 3.852 0 012-2.368 3.82 3.82 0 013.091-.113 4.376 4.376 0 012.323 2.161c.477.987.57 2.118.258 3.17a3.862 3.862 0 01-1.999 2.37 3.767 3.767 0 01-1.662.381zm-.347-6.81a2.25 2.25 0 00-.993.23 2.327 2.327 0 00-1.203 1.437 2.859 2.859 0 00.173 2.04 2.842 2.842 0 001.49 1.396 2.288 2.288 0 002.623-.653c.207-.247.36-.536.45-.847a2.785 2.785 0 00-.172-2.048 2.772 2.772 0 00-1.491-1.397 2.449 2.449 0 00-.877-.16v.002z" fill="#182A34"/></g><path d="M52.963 23.337c-2.343 0-5.32-3.63-7.295-7.699-1.151-2.374-1.91-4.776-2.137-6.762-.331-2.889.543-3.955 1.335-4.342.792-.387 2.168-.419 4.223 1.627 1.415 1.413 2.828 3.49 3.979 5.864 1.15 2.375 1.909 4.776 2.137 6.763.331 2.887-.544 3.955-1.336 4.341a2.057 2.057 0 01-.906.208zM45.775 5.874a.524.524 0 00-.232.046c-.377.184-.673 1.116-.481 2.778.208 1.82.916 4.044 1.992 6.267 1.076 2.223 2.382 4.154 3.678 5.45 1.185 1.176 2.096 1.518 2.474 1.334.378-.183.672-1.115.481-2.778-.209-1.82-.916-4.043-1.992-6.266-1.077-2.222-2.383-4.154-3.678-5.443-.988-.982-1.786-1.388-2.242-1.388zM4.772 54.336S.214 60.57-.698 64.053c-.936 3.585.872 5.268 2.142 4.894 1.725-.503 3.12-2.14 4.529-6.21 1.407-4.069 3.983-7.758 3.983-7.758s-.742 7.492-.171 10.135c.57 2.643 2.161 6.434 4.569 6.271 2.407-.163 1.92-4.7 1.595-6.553-.323-1.853 1.806-9.509 3.386-10.21 1.58-.702 4.664 1.354 6.334 3.11 1.67 1.755 2.687 1.99 4.08 7.528 1.322 5.249 4.535 5.605 5.933 3.373 1.397-2.232.305-6.733-1.358-9.654-1.664-2.92-5.896-5.888-5.182-7.558.274-.643 2.444-.998 5.406.843 3.351 2.083-5.236-8.772-5.236-8.772l-16.643.615-7.897 10.23z" fill="#182A34"/><path d="M14.205 72.161c-2.705 0-4.468-3.671-5.164-6.882-.345-1.595-.244-4.754-.094-7.176a31.342 31.342 0 00-2.244 4.882c-1.407 4.075-2.915 6.078-5.038 6.697-.768.224-1.613-.02-2.259-.654-.526-.514-1.657-2.045-.84-5.175.937-3.585 5.405-9.715 5.594-9.974l.012-.015 7.895-10.235a.768.768 0 01.578-.298l16.646-.618a.77.77 0 01.629.292c.017.02 1.673 2.115 3.231 4.267.924 1.272 1.636 2.32 2.117 3.11.768 1.263 1.09 2.057.596 2.608-.564.636-1.43.099-1.714-.079-2.351-1.46-3.959-1.32-4.316-1.128-.098.598 1.336 2.16 2.297 3.213 1.059 1.156 2.154 2.347 2.866 3.597 1.82 3.196 2.907 7.943 1.34 10.447-.76 1.215-1.967 1.822-3.228 1.621-1.844-.293-3.337-2.193-4.095-5.215-1.129-4.484-1.932-5.268-3.15-6.445a26.543 26.543 0 01-.74-.74c-1.843-1.936-4.5-3.363-5.469-2.936-.313.147-1.13 1.424-1.99 4.218-.738 2.398-1.062 4.504-.95 5.155.307 1.772.64 4.98-.584 6.544a2.339 2.339 0 01-1.926.919zM9.956 54.208a.769.769 0 01.764.847c0 .074-.725 7.4-.184 9.894.628 2.898 2.123 5.782 3.765 5.664a.789.789 0 00.612-.326c.597-.764.707-2.856.279-5.328-.203-1.172.358-3.809 1.003-5.9.64-2.056 1.643-4.626 2.833-5.15 2.09-.92 5.522 1.526 7.196 3.284.243.257.474.48.698.696 1.305 1.266 2.335 2.267 3.572 7.177.593 2.36 1.663 3.881 2.848 4.07.64.103 1.26-.232 1.69-.918 1.187-1.898.21-6.078-1.375-8.866-.625-1.1-1.664-2.227-2.662-3.318-1.707-1.862-3.181-3.47-2.56-4.926.114-.268.385-.631 1.04-.837.895-.285 2.452-.21 4.35.706-1.033-1.643-3.001-4.33-4.872-6.71l-15.9.597-7.667 9.94c-.179.246-4.49 6.197-5.34 9.446-.63 2.412.165 3.425.425 3.68.26.254.53.344.759.277 1.12-.327 2.481-1.263 4.017-5.723 1.424-4.124 3.973-7.792 4.08-7.946a.77.77 0 01.63-.33z" fill="#182A34"/><path d="M14.205 72.161c-2.705 0-4.468-3.671-5.164-6.882-.345-1.595-.244-4.754-.094-7.176a31.342 31.342 0 00-2.244 4.882c-1.407 4.075-2.915 6.078-5.038 6.697-.768.224-1.613-.02-2.259-.654-.526-.514-1.657-2.045-.84-5.175.937-3.585 5.405-9.715 5.594-9.974l.012-.015 7.895-10.235a.768.768 0 01.578-.298l16.646-.618a.77.77 0 01.629.292c.017.02 1.673 2.115 3.231 4.267.924 1.272 1.636 2.32 2.117 3.11.768 1.263 1.09 2.057.596 2.608-.564.636-1.43.099-1.714-.079-2.351-1.46-3.959-1.32-4.316-1.128-.098.598 1.336 2.16 2.297 3.213 1.059 1.156 2.154 2.347 2.866 3.597 1.82 3.196 2.907 7.943 1.34 10.447-.76 1.215-1.967 1.822-3.228 1.621-1.844-.293-3.337-2.193-4.095-5.215-1.129-4.484-1.932-5.268-3.15-6.445a26.543 26.543 0 01-.74-.74c-1.843-1.936-4.5-3.363-5.469-2.936-.313.147-1.13 1.424-1.99 4.218-.738 2.398-1.062 4.504-.95 5.155.307 1.772.64 4.98-.584 6.544a2.339 2.339 0 01-1.926.919zM9.956 54.208a.769.769 0 01.764.847c0 .074-.725 7.4-.184 9.894.628 2.898 2.123 5.782 3.765 5.664a.789.789 0 00.612-.326c.597-.764.707-2.856.279-5.328-.203-1.172.358-3.809 1.003-5.9.64-2.056 1.643-4.626 2.833-5.15 2.09-.92 5.522 1.526 7.196 3.284.243.257.474.48.698.696 1.305 1.266 2.335 2.267 3.572 7.177.593 2.36 1.663 3.881 2.848 4.07.64.103 1.26-.232 1.69-.918 1.187-1.898.21-6.078-1.375-8.866-.625-1.1-1.664-2.227-2.662-3.318-1.707-1.862-3.181-3.47-2.56-4.926.114-.268.385-.631 1.04-.837.895-.285 2.452-.21 4.35.706-1.033-1.643-3.001-4.33-4.872-6.71l-15.9.597-7.667 9.94c-.179.246-4.49 6.197-5.34 9.446-.63 2.412.165 3.425.425 3.68.26.254.53.344.759.277 1.12-.327 2.481-1.263 4.017-5.723 1.424-4.124 3.973-7.792 4.08-7.946a.77.77 0 01.63-.33z" fill="#182A34"/><path d="M29.796 24.261l-.552-2.842a12.667 12.667 0 00-5.326-8.08 12.57 12.57 0 00-14.014-.064 12.67 12.67 0 00-3.498 3.478 12.693 12.693 0 00-1.927 9.501l.563 2.908s-2.54 1.518-1.791 5.389c.64 3.296 3.543 3.662 3.543 3.662l.57 2.956c.446 2.3-.327 5.389-1.637 6.81-1.28 1.382-6.234 4.645-8.222 5.706-1.99 1.061-5.677 3.268-6.558 5.643-.88 2.376-.203 4.49 1.069 4.733 1.899.363 4.095-3.125 6.679-4.549 1.892-1.04 7.623-3.967 9.287-5.241 3.342-2.56 5.11-7.608 7.597-7.36 2.487.248 2.125 2.156 1.777 3.816-.348 1.66-3.584 7.923-1.873 14.263s5.365 8.807 7.77 8.644c2.407-.164 3.352-2.254 2.982-3.836-.372-1.582-5.84-5.286-5.867-9.199-.027-3.912 1.143-7.324 2.432-9.78 1.288-2.455 1.899-4.102 3.62-4.011 1.721.091 4.41 3.983 6.117 5.236 1.707 1.253 5.896 4.539 7.67 6.151 1.776 1.613 3.968 5.348 6.311 5.195 2.343-.153 2.716-2.979 2.466-4.582-.25-1.604-1.456-4.369-4.133-6.233-2.678-1.865-6.294-4.078-8.319-5.782 1.722.705 4.856 2.003 9.254 1.383 5.366-.754 7.7-5.947 7.542-11.726-.128-4.52-7.06-11.03-12.81-9.67-3.254.77-1.687 5.14-.158 6.047 3.663 2.163 5.608 5.878 3.79 8.848-1.535 2.513-3.377 2.827-6.861 1.114-3.57-1.752-4.863-4.988-5.484-8.172-.232-1.175-.256-1.317-.256-1.317s2.484-2.21 1.894-4.817c-.542-2.39-3.647-4.222-3.647-4.222z" fill="#007AA1"/><path d="M11.496 18.779c-.556-.296-1.536-.589-2.676.43-1.14 1.019-.864 3.567.418 4.05 1.283.483 2.493-.822 2.88-1.663.386-.84.312-2.317-.622-2.817zm2.264-3.411c-.277-.147-.767-.294-1.336.216-.57.51-.433 1.782.208 2.025.641.243 1.247-.412 1.44-.832.193-.42.156-1.16-.311-1.409zM-6.783 63.845s.456-4.34 3.955-6.737c3.499-2.396 7.861-3.157 10.762-4.884a29.582 29.582 0 005.355-4.123c.423-.414-4.17 5.362-6.549 6.774C4.361 56.287-.71 58.9-2.1 59.907c-1.39 1.006-4.683 3.938-4.683 3.938zm31.129-15.839s-4.66 3.148-6.102 7.744c-1.442 4.596-.256 7.9 1.072 10.259 1.329 2.359 5.685 5.5 6.61 5.09.925-.41.628-2.184-.809-3.469-1.437-1.285-4.385-4.228-4.589-7.173-.203-2.945.64-8.606 3.818-12.451zm4.689.526s3.91 2.144 7.678 2.925c3.767.781 7.092 3.802 8.14 5.434 1.048 1.632 3.455 6.06 2.56 6.28-.896.22-3.072-.312-4.697-2.184s-3.608-3.52-5.825-5.291c-2.218-1.77-7.149-5.297-7.856-7.163zm14.239-2.246s3.593-1.003 5.2-3.552c3.1-4.92 1.737-9.008-.311-11.666-1.134-1.469-4.972-3.949-6.256-1.88-1.283 2.069.762 3.212 2.323 4.834 1.323 1.37 3.148 3.34 2.591 6.197-.45 2.313-1.854 4.609-3.547 6.067z" fill="#00B1CD"/><path d="M5.047 29.933a.766.766 0 01-.754-.623L3.73 26.4a13.479 13.479 0 012.041-10.075 13.377 13.377 0 018.54-5.675c3.483-.68 7.093.057 10.035 2.049a13.438 13.438 0 015.652 8.574l.552 2.842a.774.774 0 01-.608.904.766.766 0 01-.9-.61l-.55-2.838a11.896 11.896 0 00-5.034-7.493 11.807 11.807 0 00-8.825-1.776 11.842 11.842 0 00-7.521 4.965 11.932 11.932 0 00-1.874 8.84l.563 2.909a.774.774 0 01-.754.917zm17.988 44.47c-2.84 0-6.55-2.827-8.281-9.22-1.445-5.311.403-10.461 1.395-13.222.177-.459.331-.927.462-1.4.17-.81.403-1.918.036-2.423-.185-.257-.567-.41-1.137-.468-1-.097-2.13 1.43-3.327 3.047-1.043 1.413-2.225 3.008-3.73 4.16-1.329 1.018-4.931 2.929-7.557 4.328-.746.396-1.39.738-1.823.977-.964.53-1.899 1.399-2.802 2.24-1.48 1.377-2.88 2.677-4.39 2.39-.648-.13-1.212-.56-1.585-1.227-.655-1.169-.677-2.864-.058-4.533.896-2.441 4.26-4.637 6.91-6.056 2.048-1.092 6.874-4.308 8.02-5.55 1.147-1.24 1.838-4.125 1.448-6.137l-.57-2.95a.773.773 0 01.613-.86.765.765 0 01.891.566l.571 2.95c.486 2.506-.334 5.862-1.829 7.48-1.357 1.473-6.42 4.792-8.42 5.863-3.425 1.828-5.631 3.685-6.2 5.231-.546 1.474-.364 2.666-.041 3.24.103.186.281.418.534.467.75.143 1.92-.95 3.058-2.004.972-.9 1.977-1.841 3.108-2.464.443-.242 1.092-.587 1.843-.986 2.432-1.294 6.12-3.25 7.35-4.192 1.33-1.019 2.444-2.524 3.427-3.855 1.526-2.064 2.846-3.854 4.712-3.662 1.023.103 1.77.47 2.223 1.093.767 1.059.47 2.496.227 3.65-.141.545-.315 1.08-.52 1.604-.933 2.606-2.673 7.452-1.362 12.295 1.663 6.168 5.09 8.206 6.978 8.077.813-.055 1.462-.385 1.878-.947a2.418 2.418 0 00.404-1.927c-.084-.362-.964-1.303-1.67-2.056-1.771-1.895-4.198-4.49-4.217-7.311-.03-4.369 1.357-7.927 2.524-10.151.157-.298.303-.585.444-.857 1.05-2.056 1.88-3.667 3.888-3.563 1.407.074 2.9 1.678 4.479 3.374.767.821 1.485 1.596 2.047 2.01 1.695 1.242 5.918 4.548 7.738 6.2.6.578 1.165 1.193 1.691 1.84 1.265 1.483 2.694 3.16 3.968 3.16h.091a1.548 1.548 0 001.175-.596c.612-.77.73-2.143.581-3.098-.198-1.277-1.224-3.918-3.812-5.72-.88-.612-1.845-1.25-2.866-1.927-2.026-1.341-4.12-2.729-5.503-3.897a.772.772 0 01.252-1.323.765.765 0 01.532.02c.15.06.307.128.474.197 1.707.72 4.287 1.81 8.08 1.194 1.758-.287 3.518-1.542 4.83-3.456 1.684-2.454 2.363-5.505 1.818-8.164-.545-2.659-3.119-5.957-5.975-7.63-1.254-.735-3.13-1.486-4.953-.9-1.114.36-1.751.92-1.895 1.665-.214 1.116.67 2.62 1.645 3.432.322.267.68.537 1.06.822 2.228 1.67 5.282 3.972 3.186 8.29-.676 1.393-1.628 2.313-2.828 2.724-1.458.504-3.248.243-5.32-.77-4.153-2.037-5.357-5.95-5.901-8.716-.227-1.157-.256-1.322-.256-1.338a.774.774 0 01.626-.903.768.768 0 01.888.646s.032.18.256 1.297c.774 3.936 2.338 6.29 5.069 7.628 1.693.83 3.087 1.067 4.145.7.813-.28 1.45-.915 1.948-1.94 1.433-2.955-.149-4.444-2.726-6.382a28.59 28.59 0 01-1.117-.867c-1.295-1.074-2.528-3.07-2.176-4.912.177-.92.828-2.16 2.933-2.84 1.87-.604 4.012-.247 6.195 1.028 3.247 1.903 6.068 5.54 6.706 8.65.63 3.063-.14 6.553-2.058 9.352-1.57 2.287-3.647 3.744-5.85 4.101-1.56.264-3.152.269-4.714.016.489.329.988.659 1.482.986.983.652 2 1.325 2.896 1.948 2.815 1.962 4.16 4.861 4.455 6.748.19 1.225.069 3.083-.896 4.301a3.089 3.089 0 01-2.274 1.17h-.193c-1.974 0-3.645-1.962-5.126-3.7a19.669 19.669 0 00-1.556-1.7c-1.782-1.619-5.94-4.87-7.61-6.1-.678-.5-1.448-1.325-2.262-2.2-1.12-1.202-2.652-2.846-3.442-2.889-.937-.05-1.365.626-2.442 2.73-.142.277-.292.569-.451.872-1.109 2.069-2.388 5.376-2.364 9.421.015 2.216 2.202 4.558 3.8 6.267 1.085 1.156 1.869 1.998 2.048 2.762a3.96 3.96 0 01-.665 3.201c-.682.926-1.751 1.484-3.009 1.57a5.27 5.27 0 01-.279.01z" fill="#182A34"/><path d="M7.006 38.172a3.01 3.01 0 01-1.048-.07 4.061 4.061 0 01-1.01-.386 4.673 4.673 0 01-1.628-1.497 6.152 6.152 0 01-.889-2.03 5.29 5.29 0 01-.112-.56 4.55 4.55 0 01.102-1.779 4.59 4.59 0 01.447-1.096c.094-.168.197-.332.308-.49a5.99 5.99 0 01.356-.443 7.134 7.134 0 011.687-1.377 9.612 9.612 0 011.908-.861c.653-.22 1.33-.36 2.015-.416-.588.352-1.151.702-1.7 1.071-.536.36-1.052.75-1.543 1.17-.954.818-1.741 1.777-1.993 2.828a3.507 3.507 0 00-.083 1.211 7.649 7.649 0 00.273 1.303c.04.145.089.285.139.427.05.141.108.276.171.411a5.094 5.094 0 002.6 2.584z" fill="#182A34"/><path d="M6.782 38.904H6.71c-.141-.014-3.471-.379-4.352-4.904a.774.774 0 01.608-.904.769.769 0 01.9.61c.649 3.352 2.895 3.653 2.99 3.664a.768.768 0 01.445 1.335.766.766 0 01-.519.2z" fill="#182A34"/><path d="M9.023 36.368a3.396 3.396 0 003.39-3.403 3.396 3.396 0 00-3.39-3.402 3.396 3.396 0 00-3.388 3.402 3.396 3.396 0 003.388 3.403z" fill="#DEFBFF"/><path d="M9.022 37.14a4.147 4.147 0 01-2.56-.885 4.19 4.19 0 01-1.239-4.987A4.168 4.168 0 017.07 29.28a4.144 4.144 0 015.042.891 4.184 4.184 0 01-1.138 6.478c-.6.321-1.27.49-1.95.491zm0-6.81a2.613 2.613 0 00-1.51.477 2.63 2.63 0 00-1.023 2.849c.142.523.442.99.858 1.334a2.613 2.613 0 004.061-.952 2.632 2.632 0 00-.721-3.1 2.613 2.613 0 00-1.659-.604l-.006-.004z" fill="#182A34"/><path d="M9.023 34.52c.856 0 1.549-.696 1.549-1.555 0-.858-.693-1.554-1.549-1.554-.855 0-1.548.696-1.548 1.554 0 .86.693 1.555 1.548 1.555zm22.342-1.104a5.122 5.122 0 001.448-3.375v-.446c0-.148-.014-.298-.03-.447a7.357 7.357 0 00-.136-.9 3.848 3.848 0 00-.63-1.51c-.627-.88-1.714-1.473-2.904-1.871a16.315 16.315 0 00-1.866-.502c-.64-.136-1.3-.249-1.976-.353a8.425 8.425 0 012.024-.372 9.518 9.518 0 012.09.08 7.068 7.068 0 012.078.642c.168.083.333.177.496.277.162.1.317.215.468.338a4.498 4.498 0 011.58 2.46c.045.185.08.373.104.562a6.175 6.175 0 01-.063 2.216 4.697 4.697 0 01-.95 2c-.231.28-.498.527-.794.736a2.99 2.99 0 01-.94.465z" fill="#182A34"/><path d="M31.556 34.07a.767.767 0 01-.738-.585.774.774 0 01.378-.864c.097-.054 2.048-1.182 1.408-4.522a.773.773 0 01.607-.903.765.765 0 01.9.61c.877 4.525-2.073 6.116-2.2 6.181a.757.757 0 01-.355.082z" fill="#182A34"/><path d="M27.55 32.75a3.396 3.396 0 003.389-3.401 3.396 3.396 0 00-3.389-3.403 3.396 3.396 0 00-3.389 3.402 3.396 3.396 0 003.39 3.403z" fill="#DEFBFF"/><path d="M27.55 33.52a4.154 4.154 0 01-2.642-.954 4.183 4.183 0 01-1.15-4.923 4.157 4.157 0 011.667-1.88 4.142 4.142 0 014.767.366 4.187 4.187 0 01-.252 6.631c-.7.495-1.534.76-2.39.76zm-2.572-3.67a2.62 2.62 0 003.566 1.938c.48-.198.891-.533 1.182-.965a2.642 2.642 0 00.013-2.926 2.623 2.623 0 00-2.688-1.131 2.625 2.625 0 00-1.671 1.112 2.644 2.644 0 00-.402 1.971z" fill="#182A34"/><path d="M27.55 30.903c.855 0 1.549-.696 1.549-1.554 0-.86-.694-1.555-1.549-1.555s-1.549.696-1.549 1.555c0 .858.694 1.554 1.55 1.554zm-8.372 6.504c-.996 0-2.058-.439-2.585-1.694a.774.774 0 01.416-.993.766.766 0 01.998.393c.344.818 1.116.8 1.546.715.733-.142 1.104-.555 1.167-1.297a.775.775 0 01.832-.707.77.77 0 01.704.835c-.12 1.43-.997 2.407-2.405 2.682a3.466 3.466 0 01-.673.066z" fill="#182A34"/></g><path d="M37.514 25.563a.766.766 0 01-.17-.02c-.19-.043-1.906-.502-3.57-3.16-1.68-2.684-1.151-5.83-1.133-5.963a.773.773 0 01.535-.606c.023 0 2.329-.717 5.584-2.638 2.08-1.226 3.133-3.698 3.98-5.684.75-1.76 1.294-3.036 2.452-3.036h.028c1.92.034 3.868 2.008 5.776 5.865a42.068 42.068 0 013.212 9.21c.477 2.292.384 3.268-.347 3.605-.896.414-2.154.148-3.743-.189-1.884-.4-4.23-.9-6.363-.271-2.924.858-5.79 2.74-5.819 2.759a.765.765 0 01-.422.128zm-3.408-8.437c-.063.855-.061 2.791.969 4.437.962 1.542 1.908 2.15 2.354 2.37.878-.545 3.328-1.98 5.895-2.736 2.504-.735 5.059-.193 7.111.243.98.207 1.986.421 2.538.357.062-1.695-2.047-9.58-5.092-13.732-.962-1.31-1.874-2.024-2.64-2.065-.28.2-.746 1.294-1.09 2.1-.885 2.077-2.098 4.923-4.613 6.406-2.568 1.515-4.555 2.31-5.432 2.62z" fill="#182A34"/><path d="M53.54 22.439c1.663-.812 1.145-5.323-1.156-10.075-2.3-4.752-5.514-7.946-7.177-7.134-1.663.812-1.145 5.322 1.156 10.074s5.514 7.947 7.177 7.135z" fill="#182A34"/><path d="M52.963 23.338c-2.343 0-5.32-3.63-7.295-7.7-1.151-2.374-1.91-4.776-2.137-6.762-.331-2.889.543-3.955 1.335-4.342.792-.387 2.168-.419 4.223 1.627 1.415 1.413 2.828 3.49 3.979 5.864 1.15 2.375 1.909 4.776 2.137 6.763.331 2.887-.544 3.955-1.336 4.341a2.058 2.058 0 01-.906.209zM45.775 5.874a.524.524 0 00-.232.046c-.377.184-.673 1.116-.481 2.778.208 1.82.916 4.044 1.992 6.267 1.076 2.223 2.382 4.154 3.678 5.45 1.185 1.176 2.096 1.518 2.474 1.334.378-.183.672-1.115.481-2.778-.209-1.82-.916-4.043-1.992-6.266-1.077-2.222-2.383-4.154-3.678-5.443-.988-.982-1.786-1.388-2.242-1.388z" fill="#182A34"/><mask id="d" style="mask-type:luminance" maskUnits="userSpaceOnUse" x="44" y="5" width="11" height="18"><path d="M53.542 22.439c1.662-.812 1.145-5.323-1.156-10.075-2.302-4.752-5.515-7.946-7.178-7.134-1.663.812-1.145 5.322 1.156 10.074s5.515 7.946 7.178 7.135z" fill="#fff"/></mask><g mask="url(#d)"><path d="M48.608 18.04c1.594-.779 2.214-2.797 1.385-4.509-.829-1.712-2.793-2.468-4.387-1.69-1.594.778-2.214 2.797-1.386 4.508.83 1.712 2.794 2.469 4.388 1.69z" fill="#FEAF86"/><path d="M47.282 19.116a3.954 3.954 0 01-1.428-.27 4.379 4.379 0 01-2.323-2.162 4.406 4.406 0 01-.26-3.169 3.85 3.85 0 012-2.368 3.82 3.82 0 013.091-.113 4.376 4.376 0 012.323 2.161c.478.987.57 2.118.258 3.17a3.865 3.865 0 01-1.999 2.37 3.767 3.767 0 01-1.662.381zm-.347-6.81a2.246 2.246 0 00-1.745.821c-.206.248-.36.536-.45.846a2.86 2.86 0 00.172 2.04 2.842 2.842 0 001.491 1.396 2.288 2.288 0 002.622-.653c.207-.247.36-.536.45-.847a2.785 2.785 0 00-.172-2.048 2.773 2.773 0 00-1.491-1.397 2.448 2.448 0 00-.877-.16v.002z" fill="#182A34"/></g><path d="M52.963 23.338c-2.343 0-5.32-3.63-7.295-7.7-1.151-2.374-1.91-4.776-2.137-6.762-.331-2.889.543-3.955 1.335-4.342.792-.387 2.168-.419 4.223 1.627 1.415 1.413 2.828 3.49 3.979 5.864 1.15 2.375 1.909 4.776 2.137 6.763.331 2.887-.544 3.955-1.336 4.341a2.058 2.058 0 01-.906.209zM45.775 5.874a.524.524 0 00-.232.046c-.377.184-.673 1.116-.481 2.778.208 1.82.916 4.044 1.992 6.267 1.076 2.223 2.382 4.154 3.678 5.45 1.185 1.176 2.096 1.518 2.474 1.334.378-.183.672-1.115.481-2.778-.209-1.82-.916-4.043-1.992-6.266-1.077-2.222-2.383-4.154-3.678-5.443-.988-.982-1.786-1.388-2.242-1.388z" fill="#182A34"/></g><defs><clipPath id="clip0_297_1136"><path fill="#fff" d="M0 0h200v52H0z"/></clipPath></defs></svg>