<svg width="225" height="59" fill="none" xmlns="http://www.w3.org/2000/svg"><g clip-path="url(#clip0_297_510)"><path d="M77.545.281c.711 0 1.317.02 1.817.062.5.041.958.095 1.375.163.432.072.86.168 1.282.287l-.288 2.819a31.905 31.905 0 00-1.295-.05l-1.273-.022c-.45 0-.992-.01-1.621-.01-.56 0-1.008.116-1.323.349-.315.232-.544.639-.667 1.225a12.658 12.658 0 00-.186 2.472c-.019.828.044 1.655.186 2.471.123.586.345.995.667 1.227.32.23.763.347 1.323.347 1 0 1.83-.014 2.494-.042.663-.028 1.33-.075 2-.143l.289 2.797a11.15 11.15 0 01-2.104.492 21.06 21.06 0 01-2.68.143c-1.517 0-2.731-.234-3.641-.703-.91-.47-1.567-1.234-1.97-2.293-.405-1.063-.607-2.493-.606-4.29 0-1.797.203-3.228.606-4.291.403-1.062 1.06-1.826 1.97-2.293.91-.467 2.124-.706 3.645-.717zm15.747 4.188v2.777H83.07V4.47h10.222zm-3.242 0V14.62h-3.714V4.47h3.714zm7.606.001l.37 1.72.368.306v6.68l-.102.245c.041.422.072.875.092 1.359.02.483.025.95.01 1.4v2.226H94.68V4.469h2.976zm4.166-.246c1.313 0 2.247.47 2.801 1.409.553.94.831 2.281.832 4.026 0 1.374-.144 2.44-.432 3.196-.288.756-.716 1.288-1.283 1.593-.567.307-1.275.46-2.124.46a6.694 6.694 0 01-2.133-.336 3.784 3.784 0 01-1.683-1.114l.243-1.532c.356.109.687.214.995.317.37.11.754.162 1.139.153.293.016.585-.052.842-.195.204-.129.356-.388.451-.775a7.877 7.877 0 00.144-1.747 8.624 8.624 0 00-.134-1.757c-.088-.396-.232-.657-.432-.787a1.435 1.435 0 00-.791-.194 2.512 2.512 0 00-1.007.184 7.15 7.15 0 00-.913.49l-.494-1.512a3.37 3.37 0 01.934-.96c.43-.298.904-.525 1.406-.674a5.58 5.58 0 011.639-.245zm13.873 4.168l-.021 1.879h-4.371a1.02 1.02 0 00-.677.235.759.759 0 00-.226.582v.388a.738.738 0 00.256.603c.226.16.5.235.776.214a2.976 2.976 0 001.087-.225c.4-.158.779-.364 1.129-.612.352-.243.675-.524.965-.838v1.308a7.118 7.118 0 01-.503.817c-.255.36-.547.691-.872.99a4.617 4.617 0 01-4.761.829 2.877 2.877 0 01-1.241-.96 2.64 2.64 0 01-.463-1.594v-1.022c0-.817.291-1.454.873-1.91.582-.457 1.372-.685 2.37-.684h5.679zm-2.771-4.21a6.413 6.413 0 012.319.369c.61.227 1.12.66 1.44 1.225.328.573.492 1.364.492 2.37v6.476h-2.978l-.513-2.186-.246-.368V8.125c-.015-.421-.121-.725-.318-.908-.198-.184-.559-.276-1.079-.276a69.997 69.997 0 00-4.417.142l-.328-2.389c.506-.095 1.101-.18 1.785-.255a41.688 41.688 0 012.042-.185 30.524 30.524 0 011.801-.072zm15.74.287v2.777h-10.222V4.47h10.222zm-3.242 0V14.62h-3.714V4.47h3.714zm9.686-.287c1.832 0 3.139.3 3.92.9.782.6 1.178 1.485 1.19 2.656.014.94-.249 1.627-.789 2.062-.541.436-1.481.654-2.822.654h-5.603V8.59h4.556c.451 0 .739-.068.864-.204.125-.136.19-.38.196-.735 0-.396-.106-.661-.319-.797-.211-.136-.571-.204-1.076-.205a2.46 2.46 0 00-1.099.163c-.253.124-.428.369-.524.736-.112.544-.16 1.1-.144 1.655-.019.57.04 1.14.175 1.695a1.292 1.292 0 00.636.838c.306.163.741.246 1.303.246.45 0 1.035-.017 1.755-.052.72-.034 1.475-.092 2.267-.173l.344 2.252a6.63 6.63 0 01-1.454.504 12.45 12.45 0 01-1.631.265c-.561.055-1.123.082-1.683.082-1.354 0-2.446-.191-3.274-.573a3.51 3.51 0 01-1.785-1.746c-.363-.784-.544-1.769-.544-2.952 0-1.338.184-2.4.554-3.188a3.342 3.342 0 011.775-1.705c.814-.343 1.885-.515 3.212-.515zm9.542.144c.945 0 1.919.014 2.924.041a17.22 17.22 0 012.7.265l-.185 2.594h-3.756a.93.93 0 00-.616.164c-.122.109-.184.307-.184.593v6.639h-3.694V6.9c0-.885.229-1.535.688-1.95.459-.417 1.166-.624 2.123-.624zm17.459.143V14.62l-3.325.042V10.07c0-.3.014-.59.042-.868.027-.28.061-.59.102-.93h-.082a7.676 7.676 0 01-.841 1.695l-3.182 4.658h-3.282V4.469h3.324v4.8c0 .253-.014.505-.042.756-.028.245-.062.517-.102.817h.082a4.43 4.43 0 01.348-.787c.138-.238.282-.472.432-.703l3.263-4.883h3.263zm12.771 0V14.62l-3.326.042V10.07c0-.3.014-.59.042-.868.028-.28.062-.59.102-.93h-.086a6.652 6.652 0 01-.381.898 6.787 6.787 0 01-.46.797l-3.182 4.658h-3.282V4.469h3.324v4.8c0 .253-.014.505-.042.756-.027.245-.06.518-.102.817h.082c.09-.273.206-.536.348-.787.137-.238.281-.472.432-.703l3.263-4.883h3.268zM76.704 25.623c1.344 0 2.418.174 3.222.52a3.27 3.27 0 011.744 1.7c.355.784.534 1.835.534 3.153 0 1.319-.178 2.357-.534 3.114a3.273 3.273 0 01-1.744 1.676c-.808.349-1.882.523-3.222.521-1.34 0-2.407-.174-3.202-.521a3.316 3.316 0 01-1.755-1.676c-.362-.764-.543-1.802-.543-3.114 0-1.312.181-2.363.543-3.153a3.304 3.304 0 011.755-1.695c.812-.35 1.88-.525 3.202-.525zm0 2.594a1.764 1.764 0 00-.964.225c-.234.15-.398.421-.493.817a7.83 7.83 0 00-.144 1.737 7.707 7.707 0 00.144 1.72c.095.395.26.663.493.807.295.158.629.233.964.215.342.02.683-.055.985-.215.233-.144.393-.412.482-.807a8.3 8.3 0 00.134-1.72 8.437 8.437 0 00-.134-1.737c-.09-.396-.249-.668-.482-.817a1.813 1.813 0 00-.985-.225zm16.806-7.272l.535 2.819a5.212 5.212 0 01-1.396.53 7.39 7.39 0 01-1.314.163 89.29 89.29 0 00-1.262.052 6.269 6.269 0 00-1.261.194 4.204 4.204 0 00-.924.378 2.272 2.272 0 00-.595.48 2.602 2.602 0 00-.37.573 2.034 2.034 0 00-.297.717c-.049.245-.1.51-.154.797h.082c.199-.212.415-.407.647-.582a3.78 3.78 0 011.723-.715 7.176 7.176 0 011.2-.092c1.122 0 2.008.163 2.658.49a2.886 2.886 0 011.406 1.542c.288.7.432 1.623.432 2.768 0 1.172-.165 2.146-.493 2.922a3.39 3.39 0 01-1.642 1.744c-.768.383-1.808.576-3.119.582-1.095 0-1.988-.109-2.68-.327a3.946 3.946 0 01-1.63-.92c-.4-.402-.7-.893-.873-1.433a7.539 7.539 0 01-.348-1.827 30.78 30.78 0 01-.072-2.136c-.005-.89.047-1.78.154-2.665.087-.75.27-1.484.544-2.186a4.536 4.536 0 011.139-1.665 5.38 5.38 0 011.94-1.104 7.685 7.685 0 011.528-.357c.5-.062.996-.106 1.487-.133.496-.027.99-.08 1.479-.16a6.115 6.115 0 001.477-.45zm-4.308 7.537c-.452 0-.795.076-1.026.225a1.17 1.17 0 00-.473.777 9.967 9.967 0 00.02 3.237c.097.389.257.654.483.797a2.204 2.204 0 001.899 0c.232-.143.393-.409.482-.797a8.12 8.12 0 00.132-1.685 7.27 7.27 0 00-.132-1.604c-.09-.36-.24-.61-.452-.745a1.735 1.735 0 00-.933-.205zm10.814-2.574v10.154h-3.591V25.908h3.591zm13.298 7.682v2.472H99.873l-.022-2.472h13.463zm-7.593-7.682v10.154h-3.284V25.908h3.284zm6.014 0v10.154h-3.572V25.908h3.572zm1.583 10.051v2.92h-2.488l-.261-2.92h2.749zm6.542-10.336c1.834 0 3.141.3 3.921.899.779.599 1.174 1.484 1.184 2.655.013.94-.251 1.629-.79 2.064-.539.436-1.476.654-2.809.654h-5.615v-1.863h4.557c.452 0 .742-.07.872-.205.131-.136.195-.382.195-.736 0-.395-.106-.66-.318-.796-.212-.137-.576-.205-1.077-.205-.48-.013-.846.042-1.099.165-.252.122-.425.367-.518.735a7.013 7.013 0 00-.144 1.654c-.019.57.04 1.14.174 1.695a1.31 1.31 0 00.636.838c.309.164.742.246 1.304.246.451 0 1.036-.018 1.754-.052a42.078 42.078 0 002.268-.174l.322 2.252a6.545 6.545 0 01-1.439.51c-.537.125-1.082.214-1.631.267-.562.054-1.123.081-1.683.081-1.356 0-2.447-.19-3.273-.573a3.51 3.51 0 01-1.786-1.747c-.363-.782-.544-1.766-.543-2.952 0-1.338.185-2.4.554-3.188a3.339 3.339 0 011.775-1.705c.812-.346 1.882-.519 3.209-.519zm11.678 0c.396 0 .834.02 1.313.06.483.042.964.114 1.439.215.452.094.892.234 1.313.419l-.39 2.309c-.614 0-1.168-.004-1.661-.01-.493-.008-.952-.01-1.375-.01a3.125 3.125 0 00-1.211.193 1.195 1.195 0 00-.647.705c-.13.341-.195.831-.195 1.47-.02.493.045.985.193 1.455a1.18 1.18 0 00.646.717c.387.145.798.211 1.211.195.231 0 .522-.004.872-.01a32.947 32.947 0 002.364-.134l.329 2.33c-.628.304-1.3.509-1.991.607-.74.114-1.488.172-2.236.173-1.3 0-2.34-.174-3.12-.521a3.15 3.15 0 01-1.673-1.696c-.336-.782-.504-1.82-.503-3.115 0-1.32.171-2.372.513-3.153a3.207 3.207 0 011.693-1.686c.792-.342 1.83-.513 3.116-.513zm15.185.285v2.779h-10.221v-2.779h10.221zm-3.242 0v10.154h-3.714V25.908h3.714zm9.933-.122c1.152 0 2.058.078 2.718.235.66.157 1.14.43 1.44.817.293.388.441.936.442 1.644 0 .722-.172 1.27-.514 1.645-.343.375-.919.596-1.728.664v.081c.972.07 1.653.332 2.042.788.388.455.583 1.085.584 1.888 0 .696-.154 1.241-.461 1.636-.307.394-.782.67-1.427.827-.822.174-1.662.253-2.503.235-.875 0-1.649-.004-2.319-.01a68.84 68.84 0 01-1.858-.042c-.567-.02-1.143-.044-1.727-.072l.288-2.307c.315.012.92.022 1.817.03.896.008 1.952.01 3.167.01.269.008.538-.02.8-.082a.639.639 0 00.411-.317c.093-.208.135-.435.124-.663 0-.409-.1-.681-.298-.817-.199-.136-.558-.204-1.077-.205h-4.967v-1.879h4.959c.249.007.497-.017.739-.071a.583.583 0 00.38-.276c.083-.171.121-.36.112-.551a.95.95 0 00-.123-.532.707.707 0 00-.411-.265 3.056 3.056 0 00-.8-.082c-.738 0-1.388-.003-1.95-.01a59.683 59.683 0 00-1.539 0 29.11 29.11 0 00-1.354.05l-.288-2.247c.532-.04 1.056-.067 1.569-.082.512-.014 1.071-.023 1.673-.03.602-.007 1.298-.01 2.079-.01zm-1.807.122v10.214h-3.508V25.908h3.508zm13.586-.285c1.833 0 3.14.3 3.919.899.78.599 1.177 1.484 1.191 2.655.012.94-.251 1.629-.791 2.064-.539.436-1.48.654-2.821.654h-5.602v-1.863h4.555c.452 0 .743-.069.872-.205.13-.137.195-.382.195-.736 0-.395-.106-.66-.317-.796-.213-.137-.576-.205-1.078-.205-.48-.013-.846.042-1.097.165-.254.121-.432.366-.524.735a7.067 7.067 0 00-.144 1.654c-.019.57.04 1.14.175 1.695a1.311 1.311 0 00.635.838c.308.164.74.246 1.296.246.452 0 1.037-.018 1.755-.052a41.966 41.966 0 002.267-.174l.329 2.248a6.564 6.564 0 01-1.447.51c-.537.125-1.082.214-1.631.267-.56.054-1.121.081-1.683.081-1.354 0-2.445-.19-3.273-.573a3.505 3.505 0 01-1.785-1.747c-.363-.783-.544-1.767-.544-2.952 0-1.338.185-2.4.554-3.188a3.34 3.34 0 011.775-1.706c.819-.342 1.892-.514 3.219-.514zm10.465.285v10.154h-3.694V25.908h3.694zm3.325 3.596v2.436h-3.469v-2.436h3.469zm3.468-3.596v10.154h-3.653V25.908h3.653zm5.89 0v10.154h-3.693V25.908h3.693zm3.325 3.596v2.436h-3.468v-2.436h3.468zm3.469-3.596v10.154h-3.656V25.908h3.656zm5.808 0v10.154h-3.613V25.908h3.613zm1.086 3.351c1.259 0 2.251.102 2.976.307.726.204 1.242.555 1.549 1.052.308.497.463 1.194.463 2.093 0 .9-.151 1.6-.452 2.104a2.42 2.42 0 01-1.416 1.062c-.644.206-1.472.308-2.483.307-.781 0-1.465-.003-2.053-.01a56.352 56.352 0 01-1.631-.04c-.5-.022-1.008-.044-1.529-.072l.246-2.37c.273.014.8.027 1.584.041.783.015 1.696.02 2.749.02.26.01.519-.017.77-.081a.556.556 0 00.359-.347c.078-.245.112-.5.102-.757 0-.478-.075-.794-.226-.95-.15-.156-.486-.234-1.008-.235h-4.35V29.26h4.35zm9.831-3.35v10.153h-3.757V25.908h3.757zm5.129-.001l2.628 4.965-2.854 5.19h-3.734l3.057-5.19-2.811-4.965h3.714zm3.92 3.841v2.166h-3.756v-2.166h3.756zm3.859-3.84l-2.833 4.964 3.057 5.19h-3.734l-2.856-5.19 2.647-4.965h3.719zM82.183 47.349v10.153l-3.324.041v-4.598c0-.298.013-.589.04-.86.028-.27.062-.589.102-.93h-.082c-.104.309-.23.609-.378.899-.136.275-.29.541-.462.797l-3.182 4.657h-3.283v-10.16h3.325v4.8c0 .253-.014.506-.042.757-.028.245-.06.518-.102.817h.082c.09-.273.207-.537.35-.787.135-.238.279-.472.431-.703l3.263-4.883h3.262zm5.664-.267c1.012-.015 2.023.05 3.024.195.773.129 1.338.392 1.693.787s.533.995.534 1.797c0 .79-.174 1.363-.523 1.72-.348.357-.92.572-1.715.645v.082c.945.066 1.617.318 2.016.755.4.437.601 1.07.606 1.9 0 .817-.181 1.426-.544 1.828-.363.401-.907.663-1.631.787a16.59 16.59 0 01-2.71.183 31 31 0 01-2.38-.092 18.633 18.633 0 01-2.447-.357l.246-2.41c.78.082 1.542.14 2.288.173.746.033 1.418.05 2.015.052.534 0 .893-.049 1.077-.144.185-.094.278-.334.278-.716a.856.856 0 00-.114-.49.598.598 0 00-.41-.215 7.192 7.192 0 00-.85-.072l-3.203-.06v-2.15l3.18-.062c.242-.005.483-.029.72-.071a.489.489 0 00.34-.204.876.876 0 00.093-.44.813.813 0 00-.114-.49.637.637 0 00-.4-.193 5.3 5.3 0 00-.864-.052c-.672 0-1.336.02-1.991.062-.656.04-1.265.095-1.827.163l-.247-2.41a10.23 10.23 0 012.115-.42 24.91 24.91 0 011.745-.08zm20.274.267c.835 0 1.259.422 1.273 1.267l.266 8.886h-3.365l-.266-7.453h-.266l-1.211 4.924a1.393 1.393 0 01-.462.848 1.422 1.422 0 01-.935.296h-1.641a1.418 1.418 0 01-.933-.296 1.376 1.376 0 01-.462-.848l-1.252-4.924h-.248l-.204 7.453H95.05l.246-8.886c.013-.846.445-1.268 1.296-1.267h3.14c.335-.016.665.086.933.286.258.224.417.54.442.879l.923 3.76c.068.243.116.492.144.745.027.252.047.507.061.766h.185c.027-.259.052-.514.072-.766a3.85 3.85 0 01.134-.746l.902-3.76c.122-.775.587-1.163 1.395-1.163l3.198-.001zm8.661-.287c1.834 0 3.141.3 3.921.899.779.599 1.176 1.484 1.19 2.655.014.94-.25 1.628-.79 2.064-.541.436-1.481.654-2.822.654h-5.603V51.47h4.556c.451 0 .741-.067.873-.203.131-.136.196-.381.194-.737 0-.393-.106-.659-.318-.795-.212-.136-.576-.205-1.077-.205-.479-.013-.845.04-1.098.163-.254.123-.432.369-.523.736a7.075 7.075 0 00-.144 1.655 6.278 6.278 0 00.179 1.7 1.308 1.308 0 00.636.837c.308.163.741.245 1.303.245.452 0 1.037-.017 1.755-.05a41.52 41.52 0 002.263-.172l.328 2.247a6.587 6.587 0 01-1.44.51c-.537.124-1.082.212-1.631.265-.561.055-1.122.082-1.683.082-1.355 0-2.446-.191-3.274-.573a3.509 3.509 0 01-1.785-1.747c-.362-.783-.543-1.767-.542-2.951 0-1.338.184-2.4.552-3.188a3.343 3.343 0 011.775-1.706c.811-.347 1.879-.521 3.205-.521zm10.467.287v10.153h-3.694V47.349h3.694zm3.331 3.596v2.436h-3.475v-2.436h3.475zm3.456-3.596v10.153h-3.647V47.349h3.647zm7.312-.287c1.833 0 3.139.3 3.919.899.779.599 1.176 1.484 1.19 2.655.013.94-.251 1.628-.79 2.064-.54.436-1.48.654-2.822.654h-5.602V51.47h4.555c.452 0 .743-.067.873-.203.129-.136.194-.381.194-.737 0-.394-.105-.659-.318-.795-.213-.136-.576-.205-1.077-.205-.479-.013-.845.04-1.097.163s-.432.369-.524.736a7.075 7.075 0 00-.144 1.655c-.018.572.04 1.143.174 1.7a1.312 1.312 0 00.637.837c.308.163.74.245 1.295.245a42.465 42.465 0 004.03-.222l.328 2.247a6.597 6.597 0 01-1.439.51c-.538.124-1.083.212-1.632.265-.561.055-1.122.082-1.683.082-1.353 0-2.444-.191-3.272-.573a3.499 3.499 0 01-1.785-1.747c-.363-.783-.544-1.767-.544-2.951 0-1.338.184-2.4.554-3.188a3.33 3.33 0 011.775-1.706c.813-.347 1.881-.521 3.205-.521zm10.465.287v10.153h-3.695V47.349h3.695zm3.324 3.596v2.436h-3.468v-2.436h3.468zm3.468-3.596v10.153h-3.652V47.349h3.652zm12.765 0v10.153l-3.325.041v-4.598c0-.298.015-.589.042-.86.028-.27.061-.589.102-.93h-.082a6.834 6.834 0 01-.38.899 6.666 6.666 0 01-.461.797l-3.181 4.657h-3.284v-10.16h3.324v4.8c0 .253-.014.506-.042.757-.027.245-.062.517-.102.817h.082c.09-.273.207-.537.349-.787.137-.238.281-.472.432-.703l3.262-4.883h3.264zm12.767 0V57.5l-3.326.042v-4.598c0-.298.015-.589.042-.86.027-.27.062-.589.102-.93h-.082a7.635 7.635 0 01-.841 1.696l-3.182 4.657h-3.282v-10.16h3.324v4.8c0 .253-.014.506-.042.757a31.84 31.84 0 01-.102.817h.082c.09-.273.207-.536.349-.787.136-.238.28-.472.432-.703l3.262-4.883h3.264zm-4.065-4.515h2.32a2.678 2.678 0 01-.266 1.624 3.086 3.086 0 01-1.223 1.256 4.46 4.46 0 01-4.073 0 3.13 3.13 0 01-1.241-1.256 2.622 2.622 0 01-.278-1.624h2.32c-.055.612.027 1.037.246 1.276.219.239.547.358.985.358.437 0 .762-.12.974-.358.212-.238.29-.664.235-1.276h.001z" fill="#fff"/><path d="M28.82 58.07c15.917 0 28.82-12.845 28.82-28.69C57.64 13.537 44.736.69 28.82.69S0 13.537 0 29.38c0 15.845 12.903 28.69 28.82 28.69z" fill="#FEAF86"/><mask id="a" style="mask-type:luminance" maskUnits="userSpaceOnUse" x="0" y="0" width="58" height="59"><path d="M28.82 58.07c15.917 0 28.82-12.845 28.82-28.69C57.64 13.537 44.736.69 28.82.69S0 13.537 0 29.38c0 15.845 12.903 28.69 28.82 28.69z" fill="#fff"/></mask><g mask="url(#a)"><path d="M45.392 24.885l-3.087 1.94 4.54 7.164 3.089-1.94-4.541-7.164z" fill="#00B1CD"/><path d="M46.848 34.846a.87.87 0 01-.732-.402l-4.54-7.166a.855.855 0 01.269-1.186l3.088-1.94a.867.867 0 011.192.268l4.54 7.167a.855.855 0 01-.268 1.186l-3.089 1.94a.866.866 0 01-.46.133zm-3.35-7.757l3.619 5.71 1.627-1.022-3.62-5.71-1.627 1.022zm-2.944-.805c1.326-.642 1.842-2.307 1.152-3.718-.69-1.412-2.323-2.036-3.649-1.394-1.325.642-1.841 2.306-1.152 3.718.69 1.411 2.323 2.035 3.649 1.394z" fill="#182A34"/><path d="M39.456 27.391a3.754 3.754 0 01-1.965-.592 3.733 3.733 0 01-1.355-1.536 3.765 3.765 0 01-.227-2.777 3.402 3.402 0 011.77-2.096c1.753-.848 3.908-.044 4.805 1.79.428.864.51 1.857.227 2.778a3.403 3.403 0 01-1.777 2.09 3.39 3.39 0 01-1.478.343zm-.288-5.615a1.67 1.67 0 00-1.272.6 1.7 1.7 0 00-.331.617 2.06 2.06 0 00.13 1.518c.481.983 1.6 1.433 2.495.996a1.713 1.713 0 00.885-1.05 2.068 2.068 0 00-.131-1.518 2.01 2.01 0 00-1.784-1.163h.008z" fill="#182A34"/><path d="M54.244 19.42c1.325-.641 1.841-2.306 1.152-3.717-.69-1.412-2.323-2.036-3.65-1.394-1.325.641-1.84 2.306-1.151 3.717.69 1.412 2.323 2.036 3.649 1.394z" fill="#FEAF86"/><path d="M53.145 20.534a3.755 3.755 0 01-1.973-.593 3.732 3.732 0 01-1.359-1.541c-.897-1.835-.201-4.013 1.55-4.873 1.753-.86 3.908-.045 4.805 1.791.43.863.514 1.857.234 2.78a3.398 3.398 0 01-1.78 2.089c-.46.226-.965.344-1.477.346zm-.288-5.616c-.252 0-.5.056-.727.167-.896.43-1.232 1.585-.753 2.566.48.982 1.6 1.433 2.493 1.004a1.71 1.71 0 00.884-1.051 2.052 2.052 0 00-.13-1.518 2.01 2.01 0 00-1.772-1.172l.005.004z" fill="#182A34"/><path d="M37.576 18.67s-.576 3.297 1.152 6.045c1.727 2.75 3.475 3.145 3.475 3.145s3.319-2.177 6.778-3.185c4.506-1.311 9.465 1.373 11.253.557 1.365-.624-4.017-19.098-9.375-19.194-1.765-.031-2.349 6.996-6.816 9.603-3.812 2.227-6.467 3.03-6.467 3.03z" fill="#00B1CD"/><path d="M42.203 28.713a.866.866 0 01-.191-.021c-.215-.05-2.144-.56-4.016-3.526-1.89-2.994-1.295-6.503-1.275-6.652a.859.859 0 01.602-.675c.026 0 2.62-.8 6.282-2.942 2.34-1.367 3.525-4.125 4.478-6.34.844-1.964 1.455-3.387 2.759-3.387h.031c2.16.039 4.35 2.24 6.497 6.542a46.658 46.658 0 013.614 10.274c.537 2.555.432 3.644-.39 4.02-1.008.461-2.423.164-4.211-.21-2.12-.447-4.759-1.004-7.159-.303-3.29.957-6.514 3.057-6.546 3.077a.867.867 0 01-.475.143zm-3.834-9.41c-.07.953-.069 3.113 1.09 4.948 1.083 1.72 2.147 2.398 2.65 2.643.987-.607 3.742-2.208 6.63-3.051 2.818-.82 5.692-.215 8 .27 1.102.232 2.235.47 2.856.4.069-1.891-2.304-10.687-5.729-15.317-1.082-1.462-2.108-2.258-2.97-2.303-.314.223-.84 1.443-1.225 2.341-.996 2.318-2.361 5.492-5.19 7.146-2.89 1.69-5.125 2.577-6.112 2.923z" fill="#182A34"/><mask id="b" style="mask-type:luminance" maskUnits="userSpaceOnUse" x="37" y="6" width="24" height="22"><path d="M37.576 18.67s-.576 3.297 1.152 6.045c1.727 2.75 3.475 3.145 3.475 3.145s3.319-2.177 6.778-3.185c4.506-1.311 9.465 1.373 11.253.557 1.365-.624-4.017-19.098-9.375-19.194-1.765-.031-2.349 6.996-6.816 9.603-3.812 2.227-6.467 3.03-6.467 3.03z" fill="#fff"/></mask><g mask="url(#b)"><path d="M42.768 14.88s.2 3.843 1.696 6.905c1.495 3.06 5.112 5.067 5.112 5.067l-8.854 3.415L33.3 19.29l9.468-4.41z" fill="#FEAF86"/><path d="M40.723 31.128a.865.865 0 01-.72-.38L32.58 19.77a.859.859 0 01.352-1.26l9.467-4.41a.868.868 0 011.108.336.858.858 0 01.122.4c0 .035.21 3.711 1.61 6.572 1.355 2.774 4.722 4.675 4.75 4.693a.861.861 0 01.274 1.261.866.866 0 01-.383.292l-8.849 3.415a.876.876 0 01-.308.059zM34.58 19.642l6.479 9.575 6.653-2.565c-1.265-.927-3.04-2.488-4.019-4.492-1.035-2.117-1.478-4.547-1.661-5.986l-7.452 3.468z" fill="#182A34"/></g><path d="M42.203 28.713a.866.866 0 01-.191-.021c-.215-.05-2.144-.56-4.016-3.526-1.89-2.994-1.295-6.503-1.275-6.652a.859.859 0 01.602-.675c.026 0 2.62-.8 6.282-2.942 2.34-1.367 3.525-4.125 4.478-6.34.844-1.964 1.455-3.387 2.759-3.387h.031c2.16.039 4.35 2.24 6.497 6.542a46.658 46.658 0 013.614 10.274c.537 2.555.432 3.644-.39 4.02-1.008.461-2.423.164-4.211-.21-2.12-.447-4.759-1.004-7.159-.303-3.29.957-6.514 3.057-6.546 3.077a.867.867 0 01-.475.143zm-3.834-9.41c-.07.953-.069 3.113 1.09 4.948 1.083 1.72 2.147 2.398 2.65 2.643.987-.607 3.742-2.208 6.63-3.051 2.818-.82 5.692-.215 8 .27 1.102.232 2.235.47 2.856.4.069-1.891-2.304-10.687-5.729-15.317-1.082-1.462-2.108-2.258-2.97-2.303-.314.223-.84 1.443-1.225 2.341-.996 2.318-2.361 5.492-5.19 7.146-2.89 1.69-5.125 2.577-6.112 2.923z" fill="#182A34"/><path d="M60.233 25.228c1.87-.905 1.288-5.936-1.3-11.237-2.59-5.3-6.205-8.863-8.075-7.957-1.87.905-1.288 5.936 1.3 11.236 2.59 5.3 6.204 8.863 8.075 7.958z" fill="#182A34"/><path d="M59.583 26.23c-2.636 0-5.985-4.048-8.206-8.587-1.296-2.649-2.148-5.327-2.404-7.543-.373-3.222.61-4.411 1.501-4.843.891-.431 2.44-.467 4.751 1.815 1.593 1.576 3.182 3.892 4.476 6.54 1.295 2.65 2.148 5.328 2.404 7.544.373 3.22-.611 4.411-1.502 4.842a2.33 2.33 0 01-1.02.232zM51.496 6.752a.594.594 0 00-.26.052c-.425.205-.757 1.244-.542 3.098.235 2.03 1.031 4.51 2.242 6.99 1.21 2.48 2.68 4.633 4.138 6.078 1.333 1.313 2.358 1.694 2.783 1.49.425-.206.756-1.245.541-3.1-.235-2.029-1.03-4.51-2.242-6.99-1.21-2.477-2.68-4.633-4.137-6.07-1.112-1.095-2.009-1.548-2.523-1.548z" fill="#182A34"/><mask id="c" style="mask-type:luminance" maskUnits="userSpaceOnUse" x="49" y="5" width="13" height="21"><path d="M60.234 25.228c1.871-.905 1.289-5.936-1.3-11.237-2.589-5.3-6.204-8.863-8.075-7.957-1.87.905-1.288 5.936 1.3 11.236 2.59 5.3 6.205 8.864 8.075 7.958z" fill="#fff"/></mask><g mask="url(#c)"><path d="M54.684 20.321c1.793-.868 2.491-3.12 1.558-5.029-.932-1.909-3.142-2.753-4.935-1.885-1.794.868-2.492 3.12-1.56 5.029.933 1.91 3.143 2.753 4.937 1.885z" fill="#DBF06D"/><path d="M53.192 21.523a4.481 4.481 0 01-1.606-.303 4.91 4.91 0 01-2.613-2.41 4.877 4.877 0 01-.293-3.535 4.286 4.286 0 012.25-2.641 4.324 4.324 0 013.477-.126 4.907 4.907 0 012.613 2.41c.538 1.1.642 2.362.291 3.535a4.3 4.3 0 01-4.119 3.07zm-.39-7.596a2.544 2.544 0 00-1.963.915 2.605 2.605 0 00-.507.944 3.164 3.164 0 00.194 2.274 3.186 3.186 0 001.677 1.558 2.593 2.593 0 002.95-.728c.233-.276.406-.598.506-.945a3.082 3.082 0 00-.194-2.284 3.108 3.108 0 00-1.677-1.558 2.786 2.786 0 00-.986-.18v.004z" fill="#182A34"/></g><path d="M59.583 26.23c-2.636 0-5.985-4.048-8.206-8.587-1.296-2.649-2.148-5.327-2.404-7.543-.373-3.222.61-4.411 1.501-4.843.891-.431 2.44-.467 4.751 1.815 1.593 1.576 3.182 3.892 4.476 6.54 1.295 2.65 2.148 5.328 2.404 7.544.373 3.22-.611 4.411-1.502 4.842a2.33 2.33 0 01-1.02.232zM51.496 6.752a.594.594 0 00-.26.052c-.425.205-.757 1.244-.542 3.098.235 2.03 1.031 4.51 2.242 6.99 1.21 2.48 2.68 4.633 4.138 6.078 1.333 1.313 2.358 1.694 2.783 1.49.425-.206.756-1.245.541-3.1-.235-2.029-1.03-4.51-2.242-6.99-1.21-2.477-2.68-4.633-4.137-6.07-1.112-1.095-2.009-1.548-2.523-1.548zM5.369 60.806S.24 67.759-.785 71.644c-1.053 3.998.98 5.876 2.41 5.459 1.94-.562 3.51-2.388 5.094-6.927 1.584-4.538 4.482-8.653 4.482-8.653s-.835 8.357-.193 11.305c.642 2.948 2.432 7.176 5.14 6.994 2.708-.182 2.16-5.243 1.795-7.31-.364-2.066 2.031-10.605 3.81-11.388 1.777-.782 5.246 1.51 7.125 3.468 1.878 1.958 3.023 2.222 4.59 8.398 1.486 5.854 5.102 6.251 6.674 3.762 1.572-2.49.344-7.51-1.528-10.768-1.871-3.257-6.632-6.567-5.83-8.43.309-.717 2.75-1.113 6.082.94 3.77 2.324-5.89-9.784-5.89-9.784l-18.723.687L5.37 60.806z" fill="#182A34"/><path d="M15.98 80.687c-3.043 0-5.025-4.094-5.809-7.676-.388-1.778-.274-5.303-.106-8.004a34.81 34.81 0 00-2.524 5.446c-1.583 4.545-3.28 6.779-5.668 7.47-.864.249-1.814-.023-2.541-.73-.592-.573-1.864-2.281-.944-5.773 1.053-3.998 6.08-10.835 6.293-11.124l.012-.017 8.882-11.416a.864.864 0 01.65-.332l18.727-.69a.872.872 0 01.708.326c.019.023 1.882 2.359 3.635 4.76 1.04 1.418 1.84 2.586 2.381 3.47.864 1.406 1.226 2.292.671 2.907-.635.71-1.608.11-1.929-.087-2.644-1.63-4.453-1.472-4.854-1.259-.111.667 1.503 2.41 2.584 3.583 1.19 1.29 2.423 2.619 3.223 4.013 2.047 3.565 3.271 8.859 1.51 11.652-.858 1.356-2.215 2.032-3.633 1.809-2.075-.327-3.755-2.447-4.607-5.817-1.27-5.002-2.174-5.877-3.543-7.19a29.513 29.513 0 01-.834-.825c-2.073-2.158-5.062-3.75-6.152-3.275-.352.165-1.272 1.59-2.238 4.705-.831 2.675-1.195 5.024-1.069 5.75.344 1.977.72 5.554-.658 7.3a2.626 2.626 0 01-1.93 1.017 5.28 5.28 0 01-.236.007zM11.2 60.663a.863.863 0 01.86.944c0 .083-.816 8.254-.207 11.036.707 3.233 2.389 6.45 4.236 6.317a.892.892 0 00.688-.362c.672-.853.796-3.186.314-5.944-.228-1.307.403-4.248 1.128-6.58.72-2.294 1.849-5.16 3.188-5.744 2.35-1.026 6.212 1.702 8.095 3.662.274.287.533.535.785.777 1.468 1.412 2.627 2.528 4.018 8.004.668 2.633 1.872 4.33 3.205 4.54.72.115 1.416-.259 1.9-1.024 1.336-2.117.238-6.78-1.546-9.89-.703-1.225-1.871-2.483-2.995-3.7-1.92-2.076-3.579-3.87-2.879-5.494.128-.299.432-.704 1.17-.934 1.007-.318 2.758-.235 4.894.787-1.163-1.831-3.377-4.828-5.482-7.484l-17.887.667L6.06 61.328C5.858 61.6 1.008 68.24.052 71.863c-.71 2.69.186 3.82.478 4.105.292.284.596.384.854.31 1.26-.366 2.791-1.41 4.519-6.384 1.602-4.6 4.47-8.691 4.591-8.863a.865.865 0 01.707-.368z" fill="#182A34"/><path d="M15.98 80.687c-3.043 0-5.025-4.094-5.809-7.676-.388-1.778-.274-5.303-.106-8.004a34.81 34.81 0 00-2.524 5.446c-1.583 4.545-3.28 6.779-5.668 7.47-.864.249-1.814-.023-2.541-.73-.592-.573-1.864-2.281-.944-5.773 1.053-3.998 6.08-10.835 6.293-11.124l.012-.017 8.882-11.416a.864.864 0 01.65-.332l18.727-.69a.872.872 0 01.708.326c.019.023 1.882 2.359 3.635 4.76 1.04 1.418 1.84 2.586 2.381 3.47.864 1.406 1.226 2.292.671 2.907-.635.71-1.608.11-1.929-.087-2.644-1.63-4.453-1.472-4.854-1.259-.111.667 1.503 2.41 2.584 3.583 1.19 1.29 2.423 2.619 3.223 4.013 2.047 3.565 3.271 8.859 1.51 11.652-.858 1.356-2.215 2.032-3.633 1.809-2.075-.327-3.755-2.447-4.607-5.817-1.27-5.002-2.174-5.877-3.543-7.19a29.513 29.513 0 01-.834-.825c-2.073-2.158-5.062-3.75-6.152-3.275-.352.165-1.272 1.59-2.238 4.705-.831 2.675-1.195 5.024-1.069 5.75.344 1.977.72 5.554-.658 7.3a2.626 2.626 0 01-1.93 1.017 5.28 5.28 0 01-.236.007zM11.2 60.663a.863.863 0 01.86.944c0 .083-.816 8.254-.207 11.036.707 3.233 2.389 6.45 4.236 6.317a.892.892 0 00.688-.362c.672-.853.796-3.186.314-5.944-.228-1.307.403-4.248 1.128-6.58.72-2.294 1.849-5.16 3.188-5.744 2.35-1.026 6.212 1.702 8.095 3.662.274.287.533.535.785.777 1.468 1.412 2.627 2.528 4.018 8.004.668 2.633 1.872 4.33 3.205 4.54.72.115 1.416-.259 1.9-1.024 1.336-2.117.238-6.78-1.546-9.89-.703-1.225-1.871-2.483-2.995-3.7-1.92-2.076-3.579-3.87-2.879-5.494.128-.299.432-.704 1.17-.934 1.007-.318 2.758-.235 4.894.787-1.163-1.831-3.377-4.828-5.482-7.484l-17.887.667L6.06 61.328C5.858 61.6 1.008 68.24.052 71.863c-.71 2.69.186 3.82.478 4.105.292.284.596.384.854.31 1.26-.366 2.791-1.41 4.519-6.384 1.602-4.6 4.47-8.691 4.591-8.863a.865.865 0 01.707-.368z" fill="#182A34"/><path d="M33.52 27.261l-.62-3.17a14.122 14.122 0 00-5.993-9.013 14.24 14.24 0 00-15.765-.071 14.16 14.16 0 00-3.935 3.88 14.063 14.063 0 00-2.168 10.597l.633 3.243s-2.857 1.693-2.015 6.011c.72 3.676 3.986 4.085 3.986 4.085l.642 3.296c.501 2.566-.368 6.01-1.842 7.596-1.44 1.542-7.013 5.18-9.25 6.365-2.238 1.184-6.387 3.645-7.377 6.294-.99 2.65-.23 5.008 1.202 5.279 2.136.405 4.607-3.486 7.514-5.074 2.129-1.16 8.576-4.424 10.447-5.846 3.76-2.854 5.75-8.486 8.548-8.21 2.797.278 2.39 2.406 1.998 4.258-.391 1.851-4.031 8.837-2.106 15.908 1.925 7.071 6.035 9.823 8.742 9.641 2.706-.182 3.77-2.514 3.353-4.278-.418-1.764-6.57-5.896-6.6-10.26-.03-4.364 1.286-8.17 2.735-10.908 1.45-2.739 2.137-4.576 4.073-4.475 1.937.102 4.962 4.443 6.882 5.84 1.92 1.398 6.633 5.063 8.63 6.861 1.997 1.799 4.463 5.965 7.099 5.795 2.636-.17 3.055-3.323 2.774-5.111-.28-1.789-1.638-4.873-4.65-6.953-3.012-2.08-7.08-4.548-9.358-6.449 1.936.787 5.462 2.234 10.41 1.544 6.037-.842 8.663-6.635 8.484-13.08-.144-5.042-7.942-12.304-14.41-10.786-3.66.86-1.898 5.733-.178 6.745 4.12 2.413 6.309 6.557 4.265 9.869-1.728 2.803-3.8 3.153-7.72 1.242-4.016-1.953-5.471-5.564-6.17-9.115-.26-1.31-.287-1.469-.287-1.469s2.794-2.464 2.13-5.373c-.61-2.666-4.102-4.708-4.102-4.708z" fill="#007AA1"/><path d="M12.933 21.146c-.625-.33-1.728-.657-3.01.48-1.283 1.136-.972 3.978.47 4.517 1.443.54 2.805-.917 3.24-1.854.434-.938.35-2.586-.7-3.143zm2.548-3.804c-.312-.165-.864-.328-1.504.24-.641.57-.487 1.989.234 2.26.722.27 1.402-.46 1.62-.93.217-.468.176-1.292-.35-1.57zM-7.63 71.412s.512-4.842 4.448-7.515c3.936-2.672 8.844-3.52 12.108-5.447a33.25 33.25 0 006.024-4.6c.476-.46-4.69 5.982-7.367 7.556-2.677 1.576-8.382 4.49-9.946 5.613-1.563 1.122-5.267 4.393-5.267 4.393zm35.019-17.667s-5.242 3.511-6.865 8.638c-1.622 5.126-.288 8.811 1.207 11.442 1.494 2.632 6.395 6.136 7.436 5.679 1.04-.457.707-2.437-.91-3.87-1.617-1.433-4.934-4.716-5.163-8.001-.229-3.285.72-9.598 4.295-13.888zm5.275.588s4.4 2.39 8.638 3.261c4.239.872 7.979 4.241 9.158 6.061 1.179 1.82 3.887 6.76 2.88 7.006-1.009.245-3.456-.349-5.285-2.436-1.828-2.089-4.058-3.928-6.553-5.902-2.495-1.976-8.042-5.908-8.838-7.99zm16.019-2.505s4.043-1.12 5.85-3.963c3.488-5.488 1.955-10.047-.35-13.012-1.276-1.638-5.593-4.404-7.037-2.097-1.444 2.308.856 3.583 2.613 5.392 1.489 1.529 3.541 3.726 2.915 6.912-.507 2.58-2.086 5.14-3.99 6.767z" fill="#00B1CD"/><path d="M5.678 33.587a.867.867 0 01-.848-.695l-.633-3.245A14.93 14.93 0 016.493 18.41a15.057 15.057 0 019.606-6.33c3.92-.759 7.98.063 11.29 2.286a14.98 14.98 0 016.359 9.563l.62 3.17a.858.858 0 01-.683 1.008.868.868 0 01-1.013-.68l-.618-3.166a13.265 13.265 0 00-5.663-8.357 13.375 13.375 0 00-9.93-1.981 13.33 13.33 0 00-8.46 5.538 13.218 13.218 0 00-2.108 9.86l.633 3.244a.857.857 0 01-.682 1.003.817.817 0 01-.166.02zm20.237 49.602c-3.195 0-7.37-3.153-9.317-10.285-1.625-5.923.454-11.668 1.57-14.747.2-.512.373-1.034.52-1.563.19-.903.453-2.138.04-2.701-.208-.287-.638-.457-1.279-.522-1.124-.109-2.397 1.594-3.743 3.398-1.173 1.577-2.504 3.355-4.195 4.64-1.496 1.136-5.549 3.267-8.503 4.828-.84.441-1.564.823-2.05 1.089-1.086.592-2.137 1.56-3.153 2.5-1.665 1.535-3.24 2.985-4.938 2.664-.73-.143-1.364-.625-1.784-1.367-.737-1.305-.762-3.195-.065-5.057 1.008-2.723 4.791-5.172 7.774-6.754 2.304-1.219 7.733-4.806 9.023-6.19 1.29-1.385 2.067-4.602 1.628-6.847l-.642-3.289a.857.857 0 01.69-.96.867.867 0 011.003.632l.642 3.29c.547 2.795-.375 6.539-2.057 8.343-1.527 1.643-7.223 5.345-9.473 6.54-3.853 2.038-6.335 4.11-6.974 5.834-.615 1.644-.41 2.974-.048 3.613.117.208.317.468.602.522.842.16 2.16-1.059 3.44-2.236 1.094-1.003 2.224-2.053 3.497-2.747.498-.27 1.228-.655 2.073-1.1 2.735-1.444 6.884-3.625 8.268-4.676 1.497-1.136 2.75-2.816 3.855-4.3 1.718-2.303 3.202-4.299 5.301-4.084 1.152.115 1.992.525 2.501 1.218.864 1.181.529 2.785.257 4.072-.16.607-.355 1.204-.585 1.789-1.051 2.906-3.008 8.312-1.533 13.714 1.871 6.88 5.725 9.152 7.85 9.009.914-.062 1.644-.43 2.112-1.057a2.688 2.688 0 00.455-2.15c-.095-.403-1.084-1.453-1.878-2.292-1.993-2.114-4.723-5.008-4.744-8.155-.033-4.873 1.526-8.842 2.839-11.323.177-.332.341-.652.5-.956 1.18-2.293 2.114-4.09 4.373-3.974 1.584.084 3.264 1.872 5.04 3.764.863.916 1.67 1.78 2.303 2.243 1.906 1.384 6.657 5.072 8.704 6.914a23.113 23.113 0 011.903 2.053c1.423 1.654 3.03 3.525 4.463 3.525h.104a1.754 1.754 0 001.322-.666c.688-.86.82-2.39.653-3.455-.223-1.425-1.378-4.37-4.289-6.38-.99-.683-2.076-1.395-3.224-2.149-2.28-1.496-4.635-3.044-6.191-4.347a.86.86 0 01.882-1.454c.169.067.346.143.533.22 1.92.804 4.823 2.02 9.09 1.332 1.978-.32 3.958-1.72 5.434-3.854 1.894-2.738 2.659-6.141 2.045-9.107-.613-2.965-3.508-6.644-6.721-8.51-1.411-.82-3.522-1.658-5.572-1.003-1.254.401-1.97 1.026-2.132 1.856-.24 1.245.753 2.924 1.85 3.828.363.298.766.6 1.192.917 2.508 1.863 5.943 4.43 3.585 9.247-.76 1.554-1.832 2.58-3.182 3.038-1.64.562-3.654.271-5.985-.86-4.672-2.271-6.027-6.635-6.638-9.72-.255-1.29-.288-1.476-.288-1.493a.859.859 0 01.704-1.007.87.87 0 01.883.401c.06.098.099.207.116.32 0 0 .036.2.288 1.446.87 4.39 2.63 7.015 5.703 8.509 1.904.926 3.472 1.19 4.663.78.914-.312 1.63-1.021 2.19-2.163 1.613-3.297-.166-4.958-3.066-7.12a32.345 32.345 0 01-1.257-.966c-1.456-1.199-2.843-3.424-2.447-5.48.199-1.026.931-2.409 3.3-3.167 2.103-.674 4.513-.275 6.97 1.147 3.652 2.122 6.825 6.18 7.543 9.648.709 3.416-.158 7.31-2.315 10.43-1.766 2.552-4.103 4.177-6.58 4.575-1.756.294-3.547.3-5.304.018.55.366 1.111.735 1.667 1.1 1.105.727 2.25 1.478 3.258 2.173 3.167 2.189 4.68 5.422 5.011 7.526.215 1.367.078 3.44-1.008 4.798a3.466 3.466 0 01-2.558 1.304h-.217c-2.22 0-4.1-2.188-5.766-4.126a22.026 22.026 0 00-1.75-1.896c-2.006-1.806-6.684-5.432-8.563-6.805-.763-.557-1.628-1.478-2.544-2.453-1.26-1.34-2.984-3.175-3.872-3.222-1.054-.056-1.536.698-2.747 3.044-.16.31-.329.635-.508.973-1.247 2.307-2.687 5.996-2.66 10.508.018 2.472 2.478 5.084 4.276 6.99 1.22 1.29 2.102 2.228 2.304 3.081a4.384 4.384 0 01-.749 3.57c-.767 1.033-1.97 1.656-3.385 1.752-.106.005-.213.01-.313.01z" fill="#182A34"/><path d="M7.882 42.777a3.416 3.416 0 01-1.179-.079 4.598 4.598 0 01-1.137-.43 5.239 5.239 0 01-1.831-1.67 6.831 6.831 0 01-1-2.264 5.854 5.854 0 01-.126-.625 5.03 5.03 0 01.115-1.984c.114-.427.282-.838.502-1.222.107-.188.222-.37.347-.546a6.71 6.71 0 01.4-.495 8.014 8.014 0 011.898-1.536 10.861 10.861 0 012.147-.96 9.67 9.67 0 012.267-.465c-.662.393-1.296.784-1.912 1.196-.604.4-1.184.836-1.736 1.305-1.074.912-1.96 1.981-2.243 3.154a3.881 3.881 0 00-.094 1.351 8.469 8.469 0 00.307 1.453c.046.162.1.318.157.476a5 5 0 00.193.459 5.707 5.707 0 002.925 2.882z" fill="#182A34"/><path d="M7.63 43.594h-.082c-.158-.016-3.904-.423-4.895-5.47a.856.856 0 01.372-.882.871.871 0 01.96.004.863.863 0 01.364.55c.73 3.738 3.257 4.074 3.365 4.086a.865.865 0 01.78.933.858.858 0 01-.864.779z" fill="#182A34"/><path d="M10.151 40.764a3.804 3.804 0 003.813-3.795 3.804 3.804 0 00-3.813-3.795A3.804 3.804 0 006.34 36.97a3.804 3.804 0 003.812 3.795z" fill="#DEFBFF"/><path d="M10.15 41.626a4.691 4.691 0 01-2.88-.987 4.656 4.656 0 01-1.659-2.543 4.637 4.637 0 01.265-3.02 4.664 4.664 0 012.077-2.218 4.697 4.697 0 015.672.995 4.64 4.64 0 01-1.28 7.225 4.711 4.711 0 01-2.195.548zm0-7.596a2.957 2.957 0 00-1.698.531 2.922 2.922 0 00-.186 4.667 2.954 2.954 0 004.568-1.063 2.923 2.923 0 00-.81-3.458 2.955 2.955 0 00-1.867-.673l-.007-.004z" fill="#182A34"/><path d="M10.151 38.704c.962 0 1.742-.777 1.742-1.735 0-.957-.78-1.734-1.742-1.734s-1.742.777-1.742 1.734c0 .958.78 1.735 1.742 1.735zm25.134-1.231a5.69 5.69 0 001.63-3.765v-.498a4.5 4.5 0 00-.034-.498 8.152 8.152 0 00-.153-1.004 4.262 4.262 0 00-.708-1.685c-.706-.982-1.93-1.642-3.268-2.087a18.48 18.48 0 00-2.1-.559 39.844 39.844 0 00-2.222-.394 9.58 9.58 0 012.277-.416 10.8 10.8 0 012.351.09c.812.117 1.6.359 2.338.716.189.093.375.198.558.31.182.111.356.239.526.377a5.02 5.02 0 011.895 3.37 6.83 6.83 0 01-.07 2.471 5.22 5.22 0 01-1.07 2.232c-.26.311-.56.588-.893.82a3.376 3.376 0 01-1.057.52z" fill="#182A34"/><path d="M35.5 38.2a.867.867 0 01-.83-.651.857.857 0 01.425-.963c.11-.06 2.304-1.319 1.584-5.044a.857.857 0 01.683-1.008.867.867 0 011.013.68c.986 5.047-2.332 6.822-2.475 6.895a.86.86 0 01-.4.092z" fill="#182A34"/><path d="M30.994 36.73c2.105 0 3.812-1.7 3.812-3.795a3.804 3.804 0 00-3.812-3.795 3.804 3.804 0 00-3.813 3.795 3.804 3.804 0 003.813 3.795z" fill="#DEFBFF"/><path d="M30.994 37.588a4.698 4.698 0 01-2.973-1.065 4.635 4.635 0 01-1.294-5.491 4.66 4.66 0 011.876-2.097 4.691 4.691 0 015.364.41A4.652 4.652 0 0135.5 31.7a4.632 4.632 0 01-.107 2.806 4.655 4.655 0 01-1.71 2.234 4.688 4.688 0 01-2.69.847zM28.1 33.494c.11.57.389 1.095.8 1.508a2.954 2.954 0 003.212.653 2.947 2.947 0 001.33-1.076 2.928 2.928 0 00-1.306-4.35 2.954 2.954 0 00-3.584 1.066 2.929 2.929 0 00-.452 2.199z" fill="#182A34"/><path d="M30.994 34.67c.962 0 1.742-.777 1.742-1.735 0-.958-.78-1.734-1.742-1.734s-1.742.776-1.742 1.734.78 1.734 1.742 1.734zm-9.419 7.254c-1.12 0-2.315-.49-2.908-1.89a.856.856 0 01.468-1.108.868.868 0 011.123.438c.387.913 1.255.893 1.74.799.824-.16 1.242-.62 1.312-1.448a.862.862 0 01.936-.788.868.868 0 01.792.931c-.136 1.596-1.122 2.685-2.705 2.991-.25.05-.503.075-.758.075z" fill="#182A34"/></g><path d="M42.203 28.713a.868.868 0 01-.191-.021c-.215-.05-2.144-.56-4.016-3.526-1.89-2.994-1.295-6.503-1.275-6.652a.859.859 0 01.602-.675c.026 0 2.62-.8 6.282-2.942 2.34-1.367 3.525-4.125 4.478-6.34.844-1.964 1.455-3.387 2.758-3.387h.032c2.16.039 4.35 2.24 6.497 6.542a46.658 46.658 0 013.614 10.274c.537 2.555.432 3.644-.39 4.02-1.008.461-2.423.164-4.211-.21-2.12-.447-4.759-1.004-7.158-.303-3.29.957-6.515 3.057-6.547 3.077a.865.865 0 01-.475.143zm-3.834-9.41c-.07.953-.069 3.113 1.09 4.948 1.083 1.72 2.147 2.398 2.65 2.643.987-.607 3.742-2.208 6.63-3.051 2.818-.82 5.692-.215 8 .27 1.102.232 2.235.47 2.856.4.069-1.891-2.304-10.687-5.729-15.317-1.083-1.462-2.108-2.258-2.97-2.303-.314.223-.84 1.443-1.225 2.341-.996 2.318-2.361 5.492-5.19 7.146-2.89 1.69-5.126 2.577-6.112 2.923z" fill="#182A34"/><path d="M60.233 25.228c1.87-.905 1.288-5.936-1.3-11.237-2.59-5.3-6.205-8.863-8.075-7.957-1.87.905-1.288 5.936 1.3 11.236 2.59 5.3 6.204 8.864 8.075 7.958z" fill="#182A34"/><path d="M59.583 26.23c-2.636 0-5.985-4.048-8.206-8.587-1.296-2.649-2.148-5.327-2.404-7.543-.373-3.222.61-4.411 1.501-4.843.891-.431 2.44-.467 4.751 1.815 1.593 1.576 3.182 3.892 4.476 6.54 1.295 2.65 2.148 5.328 2.404 7.544.373 3.22-.611 4.411-1.502 4.842a2.332 2.332 0 01-1.02.233zM51.496 6.753a.594.594 0 00-.26.052c-.425.205-.757 1.244-.542 3.098.235 2.03 1.031 4.51 2.242 6.99 1.21 2.48 2.68 4.633 4.138 6.078 1.333 1.313 2.358 1.694 2.783 1.49.425-.206.756-1.245.541-3.1-.235-2.029-1.03-4.51-2.242-6.99-1.21-2.477-2.68-4.633-4.137-6.07-1.112-1.095-2.009-1.548-2.523-1.548z" fill="#182A34"/><mask id="d" style="mask-type:luminance" maskUnits="userSpaceOnUse" x="49" y="5" width="13" height="21"><path d="M60.234 25.228c1.871-.905 1.289-5.936-1.3-11.237-2.589-5.3-6.204-8.863-8.075-7.957-1.87.905-1.288 5.936 1.3 11.236 2.59 5.3 6.205 8.864 8.075 7.958z" fill="#fff"/></mask><g mask="url(#d)"><path d="M54.684 20.321c1.793-.868 2.491-3.12 1.558-5.029-.932-1.909-3.142-2.753-4.935-1.885-1.794.868-2.492 3.12-1.56 5.029.933 1.91 3.143 2.753 4.937 1.885z" fill="#FEAF86"/><path d="M53.192 21.523a4.481 4.481 0 01-1.606-.303 4.91 4.91 0 01-2.613-2.41 4.877 4.877 0 01-.293-3.535 4.286 4.286 0 012.25-2.641 4.324 4.324 0 013.477-.126 4.907 4.907 0 012.613 2.41c.538 1.1.642 2.362.291 3.535a4.3 4.3 0 01-4.119 3.07zm-.39-7.596a2.544 2.544 0 00-1.963.915 2.605 2.605 0 00-.507.944 3.164 3.164 0 00.194 2.274 3.186 3.186 0 001.677 1.558 2.593 2.593 0 002.95-.728c.233-.276.406-.598.506-.945a3.082 3.082 0 00-.194-2.284 3.108 3.108 0 00-1.677-1.558 2.786 2.786 0 00-.986-.18v.004z" fill="#182A34"/></g><path d="M59.583 26.23c-2.636 0-5.985-4.048-8.206-8.587-1.296-2.649-2.148-5.327-2.404-7.543-.373-3.222.61-4.411 1.501-4.843.891-.431 2.44-.467 4.751 1.815 1.593 1.576 3.182 3.892 4.476 6.54 1.295 2.65 2.148 5.328 2.404 7.544.373 3.22-.611 4.411-1.502 4.842a2.332 2.332 0 01-1.02.233zM51.496 6.753a.594.594 0 00-.26.052c-.425.205-.757 1.244-.542 3.098.235 2.03 1.031 4.51 2.242 6.99 1.21 2.48 2.68 4.633 4.138 6.078 1.333 1.313 2.358 1.694 2.783 1.49.425-.206.756-1.245.541-3.1-.235-2.029-1.03-4.51-2.242-6.99-1.21-2.477-2.68-4.633-4.137-6.07-1.112-1.095-2.009-1.548-2.523-1.548z" fill="#182A34"/></g><defs><clipPath id="clip0_297_510"><path fill="#fff" transform="translate(0 .2)" d="M0 0h225v58H0z"/></clipPath></defs></svg>