<svg width="44" height="44" fill="none" xmlns="http://www.w3.org/2000/svg"><path fill-rule="evenodd" clip-rule="evenodd" d="M22 42c-9.428 0-14.14 0-17.072-2.928C2 36.144 2 31.428 2 22 2 12.572 2 7.86 4.928 4.928 7.858 2 12.572 2 22 2c9.428 0 14.144 0 17.07 2.928C42 7.858 42 12.572 42 22c0 9.428 0 14.144-2.93 17.07C36.142 42 31.428 42 22 42zm9.274-29.94a1.5 1.5 0 010 2.122l-7.531 7.531 7.41 7.41a1.5 1.5 0 11-2.122 2.121l-7.41-7.41-7.318 7.319a1.5 1.5 0 11-2.121-2.122l7.318-7.318-7.44-7.44a1.5 1.5 0 012.122-2.12l7.44 7.439 7.53-7.531a1.5 1.5 0 012.122 0z" fill="#007AA1"/></svg>