<svg width="44" height="44" fill="none" xmlns="http://www.w3.org/2000/svg"><path fill-rule="evenodd" clip-rule="evenodd" d="M4.928 39.072C7.86 42 12.572 42 22 42c9.428 0 14.142 0 17.07-2.93C42 36.144 42 31.428 42 22s0-14.142-2.93-17.072C36.144 2 31.428 2 22 2S7.858 2 4.928 4.928C2 7.86 2 12.572 2 22c0 9.428 0 14.144 2.928 17.072zM35.5 30a1.5 1.5 0 01-1.5 1.5H10a1.5 1.5 0 110-3h24a1.5 1.5 0 011.5 1.5zM34 23.5a1.5 1.5 0 100-3H10a1.5 1.5 0 100 3h24zm1.5-9.5a1.5 1.5 0 01-1.5 1.5H10a1.5 1.5 0 110-3h24a1.5 1.5 0 011.5 1.5z" fill="#007AA1"/></svg>