<svg width="1440" height="218" fill="none" xmlns="http://www.w3.org/2000/svg"><path d="M0 81.798V216.38h1440V14.925c-42.02-11.693-88.1-17.396-152.35-13.91-148.21 8.006-204.86 163.353-496.715 108.143-148.205-28.022-220.32-5.99-316.455 28.051-96.134 34.042-210.326 60.077-376.56-24.047C63.88 95.939 31.162 86.205 0 81.798z" fill="#00B1CD"/><path d="M0 87.962V216.38h1440V17.286c-35.34-7.315-75.08-10.396-126.43-7.632-148.21 8.007-204.86 163.354-496.716 108.144-148.204-28.022-220.32-5.99-316.454 28.051-96.134 34.042-210.298 60.077-376.56-24.048C80.208 99.712 38.822 89.978 0 87.961z" fill="#007AA1"/></svg>