<svg width="375" height="81" fill="none" xmlns="http://www.w3.org/2000/svg"><g clip-path="url(#clip0_327_24097)"><path d="M592.99 116.248c-250.267-.026-501.729-.026-751.99-.026v-70.61c3.734-.298 7.389-1.055 11.035-1.849 11.233-2.45 22.079-6.1 32.55-10.82 5.489-2.476 10.867-5.197 16.278-7.844a214.673 214.673 0 0113.3-5.948c10.252-4.183 20.655-7.949 31.35-10.9a246.212 246.212 0 0128.9-6.14C-19.759 1.232-13.879.6-8.004.36-2.78.147 2.451-.24 7.71.204c3.734.314 7.505.303 11.26.543 3.88.246 7.739.632 11.572 1.16 5.243.726 10.46 1.65 15.656 2.72 9.599 1.985 19.02 4.58 28.357 7.515 8.956 2.815 17.756 6.09 26.639 9.124 10.157 3.467 20.382 6.72 30.769 9.447 6.366 1.67 12.816 2.992 19.291 4.151 3.729.669 7.5 1.092 11.254 1.62 2.732.38 5.473.663 8.231.84 3.227.209 6.444.669 9.671.705 10.45.11 20.905.287 31.334-.742 3.259-.318 6.543-.438 9.792-.835 5.807-.705 11.609-1.447 17.384-2.355a601.824 601.824 0 0019.516-3.4c6.465-1.238 12.977-2.172 19.5-3.008 5.374-.69 10.784-1.165 16.189-1.577a295 295 0 0114.251-.726c8.064-.22 16.116.026 24.169.642 2.58.199 5.17.355 7.739.627 4.706.501 9.395 1.138 14.059 1.99 6.005 1.096 11.974 2.345 17.876 3.932 14.465 3.885 28.32 9.348 41.762 15.912 12.377 6.042 24.357 12.842 36.54 19.255 5.755 3.029 11.578 5.922 17.531 8.57 8.33 3.702 16.873 6.73 25.746 8.82 5.63 1.321 11.348 2.146 17.098 2.663 3.572.319 7.18.475 10.758.496 7.337.032 14.674.261 22.011-.146 4.998-.277 9.991-.559 14.967-1.08a211.974 211.974 0 0013.918-1.928c6.501-1.128 12.93-2.58 19.301-4.303.637-.172 1.17-.413 1.154-1.04" fill="#F3F6F8"/><path d="M-159 47.031c15.364-.898 30.305-3.88 44.786-9.102 7.484-2.7 14.7-5.98 21.808-9.53 19.552-9.771 39.815-17.647 61.137-22.665C-16.714 2.303-1.977.35 12.99.04c22.894-.474 45.172 3.218 67.085 9.58 11.886 3.447 23.484 7.755 35.188 11.745 13.4 4.564 26.905 8.758 40.77 11.708a228.706 228.706 0 0030.419 4.382c15.051 1.133 30.06.673 45.063-.768 13.813-1.326 27.459-3.713 41.105-6.162 17.139-3.081 34.404-4.93 51.836-5.202 22.973-.36 45.522 2.309 67.555 8.957 14.168 4.277 27.699 10.1 40.885 16.779 10.22 5.18 20.205 10.805 30.336 16.157 12.988 6.868 26.205 13.181 40.494 16.947 8.606 2.271 17.363 3.457 26.257 3.801 9.912.387 19.819.497 29.73-.01 11.082-.564 22.42-1.854 33.287-4.136.021 1.718 0 4.33 0 4.33l-1.154.36c-6.371 1.718-12.8 3.175-19.302 4.303a207.677 207.677 0 01-13.917 1.927c-4.982.522-9.969.804-14.967 1.08-7.337.408-14.68.178-22.012.147a125.577 125.577 0 01-10.758-.496c-5.749-.517-11.468-1.342-17.097-2.663-8.878-2.084-17.422-5.118-25.746-8.82-5.948-2.649-11.776-5.542-17.531-8.57-12.184-6.408-24.158-13.208-36.54-19.255-13.442-6.564-27.297-12.027-41.763-15.912-5.901-1.583-11.865-2.836-17.875-3.933-4.659-.85-9.354-1.483-14.059-1.99-2.569-.276-5.159-.428-7.739-.626-8.048-.616-16.106-.862-24.169-.642-4.752.13-9.509.365-14.251.725-5.405.413-10.816.883-16.189 1.578-6.523.835-13.035 1.775-19.5 3.008a601.824 601.824 0 01-19.516 3.4c-5.776.908-11.578 1.65-17.385 2.355-3.248.391-6.533.511-9.791.835-10.429 1.029-20.884.851-31.334.742-3.227-.037-6.444-.496-9.672-.705a108.488 108.488 0 01-8.23-.841c-3.755-.528-7.525-.95-11.254-1.619-6.475-1.16-12.93-2.48-19.291-4.152-10.382-2.726-20.607-5.98-30.769-9.447-8.883-3.034-17.683-6.308-26.64-9.123-9.337-2.935-18.758-5.53-28.356-7.515-5.196-1.07-10.413-1.995-15.656-2.72a158.395 158.395 0 00-11.573-1.16c-3.755-.235-7.525-.23-11.26-.543-5.263-.444-10.496-.052-15.713.157-5.875.24-11.75.872-17.583 1.749a246.204 246.204 0 00-28.9 6.141c-10.695 2.95-21.098 6.716-31.35 10.9a211.545 211.545 0 00-13.3 5.947c-5.411 2.648-10.79 5.369-16.278 7.844-10.471 4.721-21.318 8.371-32.551 10.82-3.64.8-7.295 1.552-11.029 1.85V47.03z" fill="#00B0CC"/></g><defs><clipPath id="clip0_327_24097"><path fill="#fff" d="M0 0h375v86H0z"/></clipPath></defs></svg>