<svg width="375" height="116" fill="none" xmlns="http://www.w3.org/2000/svg"><g clip-path="url(#clip0_237_17124)"><path d="M754 42.83v70.47H0V7.815C22.002 1.692 46.13-1.294 79.773.53c77.602 4.192 107.264 85.534 260.085 56.626C417.46 42.483 455.22 54.02 505.557 71.844c50.337 17.825 110.129 31.457 197.171-12.591C720.554 50.235 737.682 45.138 754 42.83z" fill="#00B1CD"/><path d="M754 47.943v67.241H0V10.936c18.503-3.83 39.313-5.443 66.201-3.996 77.602 4.192 107.264 85.534 260.085 56.625 77.602-14.672 115.362-3.136 165.699 14.688 50.337 17.825 110.114 31.457 197.171-12.591 22.846-11.567 44.517-16.664 64.844-17.72z" fill="#F3F6F8"/></g><defs><clipPath id="clip0_237_17124"><path fill="#fff" d="M0 0h375v116H0z"/></clipPath></defs></svg>