<svg width="1440" height="221" fill="none" xmlns="http://www.w3.org/2000/svg"><path d="M1440 81.798V216.38H0V14.925C42.02 3.232 88.1-2.471 152.352 1.015 300.557 9.02 357.206 164.367 649.066 109.157c148.204-28.022 220.32-5.99 316.454 28.051 96.13 34.042 210.33 60.077 376.56-24.047 34.04-17.223 66.76-26.957 97.92-31.364z" fill="#00B1CD"/><path d="M1440 91.562V219.98H0V20.886c35.337-7.315 75.082-10.396 126.432-7.631 148.205 8.006 204.854 163.353 496.714 108.143 148.204-28.022 220.32-5.99 316.454 28.051 96.13 34.042 210.3 60.077 376.56-24.048 43.63-22.089 85.02-31.823 123.84-33.84z" fill="#182A34"/></svg>