<svg width="375" height="113" fill="none" xmlns="http://www.w3.org/2000/svg"><g clip-path="url(#clip0_237_17026)"><path d="M753 42.556v70.018H0V7.764C21.973 1.682 46.069-1.285 79.667.529c77.499 4.165 107.122 84.985 259.74 56.263 77.499-14.58 115.209-3.117 165.479 14.593 50.271 17.71 109.984 31.256 196.91-12.51 17.802-8.96 34.908-14.025 51.204-16.318z" fill="#00B1CD"/><path d="M753 45.763v66.811H0V8.994c18.479-3.806 39.261-5.41 66.113-3.971 77.499 4.165 107.122 84.986 259.74 56.263 77.499-14.58 115.209-3.117 165.479 14.593 50.271 17.71 109.969 31.256 196.91-12.51C711.058 51.875 732.7 46.811 753 45.762z" fill="#007AA1"/></g><defs><clipPath id="clip0_237_17026"><path fill="#fff" d="M0 0h375v113H0z"/></clipPath></defs></svg>