<svg width="375" height="113" fill="none" xmlns="http://www.w3.org/2000/svg"><g clip-path="url(#clip0_237_17238)"><path d="M0 42.66v70.188h751V7.784c-21.917-6.098-45.949-9.072-79.456-7.255-77.293 4.176-106.837 85.193-259.05 56.4-77.293-14.614-114.903-3.124-165.039 14.63-50.137 17.753-109.692 31.331-196.387-12.542C33.314 50.035 16.252 44.958 0 42.66z" fill="#00B1CD"/><path d="M0 45.875v66.974h751V9.016c-18.431-3.815-39.158-5.423-65.938-3.98-77.293 4.175-106.837 85.193-259.05 56.4-77.293-14.615-114.903-3.125-165.039 14.629-50.137 17.753-109.677 31.331-196.387-12.542C41.831 52.003 20.247 46.926 0 45.875z" fill="#007AA1"/></g><defs><clipPath id="clip0_237_17238"><path fill="#fff" d="M0 0h375v113H0z"/></clipPath></defs></svg>