<svg width="375" height="113" fill="none" xmlns="http://www.w3.org/2000/svg"><g clip-path="url(#clip0_237_17241)"><path d="M0 70.616V.427h751v105.065c-21.914 6.098-45.946 9.072-79.456 7.255-77.293-4.176-106.837-85.193-259.05-56.4-77.293 14.614-114.903 3.124-165.039-14.63C197.318 23.964 137.764 10.386 51.068 54.26 33.313 63.24 16.253 68.318 0 70.616z" fill="#00B1CD"/><path d="M0 67.401V.427h751V104.26c-18.429 3.815-39.157 5.422-65.938 3.981-77.293-4.176-106.837-85.194-259.05-56.4-77.293 14.614-114.903 3.124-165.039-14.63C210.836 19.458 151.297 5.88 64.586 49.753 41.831 61.273 20.246 66.35 0 67.4z" fill="#007AA1"/></g><defs><clipPath id="clip0_237_17241"><path fill="#fff" transform="rotate(-180 187.5 56.5)" d="M0 0h375v113H0z"/></clipPath></defs></svg>