<svg width="375" height="115" fill="none" xmlns="http://www.w3.org/2000/svg"><g clip-path="url(#clip0_237_17052)"><path d="M748 42.603v70.095H0V7.773c21.827-6.09 45.763-9.06 79.138-7.245 76.985 4.17 106.411 85.08 258.016 56.325 76.984-14.595 114.444-3.12 164.38 14.61 49.936 17.73 109.253 31.29 195.602-12.525 17.684-8.97 34.676-14.04 50.864-16.335z" fill="#00B1CD"/><path d="M748 47.688v66.885H0V10.878c18.356-3.81 39-5.415 65.674-3.975 76.985 4.17 106.411 85.08 258.016 56.325 76.984-14.595 114.444-3.12 164.38 14.61 49.936 17.73 109.238 31.29 195.602-12.525C706.336 53.808 727.835 48.738 748 47.688z" fill="#DEFBFF"/></g><defs><clipPath id="clip0_237_17052"><path fill="#fff" d="M0 0h375v115H0z"/></clipPath></defs></svg>