<svg width="1440" height="210" fill="none" xmlns="http://www.w3.org/2000/svg"><g clip-path="url(#clip0_325_24089)"><path d="M1439.98 237.291c-479.233-.05-960.757-.05-1439.98-.05V102.03c7.15-.57 14.15-2.02 21.13-3.54 21.51-4.69 42.28-11.68 62.33-20.72 10.51-4.74 20.811-9.95 31.171-15.02 8.36-4.09 16.86-7.88 25.47-11.39 19.63-8.01 39.55-15.22 60.03-20.87a471.508 471.508 0 0155.341-11.76c11.16-1.68 22.42-2.89 33.67-3.35 10-.41 20.02-1.15 30.09-.3 7.15.6 14.37.58 21.56 1.04 7.43.47 14.82 1.21 22.161 2.22 10.04 1.39 20.03 3.16 29.98 5.21 18.38 3.8 36.42 8.77 54.3 14.39 17.15 5.39 34 11.66 51.01 17.47 19.451 6.64 39.031 12.87 58.921 18.09 12.19 3.2 24.54 5.73 36.94 7.95 7.14 1.28 14.36 2.09 21.55 3.1 5.23.73 10.48 1.27 15.76 1.61 6.18.4 12.34 1.28 18.521 1.35 20.01.21 40.03.55 60-1.42 6.24-.61 12.53-.84 18.75-1.6 11.12-1.35 22.23-2.77 33.29-4.51 12.49-1.96 24.95-4.14 37.371-6.51 12.38-2.37 24.85-4.16 37.34-5.76 10.29-1.32 20.65-2.23 31-3.02 9.08-.69 18.19-1.14 27.29-1.39 15.44-.42 30.86.05 46.281 1.23 4.94.38 9.9.68 14.82 1.2 9.01.96 17.99 2.18 26.92 3.81 11.5 2.1 22.933 4.49 34.233 7.53 27.7 7.44 54.23 17.9 79.97 30.47 23.7 11.57 46.64 24.59 69.97 36.87 11.02 5.8 22.17 11.34 33.57 16.41 15.95 7.09 32.31 12.89 49.3 16.89 10.78 2.531 21.73 4.111 32.74 5.101 6.84.61 13.75.91 20.6.95 14.05.06 28.1.5 42.15-.28 9.57-.53 19.13-1.07 28.66-2.07 8.93-.94 17.81-2.16 26.65-3.691 12.45-2.16 24.76-4.94 36.96-8.24 1.22-.33 2.24-.79 2.21-1.99" fill="#F3F6F8"/><path d="M0 90.06c29.42-1.72 58.03-7.43 85.76-17.43 14.331-5.17 28.151-11.45 41.761-18.25 37.44-18.71 76.24-33.79 117.071-43.4 27.87-6.57 56.09-10.31 84.75-10.9 43.841-.91 86.501 6.16 128.461 18.34 22.76 6.6 44.97 14.85 67.381 22.49 25.66 8.74 51.52 16.77 78.07 22.42 19.23 4.09 38.63 6.91 58.251 8.39 28.82 2.17 57.56 1.29 86.29-1.47 26.45-2.54 52.581-7.11 78.711-11.8 32.82-5.9 65.88-9.44 99.26-9.96 43.991-.69 87.174 4.42 129.364 17.15 27.13 8.19 53.04 19.34 78.29 32.13 19.57 9.92 38.69 20.69 58.09 30.94 24.87 13.15 50.18 25.24 77.54 32.45 16.48 4.35 33.25 6.62 50.28 7.28 18.98.74 37.95.95 56.93-.02 21.22-1.08 42.93-3.55 63.74-7.92.04 3.29 0 8.29 0 8.29l-2.21.69c-12.2 3.29-24.51 6.08-36.96 8.24-8.84 1.54-17.72 2.75-26.65 3.69-9.54 1-19.09 1.54-28.66 2.07-14.05.78-28.11.34-42.15.28-6.85-.03-13.76-.33-20.6-.95-11.01-.99-21.96-2.57-32.74-5.1-17-3.99-33.36-9.8-49.3-16.89-11.39-5.07-22.55-10.61-33.57-16.41-23.33-12.27-46.26-25.29-69.97-36.87-25.74-12.57-52.27-23.03-79.97-30.47-11.3-3.03-22.723-5.43-34.233-7.53-8.92-1.63-17.91-2.84-26.92-3.81-4.92-.53-9.88-.82-14.82-1.2-15.411-1.18-30.841-1.65-46.281-1.23-9.1.25-18.21.7-27.29 1.39-10.35.79-20.71 1.69-31 3.02-12.49 1.6-24.96 3.4-37.34 5.76a1154.044 1154.044 0 01-37.371 6.51c-11.06 1.74-22.17 3.16-33.29 4.51-6.22.75-12.51.98-18.75 1.6-19.97 1.97-39.99 1.63-60.001 1.42-6.18-.07-12.34-.95-18.52-1.35-5.28-.34-10.53-.87-15.76-1.61-7.19-1.01-14.41-1.82-21.55-3.1-12.4-2.22-24.76-4.75-36.94-7.95-19.88-5.22-39.46-11.45-58.921-18.09-17.01-5.81-33.86-12.08-51.01-17.47-17.88-5.62-35.92-10.59-54.3-14.39-9.95-2.05-19.94-3.82-29.98-5.21a303.386 303.386 0 00-22.161-2.22c-7.19-.45-14.41-.44-21.56-1.04-10.08-.85-20.1-.1-30.09.3-11.25.46-22.5 1.67-33.67 3.35a471.528 471.528 0 00-55.341 11.76c-20.48 5.65-40.4 12.86-60.03 20.87-8.61 3.51-17.11 7.29-25.47 11.39-10.36 5.07-20.66 10.28-31.17 15.02C63.4 86.81 42.63 93.8 21.12 98.49c-6.97 1.53-13.97 2.97-21.121 3.54V90.06z" fill="#00B0CC"/></g><defs><clipPath id="clip0_325_24089"><path fill="#fff" d="M0 0h1440v210H0z"/></clipPath></defs></svg>