<svg width="1440" height="218" fill="none" xmlns="http://www.w3.org/2000/svg"><g clip-path="url(#clip0_91_10502)"><path d="M0 135.402V.82h1440v201.455c-42.02 11.693-88.1 17.396-152.35 13.911-148.21-8.006-204.86-163.353-496.716-108.144-148.204 28.022-220.32 5.99-316.454-28.051-96.134-34.042-210.326-60.077-376.56 24.048C63.876 121.261 31.164 130.995 0 135.402z" fill="#00B1CD"/><path d="M0 129.238V.82h1440v199.094c-35.34 7.315-75.08 10.397-126.43 7.632-148.21-8.007-204.86-163.353-496.716-108.144-148.204 28.022-220.32 5.99-316.454-28.051-96.134-34.042-210.298-60.077-376.56 24.048C80.208 117.488 38.82 127.222 0 129.238z" fill="#007AA1"/></g><defs><clipPath id="clip0_91_10502"><path fill="#fff" transform="rotate(-180 720 108.6)" d="M0 0h1440v217.2H0z"/></clipPath></defs></svg>