<svg width="1440" height="221" fill="none" xmlns="http://www.w3.org/2000/svg"><g clip-path="url(#clip0_91_10392)"><path d="M0 139.002V4.42h1440v201.455c-42.02 11.693-88.1 17.396-152.35 13.911-148.21-8.007-204.86-163.354-496.716-108.144-148.204 28.022-220.32 5.99-316.454-28.051-96.134-34.042-210.326-60.077-376.56 24.047C63.876 124.861 31.164 134.595 0 139.002z" fill="#00B1CD"/><path d="M0 129.238V.819h1440v199.095c-35.34 7.315-75.08 10.396-126.43 7.631-148.21-8.006-204.86-163.353-496.716-108.143-148.204 28.022-220.32 5.99-316.454-28.051-96.134-34.042-210.298-60.077-376.56 24.048C80.208 117.488 38.82 127.222 0 129.238z" fill="#DEFBFF"/></g><defs><clipPath id="clip0_91_10392"><path fill="#fff" transform="rotate(-180 720 110.4)" d="M0 0h1440v220.8H0z"/></clipPath></defs></svg>