<svg width="375" height="109" fill="none" xmlns="http://www.w3.org/2000/svg"><g clip-path="url(#clip0_237_17447)"><path d="M752 42.55v70.282H0V7.628C21.943 1.52 46.007-1.457 79.562.363 156.957 4.544 186.54 85.67 338.956 56.838c77.396-14.633 115.056-3.128 165.26 14.65 50.203 17.776 109.837 31.373 196.648-12.559C718.643 49.935 735.725 44.851 752 42.55z" fill="#00B1CD"/><path d="M752 47.649V109.5H0V10.74c18.454-3.82 39.21-5.429 66.026-3.985C143.42 10.936 173.005 92.062 325.42 63.23c77.395-14.633 115.056-3.128 165.259 14.65 50.204 17.776 109.822 31.373 196.648-12.56 22.787-11.534 44.4-16.617 64.673-17.67z" fill="#182A34"/></g><defs><clipPath id="clip0_237_17447"><path fill="#fff" d="M0 0h375v109H0z"/></clipPath></defs></svg>