<svg width="375" height="115" fill="none" xmlns="http://www.w3.org/2000/svg"><g clip-path="url(#clip0_237_17104)"><path d="M0 72.686V2.311h753v105.345c-21.972 6.114-46.068 9.096-79.667 7.274-77.499-4.187-107.122-85.42-259.74-56.55-77.499 14.653-115.209 3.132-165.479-14.67-50.271-17.8-109.984-31.414-196.91 12.576C33.402 65.292 16.296 70.382 0 72.686z" fill="#00B1CD"/><path d="M0 67.58V.429h753v104.11c-18.479 3.825-39.261 5.437-66.113 3.991-77.499-4.187-107.122-85.42-259.74-56.55-77.499 14.653-115.209 3.132-165.479-14.669-50.271-17.8-109.969-31.415-196.91 12.575C41.942 61.437 20.3 66.528 0 67.582z" fill="#DEFBFF"/></g><defs><clipPath id="clip0_237_17104"><path fill="#fff" transform="rotate(-180 187.5 57.5)" d="M0 0h375v115H0z"/></clipPath></defs></svg>