<svg width="1340" height="300" viewBox="0 0 1340 300" fill="none" xmlns="http://www.w3.org/2000/svg">
<g clip-path="url(#clip0_93_14912)">
<rect width="1340" height="300" rx="20" fill="#0187B2"/>
<g clip-path="url(#clip1_93_14912)">
<path d="M1386.88 208.309L1395.28 338.159L8.16992 427.822L-4.39437 233.45C35.352 219.552 79.3837 211.181 141.494 210.543C284.754 209.039 349.011 355.396 626.706 283.956C767.72 247.69 838.56 264.457 933.286 291.316C1028.01 318.174 1139.63 336.184 1294.51 244.667C1326.23 225.93 1357.14 214.501 1386.88 208.309Z" fill="#007AA1"/>
<path d="M1387.27 214.256L1395.28 338.159L8.17039 427.822L-4.24661 235.729C29.3366 226.471 67.4285 221.023 117.065 220.493C260.325 218.99 324.583 365.347 602.278 293.906C743.291 257.641 814.131 274.408 908.858 301.266C1003.58 328.125 1115.18 346.136 1270.09 254.617C1310.74 230.588 1350 218.618 1387.27 214.256Z" fill="#00B1CD"/>
</g>
<g clip-path="url(#clip2_93_14912)">
<path d="M-71.7842 96.8486L-78.4376 -35.5836L1333.78 -106.534L1343.74 91.7037C1303.11 105.28 1258.2 113.162 1195.02 112.898C1049.27 112.322 986.038 -37.7519 702.539 30.9556C558.578 65.8325 486.765 47.7057 390.803 18.9448C294.84 -9.81635 181.564 -29.8093 22.6961 61.1618C-9.83965 79.7864 -41.4393 90.9771 -71.7842 96.8486Z" fill="#007AA1"/>
<path d="M-72.0889 90.7835L-78.4377 -35.5838L1333.78 -106.534L1343.62 89.3796C1309.33 98.319 1270.5 103.31 1220.01 103.119C1074.27 102.543 1011.03 -47.5312 727.531 21.1761C583.571 56.0531 511.758 37.9263 415.795 9.16553C319.833 -19.5956 206.585 -39.59 47.6889 51.3828C5.9907 75.2689 -34.1175 86.887 -72.0889 90.7835Z" fill="#00B1CD"/>
</g>
</g>
<defs>
<clipPath id="clip0_93_14912">
<rect width="1340" height="300" rx="20" fill="white"/>
</clipPath>
<clipPath id="clip1_93_14912">
<rect width="1390" height="210" fill="white" transform="translate(-5.3252 219.05) rotate(-3.69848)"/>
</clipPath>
<clipPath id="clip2_93_14912">
<rect width="1414" height="214" fill="white" transform="translate(1344.48 106.39) rotate(177.124)"/>
</clipPath>
</defs>
</svg>
