<svg width="456" height="420" viewBox="0 0 456 420" fill="none" xmlns="http://www.w3.org/2000/svg">
<g clip-path="url(#clip0_91_10512)">
<path d="M211.577 421.401C328.187 421.401 422.719 327.068 422.719 210.701C422.719 94.3338 328.187 0 211.577 0C94.9677 0 0.43689 94.3338 0.43689 210.701C0.43689 327.068 94.9677 421.401 211.577 421.401Z" fill="#FEAF86"/>
<mask id="mask0_91_10512" style="mask-type:luminance" maskUnits="userSpaceOnUse" x="0" y="0" width="423" height="422">
<path d="M211.587 421.401C328.197 421.401 422.728 327.068 422.728 210.701C422.728 94.3338 328.197 0 211.587 0C94.9773 0 0.447144 94.3338 0.447144 210.701C0.447144 327.068 94.9773 421.401 211.587 421.401Z" fill="white"/>
</mask>
<g mask="url(#mask0_91_10512)">
<path d="M333.059 177.774L310.437 192.018L343.706 244.636L366.327 230.392L333.059 177.774Z" fill="#FEAF86"/>
<path d="M343.654 250.835C342.585 250.833 341.536 250.563 340.6 250.047C339.665 249.533 338.876 248.788 338.306 247.888L305.03 195.259C304.136 193.843 303.843 192.13 304.216 190.498C304.587 188.865 305.593 187.447 307.011 186.555L329.636 172.303C331.055 171.411 332.77 171.118 334.406 171.487C336.042 171.856 337.463 172.857 338.358 174.271L371.637 226.9C372.08 227.601 372.382 228.384 372.522 229.201C372.663 230.02 372.64 230.858 372.456 231.667C372.27 232.477 371.929 233.242 371.448 233.919C370.967 234.596 370.358 235.173 369.654 235.615L347.029 249.865C346.017 250.501 344.848 250.835 343.654 250.835ZM319.173 193.871L345.627 235.772L357.556 228.268L331.04 186.333L319.173 193.871Z" fill="#182A34"/>
<path d="M297.585 188.032C307.299 183.319 311.078 171.095 306.027 160.728C300.976 150.361 289.007 145.777 279.295 150.49C269.581 155.202 265.802 167.427 270.853 177.794C275.904 188.16 287.873 192.744 297.585 188.032Z" fill="#182A34"/>
<path d="M289.501 196.09C284.383 196.014 279.389 194.509 275.082 191.747C270.776 188.986 267.331 185.076 265.136 180.46C261.996 174.122 261.395 166.826 263.46 160.062C264.449 156.743 266.12 153.665 268.364 151.023C270.607 148.382 273.377 146.234 276.496 144.716C289.333 138.495 305.111 144.389 311.682 157.872C314.823 164.207 315.423 171.499 313.36 178.26C312.376 181.59 310.708 184.679 308.465 187.332C306.22 189.985 303.447 192.144 300.324 193.669C296.947 195.287 293.246 196.114 289.501 196.09ZM287.391 154.862C285.564 154.864 283.761 155.278 282.118 156.073C280.562 156.84 279.182 157.922 278.067 159.251C276.953 160.579 276.127 162.124 275.641 163.788C274.523 167.489 274.867 171.477 276.602 174.934C280.114 182.155 288.309 185.46 294.87 182.302C296.421 181.528 297.797 180.444 298.911 179.116C300.025 177.789 300.854 176.247 301.346 174.588C302.46 170.885 302.116 166.899 300.386 163.441C299.234 160.938 297.402 158.807 295.097 157.291C292.793 155.775 290.109 154.933 287.35 154.862H287.391Z" fill="#182A34"/>
<path d="M397.883 137.635C407.596 132.922 411.376 120.698 406.325 110.331C401.274 99.9638 389.304 95.3802 379.591 100.093C369.879 104.805 366.1 117.03 371.151 127.397C376.202 137.764 388.17 142.347 397.883 137.635Z" fill="#FEAF86"/>
<path d="M389.841 145.694C384.72 145.62 379.723 144.116 375.414 141.354C371.108 138.592 367.66 134.681 365.465 130.064C358.894 116.581 363.999 100.592 376.836 94.2772C389.671 87.9619 405.45 93.9509 412.021 107.424C415.16 113.763 415.755 121.059 413.689 127.822C412.7 131.141 411.032 134.218 408.789 136.859C406.547 139.501 403.779 141.649 400.661 143.168C397.295 144.821 393.594 145.685 389.841 145.694ZM387.731 104.455C385.886 104.456 384.064 104.873 382.404 105.676C375.853 108.834 373.376 117.318 376.888 124.538C380.4 131.759 388.607 135.064 395.166 131.906C396.722 131.137 398.1 130.054 399.216 128.726C400.33 127.398 401.157 125.854 401.643 124.191C402.755 120.489 402.412 116.503 400.684 113.044C399.531 110.539 397.701 108.407 395.397 106.889C393.091 105.37 390.406 104.527 387.646 104.455H387.731Z" fill="#182A34"/>
<path d="M275.696 131.991C275.696 131.991 271.478 156.2 284.134 176.388C296.79 196.576 309.681 199.482 309.681 199.482C309.681 199.482 333.94 183.492 359.254 176.104C392.257 166.473 428.583 186.187 441.683 180.187C451.692 175.609 412.255 39.9243 372.997 39.219C360.077 38.9875 355.805 90.6049 323.076 109.74C295.177 126.16 275.696 131.991 275.696 131.991Z" fill="#00B1CD"/>
<path d="M309.68 205.796C309.207 205.796 308.736 205.742 308.277 205.638C306.705 205.28 292.572 201.523 278.86 179.755C265.01 157.757 269.367 131.991 269.515 130.907C269.716 129.754 270.237 128.68 271.016 127.804C271.793 126.929 272.801 126.287 273.924 125.949C274.113 125.886 293.12 120.065 319.963 104.34C337.092 94.2988 345.784 74.0477 352.756 57.7752C358.947 43.3551 363.43 32.9033 372.965 32.9033H373.208C389.029 33.1875 405.081 49.3547 420.809 80.9524C432.542 104.988 441.422 130.309 447.272 156.4C451.207 175.167 450.437 183.167 444.424 185.871C437.041 189.27 426.661 187.082 413.563 184.323C398.036 181.051 378.703 176.955 361.119 182.103C337.03 189.133 313.402 204.555 313.161 204.712C312.132 205.406 310.921 205.784 309.68 205.796ZM281.592 136.696C281.085 143.685 281.085 159.547 289.575 173.03C297.508 185.66 305.303 190.64 308.993 192.449C316.229 187.977 336.417 176.22 357.514 170.041C378.155 164.01 399.218 168.451 416.125 172.02C424.194 173.724 432.495 175.472 437.041 174.956C437.548 161.073 420.165 96.4671 395.073 62.459C387.141 51.7229 379.632 45.8918 373.312 45.5445C371.013 47.1865 367.175 56.1438 364.336 62.7432C357.038 79.763 347.038 103.077 326.314 115.224C305.145 127.633 288.775 134.117 281.54 136.696H281.592Z" fill="#182A34"/>
<mask id="mask1_91_10512" style="mask-type:luminance" maskUnits="userSpaceOnUse" x="275" y="39" width="169" height="161">
<path d="M275.695 131.991C275.695 131.991 271.477 156.2 284.133 176.388C296.79 196.576 309.68 199.482 309.68 199.482C309.68 199.482 333.939 183.492 359.254 176.104C392.256 166.473 428.582 186.187 441.682 180.187C451.691 175.609 412.254 39.9243 372.996 39.219C360.076 38.9875 355.804 90.6049 323.076 109.74C295.176 126.16 275.695 131.991 275.695 131.991Z" fill="white"/>
</mask>
<g mask="url(#mask1_91_10512)">
<path d="M313.77 104.204C313.77 104.204 315.226 132.433 326.196 154.916C337.166 177.398 363.639 192.135 363.639 192.135L298.782 217.216L244.399 136.591L313.77 104.204Z" fill="#FEAF86"/>
<path d="M298.783 223.531C297.742 223.536 296.717 223.284 295.796 222.797C294.876 222.31 294.092 221.604 293.51 220.743L239.137 140.117C238.627 139.361 238.289 138.504 238.141 137.605C237.996 136.706 238.046 135.786 238.289 134.908C238.534 134.03 238.964 133.215 239.552 132.519C240.142 131.823 240.874 131.263 241.7 130.876L311.072 98.4884C312.011 98.051 313.041 97.8503 314.077 97.904C315.111 97.9575 316.118 98.2638 317.006 98.7959C317.895 99.328 318.637 100.07 319.172 100.956C319.706 101.842 320.013 102.845 320.069 103.878C320.069 104.151 321.608 131.139 331.861 152.148C341.796 172.525 366.467 186.481 366.668 186.618C367.718 187.203 368.58 188.074 369.153 189.129C369.725 190.185 369.986 191.38 369.901 192.578C369.817 193.775 369.392 194.924 368.677 195.889C367.964 196.855 366.987 197.596 365.866 198.029L301.062 223.143C300.335 223.415 299.561 223.547 298.783 223.531ZM253.777 139.191L301.24 209.502L349.971 190.661C340.721 183.851 327.716 172.388 320.532 157.684C312.916 142.096 309.679 124.276 308.339 113.677L253.777 139.191Z" fill="#182A34"/>
</g>
<path d="M309.68 205.796C309.207 205.796 308.736 205.742 308.277 205.638C306.705 205.28 292.572 201.523 278.86 179.755C265.01 157.757 269.367 131.991 269.515 130.907C269.716 129.754 270.237 128.68 271.016 127.804C271.793 126.929 272.801 126.287 273.924 125.949C274.113 125.886 293.12 120.065 319.963 104.34C337.092 94.2988 345.784 74.0477 352.756 57.7752C358.947 43.3551 363.43 32.9033 372.965 32.9033H373.208C389.029 33.1875 405.081 49.3547 420.809 80.9524C432.542 104.988 441.422 130.309 447.272 156.4C451.207 175.167 450.437 183.167 444.424 185.871C437.041 189.27 426.661 187.082 413.563 184.323C398.036 181.051 378.703 176.955 361.119 182.103C337.03 189.133 313.402 204.555 313.161 204.712C312.132 205.406 310.921 205.784 309.68 205.796ZM281.592 136.696C281.085 143.685 281.085 159.547 289.575 173.03C297.508 185.66 305.303 190.64 308.993 192.449C316.229 187.977 336.417 176.22 357.514 170.041C378.155 164.01 399.218 168.451 416.125 172.02C424.194 173.724 432.495 175.472 437.041 174.956C437.548 161.073 420.165 96.4671 395.073 62.459C387.141 51.7229 379.632 45.8918 373.312 45.5445C371.013 47.1865 367.175 56.1438 364.336 62.7432C357.038 79.763 347.038 103.077 326.314 115.224C305.145 127.633 288.775 134.117 281.54 136.696H281.592Z" fill="#182A34"/>
<path d="M441.755 180.268C455.459 173.619 451.194 136.671 432.227 97.7441C413.26 58.8173 386.774 32.6514 373.07 39.301C359.366 45.9507 363.631 82.8977 382.598 121.825C401.565 160.752 428.049 186.917 441.755 180.268Z" fill="#182A34"/>
<path d="M436.956 187.577C417.654 187.577 393.11 157.831 376.836 124.507C367.343 105.056 361.098 85.3729 359.221 69.1004C356.489 45.4496 363.704 36.7028 370.232 33.5346C376.761 30.3664 388.101 30.1032 405.039 46.8599C416.715 58.3854 428.36 75.4473 437.832 94.8985C447.304 114.35 453.568 134.022 455.446 150.305C458.178 173.956 450.974 182.692 444.445 185.861C442.113 186.996 439.551 187.583 436.956 187.577ZM377.721 44.5128C377.06 44.4962 376.404 44.6293 375.802 44.9022C372.637 46.4073 370.265 54.0278 371.835 67.6583C373.555 82.552 379.388 100.782 388.258 118.981C397.129 137.18 407.899 153.021 418.572 163.567C428.339 173.219 435.849 176.008 438.96 174.503C442.073 172.998 444.498 165.378 442.926 151.747C441.207 136.853 435.375 118.623 426.503 100.425C417.633 82.2152 406.875 66.3848 396.19 55.8383C388.059 47.7967 381.486 44.5128 377.721 44.5128Z" fill="#182A34"/>
<mask id="mask2_91_10512" style="mask-type:luminance" maskUnits="userSpaceOnUse" x="365" y="38" width="85" height="144">
<path d="M441.766 180.268C455.471 173.619 451.206 136.671 432.239 97.7441C413.273 58.8173 386.788 32.6514 373.082 39.301C359.377 45.9507 363.642 82.8977 382.609 121.825C401.577 160.752 428.062 186.917 441.766 180.268Z" fill="white"/>
</mask>
<g mask="url(#mask2_91_10512)">
<path d="M401.108 144.251C414.247 137.876 419.36 121.341 412.527 107.32C405.696 93.2989 389.507 87.1005 376.368 93.4755C363.229 99.8507 358.116 116.385 364.947 130.406C371.778 144.428 387.968 150.626 401.108 144.251Z" fill="#FEAF86"/>
<path d="M390.137 152.988C386.112 152.976 382.121 152.227 378.366 150.778C369.999 147.464 363.18 141.142 359.251 133.058C355.323 124.975 354.572 115.717 357.145 107.108C358.387 102.907 360.496 99.0119 363.333 95.6697C366.168 92.3276 369.673 89.6122 373.619 87.6968C377.566 85.7814 381.869 84.7081 386.256 84.5452C390.642 84.3824 395.013 85.1338 399.092 86.7512C407.468 90.0579 414.299 96.3755 418.238 104.459C422.179 112.542 422.941 121.805 420.378 130.422C419.127 134.619 417.017 138.51 414.18 141.851C411.344 145.192 407.845 147.909 403.902 149.831C399.615 151.919 394.907 152.999 390.137 152.988ZM387.28 97.2031C384.446 97.1957 381.651 97.8365 379.105 99.0767C376.723 100.247 374.611 101.898 372.902 103.926C371.195 105.953 369.926 108.313 369.178 110.855C367.559 116.408 368.066 122.363 370.599 127.564C373.133 132.766 377.514 136.841 382.891 139C385.35 139.998 387.993 140.468 390.646 140.38C393.299 140.292 395.905 139.648 398.291 138.489C400.678 137.331 402.795 135.684 404.503 133.656C406.212 131.627 407.473 129.263 408.206 126.717C409.873 121.167 409.365 115.191 406.781 110.002C404.289 104.768 399.891 100.68 394.482 98.5714C392.188 97.6698 389.745 97.1988 387.28 97.182V97.2031Z" fill="#182A34"/>
</g>
<path d="M436.956 187.577C417.654 187.577 393.11 157.831 376.836 124.507C367.343 105.056 361.098 85.3729 359.221 69.1004C356.489 45.4496 363.704 36.7028 370.232 33.5346C376.761 30.3664 388.101 30.1032 405.039 46.8599C416.715 58.3854 428.36 75.4473 437.832 94.8985C447.304 114.35 453.568 134.022 455.446 150.305C458.178 173.956 450.974 182.692 444.445 185.861C442.113 186.996 439.551 187.583 436.956 187.577ZM377.721 44.5128C377.06 44.4962 376.404 44.6293 375.802 44.9022C372.637 46.4073 370.265 54.0278 371.835 67.6583C373.555 82.552 379.388 100.782 388.258 118.981C397.129 137.18 407.899 153.021 418.572 163.567C428.339 173.219 435.849 176.008 438.96 174.503C442.073 172.998 444.498 165.378 442.926 151.747C441.207 136.853 435.375 118.623 426.503 100.425C417.633 82.2152 406.875 66.3848 396.19 55.8383C388.059 47.7967 381.486 44.5128 377.721 44.5128Z" fill="#182A34"/>
<path d="M39.7793 441.536C39.7793 441.536 2.19834 492.563 -5.30085 521.099C-13.0322 550.464 1.88202 564.253 12.345 561.179C26.5527 557.053 38.0703 543.654 49.6621 510.31C61.2538 476.965 82.5067 446.778 82.5067 446.778C82.5067 446.778 76.3677 508.142 81.0943 529.793C85.8192 551.444 98.8988 582.494 118.739 581.147C138.578 579.8 134.56 542.645 131.891 527.466C129.222 512.289 146.774 449.524 159.81 443.82C172.846 438.115 198.235 454.914 212.01 469.291C225.784 483.67 234.16 485.606 245.624 530.96C256.521 573.968 283.004 576.874 294.522 558.59C306.04 540.307 297.044 503.437 283.343 479.523C269.642 455.609 234.75 431.284 240.625 417.612C242.893 412.348 260.77 409.433 285.179 424.505C312.802 441.567 242.039 352.647 242.039 352.647L104.837 357.711L39.7793 441.536Z" fill="#182A34"/>
<path d="M117.461 587.505C95.1645 587.505 80.6395 557.433 74.903 531.131C72.0643 518.068 72.8989 492.185 74.1326 472.355C66.8248 485.131 60.6385 498.514 55.6424 512.352C44.0401 545.73 31.6153 562.138 14.1063 567.211C7.77786 569.043 0.827149 567.043 -4.50985 561.854C-8.83439 557.644 -18.169 545.098 -11.4291 519.457C-3.70838 490.102 33.1131 439.884 34.674 437.757L34.7691 437.631L99.8373 353.807C100.405 353.076 101.125 352.479 101.949 352.056C102.773 351.636 103.679 351.398 104.604 351.364L241.806 346.29C242.797 346.254 243.784 346.45 244.685 346.864C245.587 347.276 246.378 347.896 246.996 348.67C247.123 348.838 260.772 366.006 273.629 383.626C281.233 394.046 287.097 402.624 291.064 409.118C297.392 419.455 300.04 425.959 295.988 430.464C291.338 435.726 284.196 431.275 281.845 429.822C262.469 417.855 249.221 419.022 246.288 420.581C245.476 425.476 257.291 438.273 265.212 446.895C273.945 456.368 282.963 466.125 288.838 476.366C303.826 502.533 312.802 541.425 299.88 561.939C293.606 571.885 283.658 576.854 273.27 575.211C258.07 572.821 245.762 557.244 239.518 532.489C230.215 495.764 223.58 489.333 213.549 479.692C211.62 477.829 209.626 475.914 207.454 473.64C192.264 457.778 170.358 446.084 162.372 449.589C159.789 450.799 153.06 461.251 145.972 484.133C139.886 503.785 137.218 521.036 138.146 526.362C140.676 540.876 143.419 567.149 133.326 579.969C131.646 582.158 129.512 583.957 127.071 585.247C124.629 586.537 121.938 587.285 119.181 587.443C118.591 587.494 118.03 587.505 117.461 587.505ZM82.5065 440.464C83.2596 440.462 84.0074 440.597 84.7119 440.864C86.0237 441.35 87.1359 442.256 87.8768 443.44C88.616 444.625 88.9422 446.02 88.8034 447.411C88.7409 448.01 82.824 508.017 87.2747 528.457C92.4542 552.213 104.774 575.822 118.306 574.865C119.294 574.83 120.262 574.572 121.136 574.108C122.009 573.646 122.766 572.989 123.347 572.191C128.273 565.874 129.181 548.793 125.656 528.541C123.98 518.941 128.599 497.354 133.926 480.218C139.199 463.377 147.469 442.327 157.268 438.043C174.493 430.495 202.791 450.536 216.577 464.936C218.581 467.04 220.49 468.861 222.326 470.629C233.084 481.008 241.574 489.196 251.763 529.415C256.658 548.749 265.476 561.213 275.253 562.759C280.526 563.601 285.621 560.855 289.164 555.234C298.954 539.688 290.917 505.459 277.847 482.66C272.69 473.661 264.136 464.409 255.908 455.473C241.827 440.221 229.678 427.053 234.814 415.118C235.763 412.929 237.977 409.961 243.378 408.266C250.761 405.939 263.588 406.55 279.239 414.044C270.707 400.604 254.485 378.594 239.065 359.08L108.032 363.911L44.8311 445.336C43.3545 447.357 7.80943 496.102 0.816391 522.71C-4.38354 542.466 2.18769 550.782 4.3183 552.855C6.4489 554.929 8.68482 555.676 10.5729 555.128C19.823 552.445 30.9825 544.782 43.6818 508.259C55.4316 474.471 76.4317 444.42 77.3288 443.158C77.9118 442.327 78.6857 441.648 79.588 441.179C80.4885 440.71 81.4914 440.464 82.5065 440.464Z" fill="#182A34"/>
<path d="M117.461 587.505C95.1645 587.505 80.6395 557.433 74.903 531.131C72.0643 518.068 72.8989 492.185 74.1326 472.355C66.8248 485.131 60.6385 498.514 55.6424 512.352C44.0401 545.73 31.6153 562.138 14.1063 567.211C7.77786 569.043 0.827149 567.043 -4.50985 561.854C-8.83439 557.644 -18.169 545.098 -11.4291 519.457C-3.70838 490.102 33.1131 439.884 34.674 437.757L34.7691 437.631L99.8373 353.807C100.405 353.076 101.125 352.479 101.949 352.056C102.773 351.636 103.679 351.398 104.604 351.364L241.806 346.29C242.797 346.254 243.784 346.45 244.685 346.864C245.587 347.276 246.378 347.896 246.996 348.67C247.123 348.838 260.772 366.006 273.629 383.626C281.233 394.046 287.097 402.624 291.064 409.118C297.392 419.455 300.04 425.959 295.988 430.464C291.338 435.726 284.196 431.275 281.845 429.822C262.469 417.855 249.221 419.022 246.288 420.581C245.476 425.476 257.291 438.273 265.212 446.895C273.945 456.368 282.963 466.125 288.838 476.366C303.826 502.533 312.802 541.425 299.88 561.939C293.606 571.885 283.658 576.854 273.27 575.211C258.07 572.821 245.762 557.244 239.518 532.489C230.215 495.764 223.58 489.333 213.549 479.692C211.62 477.829 209.626 475.914 207.454 473.64C192.264 457.778 170.358 446.084 162.372 449.589C159.789 450.799 153.06 461.251 145.972 484.133C139.886 503.785 137.218 521.036 138.146 526.362C140.676 540.876 143.419 567.149 133.326 579.969C131.646 582.158 129.512 583.957 127.071 585.247C124.629 586.537 121.938 587.285 119.181 587.443C118.591 587.494 118.03 587.505 117.461 587.505ZM82.5065 440.464C83.2596 440.462 84.0074 440.597 84.7119 440.864C86.0237 441.35 87.1359 442.256 87.8768 443.44C88.616 444.625 88.9422 446.02 88.8034 447.411C88.7409 448.01 82.824 508.017 87.2747 528.457C92.4542 552.213 104.774 575.822 118.306 574.865C119.294 574.83 120.262 574.572 121.136 574.108C122.009 573.646 122.766 572.989 123.347 572.191C128.273 565.874 129.181 548.793 125.656 528.541C123.98 518.941 128.599 497.354 133.926 480.218C139.199 463.377 147.469 442.327 157.268 438.043C174.493 430.495 202.791 450.536 216.577 464.936C218.581 467.04 220.49 468.861 222.326 470.629C233.084 481.008 241.574 489.196 251.763 529.415C256.658 548.749 265.476 561.213 275.253 562.759C280.526 563.601 285.621 560.855 289.164 555.234C298.954 539.688 290.917 505.459 277.847 482.66C272.69 473.661 264.136 464.409 255.908 455.473C241.827 440.221 229.678 427.053 234.814 415.118C235.763 412.929 237.977 409.961 243.378 408.266C250.761 405.939 263.588 406.55 279.239 414.044C270.707 400.604 254.485 378.594 239.065 359.08L108.032 363.911L44.8311 445.336C43.3545 447.357 7.80943 496.102 0.816391 522.71C-4.38354 542.466 2.18769 550.782 4.3183 552.855C6.4489 554.929 8.68482 555.676 10.5729 555.128C19.823 552.445 30.9825 544.782 43.6818 508.259C55.4316 474.471 76.4317 444.42 77.3288 443.158C77.9118 442.327 78.6857 441.648 79.588 441.179C80.4885 440.71 81.4914 440.464 82.5065 440.464Z" fill="#182A34"/>
<path d="M246.014 195.143L241.478 171.861C236.216 144.855 220.417 121.041 197.558 105.658C174.701 90.2756 146.655 84.584 119.592 89.8356C92.5323 95.0884 68.6709 110.853 53.2581 133.662C37.8452 156.47 32.143 184.454 37.4057 211.458L42.0464 235.287C42.0464 235.287 21.099 247.718 27.2798 279.421C32.5537 306.419 56.4861 309.42 56.4861 309.42L61.2007 333.575C64.8712 352.416 58.4902 377.731 47.7001 389.362C37.1525 400.697 -3.67715 427.411 -20.0786 436.105C-36.48 444.799 -66.8567 462.881 -74.1241 482.334C-81.3913 501.784 -75.8011 519.11 -65.317 521.099C-49.6644 524.078 -31.5648 495.511 -10.2692 483.849C5.33059 475.323 52.5623 451.356 66.2847 440.915C93.8354 419.937 108.4 378.583 128.905 380.624C149.409 382.666 146.414 398.286 143.536 411.875C140.655 425.464 114.001 476.786 128.115 528.71C142.227 580.632 172.318 600.861 192.158 599.514C211.998 598.167 219.73 581.127 216.704 568.18C213.676 555.233 168.563 524.867 168.354 492.816C168.142 460.765 177.762 432.822 188.393 412.706C199.026 392.593 203.95 379.099 218.168 379.856C232.388 380.614 254.527 412.433 268.587 422.737C282.647 433.042 317.178 459.924 331.871 473.124C346.565 486.323 364.569 516.93 383.881 515.688C403.194 514.447 406.253 491.291 404.196 478.143C402.139 464.997 392.203 442.357 370.127 427.096C348.052 411.834 318.264 393.687 301.569 379.731C315.755 385.499 341.575 396.139 377.827 391.066C422.053 384.877 441.291 342.333 439.984 295C438.929 257.981 381.792 204.637 334.414 215.785C307.591 222.1 320.501 257.886 333.116 265.328C363.219 283.054 379.293 313.482 364.295 337.817C351.637 358.395 336.449 360.973 307.739 346.942C278.311 332.597 267.658 306.073 262.533 280.001C260.622 270.37 260.423 269.201 260.423 269.201C260.423 269.201 280.886 251.108 276.032 229.741C271.602 210.142 246.014 195.143 246.014 195.143Z" fill="#007AA1"/>
<path d="M95.1842 150.231C90.6173 147.8 82.5262 145.41 73.139 153.757C63.7523 162.104 66.0306 182.965 76.5781 186.934C87.1261 190.903 97.1241 180.186 100.299 173.303C103.475 166.419 102.883 154.315 95.1842 150.231Z" fill="#00B1CD"/>
<path d="M113.854 122.286C111.575 121.076 107.526 119.876 102.832 124.054C98.1384 128.233 99.2784 138.664 104.562 140.643C109.847 142.621 114.836 137.274 116.418 133.833C117.999 130.391 117.714 124.339 113.854 122.286Z" fill="#00B1CD"/>
<path d="M-55.4749 519.404C-55.4749 519.404 -51.7201 483.859 -22.8832 464.218C5.95379 444.579 41.9209 438.358 65.7899 424.222C81.7437 414.677 96.5515 403.341 109.921 390.436C113.412 387.045 75.5561 434.358 55.9595 445.937C36.3623 457.514 -5.4587 478.912 -16.9132 487.154C-28.3678 495.395 -55.4749 519.404 -55.4749 519.404Z" fill="#FEAF86"/>
<path d="M201.093 389.646C201.093 389.646 162.689 415.421 150.812 453.082C138.936 490.743 148.703 517.794 159.65 537.107C170.599 556.423 206.493 582.167 214.129 578.81C221.766 575.452 219.297 560.916 207.463 550.392C195.629 539.866 171.316 515.752 169.629 491.637C167.941 467.523 174.913 421.147 201.093 389.646Z" fill="#00B1CD"/>
<path d="M239.751 393.951C239.751 393.951 271.973 411.518 303.036 417.907C334.099 424.296 361.49 449.063 370.119 462.43C378.746 475.798 398.596 512.068 391.213 513.869C383.83 515.668 365.899 511.322 352.493 495.975C339.087 480.629 322.759 467.135 304.481 452.631C286.203 438.126 245.572 409.244 239.751 393.951Z" fill="#00B1CD"/>
<path d="M357.145 375.551C357.145 375.551 386.773 367.332 400.009 346.449C425.556 306.146 414.322 272.665 397.436 250.898C388.102 238.856 356.46 218.552 345.881 235.499C335.301 252.446 352.155 261.813 365.023 275.086C375.93 286.327 390.981 302.453 386.383 325.861C382.628 344.806 371.068 363.626 357.145 375.551Z" fill="#00B1CD"/>
<path d="M42.036 241.605C40.5682 241.601 39.1469 241.091 38.0154 240.157C36.8841 239.224 36.113 237.927 35.8342 236.488L31.1931 212.669C28.4283 198.484 28.4906 183.892 31.3764 169.731C34.2621 155.57 39.9151 142.114 48.0119 130.132C56.1088 118.15 66.4915 107.877 78.5673 99.8994C90.6423 91.9217 104.173 86.3958 118.389 83.6368C132.605 80.8779 147.226 80.9401 161.418 83.8198C175.608 86.6995 189.092 92.3405 201.099 100.421C213.106 108.501 223.401 118.862 231.395 130.912C239.389 142.962 244.928 156.466 247.692 170.651L252.227 193.934C252.385 194.747 252.382 195.586 252.217 196.398C252.05 197.211 251.726 197.984 251.261 198.671C250.798 199.359 250.201 199.947 249.508 200.406C248.814 200.863 248.039 201.18 247.221 201.339C246.406 201.497 245.568 201.494 244.752 201.327C243.938 201.163 243.165 200.839 242.476 200.375C241.787 199.911 241.195 199.317 240.737 198.624C240.279 197.934 239.962 197.158 239.802 196.344L235.266 173.062C230.156 147.862 215.27 125.7 193.855 111.406C172.439 97.1123 146.232 91.8455 120.94 96.7537C95.65 101.662 73.3289 116.348 58.8434 137.609C44.3576 158.871 38.8811 184.985 43.6075 210.259L48.2589 234.078C48.5683 235.718 48.2152 237.413 47.2765 238.793C46.3378 240.175 44.8898 241.127 43.2488 241.445C42.8501 241.536 42.4442 241.587 42.036 241.605Z" fill="#182A34"/>
<path d="M190.249 605.872C166.845 605.872 136.256 582.714 122.007 530.34C110.153 486.837 125.372 444.683 133.546 422.032C135.004 418.273 136.27 414.445 137.344 410.559C138.746 403.939 140.665 394.856 137.639 390.729C136.119 388.624 132.966 387.362 128.273 386.898C120.045 386.098 110.722 398.592 100.849 411.854C92.2527 423.431 82.5167 436.484 70.1242 445.926C59.1545 454.262 29.4633 469.934 7.78822 481.386C1.63898 484.628 -3.66644 487.427 -7.23151 489.374C-15.1843 493.722 -22.884 500.847 -30.3306 507.732C-42.5236 519.014 -54.052 529.656 -66.4981 527.298C-71.8457 526.245 -76.4972 522.709 -79.5771 517.257C-84.9774 507.678 -85.1567 493.794 -80.0517 480.122C-72.6052 460.176 -44.939 442.136 -23.095 430.515C-6.21904 421.568 33.5557 395.223 43.0062 385.055C52.4568 374.888 58.142 351.269 54.9356 334.785L50.2209 310.63C50.0623 309.816 50.0659 308.978 50.2316 308.166C50.3973 307.352 50.7218 306.58 51.1865 305.892C51.6513 305.205 52.2472 304.616 52.9402 304.157C53.6332 303.7 54.4097 303.383 55.2256 303.224C56.0413 303.067 56.8806 303.07 57.6951 303.236C58.5094 303.401 59.2831 303.725 59.9721 304.189C60.6611 304.653 61.2521 305.247 61.7109 305.939C62.1695 306.63 62.4872 307.406 62.6458 308.22L67.3606 332.375C71.3579 352.9 64.597 380.392 52.2775 393.645C41.0655 405.718 -0.618286 432.905 -17.1568 441.673C-45.3714 456.641 -63.5659 471.859 -68.2491 484.532C-72.7423 496.594 -71.2445 506.362 -68.5972 511.058C-67.7322 512.583 -66.266 514.488 -64.1881 514.888C-58.0073 516.057 -48.3669 507.12 -38.9901 498.468C-30.974 491.1 -22.6942 483.396 -13.3597 478.292C-9.71018 476.302 -4.373 473.482 1.8184 470.218C21.8586 459.609 52.2565 443.588 62.3927 435.883C73.362 427.526 82.5393 415.201 90.639 404.306C103.233 387.393 114.097 372.784 129.475 374.32C137.913 375.151 144.063 378.162 147.807 383.256C154.135 391.94 151.678 403.707 149.674 413.158C148.526 417.62 147.117 422.01 145.454 426.306C137.755 447.64 123.421 487.353 134.221 527.024C147.932 577.494 176.158 594.229 191.726 593.188C198.424 592.735 203.771 590.03 207.21 585.421C208.85 583.161 209.994 580.583 210.566 577.854C211.139 575.123 211.127 572.304 210.533 569.579C209.848 566.621 202.59 558.906 196.768 552.738C182.17 537.223 162.173 515.962 162.025 492.847C161.782 457.061 173.194 427.916 182.814 409.697C184.11 407.243 185.325 404.907 186.474 402.665C195.123 385.824 201.969 372.624 218.527 373.478C230.13 374.098 242.429 387.225 255.444 401.129C261.773 407.844 267.7 414.19 272.321 417.591C286.275 427.81 321.06 454.85 336.048 468.375C340.998 473.12 345.659 478.157 350.002 483.459C360.423 495.606 372.153 509.342 382.699 509.342H383.449C385.321 509.286 387.16 508.821 388.833 507.979C390.506 507.138 391.974 505.938 393.131 504.468C398.174 498.153 399.154 486.912 397.92 479.08C396.286 468.628 387.827 446.999 366.5 432.241C359.242 427.222 351.289 421.979 342.872 416.453C326.187 405.465 308.92 394.097 297.519 384.529C296.365 383.561 295.596 382.214 295.35 380.73C295.103 379.248 295.397 377.724 296.174 376.437C296.951 375.149 298.166 374.181 299.594 373.707C301.024 373.23 302.577 373.281 303.973 373.847L307.876 375.468C321.946 381.372 343.211 390.298 374.473 385.246C388.965 382.908 403.478 372.614 414.279 356.952C428.171 336.849 433.77 311.84 429.268 290.063C424.763 268.285 403.563 241.276 380.02 227.563C369.694 221.552 354.222 215.395 339.213 220.195C330.015 223.152 324.762 227.731 323.591 233.824C321.83 242.972 329.097 255.307 337.144 261.949C339.792 264.138 342.746 266.339 345.879 268.675C364.242 282.357 389.408 301.209 372.131 336.596C366.562 347.995 358.726 355.543 348.822 358.9C336.808 363.026 322.062 360.9 304.975 352.585C270.749 335.891 260.823 303.841 256.34 281.19C254.474 271.717 254.232 270.349 254.232 270.223C253.985 268.586 254.393 266.919 255.366 265.58C256.34 264.24 257.801 263.336 259.435 263.059C261.07 262.784 262.748 263.16 264.108 264.105C265.468 265.051 266.402 266.491 266.709 268.117C266.709 268.117 266.973 269.591 268.819 278.737C275.199 310.987 288.078 330.26 310.586 341.238C324.54 348.038 336.037 349.964 344.75 346.975C351.458 344.669 356.71 339.469 360.803 331.071C372.616 306.862 359.58 294.672 338.336 278.801C335.088 276.37 332.008 274.074 329.13 271.686C318.465 262.886 308.308 246.54 311.199 231.457C312.654 223.909 318.023 213.752 335.373 208.185C350.783 203.238 368.44 206.175 386.444 216.657C413.203 232.236 436.439 262.032 441.703 287.516C446.892 312.599 440.553 341.195 424.742 364.121C411.801 382.856 394.682 394.781 376.54 397.718C363.677 399.865 350.55 399.907 337.672 397.844C341.713 400.528 345.815 403.233 349.887 405.917C357.998 411.253 366.384 416.781 373.756 421.885C396.961 437.957 408.057 461.702 410.472 477.144C412.043 487.185 411.041 502.405 403.089 512.383C400.828 515.222 397.986 517.546 394.75 519.198C391.516 520.851 387.964 521.793 384.336 521.961C383.808 521.961 383.281 522.013 382.753 522.013C366.488 522.013 352.704 505.952 340.499 491.711C336.478 486.823 332.173 482.174 327.61 477.786C312.918 464.535 278.649 437.893 264.884 427.81C259.305 423.715 252.954 416.959 246.246 409.801C237.017 399.96 224.382 386.477 217.873 386.139C210.164 385.718 206.629 391.266 197.749 408.486C196.577 410.76 195.344 413.148 194.027 415.632C185.092 432.525 174.471 459.619 174.702 492.754C174.819 510.921 192.855 530.088 206.018 544.087C214.963 553.559 221.418 560.454 222.895 566.727C223.913 571.234 223.951 575.908 223.004 580.43C222.058 584.953 220.151 589.221 217.41 592.946C211.788 600.535 202.98 605.093 192.613 605.798C191.811 605.849 191.041 605.872 190.249 605.872Z" fill="#182A34"/>
<path d="M58.1842 309.093C55.2922 309.396 52.3698 309.197 49.5459 308.505C46.6416 307.821 43.8398 306.759 41.2131 305.346C35.8272 302.384 31.2276 298.179 27.7967 293.085C24.3838 288.024 21.9148 282.391 20.5085 276.454C20.107 274.94 19.7969 273.404 19.5802 271.855C19.3425 270.251 19.2158 268.634 19.2005 267.013C19.1162 260.454 20.7991 253.996 24.0734 248.309C24.8464 246.927 25.6949 245.587 26.6152 244.299C27.5541 243.035 28.5244 241.814 29.558 240.668C33.5751 236.211 38.2616 232.405 43.4494 229.383C48.4168 226.462 53.6903 224.094 59.1757 222.322C64.5552 220.523 70.1325 219.382 75.7874 218.921C70.9359 221.796 66.2952 224.679 61.7808 227.7C57.3713 230.627 53.1444 233.818 49.1239 237.257C41.2449 243.951 34.7685 251.803 32.6801 260.413C32.1547 262.565 31.8753 264.767 31.8471 266.98C31.8424 268.106 31.8951 269.23 32.0051 270.35C32.1052 271.522 32.2743 272.689 32.5115 273.844C32.9374 276.28 33.5116 278.687 34.2308 281.054C34.5577 282.234 34.9584 283.38 35.3698 284.538C35.7812 285.695 36.2769 286.801 36.7832 287.906C41.0569 297.374 48.7026 304.922 58.2369 309.083L58.1842 309.093Z" fill="#182A34"/>
<path d="M56.3704 315.093C56.1701 315.103 55.9694 315.103 55.7691 315.093C54.6088 314.987 27.1747 311.988 19.9076 274.928C19.749 274.114 19.7526 273.276 19.9183 272.464C20.084 271.65 20.4085 270.878 20.8732 270.19C21.338 269.503 21.9339 268.914 22.6269 268.455C23.3199 267.998 24.0964 267.681 24.9123 267.522C25.728 267.365 26.5673 267.368 27.3818 267.534C28.1961 267.699 28.9698 268.023 29.6588 268.487C30.3478 268.951 30.9388 269.545 31.3976 270.237C31.8562 270.928 32.1739 271.704 32.3325 272.518C37.6801 299.978 56.191 302.432 56.982 302.525C58.6459 302.692 60.1766 303.507 61.2399 304.794C62.3032 306.082 62.8127 307.737 62.6567 309.4C62.5024 310.956 61.7738 312.402 60.6123 313.455C59.4508 314.506 57.9391 315.091 56.3704 315.093Z" fill="#182A34"/>
<path d="M74.8081 294.315C90.2337 294.315 102.737 281.836 102.737 266.443C102.737 251.051 90.2337 238.572 74.8081 238.572C59.3829 238.572 46.8783 251.051 46.8783 266.443C46.8783 281.836 59.3829 294.315 74.8081 294.315Z" fill="#DEFBFF"/>
<path d="M74.7976 300.631C65.9948 300.629 57.5296 297.248 51.1578 291.187C44.7859 285.125 40.9958 276.85 40.5735 268.075C40.151 259.301 43.1283 250.7 48.8887 244.056C54.6489 237.414 62.75 233.238 71.5129 232.394C80.2755 231.551 89.0259 234.105 95.9527 239.527C102.879 244.948 107.45 252.821 108.715 261.515C109.981 270.208 107.847 279.054 102.753 286.219C97.66 293.384 89.9993 298.319 81.3582 299.999C79.1962 300.416 76.9995 300.628 74.7976 300.631ZM74.8618 244.846C73.4632 244.848 72.0682 244.983 70.6939 245.246C66.4999 246.056 62.6404 248.091 59.6044 251.092C56.5682 254.092 54.4922 257.922 53.6384 262.101C52.7845 266.279 53.1914 270.615 54.8077 274.563C56.424 278.509 59.1772 281.89 62.7186 284.275C66.2601 286.661 70.4302 287.944 74.7039 287.965C78.9758 287.984 83.1593 286.739 86.7233 284.386C90.2856 282.034 93.0706 278.678 94.7242 274.748C96.376 270.816 96.8237 266.483 96.0082 262.296C95.0521 257.394 92.4199 252.974 88.5609 249.791C84.7019 246.609 79.8573 244.861 74.8514 244.846H74.8618Z" fill="#182A34"/>
<path d="M74.8059 279.181C81.8541 279.181 87.568 273.479 87.568 266.444C87.568 259.41 81.8541 253.708 74.8059 253.708C67.7572 253.708 62.0435 259.41 62.0435 266.444C62.0435 273.479 67.7572 279.181 74.8059 279.181Z" fill="#182A34"/>
<path d="M258.945 270.128C266.225 262.708 270.482 252.854 270.884 242.477C270.949 241.266 270.884 240.035 270.884 238.825C270.884 237.615 270.778 236.383 270.641 235.163C270.414 232.704 270.041 230.261 269.524 227.847C269.304 226.685 269.022 225.537 268.681 224.405C268.361 223.335 267.988 222.28 267.561 221.246C266.704 219.208 265.618 217.274 264.324 215.479C259.156 208.268 250.201 203.417 240.382 200.154C235.343 198.476 230.207 197.102 225.003 196.038C219.728 194.923 214.297 193.997 208.727 193.143C214.143 191.457 219.742 190.432 225.404 190.092C231.156 189.68 236.934 189.898 242.638 190.743C248.581 191.614 254.353 193.389 259.757 196.007C261.138 196.681 262.5 197.45 263.84 198.27C265.176 199.126 266.468 200.05 267.709 201.037C270.26 203.053 272.54 205.389 274.492 207.984C276.449 210.623 278.047 213.508 279.25 216.562C279.841 218.072 280.332 219.619 280.716 221.194C281.096 222.713 281.384 224.252 281.58 225.805C282.508 231.831 282.336 237.975 281.073 243.94C279.806 249.948 277.12 255.567 273.237 260.329C271.332 262.625 269.13 264.656 266.687 266.37C264.346 268.064 261.726 269.336 258.945 270.128Z" fill="#182A34"/>
<path d="M260.518 275.475C259.102 275.478 257.724 275.009 256.609 274.14C255.491 273.271 254.7 272.053 254.358 270.682C254.016 269.311 254.146 267.865 254.726 266.577C255.304 265.287 256.3 264.229 257.554 263.571C258.366 263.129 274.429 253.898 269.155 226.542C268.998 225.728 269.001 224.89 269.166 224.078C269.332 223.265 269.657 222.493 270.122 221.804C270.585 221.117 271.182 220.528 271.874 220.071C272.569 219.612 273.344 219.295 274.16 219.137C274.977 218.978 275.815 218.982 276.631 219.148C277.444 219.312 278.218 219.636 278.907 220.1C279.596 220.564 280.186 221.158 280.646 221.851C281.104 222.542 281.421 223.317 281.581 224.131C288.806 261.191 264.493 274.233 263.461 274.77C262.55 275.236 261.54 275.478 260.518 275.475Z" fill="#182A34"/>
<path d="M227.514 264.676C242.939 264.676 255.445 252.198 255.445 236.805C255.445 221.411 242.939 208.932 227.514 208.932C212.088 208.932 199.585 221.411 199.585 236.805C199.585 252.198 212.088 264.676 227.514 264.676Z" fill="#DEFBFF"/>
<path d="M227.504 271.002C219.557 270.989 211.86 268.222 205.729 263.174C199.599 258.128 195.414 251.114 193.889 243.331C192.599 236.695 193.311 229.828 195.933 223.596C198.553 217.364 202.967 212.049 208.615 208.319C214.265 204.591 220.893 202.617 227.665 202.646C234.439 202.677 241.05 204.712 246.663 208.492C252.278 212.27 256.644 217.628 259.209 223.882C261.773 230.138 262.42 237.011 261.072 243.634C259.722 250.257 256.434 256.331 251.626 261.091C246.816 265.849 240.701 269.079 234.054 270.37C231.896 270.788 229.702 270.999 227.504 271.002ZM206.314 240.92C207.128 245.106 209.167 248.958 212.174 251.987C215.181 255.017 219.021 257.088 223.208 257.94C227.396 258.79 231.741 258.383 235.697 256.769C239.652 255.155 243.039 252.407 245.428 248.872C247.817 245.338 249.103 241.173 249.122 236.91C249.14 232.645 247.89 228.472 245.532 224.916C243.172 221.361 239.81 218.583 235.869 216.935C231.927 215.287 227.585 214.843 223.39 215.659C217.773 216.757 212.821 220.031 209.62 224.767C206.42 229.503 205.23 235.31 206.314 240.92Z" fill="#182A34"/>
<path d="M227.512 249.54C234.56 249.54 240.276 243.838 240.276 236.805C240.276 229.771 234.56 224.069 227.512 224.069C220.464 224.069 214.75 229.771 214.75 236.805C214.75 243.838 220.464 249.54 227.512 249.54Z" fill="#182A34"/>
<path d="M158.502 302.82C150.296 302.82 141.542 299.22 137.196 288.938C136.873 288.173 136.705 287.352 136.7 286.522C136.694 285.693 136.854 284.87 137.166 284.103C137.48 283.335 137.942 282.635 138.527 282.046C139.111 281.456 139.806 280.987 140.572 280.665C141.338 280.342 142.16 280.173 142.991 280.169C143.822 280.164 144.647 280.322 145.415 280.635C146.186 280.947 146.887 281.409 147.477 281.991C148.068 282.574 148.539 283.267 148.861 284.032C151.69 290.737 158.049 290.579 161.592 289.895C167.648 288.716 170.705 285.338 171.222 279.253C171.262 278.405 171.472 277.574 171.842 276.808C172.21 276.043 172.73 275.361 173.37 274.802C174.009 274.241 174.755 273.815 175.564 273.55C176.371 273.283 177.224 273.183 178.073 273.254C178.92 273.325 179.745 273.565 180.497 273.962C181.25 274.357 181.914 274.9 182.452 275.56C182.988 276.218 183.388 276.976 183.624 277.794C183.861 278.609 183.929 279.463 183.827 280.306C182.836 292.011 175.611 300.02 164.008 302.272C162.194 302.627 160.352 302.811 158.502 302.82Z" fill="#182A34"/>
</g>
<path d="M309.683 205.796C309.209 205.796 308.739 205.742 308.279 205.638C306.707 205.28 292.574 201.523 278.863 179.755C265.013 157.757 269.37 131.991 269.518 130.907C269.719 129.754 270.239 128.68 271.019 127.804C271.796 126.929 272.804 126.287 273.927 125.949C274.116 125.886 293.123 120.065 319.966 104.34C337.095 94.2988 345.787 74.0476 352.758 57.7752C358.949 43.3551 363.433 32.9033 372.968 32.9033H373.211C389.032 33.1875 405.084 49.3547 420.811 80.9524C432.545 104.988 441.425 130.309 447.274 156.399C451.21 175.167 450.439 183.167 444.427 185.871C437.044 189.27 426.664 187.082 413.565 184.323C398.039 181.051 378.706 176.955 361.122 182.103C337.033 189.133 313.405 204.555 313.164 204.712C312.135 205.406 310.924 205.784 309.683 205.796ZM281.594 136.696C281.088 143.685 281.088 159.547 289.578 173.03C297.511 185.66 305.305 190.64 308.996 192.449C316.232 187.977 336.42 176.22 357.516 170.041C378.158 164.01 399.221 168.451 416.128 172.019C424.197 173.724 432.498 175.472 437.044 174.956C437.55 161.073 420.168 96.4671 395.075 62.459C387.144 51.7229 379.634 45.8918 373.315 45.5445C371.016 47.1865 367.178 56.1438 364.339 62.7432C357.041 79.763 347.041 103.077 326.316 115.224C305.147 127.633 288.778 134.117 281.542 136.696H281.594Z" fill="#182A34"/>
<path d="M441.755 180.268C455.459 173.619 451.194 136.671 432.227 97.7441C413.262 58.8173 386.776 32.6514 373.072 39.301C359.366 45.9507 363.633 82.8977 382.598 121.825C401.565 160.752 428.05 186.917 441.755 180.268Z" fill="#182A34"/>
<path d="M436.959 187.577C417.657 187.577 393.113 157.831 376.839 124.507C367.346 105.056 361.101 85.3729 359.223 69.1004C356.492 45.4496 363.707 36.7028 370.235 33.5346C376.764 30.3664 388.103 30.1032 405.042 46.8599C416.718 58.3854 428.363 75.4473 437.835 94.8985C447.307 114.35 453.571 134.022 455.448 150.305C458.181 173.956 450.977 182.692 444.448 185.861C442.115 186.996 439.554 187.583 436.959 187.577ZM377.724 44.5128C377.063 44.4962 376.407 44.6293 375.805 44.9022C372.64 46.4073 370.268 54.0278 371.838 67.6583C373.558 82.552 379.391 100.782 388.261 118.981C397.131 137.18 407.902 153.02 418.575 163.567C428.342 173.219 435.852 176.008 438.963 174.503C442.076 172.998 444.501 165.377 442.929 151.747C441.21 136.853 435.378 118.623 426.506 100.424C417.636 82.2152 406.878 66.3848 396.193 55.8381C388.062 47.7967 381.489 44.5128 377.724 44.5128Z" fill="#182A34"/>
<mask id="mask3_91_10512" style="mask-type:luminance" maskUnits="userSpaceOnUse" x="365" y="38" width="85" height="144">
<path d="M441.768 180.267C455.473 173.618 451.207 136.67 432.24 97.7436C413.275 58.8168 386.79 32.6509 373.084 39.3006C359.379 45.9502 363.644 82.8972 382.611 121.824C401.578 160.751 428.064 186.916 441.768 180.267Z" fill="white"/>
</mask>
<g mask="url(#mask3_91_10512)">
<path d="M401.11 144.25C414.248 137.875 419.362 121.341 412.529 107.32C405.697 93.2984 389.508 87.1 376.37 93.4751C363.231 99.8503 358.118 116.385 364.949 130.406C371.78 144.427 387.969 150.626 401.11 144.25Z" fill="#FEAF86"/>
<path d="M390.139 152.988C386.114 152.976 382.123 152.227 378.368 150.778C370.001 147.464 363.182 141.142 359.253 133.058C355.325 124.975 354.574 115.717 357.147 107.108C358.389 102.907 360.498 99.0119 363.335 95.6697C366.17 92.3276 369.675 89.6122 373.621 87.6968C377.568 85.7814 381.871 84.7081 386.258 84.5452C390.644 84.3824 395.015 85.1338 399.094 86.7512C407.47 90.0579 414.301 96.3755 418.24 104.459C422.181 112.542 422.942 121.805 420.38 130.422C419.129 134.619 417.019 138.51 414.182 141.851C411.346 145.192 407.847 147.909 403.904 149.831C399.617 151.919 394.909 152.999 390.139 152.988ZM387.281 97.2031C384.448 97.1957 381.653 97.8365 379.107 99.0767C376.725 100.247 374.613 101.898 372.904 103.926C371.197 105.953 369.928 108.313 369.18 110.855C367.561 116.408 368.068 122.363 370.601 127.564C373.135 132.766 377.516 136.841 382.893 139C385.352 139.998 387.995 140.468 390.648 140.38C393.301 140.292 395.907 139.648 398.293 138.489C400.68 137.331 402.797 135.684 404.505 133.656C406.214 131.627 407.475 129.263 408.208 126.717C409.875 121.167 409.367 115.191 406.783 110.002C404.291 104.768 399.893 100.68 394.484 98.5714C392.19 97.6698 389.747 97.1988 387.281 97.182V97.2031Z" fill="#182A34"/>
</g>
<path d="M436.959 187.577C417.657 187.577 393.113 157.831 376.839 124.507C367.346 105.056 361.101 85.3729 359.223 69.1004C356.492 45.4496 363.707 36.7028 370.235 33.5346C376.764 30.3664 388.103 30.1032 405.042 46.8599C416.718 58.3854 428.363 75.4473 437.835 94.8985C447.307 114.35 453.571 134.022 455.448 150.305C458.181 173.956 450.977 182.692 444.448 185.861C442.115 186.996 439.554 187.583 436.959 187.577ZM377.724 44.5128C377.063 44.4962 376.407 44.6293 375.805 44.9022C372.64 46.4073 370.268 54.0278 371.838 67.6583C373.558 82.552 379.391 100.782 388.261 118.981C397.131 137.18 407.902 153.02 418.575 163.567C428.342 173.219 435.852 176.008 438.963 174.503C442.076 172.998 444.501 165.377 442.929 151.747C441.21 136.853 435.378 118.623 426.506 100.424C417.636 82.2152 406.878 66.3848 396.193 55.8381C388.062 47.7967 381.489 44.5128 377.724 44.5128Z" fill="#182A34"/>
</g>
<defs>
<clipPath id="clip0_91_10512">
<rect width="456" height="420" fill="white"/>
</clipPath>
</defs>
</svg>
