<svg width="35" height="36" viewBox="0 0 35 36" fill="none" xmlns="http://www.w3.org/2000/svg">
<g clip-path="url(#clip0_2002_8441)">
<path d="M14.834 25.782C15.5745 26.158 16.241 26.6194 16.8335 27.1663C17.4259 27.7132 17.9386 28.3284 18.3716 29.012C18.8045 29.6956 19.1292 30.4248 19.3457 31.1995C19.5622 31.9742 19.6761 32.7832 19.6875 33.6263H17.5C17.5 32.7262 17.3291 31.8774 16.9873 31.0799C16.6455 30.2824 16.1784 29.5874 15.5859 28.9949C14.9935 28.4025 14.2928 27.9297 13.4839 27.5765C12.675 27.2233 11.8262 27.0524 10.9375 27.0638C10.026 27.0638 9.17725 27.2347 8.39111 27.5765C7.60498 27.9183 6.90999 28.3854 6.30615 28.9778C5.70231 29.5703 5.22949 30.271 4.8877 31.0799C4.5459 31.8888 4.375 32.7376 4.375 33.6263H2.1875C2.1875 32.7946 2.30143 31.9913 2.5293 31.2166C2.75716 30.4419 3.08187 29.7127 3.50342 29.0291C3.92497 28.3455 4.43197 27.7303 5.02441 27.1834C5.61686 26.6365 6.28906 26.1694 7.04102 25.782C6.19792 25.1554 5.54281 24.3807 5.07568 23.4578C4.60856 22.535 4.375 21.5494 4.375 20.5013C4.375 19.6012 4.5459 18.7524 4.8877 17.9549C5.22949 17.1574 5.69661 16.4624 6.28906 15.8699C6.88151 15.2775 7.5765 14.8047 8.37402 14.4515C9.17155 14.0983 10.026 13.9274 10.9375 13.9388C11.9857 13.9388 12.9712 14.1723 13.894 14.6395C14.8169 15.1066 15.5916 15.7617 16.2183 16.6048C16.6512 15.7503 17.2038 14.9869 17.876 14.3147C18.5482 13.6425 19.3115 13.09 20.166 12.657C19.3229 12.0304 18.6678 11.2557 18.2007 10.3328C17.7336 9.40996 17.5 8.42444 17.5 7.37627C17.5 6.4762 17.6709 5.62741 18.0127 4.82988C18.3545 4.03235 18.8216 3.33737 19.4141 2.74492C20.0065 2.15247 20.7015 1.67965 21.499 1.32646C22.2965 0.973272 23.151 0.802373 24.0625 0.813766C24.9626 0.813766 25.8114 0.984665 26.6089 1.32646C27.4064 1.66826 28.1014 2.13538 28.6938 2.72783C29.2863 3.32028 29.7591 4.02096 30.1123 4.82988C30.4655 5.6388 30.6364 6.48759 30.625 7.37627C30.625 8.42444 30.3914 9.40996 29.9243 10.3328C29.4572 11.2557 28.8021 12.0304 27.959 12.657C28.6995 13.033 29.366 13.4944 29.9585 14.0413C30.5509 14.5882 31.0636 15.2034 31.4966 15.887C31.9295 16.5706 32.2542 17.2998 32.4707 18.0745C32.6872 18.8492 32.8011 19.6582 32.8125 20.5013H30.625C30.625 19.6012 30.4541 18.7524 30.1123 17.9549C29.7705 17.1574 29.3034 16.4624 28.7109 15.8699C28.1185 15.2775 27.4178 14.8047 26.6089 14.4515C25.8 14.0983 24.9512 13.9274 24.0625 13.9388C23.151 13.9388 22.3022 14.1097 21.5161 14.4515C20.73 14.7933 20.035 15.2604 19.4312 15.8528C18.8273 16.4453 18.3545 17.146 18.0127 17.9549C17.6709 18.7638 17.5 19.6126 17.5 20.5013C17.5 21.5494 17.2664 22.535 16.7993 23.4578C16.3322 24.3807 15.6771 25.1554 14.834 25.782ZM19.6875 7.37627C19.6875 7.98011 19.8014 8.54407 20.0293 9.06816C20.2572 9.59225 20.5705 10.0594 20.9692 10.4695C21.368 10.8797 21.8294 11.193 22.3535 11.4095C22.8776 11.6259 23.4473 11.7399 24.0625 11.7513C24.6663 11.7513 25.2303 11.6373 25.7544 11.4095C26.2785 11.1816 26.7456 10.8683 27.1558 10.4695C27.5659 10.0708 27.8792 9.60934 28.0957 9.08525C28.3122 8.56116 28.4261 7.9915 28.4375 7.37627C28.4375 6.77243 28.3236 6.20846 28.0957 5.68437C27.8678 5.16028 27.5545 4.69316 27.1558 4.283C26.757 3.87285 26.2956 3.55953 25.7715 3.34306C25.2474 3.12659 24.6777 3.01266 24.0625 3.00127C23.4587 3.00127 22.8947 3.1152 22.3706 3.34306C21.8465 3.57093 21.3794 3.88424 20.9692 4.283C20.5591 4.68177 20.2458 5.14319 20.0293 5.66728C19.8128 6.19137 19.6989 6.76103 19.6875 7.37627ZM6.5625 20.5013C6.5625 21.1051 6.67643 21.6691 6.9043 22.1932C7.13216 22.7172 7.44548 23.1844 7.84424 23.5945C8.243 24.0047 8.70443 24.318 9.22852 24.5345C9.7526 24.7509 10.3223 24.8649 10.9375 24.8763C11.5413 24.8763 12.1053 24.7623 12.6294 24.5345C13.1535 24.3066 13.6206 23.9933 14.0308 23.5945C14.4409 23.1958 14.7542 22.7343 14.9707 22.2103C15.1872 21.6862 15.3011 21.1165 15.3125 20.5013C15.3125 19.8974 15.1986 19.3335 14.9707 18.8094C14.7428 18.2853 14.4295 17.8182 14.0308 17.408C13.632 16.9978 13.1706 16.6845 12.6465 16.4681C12.1224 16.2516 11.5527 16.1377 10.9375 16.1263C10.3337 16.1263 9.76969 16.2402 9.24561 16.4681C8.72152 16.6959 8.25439 17.0092 7.84424 17.408C7.43408 17.8068 7.12077 18.2682 6.9043 18.7923C6.68783 19.3164 6.57389 19.886 6.5625 20.5013ZM32.2656 35.8138L27.3438 31.9686L22.4219 35.8138L24.4043 29.6614L19.6875 25.97H25.5835L27.3438 20.5013L29.104 25.97H35L30.2832 29.6614L32.2656 35.8138Z" fill="white"/>
</g>
<defs>
<clipPath id="clip0_2002_8441">
<rect width="35" height="35" fill="white" transform="translate(0 0.813721)"/>
</clipPath>
</defs>
</svg>
