<svg width="33" height="36" viewBox="0 0 33 36" fill="none" xmlns="http://www.w3.org/2000/svg">
<path d="M16.5002 16.1262C15.0416 16.1262 13.6426 15.5501 12.6112 14.5245C11.5797 13.4989 11.0002 12.1079 11.0002 10.6575C11.0002 9.20707 11.5797 7.81607 12.6112 6.79048C13.6426 5.76489 15.0416 5.18872 16.5002 5.18872C17.9589 5.18872 19.3579 5.76489 20.3893 6.79048C21.4208 7.81607 22.0002 9.20707 22.0002 10.6575C22.0002 12.1079 21.4208 13.4989 20.3893 14.5245C19.3579 15.5501 17.9589 16.1262 16.5002 16.1262ZM16.5002 7.37622C14.6742 7.37622 13.2002 8.84185 13.2002 10.6575C13.2002 12.4731 14.6742 13.9387 16.5002 13.9387C18.3262 13.9387 19.8002 12.4731 19.8002 10.6575C19.8002 8.84185 18.3262 7.37622 16.5002 7.37622Z" fill="white"/>
<path d="M29.7 24.8762C29.084 24.8762 28.6 24.395 28.6 23.7825C28.6 23.17 29.084 22.6887 29.7 22.6887C30.316 22.6887 30.8 22.2075 30.8 21.595C30.8 20.1446 30.2205 18.7536 29.1891 17.728C28.1576 16.7024 26.7587 16.1262 25.3 16.1262H23.1C22.484 16.1262 22 15.645 22 15.0325C22 14.42 22.484 13.9387 23.1 13.9387C24.926 13.9387 26.4 12.4731 26.4 10.6575C26.4 8.84185 24.926 7.37622 23.1 7.37622C22.484 7.37622 22 6.89497 22 6.28247C22 5.66997 22.484 5.18872 23.1 5.18872C24.5587 5.18872 25.9576 5.76489 26.9891 6.79048C28.0205 7.81607 28.6 9.20707 28.6 10.6575C28.6 12.0137 28.116 13.2387 27.28 14.2012C30.558 15.0762 33 18.0512 33 21.595C33 23.4106 31.526 24.8762 29.7 24.8762ZM3.3 24.8762C1.474 24.8762 0 23.4106 0 21.595C0 18.0512 2.42 15.0762 5.72 14.2012C4.906 13.2387 4.4 12.0137 4.4 10.6575C4.4 9.20707 4.97946 7.81607 6.01091 6.79048C7.04236 5.76489 8.44131 5.18872 9.9 5.18872C10.516 5.18872 11 5.66997 11 6.28247C11 6.89497 10.516 7.37622 9.9 7.37622C8.074 7.37622 6.6 8.84185 6.6 10.6575C6.6 12.4731 8.074 13.9387 9.9 13.9387C10.516 13.9387 11 14.42 11 15.0325C11 15.645 10.516 16.1262 9.9 16.1262H7.7C6.24131 16.1262 4.84236 16.7024 3.81091 17.728C2.77946 18.7536 2.2 20.1446 2.2 21.595C2.2 22.2075 2.684 22.6887 3.3 22.6887C3.916 22.6887 4.4 23.17 4.4 23.7825C4.4 24.395 3.916 24.8762 3.3 24.8762ZM23.1 31.4387H9.9C8.074 31.4387 6.6 29.9731 6.6 28.1575V25.97C6.6 21.7481 10.054 18.3137 14.3 18.3137H18.7C22.946 18.3137 26.4 21.7481 26.4 25.97V28.1575C26.4 29.9731 24.926 31.4387 23.1 31.4387ZM14.3 20.5012C12.8413 20.5012 11.4424 21.0774 10.4109 22.103C9.37946 23.1286 8.8 24.5196 8.8 25.97V28.1575C8.8 28.77 9.284 29.2512 9.9 29.2512H23.1C23.716 29.2512 24.2 28.77 24.2 28.1575V25.97C24.2 24.5196 23.6205 23.1286 22.5891 22.103C21.5576 21.0774 20.1587 20.5012 18.7 20.5012H14.3Z" fill="white"/>
</svg>
