<svg width="36" height="36" viewBox="0 0 36 36" fill="none" xmlns="http://www.w3.org/2000/svg">
<path d="M5.16476 31.6961C4.3744 31.6961 3.71501 31.4385 3.18657 30.9233C2.65814 30.408 2.39336 29.7646 2.39221 28.9929V12.653C2.39221 11.8824 2.657 11.2395 3.18657 10.7243C3.71615 10.2091 4.37497 9.9509 5.16304 9.94978H12.6863V7.63296C12.6863 6.86348 12.9511 6.22057 13.4807 5.70423C14.0103 5.18789 14.6697 4.93028 15.4589 4.9314H20.2096C20.9988 4.9314 21.6582 5.18901 22.1878 5.70423C22.7174 6.21945 22.9816 6.86236 22.9804 7.63296V9.94978H30.5037C31.2929 9.94978 31.9518 10.2079 32.4802 10.7243C33.0086 11.2406 33.2734 11.8835 33.2746 12.653V28.9945C33.2746 29.764 33.0098 30.4069 32.4802 30.9233C31.9506 31.4396 31.2918 31.6972 30.5037 31.6961H5.16476ZM14.402 9.94978H21.2648V7.63296C21.2648 7.37647 21.155 7.1406 20.9353 6.92537C20.7157 6.71014 20.4738 6.60308 20.2096 6.60419H15.4572C15.1941 6.60419 14.9522 6.71125 14.7314 6.92537C14.5107 7.13949 14.4009 7.37535 14.402 7.63296V9.94978ZM31.5589 22.4957H21.2648V23.6533C21.2648 24.0414 21.1332 24.3637 20.8702 24.6202C20.6071 24.8767 20.2765 25.0049 19.8785 25.0049H15.7883C15.3903 25.0049 15.0597 24.8767 14.7966 24.6202C14.5336 24.3637 14.402 24.0414 14.402 23.6533V22.4957H4.1079V28.9945C4.1079 29.251 4.2177 29.4869 4.43731 29.7021C4.65692 29.9174 4.89883 30.0244 5.16304 30.0233H30.5037C30.7668 30.0233 31.0087 29.9162 31.2295 29.7021C31.4502 29.488 31.56 29.2516 31.5589 28.9929V22.4957ZM16.1177 23.3321H19.5491V19.9865H16.1177V23.3321ZM4.1079 20.8229H14.402V19.6654C14.402 19.2773 14.5336 18.955 14.7966 18.6985C15.0597 18.442 15.3903 18.3137 15.7883 18.3137H19.8785C20.2765 18.3137 20.6071 18.442 20.8702 18.6985C21.1332 18.955 21.2648 19.2773 21.2648 19.6654V20.8229H31.5589V12.653C31.5589 12.3954 31.4491 12.159 31.2295 11.9438C31.0099 11.7285 30.7679 11.6215 30.5037 11.6226H5.16304C4.89997 11.6226 4.65806 11.7296 4.43731 11.9438C4.21656 12.1579 4.10675 12.3943 4.1079 12.653V20.8229Z" fill="white"/>
</svg>
