<svg width="36" height="36" viewBox="0 0 36 36" fill="none" xmlns="http://www.w3.org/2000/svg">
<g clip-path="url(#clip0_2002_7817)">
<path d="M21.4772 33.9147C21.5941 33.9603 21.6994 33.9831 21.7932 33.9831C21.887 33.9831 21.9923 33.9603 22.1092 33.9147L32.7337 30.6866C32.6972 30.139 32.5316 29.7445 32.2368 29.5031C31.9397 29.2617 31.6042 29.141 31.2303 29.141H22.5623C21.7902 29.141 21.0899 29.111 20.4615 29.051C19.8331 28.9909 19.1907 28.848 18.5342 28.6222L15.4032 27.6279C15.1535 27.5462 14.9739 27.3841 14.8643 27.1415C14.7547 26.8989 14.7413 26.6587 14.8241 26.421C14.9069 26.1832 15.0628 26.009 15.2917 25.8986C15.5207 25.7881 15.763 25.7743 16.0188 25.8571L18.8503 26.8677C19.4373 27.0646 20.0876 27.1907 20.8013 27.246C21.5137 27.3012 22.396 27.3324 23.4483 27.3397H23.9232C23.9232 26.7776 23.8179 26.3237 23.6072 25.9778C23.3965 25.632 23.0963 25.3906 22.7066 25.2537L12.1954 21.4492C12.1259 21.4263 12.0614 21.4095 12.0017 21.3987C11.9421 21.3879 11.8781 21.3819 11.8099 21.3807H7.9737V30.0417L21.4772 33.9147ZM21.0113 35.6944L7.9737 31.9332C7.79955 32.6441 7.43115 33.2109 6.8685 33.6337C6.30586 34.0564 5.69085 34.2677 5.02347 34.2677H3.61686C2.80577 34.2677 2.1116 33.9825 1.53434 33.4121C0.955864 32.8428 0.666626 32.1583 0.666626 31.3585V22.4868C0.666626 21.6869 0.955255 21.0024 1.53251 20.4332C2.11099 19.8628 2.80577 19.5775 3.61686 19.5775H11.7697C11.9402 19.5775 12.115 19.5968 12.294 19.6352C12.4742 19.6724 12.6417 19.7168 12.7964 19.7685L23.3533 23.582C24.0072 23.827 24.5699 24.2671 25.0412 24.9024C25.5137 25.5377 25.75 26.3495 25.75 27.3379H31.2303C32.33 27.3379 33.1728 27.6771 33.7585 28.3556C34.3443 29.0353 34.6372 29.897 34.6372 30.9406C34.6372 31.3009 34.5386 31.6047 34.3413 31.8521C34.144 32.0995 33.8548 32.2862 33.4736 32.4123L22.7249 35.6818C22.4594 35.7563 22.1793 35.7995 21.8845 35.8115C21.5898 35.8235 21.2981 35.7839 21.0095 35.6926M2.49339 31.3567C2.49339 31.681 2.59874 31.947 2.80943 32.1547C3.02011 32.3625 3.28926 32.4664 3.61686 32.4664H5.02347C5.35107 32.4664 5.62021 32.3799 5.8309 32.207C6.04159 32.034 6.14693 31.7506 6.14693 31.3567V21.3807H3.61686C3.28926 21.3807 3.02011 21.4846 2.80943 21.6923C2.59874 21.9001 2.49339 22.1661 2.49339 22.4904V31.3567ZM24.9407 17.6194C24.5778 17.6194 24.221 17.554 23.8702 17.4231C23.5207 17.2922 23.201 17.0964 22.9112 16.8358L18.0629 12.2496C17.2592 11.487 16.5887 10.6343 16.0517 9.6916C15.5146 8.74768 15.2461 7.7209 15.2461 6.61125C15.2461 5.28544 15.7162 4.15958 16.6563 3.23368C17.5953 2.30657 18.7358 1.84302 20.0779 1.84302C21.0753 1.84302 21.9826 2.10902 22.7998 2.64103C23.6169 3.17303 24.33 3.81912 24.9389 4.5793C25.5478 3.81912 26.2615 3.17303 27.0799 2.64103C27.8958 2.10902 28.8031 1.84302 29.8018 1.84302C31.145 1.84302 32.2862 2.30657 33.2251 3.23368C34.1641 4.16078 34.6348 5.28604 34.6372 6.60945C34.6372 7.7215 34.3705 8.74888 33.8371 9.6916C33.3025 10.6343 32.6332 11.487 31.8295 12.2496L26.9703 16.8358C26.6816 17.0976 26.362 17.2934 26.0112 17.4231C25.6605 17.5528 25.3036 17.6182 24.9407 17.6194ZM25.7153 15.5407L30.4101 11.1039C31.0592 10.4866 31.6218 9.80329 32.098 9.05391C32.573 8.30454 32.8104 7.48972 32.8104 6.60945C32.8104 5.78802 32.5182 5.08849 31.9336 4.51085C31.349 3.93321 30.6384 3.64439 29.8018 3.64439C29.0711 3.64439 28.4158 3.85996 27.8362 4.29108C27.2565 4.72101 26.7358 5.2284 26.2743 5.81324L25.9692 6.17712C25.7049 6.50497 25.3639 6.6689 24.9462 6.6689C24.5285 6.6689 24.1832 6.50497 23.9104 6.17712L23.6054 5.81324C23.1426 5.2284 22.6219 4.72101 22.0435 4.29108C21.4638 3.85996 20.8086 3.64439 20.0779 3.64439C19.2436 3.64439 18.5342 3.93261 17.9497 4.50905C17.3639 5.08789 17.071 5.78802 17.071 6.60945C17.071 7.48972 17.3085 8.30454 17.7834 9.05391C18.2584 9.80329 18.8204 10.4866 19.4696 11.1039L24.1662 15.5407C24.3769 15.7484 24.6344 15.8523 24.9389 15.8523C25.2434 15.8523 25.5009 15.7484 25.7116 15.5407" fill="white"/>
</g>
<defs>
<clipPath id="clip0_2002_7817">
<rect width="35" height="35" fill="white" transform="translate(0.666626 0.813721)"/>
</clipPath>
</defs>
</svg>
