<svg width="35" height="36" viewBox="0 0 35 36" fill="none" xmlns="http://www.w3.org/2000/svg">
<g clip-path="url(#clip0_2002_8423)">
<path d="M19.9609 16.9807C20.3939 17.1516 20.8154 17.3396 21.2256 17.5447C21.6357 17.7498 22.0345 17.9833 22.4219 18.2454C22.1712 18.5188 21.9434 18.8036 21.7383 19.0999C21.5332 19.3961 21.3452 19.7151 21.1743 20.0569C20.297 19.4872 19.3628 19.0543 18.3716 18.7581C17.3804 18.4618 16.3607 18.3137 15.3125 18.3137C14.3099 18.3137 13.3415 18.4447 12.4072 18.7068C11.473 18.9688 10.6014 19.3334 9.79248 19.8005C8.98356 20.2677 8.2487 20.8373 7.58789 21.5095C6.92708 22.1817 6.35742 22.9223 5.87891 23.7312C5.40039 24.5401 5.03011 25.4117 4.76807 26.3459C4.50602 27.2802 4.375 28.2486 4.375 29.2512H2.1875C2.1875 27.884 2.38688 26.5681 2.78564 25.3035C3.18441 24.0388 3.75977 22.871 4.51172 21.8C5.26367 20.7291 6.15234 19.7778 7.17773 18.946C8.20312 18.1143 9.36523 17.4592 10.6641 16.9807C9.37663 16.1376 8.37402 15.078 7.65625 13.802C6.93848 12.526 6.57389 11.1132 6.5625 9.56372C6.5625 8.35604 6.79036 7.22241 7.24609 6.16284C7.70182 5.10327 8.32275 4.17472 9.10889 3.3772C9.89502 2.57967 10.8236 1.95304 11.8945 1.49731C12.9655 1.04159 14.1048 0.813721 15.3125 0.813721C16.5202 0.813721 17.6538 1.04159 18.7134 1.49731C19.7729 1.95304 20.7015 2.57397 21.499 3.36011C22.2965 4.14624 22.9232 5.07479 23.3789 6.14575C23.8346 7.21672 24.0625 8.35604 24.0625 9.56372C24.0625 10.3157 23.9714 11.0505 23.7891 11.7683C23.6068 12.4861 23.3333 13.164 22.9688 13.802C22.6042 14.44 22.1769 15.0268 21.687 15.5623C21.1971 16.0977 20.6217 16.5706 19.9609 16.9807ZM8.75 9.56372C8.75 10.4752 8.9209 11.324 9.2627 12.1101C9.60449 12.8962 10.0716 13.5912 10.6641 14.1951C11.2565 14.7989 11.9515 15.2717 12.749 15.6135C13.5465 15.9553 14.401 16.1262 15.3125 16.1262C16.2126 16.1262 17.0614 15.9553 17.8589 15.6135C18.6564 15.2717 19.3514 14.8046 19.9438 14.2122C20.5363 13.6197 21.0091 12.9247 21.3623 12.1272C21.7155 11.3297 21.8864 10.4752 21.875 9.56372C21.875 8.66366 21.7041 7.81486 21.3623 7.01733C21.0205 6.21981 20.5534 5.52482 19.9609 4.93237C19.3685 4.33993 18.6678 3.86711 17.8589 3.51392C17.05 3.16073 16.2012 2.98983 15.3125 3.00122C14.401 3.00122 13.5522 3.17212 12.7661 3.51392C11.98 3.85571 11.285 4.32284 10.6812 4.91528C10.0773 5.50773 9.60449 6.20841 9.2627 7.01733C8.9209 7.82625 8.75 8.67505 8.75 9.56372ZM33.9062 23.7825C33.9062 24.3749 33.8151 24.9503 33.6328 25.5085C33.4505 26.0668 33.1771 26.5852 32.8125 27.0637V35.8137L28.4375 33.6262L24.0625 35.8137V27.0637C23.7093 26.5852 23.4416 26.0668 23.2593 25.5085C23.077 24.9503 22.9801 24.3749 22.9688 23.7825C22.9688 23.0305 23.1112 22.3241 23.396 21.6633C23.6808 21.0025 24.0682 20.4272 24.5581 19.9373C25.048 19.4473 25.6291 19.0543 26.3013 18.7581C26.9735 18.4618 27.6855 18.3137 28.4375 18.3137C29.1895 18.3137 29.8958 18.4561 30.5566 18.741C31.2174 19.0258 31.7928 19.4189 32.2827 19.9202C32.7726 20.4215 33.1657 21.0025 33.4619 21.6633C33.7581 22.3241 33.9062 23.0305 33.9062 23.7825ZM28.4375 20.5012C27.9818 20.5012 27.5545 20.5867 27.1558 20.7576C26.757 20.9285 26.4095 21.162 26.1133 21.4583C25.8171 21.7545 25.5835 22.102 25.4126 22.5007C25.2417 22.8995 25.1562 23.3267 25.1562 23.7825C25.1562 24.2382 25.2417 24.6654 25.4126 25.0642C25.5835 25.463 25.8171 25.8105 26.1133 26.1067C26.4095 26.4029 26.757 26.6365 27.1558 26.8074C27.5545 26.9783 27.9818 27.0637 28.4375 27.0637C28.8932 27.0637 29.3205 26.9783 29.7192 26.8074C30.118 26.6365 30.4655 26.4029 30.7617 26.1067C31.0579 25.8105 31.2915 25.463 31.4624 25.0642C31.6333 24.6654 31.7188 24.2382 31.7188 23.7825C31.7188 23.3267 31.6333 22.8995 31.4624 22.5007C31.2915 22.102 31.0579 21.7545 30.7617 21.4583C30.4655 21.162 30.118 20.9285 29.7192 20.7576C29.3205 20.5867 28.8932 20.5012 28.4375 20.5012ZM30.625 32.2761V28.7898C29.9414 29.0974 29.2122 29.2512 28.4375 29.2512C27.6628 29.2512 26.9336 29.0974 26.25 28.7898V32.2761C26.6146 32.0938 26.9792 31.9172 27.3438 31.7463C27.7083 31.5754 28.0729 31.3875 28.4375 31.1824C28.8021 31.3761 29.1667 31.5583 29.5312 31.7292C29.8958 31.9001 30.2604 32.0824 30.625 32.2761Z" fill="white"/>
</g>
<defs>
<clipPath id="clip0_2002_8423">
<rect width="35" height="35" fill="white" transform="translate(0 0.813721)"/>
</clipPath>
</defs>
</svg>
