<svg width="318" height="221" viewBox="0 0 318 221" fill="none" xmlns="http://www.w3.org/2000/svg">
<path d="M200.581 158.501C198.613 158.13 196.825 157.477 195.218 156.542C193.611 155.608 192.209 154.258 191.013 152.494L147.892 89.3349C145.496 85.8261 144.729 82.1147 145.589 78.2006C146.449 74.2866 148.516 71.1095 151.788 68.6693C155.297 66.2737 159.095 65.4 163.181 66.0481C167.268 66.6963 170.505 68.769 172.892 72.2661L195.351 105.161L215.25 -0.380827C216.038 -4.56315 218.116 -7.79929 221.483 -10.0893C224.849 -12.3792 228.62 -13.1358 232.794 -12.359C236.968 -11.5821 240.209 -9.50365 242.517 -6.12348C244.825 -2.7433 245.577 1.02625 244.772 5.18518L224.874 110.727L257.769 88.2684C261.278 85.8727 265.053 85.1171 269.095 86.0014C273.137 86.8858 276.35 89.0864 278.734 92.6032C280.884 96.0656 281.651 99.7771 281.037 103.737C280.423 107.698 278.357 110.875 274.838 113.269L211.679 156.39C209.924 157.588 208.128 158.334 206.289 158.63C204.45 158.925 202.547 158.882 200.581 158.501ZM99.6991 207.121C91.5804 205.591 85.1774 201.393 80.49 194.527C75.8025 187.661 74.2201 180.163 75.7428 172.033L81.3088 142.511C82.0973 138.328 84.1749 135.092 87.5415 132.802C90.9081 130.512 94.6786 129.756 98.8529 130.533C103.027 131.309 106.268 133.388 108.576 136.768C110.884 140.148 111.636 143.918 110.831 148.077L105.265 177.599L282.399 210.995L287.965 181.473C288.753 177.291 290.831 174.054 294.198 171.764C297.564 169.474 301.335 168.718 305.509 169.495C309.683 170.272 312.924 172.35 315.232 175.73C317.54 179.11 318.292 182.88 317.487 187.039L311.921 216.561C310.391 224.68 306.191 231.088 299.324 235.785C292.457 240.482 284.959 242.06 276.833 240.517L99.6991 207.121Z" fill="#0187B2"/>
</svg>
