<svg width="355" height="221" viewBox="0 0 355 221" fill="none" xmlns="http://www.w3.org/2000/svg">
<path d="M284.27 -2.64364C297.091 -2.64364 308.065 -2.53498 317.192 -2.31767C326.319 -2.10037 334.685 -1.77441 342.291 -1.33981C349.896 -0.905194 357.502 -0.361933 365.108 0.289972L357.61 25.7146C353.047 25.28 344.246 24.9541 331.208 24.7367C318.17 24.5194 302.524 24.4108 284.27 24.4108C269.711 24.4108 258.846 27.1271 251.675 32.5597C244.503 37.775 239.723 47.6624 237.332 62.2218C235.377 76.5639 236.789 87.7551 241.57 95.7953C246.351 103.618 256.021 107.53 270.58 107.53H344.898L343.268 133.932C338.922 133.932 334.468 134.041 329.904 134.258C325.341 134.258 320.125 134.367 314.258 134.584C308.608 134.584 302.089 134.693 294.701 134.91C287.312 134.91 278.62 134.91 268.624 134.91C260.584 134.91 253.956 136.757 248.741 140.451C243.526 143.928 239.18 149.796 235.703 158.053L207.67 225.2H172.141L202.129 155.771C205.606 148.383 209.191 142.407 212.886 137.844C216.797 133.28 220.817 129.803 224.946 127.413C229.292 125.023 233.856 123.61 238.636 123.176L238.962 121.872C228.966 120.133 221.252 116.113 215.819 109.811C210.387 103.51 206.801 95.7953 205.063 86.6685C203.542 77.3244 203.433 67.6544 204.737 57.6584C206.91 42.4471 211.147 30.4953 217.449 21.8031C223.751 12.8936 232.443 6.59181 243.526 2.89763C254.825 -0.796549 268.407 -2.64364 284.27 -2.64364ZM365.108 0.289972L333.49 225.2H300.568L332.186 0.289972H365.108Z" fill="#FBA579"/>
<path d="M147.576 0.289972C150.618 0.289972 153.117 1.26784 155.073 3.22358C157.246 4.96202 158.441 7.13507 158.658 9.74273L199.403 225.2H166.807L136.493 44.6201C136.059 41.3605 135.624 38.101 135.19 34.8414C134.755 31.3645 134.429 28.105 134.212 25.0627H124.433C123.129 27.8877 121.717 31.1472 120.196 34.8414C118.892 38.3183 117.479 41.5778 115.958 44.6201L35.1208 225.2H0.569381L102.268 8.76486C103.137 5.72259 104.658 3.54955 106.831 2.24573C109.004 0.941891 111.503 0.289972 114.328 0.289972H147.576ZM170.393 129.695L167.133 157.075H52.3965L55.982 129.695H170.393Z" fill="#FFC1A0"/>
</svg>
