<svg width="225" height="59" viewBox="0 0 225 59" fill="none" xmlns="http://www.w3.org/2000/svg">
<g clip-path="url(#clip0_297_510)">
<path d="M77.5448 0.28125C78.256 0.28125 78.8616 0.301792 79.3618 0.342877C79.8618 0.383962 80.3201 0.438424 80.7367 0.50626C81.1692 0.578069 81.5976 0.673762 82.0194 0.792898L81.7314 3.61198C81.2665 3.58475 80.8359 3.569 80.4357 3.56183L79.1631 3.54033C78.7124 3.54033 78.1712 3.53029 77.5419 3.53029C76.982 3.53029 76.5341 3.64638 76.2189 3.87857C75.9037 4.11073 75.6746 4.51777 75.5522 5.10395C75.4096 5.92003 75.3473 6.74806 75.3665 7.57619C75.3473 8.40387 75.4096 9.23143 75.5522 10.047C75.6751 10.6327 75.8973 11.0416 76.2189 11.2738C76.5398 11.5046 76.982 11.6207 77.5419 11.6207C78.5411 11.6207 79.3722 11.6068 80.0356 11.5791C80.6988 11.5514 81.3657 11.5036 82.0367 11.4358L82.3247 14.2334C81.6412 14.4649 80.9368 14.6295 80.2213 14.7249C79.3322 14.8296 78.4372 14.8775 77.5419 14.8683C76.0235 14.8683 74.8095 14.6337 73.8995 14.1646C72.9896 13.6954 72.333 12.9311 71.9299 11.8715C71.5249 10.809 71.3229 9.37914 71.3239 7.58192C71.3248 5.78469 71.5268 4.35438 71.9299 3.29095C72.333 2.22943 72.9896 1.46507 73.8995 0.997846C74.8095 0.530625 76.0245 0.29176 77.5448 0.28125Z" fill="white"/>
<path d="M93.2921 4.46875V7.24629H83.0703V4.46875H93.2921ZM90.05 4.46875V14.6215H86.3356V4.46875H90.05Z" fill="white"/>
<path d="M97.6559 4.46921L98.0259 6.18905L98.3944 6.49574V13.1759L98.2923 13.4209C98.3335 13.8432 98.3643 14.2961 98.3844 14.7796C98.4046 15.2626 98.4088 15.7298 98.3944 16.1798V18.4056H94.68V4.46921H97.6559ZM101.822 4.22412C103.135 4.22412 104.069 4.69373 104.623 5.63296C105.176 6.57218 105.454 7.91413 105.455 9.65879C105.455 11.0328 105.311 12.0981 105.023 12.8548C104.735 13.6115 104.307 14.1428 103.74 14.4485C103.173 14.7552 102.465 14.9086 101.616 14.9086C100.892 14.9126 100.171 14.7988 99.4829 14.5718C98.8309 14.3594 98.249 13.9745 97.7999 13.4582L98.0431 11.9261C98.3989 12.035 98.73 12.1396 99.0379 12.2428C99.4071 12.3534 99.7915 12.4052 100.177 12.3962C100.47 12.4116 100.762 12.3441 101.019 12.2013C101.223 12.0723 101.375 11.8129 101.47 11.4259C101.583 10.8507 101.631 10.2647 101.614 9.67886C101.629 9.09013 101.585 8.50136 101.48 7.92176C101.392 7.52621 101.248 7.26537 101.048 7.13494C100.809 6.99551 100.534 6.92827 100.257 6.94147C99.9123 6.93277 99.5694 6.99523 99.2496 7.12492C98.9339 7.26625 98.6289 7.43004 98.3368 7.61507L97.843 6.10304C98.0867 5.72394 98.4046 5.3974 98.7774 5.14281C99.2065 4.84496 99.6809 4.61756 100.183 4.46921C100.714 4.30636 101.267 4.22375 101.822 4.22412Z" fill="white"/>
<path d="M115.695 8.39172L115.674 10.2706H111.303C111.056 10.2646 110.816 10.3481 110.626 10.5057C110.549 10.5814 110.49 10.6723 110.451 10.7726C110.412 10.8729 110.395 10.9802 110.4 11.0875V11.476C110.394 11.5893 110.413 11.7027 110.458 11.8072C110.502 11.9118 110.57 12.0049 110.656 12.0793C110.882 12.2387 111.156 12.3143 111.432 12.2929C111.806 12.2867 112.174 12.2103 112.519 12.0679C112.919 11.9096 113.298 11.7042 113.648 11.4559C114 11.2129 114.323 10.9317 114.613 10.6175V11.926C114.464 12.2091 114.296 12.482 114.11 12.7429C113.855 13.1026 113.563 13.4345 113.238 13.7332C112.599 14.2967 111.816 14.6726 110.975 14.8189C110.134 14.9651 109.27 14.8761 108.477 14.5616C107.982 14.3623 107.552 14.0298 107.236 13.6014C106.914 13.1333 106.752 12.5745 106.773 12.0077V10.9858C106.773 10.1689 107.064 9.53206 107.646 9.07535C108.228 8.61865 109.018 8.39076 110.016 8.39172H115.695ZM112.924 4.18243C113.713 4.1615 114.5 4.28638 115.243 4.55078C115.853 4.77769 116.363 5.21165 116.683 5.77616C117.011 6.34942 117.175 7.13958 117.175 8.14664V14.6218H114.197L113.684 12.4362L113.438 12.0679V8.12516C113.423 7.70379 113.317 7.39995 113.12 7.21652C112.922 7.03306 112.561 6.94132 112.041 6.94132C111.522 6.94132 110.852 6.95137 110.072 6.97143C109.292 6.9915 108.478 7.03019 107.624 7.08321L107.296 4.69408C107.802 4.59855 108.397 4.5135 109.081 4.43898C109.765 4.36303 110.446 4.29567 111.123 4.25411C111.799 4.21254 112.404 4.18243 112.924 4.18243Z" fill="white"/>
<path d="M128.664 4.46875V7.24629H118.442V4.46875H128.664ZM125.422 4.46875V14.6215H121.708V4.46875H125.422Z" fill="white"/>
<path d="M135.108 4.18213C136.94 4.18213 138.247 4.48215 139.028 5.08217C139.81 5.68221 140.206 6.56744 140.218 7.73788C140.232 8.67711 139.969 9.36455 139.429 9.80023C138.888 10.2359 137.948 10.4538 136.607 10.4538H131.004V8.59062H135.56C136.011 8.59062 136.299 8.52279 136.424 8.38711C136.549 8.25144 136.614 8.00636 136.62 7.6519C136.62 7.25632 136.514 6.9907 136.301 6.85503C136.09 6.71935 135.73 6.65104 135.225 6.65008C134.851 6.62004 134.475 6.67592 134.126 6.81347C133.873 6.93673 133.698 7.18179 133.602 7.5487C133.49 8.09305 133.442 8.64855 133.458 9.20403C133.439 9.77441 133.498 10.3447 133.633 10.8995C133.674 11.0753 133.753 11.2404 133.862 11.3845C133.972 11.5286 134.11 11.6485 134.269 11.7365C134.575 11.8999 135.01 11.983 135.572 11.983C136.022 11.983 136.607 11.9658 137.327 11.9314C138.047 11.897 138.802 11.8392 139.594 11.758L139.938 14.0095C139.475 14.2334 138.987 14.4027 138.484 14.514C137.947 14.6384 137.402 14.727 136.853 14.7792C136.292 14.8336 135.73 14.8608 135.17 14.8608C133.816 14.8608 132.724 14.6698 131.896 14.2876C131.106 13.9432 130.471 13.322 130.111 12.5419C129.748 11.7575 129.567 10.7734 129.567 9.58957C129.567 8.25191 129.751 7.18945 130.121 6.40214C130.473 5.62946 131.108 5.01955 131.896 4.69666C132.71 4.35363 133.781 4.18213 135.108 4.18213Z" fill="white"/>
<path d="M144.65 4.32568C145.595 4.32568 146.569 4.33955 147.574 4.36725C148.48 4.38387 149.382 4.47252 150.274 4.6324L150.089 7.22646H146.333C146.115 7.20656 145.897 7.26447 145.717 7.38985C145.595 7.49878 145.533 7.69654 145.533 7.9832V14.6217H141.839V6.8997C141.839 6.01495 142.068 5.36476 142.527 4.94914C142.986 4.53349 143.693 4.32568 144.65 4.32568Z" fill="white"/>
<path d="M162.109 4.46875V14.6215L158.784 14.6631V10.0711C158.784 9.77108 158.798 9.48158 158.826 9.20259C158.853 8.9236 158.887 8.61356 158.928 8.27244H158.846C158.637 8.86998 158.354 9.43949 158.005 9.9679L154.823 14.6258H151.541V4.46875H154.865V9.26995C154.865 9.52229 154.851 9.77443 154.823 10.0252C154.795 10.2698 154.761 10.5422 154.721 10.8421H154.803C154.893 10.5691 155.01 10.3056 155.151 10.0553C155.289 9.81743 155.433 9.58286 155.583 9.35164L158.846 4.46875H162.109Z" fill="white"/>
<path d="M174.88 4.46875V14.6215L171.554 14.6631V10.0711C171.554 9.77108 171.568 9.48158 171.596 9.20259C171.624 8.9236 171.658 8.61356 171.698 8.27244H171.612C171.507 8.5809 171.38 8.88128 171.231 9.17106C171.096 9.4468 170.942 9.71306 170.771 9.9679L167.589 14.6258H164.307V4.46875H167.631V9.26995C167.631 9.52229 167.617 9.77443 167.589 10.0252C167.562 10.2703 167.529 10.5426 167.487 10.8421H167.569C167.659 10.5691 167.775 10.3056 167.917 10.0553C168.054 9.81743 168.198 9.58286 168.349 9.35164L171.612 4.46875H174.88Z" fill="white"/>
<path d="M76.7039 25.623C78.0478 25.623 79.1216 25.7966 79.9259 26.1434C80.7054 26.4652 81.3299 27.074 81.6696 27.8431C82.0255 28.6265 82.2037 29.6776 82.2037 30.9961C82.2037 32.3147 82.0255 33.3528 81.6696 34.1104C81.3245 34.87 80.7007 35.4694 79.9259 35.7858C79.1178 36.1345 78.044 36.3085 76.7039 36.3075C75.3641 36.3066 74.2969 36.1326 73.5021 35.7858C72.7255 35.4682 72.0986 34.8696 71.7471 34.1104C71.3854 33.346 71.2045 32.3079 71.2045 30.9961C71.2045 29.6842 71.3854 28.6334 71.7471 27.8431C72.0933 27.0756 72.7212 26.4692 73.5021 26.1476C74.3142 25.798 75.3814 25.623 76.7039 25.623ZM76.7039 28.2172C76.3674 28.1986 76.0327 28.2767 75.7395 28.4422C75.5062 28.5912 75.3421 28.8635 75.2471 29.2591C75.1346 29.8311 75.0863 30.4137 75.1031 30.9961C75.0865 31.573 75.1349 32.1497 75.2471 32.716C75.3421 33.1114 75.5062 33.3795 75.7395 33.5228C76.0351 33.6813 76.3688 33.7558 76.7039 33.7379C77.0459 33.7572 77.3865 33.6829 77.6887 33.5228C77.922 33.3795 78.0819 33.1114 78.1709 32.716C78.2752 32.1488 78.3202 31.5725 78.305 30.9961C78.3204 30.4142 78.2754 29.8321 78.1709 29.2591C78.0819 28.8635 77.922 28.5912 77.6887 28.4422C77.3887 28.2755 77.0471 28.1974 76.7039 28.2172Z" fill="white"/>
<path d="M93.5109 20.9448L94.045 23.7639C93.6076 24.0067 93.1374 24.1852 92.6486 24.2941C92.2168 24.3877 91.7773 24.4424 91.3355 24.4575C90.9114 24.4719 90.4905 24.4891 90.0729 24.5092C89.6471 24.5306 89.2246 24.5955 88.8118 24.7027C88.4896 24.7916 88.1794 24.9187 87.8876 25.0809C87.6635 25.2063 87.4625 25.3688 87.2929 25.5612C87.1449 25.7352 87.0205 25.928 86.9229 26.1343C86.7789 26.3522 86.6783 26.5955 86.6264 26.8511C86.5774 27.0961 86.5269 27.3613 86.4722 27.6478H86.5544C86.7529 27.4358 86.9691 27.2413 87.2008 27.0659C87.4357 26.8902 87.6903 26.7426 87.9596 26.6259C88.2687 26.496 88.5927 26.4036 88.924 26.3508C89.321 26.2866 89.7227 26.256 90.1248 26.2591C91.2458 26.2591 92.1318 26.4225 92.7824 26.7492C93.4276 27.0711 93.9287 27.6209 94.1876 28.2914C94.4756 28.9917 94.6196 29.9142 94.6196 31.0589C94.6196 32.2312 94.4555 33.2054 94.1272 33.9811C93.811 34.7422 93.227 35.3622 92.4845 35.7253C91.7166 36.1075 90.6771 36.3015 89.3662 36.3072C88.271 36.3072 87.3779 36.1983 86.6868 35.9804C86.0767 35.8088 85.5173 35.4931 85.0557 35.0602C84.6552 34.658 84.356 34.1669 84.1831 33.6272C83.992 33.0347 83.875 32.421 83.8348 31.7997C83.7879 31.1386 83.7637 30.4268 83.7628 29.6643C83.7585 28.7736 83.8101 27.8831 83.9169 26.9987C84.0036 26.2499 84.1865 25.5154 84.4612 24.8131C84.7106 24.18 85.0997 23.6108 85.5999 23.1476C86.1615 22.6486 86.8223 22.2727 87.5392 22.0441C88.0351 21.8733 88.5474 21.7537 89.068 21.6872C89.5682 21.6251 90.0639 21.5807 90.5554 21.5539C91.0509 21.5274 91.5444 21.4739 92.034 21.3934C92.5434 21.3068 93.0396 21.1561 93.5109 20.9448ZM89.2021 28.4819C88.7499 28.4819 88.4072 28.5578 88.1756 28.7071C88.0489 28.7988 87.9421 28.9148 87.8611 29.0483C87.7798 29.1815 87.7263 29.3295 87.7033 29.4837C87.5335 30.557 87.5404 31.6505 87.7235 32.7213C87.8199 33.1097 87.9797 33.3749 88.2057 33.5183C88.502 33.6597 88.8264 33.733 89.1552 33.733C89.4839 33.733 89.8084 33.6597 90.1047 33.5183C90.337 33.3749 90.4978 33.1092 90.5869 32.7213C90.6897 32.1656 90.734 31.6007 90.7195 31.0358C90.7347 30.498 90.6904 29.9602 90.5869 29.4321C90.4978 29.0711 90.347 28.8226 90.135 28.6868C89.8496 28.5326 89.5261 28.4616 89.2021 28.4819Z" fill="white"/>
<path d="M100.016 25.9082V36.0624H96.4248V25.9082H100.016ZM113.314 33.5901V36.0624H99.873L99.8514 33.5901H113.314ZM105.721 25.9082V36.0624H102.437V25.9082H105.721ZM111.735 25.9082V36.0624H108.163V25.9082H111.735ZM113.318 35.9592V38.8785H110.83L110.569 35.9592H113.318Z" fill="white"/>
<path d="M119.86 25.623C121.694 25.623 123.001 25.9227 123.781 26.5218C124.56 27.1207 124.955 28.006 124.965 29.1773C124.978 30.1176 124.714 30.8056 124.175 31.2413C123.636 31.677 122.699 31.8948 121.366 31.8948H115.751V30.0315H120.308C120.76 30.0315 121.05 29.9629 121.18 29.8266C121.311 29.6906 121.375 29.4454 121.375 29.0915C121.375 28.6959 121.269 28.4302 121.057 28.2946C120.845 28.1583 120.481 28.0897 119.98 28.0897C119.5 28.0772 119.134 28.1321 118.881 28.2545C118.629 28.3766 118.456 28.6218 118.363 28.9896C118.25 29.5333 118.201 30.0886 118.219 30.6436C118.2 31.2139 118.259 31.7842 118.393 32.339C118.435 32.5149 118.514 32.6802 118.624 32.8245C118.733 32.9688 118.871 33.0888 119.029 33.1774C119.338 33.3408 119.771 33.4226 120.333 33.4226C120.784 33.4226 121.369 33.4054 122.087 33.371C122.805 33.3366 123.561 33.2788 124.355 33.1975L124.677 35.4491C124.219 35.6747 123.736 35.8459 123.238 35.9593C122.701 36.0843 122.156 36.1734 121.607 36.2257C121.045 36.2802 120.484 36.3075 119.924 36.3075C118.568 36.3075 117.477 36.1163 116.651 35.7341C115.861 35.3899 115.225 34.7679 114.865 33.9873C114.502 33.2048 114.321 32.2207 114.322 31.0347C114.322 29.6972 114.507 28.6348 114.876 27.8473C115.228 27.0745 115.863 26.4643 116.651 26.142C117.463 25.7961 118.533 25.623 119.86 25.623Z" fill="white"/>
<path d="M131.538 25.623C131.934 25.623 132.372 25.6431 132.851 25.6834C133.334 25.7254 133.815 25.797 134.29 25.8982C134.742 25.9916 135.182 26.1318 135.603 26.3167L135.213 28.6256C134.599 28.6256 134.045 28.6223 133.552 28.6157C133.059 28.6084 132.6 28.6056 132.177 28.6056C131.764 28.5895 131.353 28.6553 130.966 28.7991C130.815 28.8656 130.68 28.9628 130.568 29.0839C130.457 29.2054 130.372 29.3485 130.319 29.5041C130.189 29.8453 130.124 30.3354 130.124 30.9746C130.104 31.4669 130.169 31.959 130.317 32.4293C130.368 32.5873 130.452 32.733 130.563 32.8563C130.674 32.9799 130.811 33.0786 130.963 33.1458C131.35 33.2908 131.761 33.3573 132.174 33.3408C132.405 33.3408 132.696 33.3375 133.046 33.3307C133.397 33.3241 133.774 33.3102 134.179 33.2892C134.59 33.2691 135 33.2385 135.41 33.1975L135.739 35.5264C135.111 35.8308 134.439 36.0359 133.748 36.134C133.008 36.2484 132.26 36.3064 131.512 36.3075C130.212 36.3075 129.172 36.1335 128.392 35.7858C127.633 35.4604 127.032 34.8516 126.719 34.0903C126.383 33.3078 126.215 32.2692 126.216 30.9746C126.216 29.6543 126.387 28.6032 126.729 27.8216C127.054 27.0636 127.661 26.4598 128.422 26.1361C129.214 25.7942 130.252 25.623 131.538 25.623Z" fill="white"/>
<path d="M146.723 25.9082V28.687H136.502V25.9082H146.723ZM143.481 25.9082V36.0624H139.767V25.9082H143.481Z" fill="white"/>
<path d="M153.414 25.7861C154.566 25.7861 155.472 25.8644 156.132 26.0212C156.792 26.178 157.272 26.4503 157.572 26.8382C157.865 27.226 158.013 27.7739 158.014 28.482C158.014 29.2044 157.842 29.7528 157.5 30.1274C157.157 30.5018 156.581 30.723 155.772 30.7909V30.8725C156.744 30.9413 157.425 31.2037 157.814 31.6595C158.202 32.1152 158.397 32.7447 158.398 33.5482C158.398 34.244 158.244 34.7891 157.937 35.1835C157.63 35.5782 157.155 35.8538 156.51 36.0106C155.688 36.1851 154.848 36.2639 154.007 36.2457C153.132 36.2457 152.358 36.2422 151.688 36.2356C151.017 36.229 150.398 36.2151 149.83 36.1941C149.263 36.174 148.687 36.15 148.103 36.1224L148.391 33.8149C148.706 33.8274 149.311 33.8373 150.208 33.8451C151.104 33.8526 152.16 33.8559 153.375 33.855C153.644 33.8632 153.913 33.8356 154.175 33.7734C154.262 33.7526 154.344 33.7135 154.415 33.659C154.485 33.6043 154.544 33.5353 154.586 33.4565C154.679 33.2481 154.721 33.0208 154.71 32.7931C154.71 32.384 154.61 32.1119 154.412 31.9761C154.213 31.8405 153.854 31.7722 153.335 31.7712H148.368V29.8923H153.327C153.576 29.8989 153.824 29.8749 154.066 29.8207C154.145 29.8035 154.22 29.7702 154.285 29.7228C154.35 29.6754 154.405 29.6151 154.446 29.5455C154.529 29.3736 154.567 29.1841 154.558 28.9936C154.57 28.8083 154.527 28.6234 154.435 28.4619C154.334 28.3275 154.188 28.2335 154.024 28.1969C153.762 28.1344 153.493 28.1071 153.224 28.1151C152.486 28.1151 151.836 28.1118 151.274 28.105C150.713 28.0984 150.2 28.0984 149.735 28.105C149.27 28.1123 148.818 28.1281 148.381 28.1552L148.093 25.908C148.625 25.8679 149.149 25.8406 149.662 25.8262C150.174 25.8121 150.733 25.8033 151.335 25.7963C151.937 25.789 152.633 25.7861 153.414 25.7861ZM151.607 25.908V36.1224H148.099V25.908H151.607Z" fill="white"/>
<path d="M165.193 25.623C167.026 25.623 168.333 25.9227 169.112 26.5218C169.892 27.1207 170.289 28.006 170.303 29.1773C170.315 30.1176 170.052 30.8056 169.512 31.2413C168.973 31.677 168.032 31.8948 166.691 31.8948H161.089V30.0315H165.644C166.096 30.0315 166.387 29.9634 166.516 29.8266C166.646 29.6901 166.711 29.4449 166.711 29.0915C166.711 28.6959 166.605 28.4302 166.394 28.2946C166.181 28.1583 165.818 28.0897 165.316 28.0897C164.836 28.0772 164.47 28.1321 164.219 28.2545C163.965 28.3762 163.787 28.6214 163.695 28.9896C163.582 29.5336 163.534 30.0886 163.551 30.6436C163.532 31.2139 163.591 31.7842 163.726 32.339C163.768 32.5149 163.846 32.6799 163.956 32.8242C164.065 32.9685 164.203 33.0888 164.361 33.1774C164.669 33.3408 165.101 33.4226 165.657 33.4226C166.109 33.4226 166.694 33.4054 167.412 33.371C168.13 33.3366 168.886 33.2788 169.679 33.1975L170.008 35.4449C169.547 35.671 169.062 35.8421 168.561 35.9551C168.024 36.08 167.479 36.1691 166.93 36.2215C166.37 36.276 165.809 36.3033 165.247 36.3033C163.893 36.3033 162.802 36.1121 161.974 35.7299C161.184 35.3854 160.548 34.7637 160.189 33.9828C159.826 33.2003 159.645 32.2162 159.645 31.0305C159.645 29.6929 159.83 28.6303 160.199 27.8431C160.551 27.0702 161.186 26.46 161.974 26.1375C162.793 25.7947 163.866 25.623 165.193 25.623Z" fill="white"/>
<path d="M175.658 25.9082V36.0624H171.964V25.9082H175.658ZM178.983 29.504V31.9404H175.514V29.504H178.983ZM182.451 25.9082V36.0624H178.798V25.9082H182.451Z" fill="white"/>
<path d="M188.341 25.9082V36.0624H184.648V25.9082H188.341ZM191.666 29.504V31.9404H188.198V29.504H191.666ZM195.135 25.9082V36.0624H191.479V25.9082H195.135Z" fill="white"/>
<path d="M200.943 25.9082V36.0624H197.33V25.9082H200.943ZM202.029 29.259C203.288 29.259 204.28 29.3611 205.005 29.5657C205.731 29.7702 206.247 30.1207 206.554 30.6175C206.862 31.1145 207.017 31.8124 207.017 32.7114C207.017 33.6106 206.866 34.3118 206.565 34.8154C206.244 35.3346 205.739 35.714 205.149 35.8774C204.505 36.083 203.677 36.185 202.666 36.1841C201.885 36.1841 201.201 36.1808 200.613 36.1742C200.024 36.1674 199.481 36.1542 198.982 36.1339C198.482 36.1124 197.974 36.0896 197.453 36.0624L197.699 33.6918C197.972 33.7061 198.499 33.7191 199.283 33.7335C200.066 33.7476 200.979 33.7535 202.032 33.7535C202.292 33.7632 202.551 33.7356 202.802 33.6717C202.885 33.6458 202.961 33.6007 203.023 33.5406C203.085 33.4805 203.133 33.4065 203.161 33.3249C203.239 33.0804 203.273 32.8243 203.263 32.5683C203.263 32.0904 203.188 31.7737 203.037 31.6179C202.887 31.4623 202.551 31.384 202.029 31.3831H197.679V29.259H202.029ZM211.86 25.9082V36.0624H208.103V25.9082H211.86Z" fill="white"/>
<path d="M216.989 25.9082L219.617 30.8729L216.763 36.0624H213.029L216.086 30.8729L213.275 25.9082H216.989ZM220.909 29.7492V31.9147H217.153V29.7492H220.909ZM224.768 25.9082L221.935 30.8729L224.992 36.0624H221.258L218.402 30.8729L221.049 25.9082H224.768Z" fill="white"/>
<path d="M82.1832 47.3486V57.5015L78.8589 57.543V52.9454C78.8589 52.6471 78.8719 52.3562 78.8992 52.0853C78.9266 51.8146 78.9612 51.4963 79.0015 51.1552H78.9193C78.8151 51.4636 78.6886 51.7637 78.5408 52.0539C78.4046 52.3293 78.2502 52.5955 78.0785 52.8509L74.8968 57.5085H71.6144V47.3486H74.9387V52.1485C74.9387 52.4012 74.9247 52.654 74.8968 52.9053C74.8695 53.1503 74.8364 53.4226 74.7947 53.722H74.8766C74.9671 53.449 75.0844 53.1854 75.2267 52.9353C75.3619 52.6974 75.5059 52.4628 75.6585 52.2317L78.9207 47.3486H82.1832Z" fill="white"/>
<path d="M87.8471 47.0823C88.8587 47.0668 89.8698 47.1321 90.8707 47.2771C91.6442 47.406 92.2086 47.6685 92.5636 48.0641C92.9189 48.4595 93.0967 49.0586 93.0979 49.8611C93.0979 50.6505 92.9236 51.2237 92.5752 51.5811C92.2268 51.9383 91.6553 52.1533 90.8605 52.2259V52.3077C91.805 52.3745 92.4769 52.6263 92.876 53.0629C93.2753 53.4996 93.4773 54.1331 93.4823 54.9633C93.4823 55.7802 93.3009 56.3894 92.9381 56.7907C92.5752 57.192 92.0314 57.4542 91.3069 57.5775C90.4102 57.7126 89.5041 57.7739 88.5972 57.7609C87.8045 57.7609 87.0113 57.7303 86.2174 57.6692C85.3946 57.6046 84.5771 57.4853 83.7701 57.3123L84.0162 54.9017C84.7957 54.984 85.5581 55.0418 86.3039 55.0752C87.0497 55.1085 87.7216 55.1257 88.3194 55.1266C88.8535 55.1266 89.2121 55.0781 89.3963 54.9835C89.5806 54.8887 89.6741 54.6494 89.6741 54.2668C89.6862 54.0958 89.6467 53.9251 89.5605 53.7766C89.51 53.7153 89.4477 53.6646 89.3774 53.6276C89.3068 53.5906 89.2296 53.5682 89.1502 53.5618C88.8682 53.521 88.5842 53.4972 88.2993 53.4901L85.0974 53.4298V51.28L88.2777 51.2185C88.5191 51.2133 88.7599 51.1892 88.9975 51.1468C89.0655 51.1386 89.1308 51.1162 89.1893 51.0813C89.2478 51.0461 89.2983 50.999 89.3373 50.9433C89.4058 50.8071 89.4375 50.6555 89.4295 50.5034C89.4444 50.332 89.4046 50.1606 89.3158 50.0132C89.2102 49.9029 89.0681 49.834 88.9155 49.8196C88.6294 49.7789 88.3405 49.7616 88.0518 49.768C87.3798 49.768 86.7162 49.7885 86.0606 49.8298C85.4051 49.8708 84.7961 49.9253 84.2336 49.9932L83.9873 47.5824C84.6756 47.3688 85.3845 47.2285 86.1023 47.1639C86.8136 47.1104 87.3952 47.0833 87.8471 47.0823Z" fill="white"/>
<path d="M108.121 47.3487C108.956 47.3487 109.38 47.771 109.394 48.6158L109.66 57.5016H106.295L106.029 50.049H105.763L104.552 54.9734C104.504 55.3016 104.34 55.6019 104.09 55.8205C103.824 56.027 103.492 56.1322 103.155 56.1171H101.514C101.178 56.1322 100.847 56.027 100.581 55.8205C100.33 55.6026 100.165 55.302 100.119 54.9734L98.8666 50.049H98.6189L98.4145 57.5016H95.0499L95.2962 48.6158C95.3095 47.7701 95.7415 47.3478 96.592 47.3487H99.7318C100.067 47.3332 100.397 47.4345 100.665 47.6354C100.923 47.8587 101.082 48.1746 101.107 48.5139L102.03 52.2733C102.098 52.5173 102.146 52.7665 102.174 53.0186C102.201 53.2709 102.221 53.526 102.235 53.7853H102.42C102.447 53.526 102.472 53.2709 102.492 53.0186C102.512 52.7663 102.557 52.5169 102.626 52.2733L103.528 48.5139C103.65 47.7382 104.115 47.3501 104.923 47.3501L108.121 47.3487Z" fill="white"/>
<path d="M116.782 47.062C118.616 47.062 119.923 47.3614 120.703 47.9605C121.482 48.5596 121.879 49.445 121.893 50.6163C121.907 51.5563 121.643 52.2443 121.103 52.68C120.562 53.1157 119.622 53.3336 118.281 53.3336H112.678V51.4705H117.234C117.685 51.4705 117.975 51.4026 118.107 51.267C118.238 51.1312 118.303 50.8858 118.301 50.5302C118.301 50.1367 118.195 49.8715 117.983 49.7347C117.771 49.5987 117.407 49.5298 116.906 49.5298C116.427 49.5169 116.061 49.5699 115.808 49.6932C115.554 49.8165 115.376 50.0615 115.285 50.4286C115.172 50.9728 115.124 51.5282 115.141 52.0837C115.123 52.6559 115.183 53.2277 115.32 53.7836C115.362 53.9593 115.44 54.1243 115.55 54.2684C115.659 54.4125 115.798 54.5325 115.956 54.6206C116.264 54.784 116.697 54.8656 117.259 54.8656C117.711 54.8656 118.296 54.8489 119.014 54.8154C119.732 54.7821 120.486 54.7246 121.277 54.6435L121.605 56.8907C121.147 57.1158 120.664 57.287 120.165 57.4009C119.628 57.5246 119.083 57.6133 118.534 57.6661C117.973 57.7206 117.412 57.7479 116.851 57.7479C115.496 57.7479 114.405 57.5567 113.577 57.1745C112.787 56.8301 112.152 56.2083 111.792 55.4275C111.43 54.6449 111.249 53.6613 111.25 52.4765C111.25 51.139 111.434 50.0764 111.802 49.2891C112.154 48.5165 112.789 47.9065 113.577 47.5835C114.388 47.2358 115.456 47.062 116.782 47.062Z" fill="white"/>
<path d="M127.249 47.3486V57.5015H123.555V47.3486H127.249ZM130.58 50.9446V53.3811H127.105V50.9446H130.58ZM134.036 47.3486V57.5015H130.389V47.3486H134.036Z" fill="white"/>
<path d="M141.348 47.062C143.181 47.062 144.487 47.3614 145.267 47.9605C146.046 48.5596 146.443 49.445 146.457 50.6163C146.47 51.5563 146.206 52.2443 145.667 52.68C145.127 53.1157 144.187 53.3336 142.845 53.3336H137.243V51.4705H141.798C142.25 51.4705 142.541 51.4026 142.671 51.267C142.8 51.1312 142.865 50.8858 142.865 50.5302C142.865 50.136 142.76 49.871 142.547 49.7347C142.334 49.5987 141.971 49.5298 141.47 49.5298C140.991 49.5169 140.625 49.5699 140.373 49.6932C140.121 49.8165 139.941 50.0615 139.849 50.4286C139.736 50.9728 139.688 51.5282 139.705 52.0837C139.687 52.6557 139.745 53.2272 139.879 53.7836C139.922 53.9593 140 54.1243 140.109 54.2684C140.219 54.4125 140.357 54.5325 140.516 54.6206C140.824 54.784 141.256 54.8656 141.811 54.8656C142.264 54.8656 142.849 54.8489 143.566 54.8154C144.284 54.7821 145.043 54.7246 145.841 54.6435L146.169 56.8907C145.711 57.1158 145.228 57.287 144.73 57.4009C144.192 57.5249 143.647 57.6133 143.098 57.6661C142.537 57.7206 141.976 57.7479 141.415 57.7479C140.062 57.7479 138.971 57.5567 138.143 57.1745C137.352 56.8305 136.717 56.2086 136.358 55.4275C135.995 54.6449 135.814 53.6613 135.814 52.4765C135.814 51.139 135.998 50.0764 136.368 49.2891C136.719 48.5158 137.354 47.9056 138.143 47.5835C138.956 47.2358 140.024 47.062 141.348 47.062Z" fill="white"/>
<path d="M151.813 47.3486V57.5015H148.118V47.3486H151.813ZM155.137 50.9446V53.3811H151.669V50.9446H155.137ZM158.605 47.3486V57.5015H154.953V47.3486H158.605Z" fill="white"/>
<path d="M171.37 47.3486V57.5015L168.045 57.543V52.9454C168.045 52.6471 168.06 52.3562 168.087 52.0853C168.115 51.8146 168.148 51.4963 168.189 51.1552H168.107C168.002 51.4633 167.875 51.7635 167.727 52.0539C167.592 52.3296 167.438 52.596 167.266 52.8509L164.085 57.5085H160.801V47.3486H164.125V52.1485C164.125 52.4012 164.111 52.654 164.083 52.9053C164.056 53.1498 164.021 53.4221 163.981 53.722H164.063C164.153 53.449 164.27 53.1854 164.412 52.9353C164.549 52.6974 164.693 52.4628 164.844 52.2317L168.106 47.3486H171.37Z" fill="white"/>
<path d="M184.137 47.3486V57.5014L180.811 57.5429V52.9453C180.811 52.6471 180.826 52.3561 180.853 52.0855C180.88 51.8146 180.915 51.4963 180.955 51.1551H180.873C180.664 51.7528 180.382 52.3222 180.032 52.8508L176.85 57.5085H173.568V47.3486H176.892V52.1484C176.892 52.4012 176.878 52.6539 176.85 52.9052C176.823 53.1497 176.789 53.422 176.748 53.722H176.83C176.92 53.4489 177.037 53.1856 177.179 52.9352C177.315 52.6973 177.459 52.4627 177.611 52.2316L180.873 47.3486H184.137ZM180.072 42.834H182.392C182.476 43.3897 182.383 43.9579 182.126 44.458C181.849 44.9852 181.424 45.4213 180.903 45.7135C180.274 46.0365 179.575 46.2051 178.867 46.2051C178.158 46.2051 177.46 46.0365 176.83 45.7135C176.304 45.4223 175.873 44.9864 175.589 44.458C175.324 43.9603 175.227 43.3911 175.311 42.834H177.631C177.576 43.4456 177.658 43.8707 177.877 44.1097C178.096 44.3486 178.424 44.4679 178.862 44.4679C179.299 44.4679 179.624 44.3486 179.836 44.1097C180.048 43.8716 180.126 43.446 180.071 42.834H180.072Z" fill="white"/>
<path d="M28.8199 58.0701C44.7366 58.0701 57.6395 45.2255 57.6395 29.3806C57.6395 13.5357 44.7366 0.690918 28.8199 0.690918C12.9031 0.690918 0 13.5357 0 29.3806C0 45.2255 12.9031 58.0701 28.8199 58.0701Z" fill="#FEAF86"/>
<mask id="mask0_297_510" style="mask-type:luminance" maskUnits="userSpaceOnUse" x="0" y="0" width="58" height="59">
<path d="M28.8199 58.0701C44.7366 58.0701 57.6395 45.2255 57.6395 29.3806C57.6395 13.5357 44.7366 0.690918 28.8199 0.690918C12.9031 0.690918 0 13.5357 0 29.3806C0 45.2255 12.9031 58.0701 28.8199 58.0701Z" fill="white"/>
</mask>
<g mask="url(#mask0_297_510)">
<path d="M45.3925 24.8848L42.3048 26.8242L46.8458 33.9889L49.9335 32.0494L45.3925 24.8848Z" fill="#00B1CD"/>
<path d="M46.8477 34.8457C46.7018 34.8457 46.558 34.8089 46.4301 34.7389C46.3022 34.6686 46.1942 34.5672 46.1163 34.4444L41.5756 27.2783C41.5149 27.1828 41.4737 27.0763 41.4545 26.965C41.4351 26.8537 41.4382 26.7396 41.4631 26.6295C41.4882 26.5194 41.5348 26.4152 41.6002 26.3228C41.6658 26.2306 41.7487 26.1521 41.8448 26.0917L44.933 24.1525C45.0289 24.0921 45.1358 24.0513 45.2476 24.032C45.3596 24.0129 45.474 24.0157 45.5848 24.0407C45.6954 24.0655 45.8001 24.1119 45.8929 24.1772C45.9856 24.2423 46.0644 24.3251 46.1251 24.4205L50.6658 31.5866C50.7264 31.6821 50.7676 31.7884 50.7868 31.8999C50.8062 32.0112 50.8032 32.1251 50.7783 32.2354C50.7532 32.3456 50.7065 32.4498 50.6412 32.5422C50.5755 32.6344 50.4927 32.7129 50.3965 32.7732L47.3083 34.7122C47.1705 34.7992 47.0108 34.8454 46.8477 34.8457ZM43.4975 27.0892L47.1169 32.7989L48.7438 31.7771L45.1244 26.0674L43.4975 27.0892Z" fill="#182A34"/>
<path d="M40.554 26.2837C41.8799 25.6419 42.3957 23.9774 41.7063 22.5658C41.0168 21.1542 39.3831 20.5301 38.0575 21.1718C36.7316 21.8135 36.2158 23.478 36.9052 24.8896C37.5947 26.3011 39.2284 26.9252 40.554 26.2837Z" fill="#182A34"/>
<path d="M39.4563 27.3914C38.7588 27.3801 38.0781 27.1748 37.4914 26.7987C36.9048 26.4224 36.4356 25.8907 36.1365 25.2631C35.708 24.3999 35.6268 23.4066 35.9089 22.4857C36.0424 22.0334 36.2686 21.6137 36.5734 21.253C36.8783 20.8923 37.2551 20.5986 37.6797 20.3903C39.4319 19.5419 41.5871 20.3459 42.4841 22.1804C42.9123 23.0436 42.9938 24.0371 42.7114 24.958C42.5764 25.4098 42.3488 25.8287 42.0428 26.1885C41.7368 26.5481 41.3591 26.8407 40.9335 27.0474C40.4738 27.2724 39.9686 27.39 39.4563 27.3914ZM39.1683 21.7762C38.9189 21.7772 38.673 21.834 38.4485 21.9425C38.2363 22.0472 38.048 22.1946 37.896 22.3755C37.7437 22.5563 37.6309 22.7666 37.5646 22.993C37.4126 23.4971 37.4595 24.0399 37.6956 24.5108C38.1764 25.4939 39.295 25.944 40.1905 25.5069C40.4029 25.4022 40.591 25.2546 40.7433 25.0738C40.8953 24.8929 41.0083 24.6826 41.0746 24.4563C41.2257 23.9522 41.1788 23.4097 40.9436 22.9386C40.7852 22.5982 40.5339 22.3089 40.2187 22.1034C39.9034 21.898 39.5366 21.7846 39.1598 21.7762H39.1683Z" fill="#182A34"/>
<path d="M54.2437 19.4204C55.5693 18.7787 56.0852 17.1142 55.3957 15.7026C54.7063 14.291 53.0728 13.6668 51.7469 14.3085C50.4211 14.9502 49.9052 16.6147 50.5947 18.0263C51.2844 19.4379 52.9179 20.0621 54.2437 19.4204Z" fill="#FEAF86"/>
<path d="M53.1448 20.5335C52.4447 20.5236 51.7611 20.3184 51.1723 19.9411C50.5833 19.5639 50.1127 19.0298 49.8133 18.3995C48.9164 16.565 49.6118 14.3865 51.3639 13.5266C53.1161 12.6667 55.2714 13.4822 56.1683 15.3181C56.5981 16.1812 56.6815 17.1749 56.4016 18.0971C56.2666 18.5491 56.0387 18.9683 55.7323 19.328C55.426 19.6877 55.0478 19.9801 54.6219 20.1867C54.1627 20.4128 53.6573 20.5314 53.1448 20.5335ZM52.857 14.9182C52.605 14.9174 52.3563 14.9743 52.1299 15.0845C51.2344 15.5145 50.8976 16.6696 51.377 17.6513C51.8563 18.6331 52.9764 19.0845 53.8704 18.6546C54.0829 18.55 54.2712 18.4027 54.4235 18.2218C54.5755 18.041 54.6883 17.8306 54.7543 17.604C54.9071 17.1 54.8602 16.557 54.6234 16.0863C54.4673 15.746 54.2188 15.4559 53.906 15.2487C53.5931 15.0415 53.2281 14.9256 52.8525 14.9139L52.857 14.9182Z" fill="#182A34"/>
<path d="M37.576 18.6703C37.576 18.6703 37.0002 21.9667 38.7278 24.7155C40.4555 27.4643 42.2032 27.86 42.2032 27.86C42.2032 27.86 45.5218 25.6828 48.9814 24.6754C53.4875 23.364 58.4458 26.0483 60.234 25.2316C61.5989 24.608 56.2174 6.13422 50.8588 6.03819C49.0936 6.00667 48.5105 13.0336 44.0432 15.6406C40.231 17.8677 37.576 18.6703 37.576 18.6703Z" fill="#00B1CD"/>
<path d="M42.2031 28.713C42.1387 28.713 42.0745 28.7057 42.0118 28.6915C41.7972 28.6427 39.8681 28.1311 37.9963 25.1658C36.1061 22.1719 36.7006 18.6634 36.7209 18.5144C36.7484 18.3574 36.8195 18.2111 36.9256 18.0919C37.0319 17.9727 37.1693 17.8853 37.3225 17.8393C37.3486 17.8393 39.9429 17.0396 43.6055 14.897C45.945 13.5297 47.1299 10.7723 48.083 8.55656C48.9266 6.59307 49.5384 5.16992 50.8415 5.16992H50.873C53.0325 5.20861 55.2238 7.41 57.3703 11.7124C58.9722 14.9852 60.1849 18.4329 60.984 21.9856C61.5209 24.541 61.416 25.63 60.5939 26.0056C59.5861 26.467 58.1708 26.1704 56.3829 25.7951C54.2636 25.3492 51.6245 24.7916 49.2245 25.4926C45.9348 26.4501 42.71 28.5496 42.6782 28.5696C42.5375 28.6625 42.3722 28.7125 42.2031 28.713ZM38.3694 19.3026C38.2988 20.2557 38.3002 22.4155 39.4591 24.2515C40.5417 25.9712 41.6058 26.649 42.1081 26.8942C43.0958 26.2867 45.8514 24.6858 48.7395 23.8429C51.557 23.0232 54.4306 23.628 56.7398 24.1138C57.8411 24.3446 58.9741 24.5839 59.5947 24.5122C59.6638 22.6219 57.2911 13.8264 53.8662 9.19576C52.7836 7.7339 51.7585 6.93847 50.8962 6.89262C50.5821 7.1162 50.0568 8.33583 49.671 9.23445C48.6746 11.5519 47.3097 14.7264 44.4808 16.3803C41.5914 18.0701 39.3556 18.9572 38.3694 19.3026Z" fill="#182A34"/>
<mask id="mask1_297_510" style="mask-type:luminance" maskUnits="userSpaceOnUse" x="37" y="6" width="24" height="22">
<path d="M37.576 18.6703C37.576 18.6703 37.0002 21.9667 38.7278 24.7155C40.4555 27.4643 42.2032 27.86 42.2032 27.86C42.2032 27.86 45.5218 25.6828 48.9814 24.6754C53.4875 23.364 58.4458 26.0483 60.234 25.2316C61.5989 24.608 56.2174 6.13422 50.8588 6.03819C49.0936 6.00667 48.5105 13.0336 44.0432 15.6406C40.231 17.8677 37.576 18.6703 37.576 18.6703Z" fill="white"/>
</mask>
<g mask="url(#mask1_297_510)">
<path d="M42.7676 14.8794C42.7676 14.8794 42.9677 18.7232 44.4636 21.7845C45.9595 24.8459 49.5761 26.8523 49.5761 26.8523L40.722 30.2675L33.3003 19.2893L42.7676 14.8794Z" fill="#FEAF86"/>
<path d="M40.7234 31.1276C40.581 31.1283 40.4411 31.0938 40.3155 31.0276C40.19 30.9613 40.0827 30.8651 40.0034 30.748L32.5803 19.7696C32.5106 19.6666 32.4642 19.5497 32.4441 19.427C32.4242 19.3044 32.4311 19.1789 32.4645 19.0592C32.4979 18.9394 32.5568 18.8283 32.6376 18.7335C32.7181 18.6387 32.8185 18.5624 32.9317 18.5098L42.399 14.0999C42.5274 14.04 42.6686 14.0125 42.81 14.0197C42.9516 14.0269 43.0892 14.0687 43.2107 14.1413C43.3322 14.214 43.4338 14.3153 43.5068 14.4363C43.5795 14.5573 43.6214 14.6942 43.6285 14.8351C43.6285 14.871 43.8388 18.5471 45.2381 21.4078C46.5942 24.1824 49.9605 26.0827 49.9891 26.1014C50.1322 26.1811 50.2494 26.2996 50.3273 26.4432C50.4053 26.5868 50.4405 26.7493 50.4289 26.9122C50.4176 27.0749 50.3598 27.2309 50.2627 27.3623C50.1653 27.4936 50.0325 27.5945 49.8797 27.6537L41.0313 31.0688C40.933 31.1068 40.8288 31.1266 40.7234 31.1276ZM34.5802 19.6421L41.0587 29.2173L47.7116 26.6519C46.4474 25.7246 44.6722 24.1638 43.6934 22.1602C42.6581 20.0434 42.2148 17.6127 42.0319 16.1737L34.5802 19.6421Z" fill="#182A34"/>
</g>
<path d="M42.2031 28.713C42.1387 28.713 42.0745 28.7057 42.0118 28.6915C41.7972 28.6427 39.8681 28.1311 37.9963 25.1658C36.1061 22.1719 36.7006 18.6634 36.7209 18.5144C36.7484 18.3574 36.8195 18.2111 36.9256 18.0919C37.0319 17.9727 37.1693 17.8853 37.3225 17.8393C37.3486 17.8393 39.9429 17.0396 43.6055 14.897C45.945 13.5297 47.1299 10.7723 48.083 8.55656C48.9266 6.59307 49.5384 5.16992 50.8415 5.16992H50.873C53.0325 5.20861 55.2238 7.41 57.3703 11.7124C58.9722 14.9852 60.1849 18.4329 60.984 21.9856C61.5209 24.541 61.416 25.63 60.5939 26.0056C59.5861 26.467 58.1708 26.1704 56.3829 25.7951C54.2636 25.3492 51.6245 24.7916 49.2245 25.4926C45.9348 26.4501 42.71 28.5496 42.6782 28.5696C42.5375 28.6625 42.3722 28.7125 42.2031 28.713ZM38.3694 19.3026C38.2988 20.2557 38.3002 22.4155 39.4591 24.2515C40.5417 25.9712 41.6058 26.649 42.1081 26.8942C43.0958 26.2867 45.8514 24.6858 48.7395 23.8429C51.557 23.0232 54.4306 23.628 56.7398 24.1138C57.8411 24.3446 58.9741 24.5839 59.5947 24.5122C59.6638 22.6219 57.2911 13.8264 53.8662 9.19576C52.7836 7.7339 51.7585 6.93847 50.8962 6.89262C50.5821 7.1162 50.0568 8.33583 49.671 9.23445C48.6746 11.5519 47.3097 14.7264 44.4808 16.3803C41.5914 18.0701 39.3556 18.9572 38.3694 19.3026Z" fill="#182A34"/>
<path d="M60.2328 25.2281C62.1036 24.3227 61.5212 19.2918 58.9325 13.9914C56.3436 8.69104 52.7285 5.12822 50.8579 6.03365C48.9871 6.93909 49.5695 11.9699 52.1584 17.2703C54.7471 22.5707 58.3622 26.1334 60.2328 25.2281Z" fill="#182A34"/>
<path d="M59.5831 26.2304C56.9471 26.2304 53.5983 22.1818 51.377 17.6429C50.0812 14.9943 49.2288 12.3157 48.9726 10.1C48.5998 6.87818 49.5832 5.68864 50.4742 5.25725C51.3654 4.82585 52.9132 4.79002 55.2252 7.07166C56.8175 8.64817 58.407 10.9642 59.7013 13.6127C60.9956 16.2613 61.8492 18.9399 62.1055 21.1556C62.4785 24.3761 61.4937 25.567 60.6025 25.9984C60.2849 26.1519 59.9362 26.2312 59.5831 26.2304ZM51.4964 6.75204C51.4068 6.74936 51.3176 6.76701 51.2358 6.80365C50.8112 7.00859 50.4787 8.04766 50.6944 9.90222C50.9291 11.9316 51.7254 14.4125 52.9361 16.8919C54.1469 19.3713 55.6153 21.5254 57.0738 22.97C58.407 24.2827 59.432 24.664 59.8567 24.4591C60.2816 24.2542 60.6127 23.2151 60.3981 21.3606C60.1634 19.3312 59.3673 16.8503 58.1564 14.3709C56.9456 11.8929 55.4758 9.73739 54.0187 8.29991C52.9072 7.20494 52.0103 6.75204 51.4964 6.75204Z" fill="#182A34"/>
<mask id="mask2_297_510" style="mask-type:luminance" maskUnits="userSpaceOnUse" x="49" y="5" width="13" height="21">
<path d="M60.2344 25.2281C62.105 24.3227 61.5226 19.2918 58.9339 13.9914C56.345 8.69104 52.7298 5.12822 50.8592 6.03365C48.9887 6.93909 49.5708 11.9699 52.1597 17.2703C54.7484 22.5707 58.3636 26.1335 60.2344 25.2281Z" fill="white"/>
</mask>
<g mask="url(#mask2_297_510)">
<path d="M54.6837 20.3211C56.4771 19.453 57.175 17.2017 56.2424 15.2925C55.3099 13.3833 53.1002 12.5393 51.3068 13.4074C49.5134 14.2754 48.8155 16.5268 49.7479 18.436C50.6804 20.3452 52.8901 21.1892 54.6837 20.3211Z" fill="#DBF06D"/>
<path d="M53.1923 21.5227C52.6426 21.5213 52.0979 21.4187 51.5856 21.2203C50.4426 20.7701 49.5106 19.9101 48.9727 18.8097C48.4351 17.7094 48.3307 16.4485 48.6802 15.2754C48.8503 14.7036 49.1383 14.1733 49.5258 13.7184C49.913 13.2636 50.3917 12.8942 50.9305 12.6337C51.4695 12.3733 52.0569 12.2276 52.6556 12.206C53.2544 12.1843 53.851 12.2871 54.4073 12.5079C55.5506 12.9579 56.4828 13.8179 57.0204 14.9184C57.5578 16.0188 57.6618 17.2799 57.3112 18.4528C57.1407 19.0244 56.8527 19.5546 56.4655 20.0098C56.0785 20.4649 55.6008 20.8352 55.0624 21.097C54.4798 21.3788 53.8401 21.5244 53.1923 21.5227ZM52.8022 13.9268C52.415 13.9258 52.033 14.0131 51.6851 14.1819C51.3601 14.3414 51.0724 14.5664 50.8393 14.8424C50.6065 15.1185 50.4336 15.4396 50.3317 15.7856C50.1112 16.5417 50.1806 17.3524 50.5264 18.0604C50.8722 18.7685 51.4698 19.3235 52.2033 19.618C52.5389 19.7538 52.8996 19.8178 53.2617 19.8058C53.6239 19.7939 53.9796 19.7062 54.3055 19.5484C54.6314 19.3906 54.9201 19.1664 55.1534 18.8902C55.3864 18.6141 55.5586 18.2922 55.6586 17.9454C55.8904 17.1874 55.8213 16.3697 55.4655 15.6609C55.1261 14.9481 54.5262 14.391 53.7885 14.1031C53.4735 13.984 53.139 13.9233 52.8022 13.9239V13.9268Z" fill="#182A34"/>
</g>
<path d="M59.5831 26.2304C56.9471 26.2304 53.5983 22.1818 51.377 17.6429C50.0812 14.9943 49.2288 12.3157 48.9726 10.1C48.5998 6.87818 49.5832 5.68864 50.4742 5.25725C51.3654 4.82585 52.9132 4.79002 55.2252 7.07166C56.8175 8.64817 58.407 10.9642 59.7013 13.6127C60.9956 16.2613 61.8492 18.9399 62.1055 21.1556C62.4785 24.3761 61.4937 25.567 60.6025 25.9984C60.2849 26.1519 59.9362 26.2312 59.5831 26.2304ZM51.4964 6.75204C51.4068 6.74936 51.3176 6.76701 51.2358 6.80365C50.8112 7.00859 50.4787 8.04766 50.6944 9.90222C50.9291 11.9316 51.7254 14.4125 52.9361 16.8919C54.1469 19.3713 55.6153 21.5254 57.0738 22.97C58.407 24.2827 59.432 24.664 59.8567 24.4591C60.2816 24.2542 60.6127 23.2151 60.3981 21.3606C60.1634 19.3312 59.3673 16.8503 58.1564 14.3709C56.9456 11.8929 55.4758 9.73739 54.0187 8.29991C52.9072 7.20494 52.0103 6.75204 51.4964 6.75204Z" fill="#182A34"/>
<path d="M5.36873 60.806C5.36873 60.806 0.24054 67.7585 -0.784522 71.6438C-1.83838 75.6425 0.19591 77.5199 1.62409 77.1029C3.56479 76.541 5.13551 74.7152 6.71915 70.1763C8.30282 65.6375 11.2009 61.5228 11.2009 61.5228C11.2009 61.5228 10.3659 69.8797 11.008 72.8276C11.6501 75.7757 13.4396 80.0038 16.1477 79.8218C18.8558 79.6398 18.3073 74.5791 17.943 72.5124C17.5788 70.4458 19.9744 61.9069 21.7524 61.1243C23.5305 60.3418 26.9987 62.6349 28.8775 64.5925C30.7564 66.5504 31.9008 66.814 33.4673 72.9896C34.9544 78.8443 38.5696 79.2413 40.1417 76.7518C41.7139 74.2623 40.4856 69.242 38.6141 65.9843C36.7426 62.7266 31.9816 59.4173 32.7847 57.5543C33.0928 56.8375 35.5347 56.4407 38.8661 58.4943C42.6366 60.8176 32.9763 48.71 32.9763 48.71L14.2531 49.3965L5.36873 60.806Z" fill="#182A34"/>
<path d="M15.9807 80.6873C12.9371 80.6873 10.9547 76.5926 10.1715 73.0112C9.78278 71.2326 9.89651 67.7082 10.065 65.0068C9.06818 66.7468 8.22379 68.5688 7.54116 70.4529C5.95752 74.9976 4.26154 77.2318 1.8731 77.9226C1.00928 78.172 0.0590864 77.8997 -0.66796 77.1931C-1.25967 76.62 -2.53237 74.9115 -1.6124 71.4202C-0.558541 67.4218 4.46743 60.5853 4.68051 60.2958L4.69347 60.2786L13.5749 48.8634C13.6524 48.7639 13.7508 48.6826 13.8632 48.6251C13.9756 48.5678 14.0994 48.5355 14.2257 48.5307L32.9519 47.8413C33.0871 47.8366 33.2219 47.8635 33.345 47.9199C33.468 47.9764 33.576 48.0611 33.66 48.1667C33.6787 48.1896 35.5417 50.5259 37.2953 52.9265C38.3348 54.3454 39.1353 55.5134 39.6765 56.3961C40.5403 57.8034 40.9017 58.6892 40.3475 59.3041C39.7125 60.0136 38.7393 59.4145 38.4182 59.2167C35.7736 57.5872 33.9653 57.7447 33.5636 57.9583C33.4528 58.6249 35.0666 60.3675 36.1478 61.5414C37.3384 62.8313 38.571 64.1599 39.3712 65.5542C41.4185 69.1186 42.6423 74.4129 40.8802 77.2061C40.0235 78.5618 38.6659 79.2384 37.2477 79.0147C35.1732 78.6879 33.4931 76.5683 32.6409 73.1975C31.371 68.1956 30.4669 67.3213 29.0977 66.0085C28.8341 65.7549 28.5622 65.4927 28.2641 65.1831C26.191 63.0246 23.2022 61.4324 22.1123 61.9082C21.7596 62.073 20.8396 63.4976 19.8736 66.6133C19.0429 69.2877 18.6786 71.6367 18.8053 72.3633C19.1494 74.3398 19.5252 77.9169 18.1474 79.6626C17.9178 79.9601 17.6266 80.2051 17.2934 80.3808C16.9603 80.5562 16.5931 80.6585 16.2168 80.6802C16.1246 80.6844 16.0498 80.6873 15.9807 80.6873ZM11.2009 60.6627C11.3035 60.6627 11.4054 60.6806 11.5018 60.7157C11.6808 60.782 11.8327 60.9055 11.9337 61.0668C12.0348 61.228 12.0793 61.4181 12.0604 61.6072C12.0604 61.6904 11.2441 69.8611 11.8531 72.6427C12.5599 75.8761 14.2415 79.0923 16.0886 78.9602C16.2234 78.9558 16.3554 78.9206 16.4746 78.8579C16.5938 78.795 16.6971 78.7061 16.7768 78.5976C17.4491 77.7451 17.573 75.4116 17.0907 72.6543C16.8632 71.3471 17.4938 68.4064 18.2194 66.0732C18.9392 63.78 20.068 60.9135 21.4069 60.3302C23.7579 59.3041 27.6191 62.0315 29.5023 63.992C29.7758 64.2787 30.0349 64.5267 30.2869 64.7689C31.7553 66.1807 32.9142 67.297 34.3052 72.7733C34.9731 75.406 36.1767 77.1028 37.5099 77.3136C38.2297 77.4282 38.9265 77.0542 39.4103 76.2889C40.7463 74.1719 39.6479 69.5098 37.864 66.3999C37.1615 65.1744 35.9925 63.9161 34.8694 62.6993C32.9488 60.6226 31.2904 58.8298 31.9901 57.2046C32.1182 56.9063 32.4221 56.5008 33.1591 56.2714C34.1669 55.9533 35.9176 56.0363 38.0539 57.0584C36.8908 55.2267 34.6766 52.2298 32.5717 49.5743L14.6849 50.2406L6.05974 61.3278C5.85816 61.6015 1.00784 68.2401 0.051888 71.8632C-0.65788 74.5532 0.237608 75.6839 0.529866 75.9678C0.822125 76.2517 1.1259 76.3519 1.3836 76.2774C2.64479 75.9119 4.17516 74.8686 5.90281 69.8938C7.50519 65.2935 10.3731 61.203 10.494 61.0312C10.5734 60.9178 10.6791 60.8249 10.8021 60.7607C10.9252 60.6966 11.062 60.6631 11.2009 60.6627Z" fill="#182A34"/>
<path d="M15.9807 80.6873C12.9371 80.6873 10.9547 76.5926 10.1715 73.0112C9.78278 71.2326 9.89651 67.7082 10.065 65.0068C9.06818 66.7468 8.22379 68.5688 7.54116 70.4529C5.95752 74.9976 4.26154 77.2318 1.8731 77.9226C1.00928 78.172 0.0590864 77.8997 -0.66796 77.1931C-1.25967 76.62 -2.53237 74.9115 -1.6124 71.4202C-0.558541 67.4218 4.46743 60.5853 4.68051 60.2958L4.69347 60.2786L13.5749 48.8634C13.6524 48.7639 13.7508 48.6826 13.8632 48.6251C13.9756 48.5678 14.0994 48.5355 14.2257 48.5307L32.9519 47.8413C33.0871 47.8366 33.2219 47.8635 33.345 47.9199C33.468 47.9764 33.576 48.0611 33.66 48.1667C33.6787 48.1896 35.5417 50.5259 37.2953 52.9265C38.3348 54.3454 39.1353 55.5134 39.6765 56.3961C40.5403 57.8034 40.9017 58.6892 40.3475 59.3041C39.7125 60.0136 38.7393 59.4145 38.4182 59.2167C35.7736 57.5872 33.9653 57.7447 33.5636 57.9583C33.4528 58.6249 35.0666 60.3675 36.1478 61.5414C37.3384 62.8313 38.571 64.1599 39.3712 65.5542C41.4185 69.1186 42.6423 74.4129 40.8802 77.2061C40.0235 78.5618 38.6659 79.2384 37.2477 79.0147C35.1732 78.6879 33.4931 76.5683 32.6409 73.1975C31.371 68.1956 30.4669 67.3213 29.0977 66.0085C28.8341 65.7549 28.5622 65.4927 28.2641 65.1831C26.191 63.0246 23.2022 61.4324 22.1123 61.9082C21.7596 62.073 20.8396 63.4976 19.8736 66.6133C19.0429 69.2877 18.6786 71.6367 18.8053 72.3633C19.1494 74.3398 19.5252 77.9169 18.1474 79.6626C17.9178 79.9601 17.6266 80.2051 17.2934 80.3808C16.9603 80.5562 16.5931 80.6585 16.2168 80.6802C16.1246 80.6844 16.0498 80.6873 15.9807 80.6873ZM11.2009 60.6627C11.3035 60.6627 11.4054 60.6806 11.5018 60.7157C11.6808 60.782 11.8327 60.9055 11.9337 61.0668C12.0348 61.228 12.0793 61.4181 12.0604 61.6072C12.0604 61.6904 11.2441 69.8611 11.8531 72.6427C12.5599 75.8761 14.2415 79.0923 16.0886 78.9602C16.2234 78.9558 16.3554 78.9206 16.4746 78.8579C16.5938 78.795 16.6971 78.7061 16.7768 78.5976C17.4491 77.7451 17.573 75.4116 17.0907 72.6543C16.8632 71.3471 17.4938 68.4064 18.2194 66.0732C18.9392 63.78 20.068 60.9135 21.4069 60.3302C23.7579 59.3041 27.6191 62.0315 29.5023 63.992C29.7758 64.2787 30.0349 64.5267 30.2869 64.7689C31.7553 66.1807 32.9142 67.297 34.3052 72.7733C34.9731 75.406 36.1767 77.1028 37.5099 77.3136C38.2297 77.4282 38.9265 77.0542 39.4103 76.2889C40.7463 74.1719 39.6479 69.5098 37.864 66.3999C37.1615 65.1744 35.9925 63.9161 34.8694 62.6993C32.9488 60.6226 31.2904 58.8298 31.9901 57.2046C32.1182 56.9063 32.4221 56.5008 33.1591 56.2714C34.1669 55.9533 35.9176 56.0363 38.0539 57.0584C36.8908 55.2267 34.6766 52.2298 32.5717 49.5743L14.6849 50.2406L6.05974 61.3278C5.85816 61.6015 1.00784 68.2401 0.051888 71.8632C-0.65788 74.5532 0.237608 75.6839 0.529866 75.9678C0.822125 76.2517 1.1259 76.3519 1.3836 76.2774C2.64479 75.9119 4.17516 74.8686 5.90281 69.8938C7.50519 65.2935 10.3731 61.203 10.494 61.0312C10.5734 60.9178 10.6791 60.8249 10.8021 60.7607C10.9252 60.6966 11.062 60.6631 11.2009 60.6627Z" fill="#182A34"/>
<path d="M33.5205 27.2611L32.9 24.0909C32.1816 20.4146 30.0261 17.1728 26.9074 15.0784C23.7884 12.9839 19.9618 12.2082 16.2686 12.922C14.4386 13.275 12.6964 13.9835 11.1416 15.007C9.58675 16.0305 8.24971 17.3489 7.20687 18.8869C6.16403 20.425 5.43581 22.1525 5.06385 23.9706C4.69186 25.7892 4.68341 27.6624 5.03896 29.4839L5.67244 32.7272C5.67244 32.7272 2.81463 34.4198 3.65686 38.738C4.3767 42.4142 7.64337 42.8228 7.64337 42.8228L8.28547 46.1191C8.78649 48.6845 7.91692 52.1299 6.44267 53.715C5.00298 55.2572 -0.570081 58.8958 -2.80736 60.0797C-5.04464 61.2635 -9.19386 63.7245 -10.1844 66.3743C-11.1749 69.0244 -10.4133 71.3819 -8.98222 71.6528C-6.84571 72.0583 -4.37519 68.1674 -1.46845 66.5792C0.660857 65.4199 7.1078 62.1549 8.97942 60.7332C12.7399 57.8785 14.7295 52.2473 17.5269 52.5239C20.3242 52.8007 19.9168 54.929 19.5252 56.7805C19.1336 58.6323 15.494 65.6177 17.4189 72.689C19.3438 79.7603 23.4541 82.512 26.1606 82.33C28.8673 82.148 29.9312 79.8162 29.5138 78.0519C29.0963 76.2878 22.9444 72.1559 22.9142 67.7918C22.884 63.4276 24.1998 59.6225 25.6495 56.8838C27.0995 54.145 27.7861 52.3077 29.7225 52.4093C31.6589 52.5111 34.6836 56.8522 36.6042 58.2496C38.5247 59.647 43.237 63.3116 45.2338 65.1103C47.2306 66.909 49.6968 71.0751 52.3329 70.9047C54.9689 70.7342 55.3879 67.5824 55.1072 65.7938C54.8263 64.0053 53.4688 60.9211 50.4571 58.8414C47.4452 56.7619 43.3767 54.2926 41.099 52.3921C43.0354 53.1788 46.5613 54.6265 51.5094 53.9357C57.546 53.0944 60.1721 47.3015 59.9935 40.8564C59.8495 35.8144 52.0508 28.5524 45.5822 30.0701C41.9225 30.9302 43.6846 35.8029 45.405 36.8148C49.5256 39.2282 51.7138 43.3717 49.6696 46.6838C47.9418 49.4871 45.8702 49.8368 41.95 47.9263C37.9345 45.9729 36.4789 42.3625 35.7807 38.8111C35.5202 37.5012 35.4929 37.3422 35.4929 37.3422C35.4929 37.3422 38.2872 34.8784 37.6236 31.9692C37.0132 29.3033 33.5205 27.2611 33.5205 27.2611Z" fill="#007AA1"/>
<path d="M12.9329 21.1458C12.308 20.8161 11.2052 20.4893 9.92245 21.6259C8.63969 22.7624 8.95067 25.6044 10.3932 26.1434C11.8358 26.6821 13.1978 25.226 13.6325 24.2888C14.0673 23.3514 13.9838 21.7033 12.9329 21.1458Z" fill="#00B1CD"/>
<path d="M15.4811 17.3421C15.1687 17.1773 14.6172 17.0139 13.9766 17.5829C13.3359 18.1518 13.49 19.5707 14.2113 19.8416C14.9326 20.1125 15.6135 19.3815 15.8309 18.9129C16.0483 18.4442 16.0066 17.6201 15.4811 17.3421Z" fill="#00B1CD"/>
<path d="M-7.63037 71.4118C-7.63037 71.4118 -7.11784 66.5704 -3.18172 63.8975C0.754395 61.2245 5.66232 60.3762 8.9261 58.4499C11.1037 57.1506 13.1247 55.6077 14.9498 53.8507C15.4263 53.3893 10.2593 59.8316 7.58287 61.4065C4.90646 62.9817 -0.799036 65.8968 -2.36254 67.0189C-3.92604 68.1411 -7.63037 71.4118 -7.63037 71.4118Z" fill="#00B1CD"/>
<path d="M27.3887 53.7451C27.3887 53.7451 22.1468 57.2562 20.5243 62.3829C18.9018 67.5093 20.2363 71.1942 21.7307 73.8254C23.2251 76.4568 28.126 79.9609 29.1669 79.5037C30.2076 79.0466 29.8736 77.0672 28.2569 75.6342C26.64 74.201 23.3231 70.9176 23.0941 67.6326C22.8652 64.3478 23.814 58.0345 27.3887 53.7451Z" fill="#00B1CD"/>
<path d="M32.6638 54.3325C32.6638 54.3325 37.0634 56.723 41.3019 57.5944C45.5405 58.4658 49.2807 61.8353 50.4599 63.6554C51.6389 65.4756 54.347 70.4157 53.3392 70.6607C52.3314 70.9059 49.8839 70.3125 48.0555 68.2245C46.2271 66.1362 43.997 64.2974 41.5021 62.3226C39.0072 60.3475 33.4598 56.4149 32.6638 54.3325Z" fill="#00B1CD"/>
<path d="M48.6834 51.8275C48.6834 51.8275 52.7261 50.7083 54.5327 47.8649C58.0211 42.3771 56.4878 37.8182 54.1829 34.8529C52.9075 33.2147 48.5896 30.4486 47.1458 32.7561C45.7018 35.0637 48.0022 36.3392 49.7587 38.1478C51.2475 39.677 53.3004 41.8742 52.6742 45.0602C52.1673 47.6398 50.5881 50.2009 48.6834 51.8275Z" fill="#00B1CD"/>
<path d="M5.67826 33.5875C5.47787 33.5875 5.28368 33.5181 5.12898 33.3913C4.97429 33.2644 4.86869 33.0881 4.83027 32.8922L4.19681 29.6475C3.43487 25.7464 4.26085 21.7039 6.49302 18.4091C8.72521 15.1144 12.1808 12.8372 16.0995 12.0787C20.0182 11.3202 24.0791 12.1425 27.389 14.3646C30.6986 16.5867 32.986 20.0266 33.7479 23.9276L34.3685 27.0978C34.4123 27.3218 34.3647 27.5538 34.2368 27.7429C34.1086 27.932 33.9102 28.0626 33.6854 28.1062C33.4604 28.1496 33.2274 28.1024 33.0374 27.9749C32.8475 27.8473 32.7162 27.65 32.6724 27.426L32.0536 24.2601C31.344 20.8413 29.3093 17.8386 26.3907 15.9033C23.4719 13.9679 19.9045 13.2559 16.4619 13.9217C13.0194 14.5874 9.97924 16.5772 8.00071 19.4596C6.02218 22.3421 5.2648 25.8848 5.89277 29.3193L6.52625 32.564C6.5685 32.787 6.52049 33.0176 6.39267 33.2057C6.26482 33.3937 6.06753 33.5236 5.84381 33.5672C5.78946 33.5797 5.73399 33.5863 5.67826 33.5875Z" fill="#182A34"/>
<path d="M25.9146 83.1885C22.7199 83.1885 18.5448 80.0355 16.5983 72.9041C14.9729 66.9805 17.0518 61.2364 18.1676 58.1565C18.3672 57.6449 18.5407 57.1234 18.6873 56.5943C18.8788 55.6913 19.1408 54.4561 18.7276 53.8928C18.5203 53.6061 18.0898 53.4357 17.4491 53.3711C16.3247 53.2621 15.052 54.9649 13.7059 56.7692C12.5326 58.3456 11.2023 60.1243 9.51067 61.4083C8.01482 62.545 3.9621 64.6761 1.00783 66.2369C0.168492 66.6783 -0.555673 67.0595 -1.04229 67.3259C-2.12782 67.918 -3.17879 68.8868 -4.19522 69.8256C-5.85951 71.3605 -7.43454 72.811 -9.13338 72.4898C-9.8633 72.3465 -10.4968 71.865 -10.9172 71.1226C-11.6543 69.8183 -11.6787 67.9279 -10.9819 66.0662C-9.97415 63.3433 -6.19064 60.8938 -3.20759 59.3116C-0.904079 58.0933 4.525 54.5061 5.81499 53.1216C7.10495 51.7371 7.88238 48.5198 7.44328 46.2752L6.80117 42.9862C6.77128 42.7686 6.82618 42.5477 6.95462 42.3692C7.08308 42.1905 7.27533 42.0677 7.49192 42.0257C7.70851 41.9837 7.93304 42.0257 8.11941 42.1433C8.30581 42.261 8.43991 42.4451 8.49424 42.658L9.13634 45.9471C9.68342 48.7433 8.76059 52.4867 7.07903 54.2913C5.55152 55.9337 -0.143921 59.6355 -2.39416 60.8309C-6.2468 62.8689 -8.72881 64.9411 -9.36804 66.6653C-9.98279 68.3091 -9.77835 69.6391 -9.41555 70.2785C-9.29893 70.4862 -9.09883 70.7456 -8.81376 70.8001C-7.97153 70.9592 -6.65421 69.741 -5.37434 68.5642C-4.28015 67.561 -3.15001 66.5106 -1.87731 65.8168C-1.37918 65.5461 -0.649254 65.162 0.195847 64.7162C2.93126 63.273 7.08046 61.0917 8.46402 60.0411C9.96129 58.9046 11.2138 57.225 12.3195 55.7415C14.0371 53.4385 15.5214 51.442 17.6205 51.657C18.7722 51.7716 19.6116 52.1816 20.1212 52.8752C20.985 54.0562 20.6496 55.6599 20.3775 56.9468C20.2183 57.5541 20.0231 58.1513 19.793 58.7356C18.742 61.6419 16.7854 67.048 18.2597 72.4498C20.1313 79.3291 23.9853 81.602 26.1105 81.4586C27.0244 81.3971 27.7544 81.0288 28.2224 80.4024C28.4457 80.0961 28.6018 79.7462 28.6802 79.3758C28.7584 79.0054 28.7576 78.6227 28.6774 78.2526C28.5824 77.8485 27.5933 76.7995 26.7985 75.9595C24.8059 73.8455 22.0763 70.9519 22.0547 67.8048C22.0216 62.9319 23.5808 58.9633 24.8938 56.4825C25.071 56.1501 25.2351 55.8304 25.3933 55.5265C26.574 53.2334 27.5083 51.4363 29.7671 51.5523C31.3508 51.6355 33.031 53.4241 34.8061 55.3159C35.6699 56.2317 36.4775 57.096 37.1096 57.5588C39.0158 58.9433 43.7668 62.631 45.8141 64.4726C46.4895 65.1182 47.1252 65.804 47.7173 66.5262C49.1398 68.1801 50.7477 70.0505 52.1804 70.0505H52.2839C52.5397 70.0427 52.7907 69.9793 53.0191 69.8643C53.2476 69.7495 53.4477 69.5861 53.6057 69.3854C54.2937 68.5256 54.4264 66.9949 54.2592 65.9302C54.036 64.5054 52.8814 61.5604 49.9704 59.5509C48.9799 58.8674 47.8943 58.1551 46.7456 57.4011C44.4664 55.9049 42.111 54.357 40.5548 53.0544C40.3968 52.9226 40.2914 52.7389 40.2575 52.5364C40.2237 52.3341 40.2637 52.1264 40.3703 51.9508C40.4768 51.7751 40.6429 51.6433 40.8385 51.5787C41.0344 51.5143 41.2466 51.5219 41.4372 51.5997C41.6059 51.6669 41.7828 51.743 41.9701 51.8204C43.8907 52.6244 46.7929 53.8398 51.0601 53.1518C53.0385 52.8321 55.018 51.4321 56.4938 49.2978C58.3883 46.5605 59.1528 43.1567 58.5394 40.1914C57.9262 37.2261 55.031 33.5471 51.8176 31.6812C50.4067 30.8614 48.2959 30.023 46.2458 30.678C44.992 31.0792 44.2751 31.704 44.1138 32.534C43.8734 33.7793 44.8667 35.4575 45.9638 36.362C46.3266 36.66 46.7297 36.9611 47.1558 37.2791C49.6637 39.1424 53.0989 41.7093 50.7406 46.5261C49.9804 48.0796 48.9094 49.1059 47.5589 49.5645C45.919 50.1264 43.9049 49.8354 41.5741 48.7046C36.9022 46.433 35.5474 42.0688 34.9357 38.9833C34.6808 37.6934 34.6477 37.5085 34.6477 37.4913C34.6264 37.3791 34.628 37.2636 34.6519 37.1518C34.6761 37.04 34.7223 36.9342 34.7879 36.8403C34.8535 36.7467 34.9371 36.6668 35.0342 36.6057C35.1311 36.5444 35.2393 36.5032 35.3525 36.4841C35.4657 36.465 35.5818 36.4688 35.6936 36.4947C35.8054 36.5209 35.9108 36.5687 36.0036 36.6359C36.0967 36.7029 36.1751 36.7878 36.2348 36.8854C36.2944 36.9832 36.334 37.0917 36.3508 37.2046C36.3508 37.2046 36.3868 37.4053 36.6388 38.6508C37.5099 43.0407 39.2692 45.6662 42.3415 47.1596C44.2462 48.0855 45.8141 48.3491 47.0047 47.9407C47.9189 47.6283 48.6358 46.9189 49.1959 45.7766C50.8084 42.4803 49.0287 40.8192 46.1293 38.6579C45.6859 38.3283 45.2655 38.0145 44.8724 37.6905C43.4156 36.4923 42.0291 34.2667 42.4249 32.2114C42.6236 31.1853 43.3564 29.8023 45.7248 29.0441C47.8282 28.3705 50.2383 28.7689 52.6943 30.1906C56.3469 32.3133 59.5199 36.3704 60.2382 39.8389C60.9466 43.2555 60.08 47.1481 57.9233 50.2697C56.1567 52.8208 53.82 54.4459 51.3424 54.8444C49.5872 55.1382 47.7957 55.1438 46.0386 54.8616C46.5885 55.2285 47.1501 55.5967 47.7057 55.9622C48.8115 56.6888 49.956 57.4398 50.9637 58.1351C54.131 60.3235 55.6442 63.5567 55.9753 65.6607C56.1899 67.0279 56.053 69.1004 54.9675 70.4589C54.6594 70.8456 54.2715 71.162 53.8302 71.3869C53.389 71.6118 52.9044 71.7401 52.4092 71.7632C52.3372 71.7632 52.2652 71.7632 52.1918 71.7632C49.9718 71.7632 48.0915 69.5747 46.4258 67.6369C45.8802 66.9716 45.2954 66.3383 44.6751 65.7408C42.6698 63.9351 37.9921 60.3091 36.1133 58.9362C35.3504 58.3786 34.485 57.4584 33.5693 56.4825C32.3096 55.1424 30.5849 53.3081 29.6967 53.2607C28.6428 53.2048 28.1606 53.9586 26.9496 56.3048C26.79 56.6143 26.6213 56.9397 26.4416 57.278C25.1946 59.5853 23.7551 63.2744 23.7823 67.7862C23.7996 70.2583 26.2601 72.8697 28.0583 74.7756C29.2778 76.0656 30.1602 77.0044 30.3618 77.8572C30.5006 78.4709 30.5055 79.1073 30.3765 79.7231C30.2474 80.3389 29.9871 80.9201 29.6131 81.4273C28.8458 82.4604 27.6435 83.0826 26.2284 83.1786C26.1218 83.1842 26.0153 83.1885 25.9146 83.1885Z" fill="#182A34"/>
<path d="M7.88236 42.7767C7.48771 42.8192 7.08865 42.7925 6.70324 42.698C6.30665 42.6055 5.92417 42.461 5.5659 42.2679C4.8301 41.8652 4.20209 41.2928 3.73461 40.5984C3.26621 39.9102 2.92764 39.1428 2.73544 38.3338C2.68189 38.128 2.63959 37.9193 2.60876 37.709C2.57745 37.49 2.56061 37.2693 2.55836 37.0484C2.55386 36.6021 2.60954 36.1569 2.72393 35.7255C2.83759 35.298 3.00649 34.8871 3.22639 34.503C3.33255 34.3151 3.44836 34.1328 3.57334 33.9569C3.70006 33.7848 3.83394 33.6186 3.97358 33.4625C4.52344 32.8568 5.16338 32.3386 5.87112 31.926C6.54948 31.5294 7.26924 31.2074 8.01769 30.9659C8.75204 30.721 9.51337 30.5649 10.2852 30.5015C9.62296 30.8943 8.98947 31.2854 8.37328 31.6968C7.769 32.0972 7.18924 32.5334 6.63702 33.0023C5.56301 33.9138 4.6776 34.983 4.39398 36.1555C4.32146 36.4481 4.2833 36.7483 4.28025 37.0498C4.2784 37.2024 4.28513 37.3549 4.3004 37.507C4.31528 37.6671 4.33882 37.8264 4.37093 37.9842C4.43024 38.3138 4.50908 38.6399 4.60704 38.9603C4.65313 39.122 4.70784 39.2783 4.76397 39.4361C4.82013 39.5936 4.88635 39.7442 4.95691 39.8946C5.53902 41.1834 6.58174 42.2106 7.88236 42.7767Z" fill="#182A34"/>
<path d="M7.63035 43.5937H7.54828C7.38993 43.5779 3.64385 43.1709 2.65332 38.1233C2.63168 38.0122 2.63217 37.8983 2.65479 37.7878C2.67741 37.6769 2.7217 37.5718 2.78513 37.4782C2.84858 37.3846 2.92991 37.3044 3.0245 37.2419C3.1191 37.1797 3.22511 37.1366 3.33647 37.1149C3.44781 37.0934 3.56235 37.0939 3.67352 37.1163C3.78467 37.1389 3.8903 37.183 3.98435 37.2462C4.0784 37.3094 4.15905 37.3902 4.22165 37.4843C4.28427 37.5786 4.32763 37.684 4.34928 37.7951C5.0792 41.5342 7.60588 41.8695 7.71386 41.8824C7.94146 41.9036 8.1514 42.0135 8.29765 42.1885C8.44393 42.3634 8.51458 42.5888 8.49416 42.8154C8.4737 43.029 8.37373 43.2273 8.21388 43.3713C8.05406 43.5154 7.84592 43.5946 7.63035 43.5937Z" fill="#182A34"/>
<path d="M10.1513 40.7645C12.2568 40.7645 13.9636 39.0653 13.9636 36.9693C13.9636 34.8733 12.2568 33.1743 10.1513 33.1743C8.04584 33.1743 6.33899 34.8733 6.33899 36.9693C6.33899 39.0653 8.04584 40.7645 10.1513 40.7645Z" fill="#DEFBFF"/>
<path d="M10.1499 41.6258C9.10625 41.6258 8.09261 41.2785 7.27017 40.6389C6.44776 39.9992 5.86381 39.1042 5.61124 38.0963C5.35865 37.0884 5.45196 36.025 5.87631 35.0761C6.30069 34.1268 7.0317 33.3462 7.95306 32.8584C8.87445 32.3706 9.93327 32.2034 10.9611 32.3835C11.9889 32.5637 12.9266 33.0809 13.6251 33.8529C14.3236 34.6248 14.7427 35.607 14.8158 36.6432C14.8889 37.6797 14.6117 38.7105 14.0284 39.572C13.5991 40.2032 13.0213 40.7202 12.3453 41.0781C11.6693 41.4362 10.9156 41.6242 10.1499 41.6258ZM10.1499 34.0299C9.54232 34.0285 8.9492 34.2143 8.45161 34.5614C7.95406 34.9084 7.57634 35.4 7.37015 35.9689C7.16395 36.5378 7.13934 37.1563 7.29969 37.7396C7.46 38.3231 7.79746 38.8428 8.26588 39.228C8.73431 39.6133 9.31083 39.845 9.91658 39.8915C10.5223 39.9381 11.1278 39.7972 11.65 39.4883C12.1723 39.1792 12.586 38.7171 12.8344 38.1651C13.0828 37.6132 13.1539 36.9983 13.0379 36.4046C12.9071 35.7388 12.5485 35.1388 12.0233 34.7066C11.498 34.2744 10.8385 34.0368 10.1571 34.0342L10.1499 34.0299Z" fill="#182A34"/>
<path d="M10.1513 38.7038C11.1134 38.7038 11.8933 37.9272 11.8933 36.9695C11.8933 36.0117 11.1134 35.2354 10.1513 35.2354C9.18922 35.2354 8.4093 36.0117 8.4093 36.9695C8.4093 37.9272 9.18922 38.7038 10.1513 38.7038Z" fill="#182A34"/>
<path d="M35.2854 37.4727C36.2787 36.4622 36.8595 35.1204 36.9151 33.7076C36.9151 33.5414 36.9151 33.3752 36.9151 33.2104C36.9151 33.0456 36.8993 32.878 36.8806 32.7115C36.8507 32.3744 36.7996 32.0393 36.728 31.7083C36.6991 31.5501 36.661 31.3938 36.6144 31.2398C36.5705 31.0939 36.5191 30.9503 36.4602 30.8098C36.3436 30.5318 36.1959 30.2677 36.0196 30.023C35.3143 29.0412 34.0906 28.3806 32.7517 27.9362C32.0637 27.7089 31.3626 27.5222 30.6526 27.3772C29.9328 27.2253 29.1912 27.0992 28.4296 26.9832C29.169 26.7528 29.934 26.6133 30.7073 26.5675C31.4919 26.5114 32.2801 26.5413 33.0582 26.6564C33.8701 26.7741 34.6585 27.016 35.3963 27.3729C35.585 27.466 35.7707 27.5707 35.9536 27.6825C36.1364 27.7942 36.3105 27.9218 36.4805 28.0595C37.1854 28.6114 37.7296 29.3407 38.057 30.172C38.1375 30.3776 38.2043 30.5881 38.2571 30.8027C38.3087 31.0092 38.3483 31.2188 38.375 31.4303C38.502 32.2515 38.4781 33.0885 38.3045 33.9012C38.1323 34.7193 37.7654 35.4847 37.2349 36.1326C36.9751 36.4445 36.675 36.7206 36.3422 36.9538C36.0234 37.1872 35.6656 37.3628 35.2854 37.4727Z" fill="#182A34"/>
<path d="M35.5 38.2008C35.3087 38.1989 35.1235 38.1338 34.9733 38.0159C34.8229 37.898 34.7163 37.7337 34.6701 37.5489C34.624 37.364 34.6405 37.1693 34.7175 36.995C34.7945 36.8206 34.9273 36.6765 35.0955 36.5855C35.2049 36.5254 37.399 35.2671 36.679 31.5421C36.6355 31.3183 36.6828 31.0863 36.811 30.8973C36.9391 30.7082 37.1373 30.5776 37.3623 30.5339C37.5871 30.4903 37.8201 30.5375 38.0101 30.665C38.2 30.7926 38.3312 30.9901 38.3751 31.2139C39.3613 36.2615 36.0426 38.036 35.9003 38.1091C35.7762 38.1715 35.6388 38.2031 35.5 38.2008Z" fill="#182A34"/>
<path d="M30.9938 36.7299C33.0991 36.7299 34.8061 35.0307 34.8061 32.9349C34.8061 30.8389 33.0991 29.1396 30.9938 29.1396C28.8883 29.1396 27.1814 30.8389 27.1814 32.9349C27.1814 35.0307 28.8883 36.7299 30.9938 36.7299Z" fill="#DEFBFF"/>
<path d="M30.9936 37.5883C29.9089 37.5867 28.8585 37.2101 28.0213 36.5233C27.1843 35.8365 26.6128 34.8817 26.4041 33.8219C26.2206 32.8811 26.3333 31.9069 26.7269 31.0322C27.1206 30.1575 27.7757 29.4252 28.6032 28.9352C29.4307 28.4453 30.3899 28.2216 31.3498 28.2949C32.3098 28.368 33.2235 28.7344 33.9665 29.3441C34.7092 29.9535 35.2449 30.7766 35.5003 31.7008C35.7556 32.6248 35.7182 33.6049 35.3927 34.507C35.0676 35.4091 34.4705 36.189 33.683 36.7407C32.8957 37.2922 31.9564 37.5883 30.9936 37.5883ZM28.0999 33.4937C28.2107 34.0642 28.489 34.5891 28.8995 35.0021C29.3099 35.415 29.8343 35.6974 30.406 35.8137C30.978 35.9299 31.5715 35.8747 32.1118 35.655C32.6522 35.4352 33.1148 35.0611 33.4414 34.5794C33.7678 34.0979 33.9435 33.5307 33.9461 32.9497C33.9489 32.3688 33.7782 31.8001 33.4561 31.3156C33.134 30.8311 32.6747 30.4527 32.1364 30.2282C31.5983 30.0035 31.0052 29.9429 30.4323 30.054C29.6654 30.2035 28.9895 30.6495 28.5523 31.2941C28.1151 31.939 27.9523 32.73 28.0999 33.4937Z" fill="#182A34"/>
<path d="M30.9939 34.6691C31.956 34.6691 32.7359 33.8927 32.7359 32.935C32.7359 31.9773 31.956 31.2007 30.9939 31.2007C30.0316 31.2007 29.2517 31.9773 29.2517 32.935C29.2517 33.8927 30.0316 34.6691 30.9939 34.6691Z" fill="#182A34"/>
<path d="M21.5753 41.9239C20.4552 41.9239 19.2602 41.4337 18.6671 40.0337C18.5845 39.8248 18.5872 39.5921 18.6746 39.3853C18.7619 39.1786 18.927 39.0137 19.1346 38.9265C19.3422 38.8393 19.5759 38.836 19.7858 38.9178C19.9956 38.9996 20.1651 39.1599 20.258 39.3643C20.6453 40.2773 21.5134 40.2572 21.9971 40.1627C22.8221 40.0035 23.2396 39.5435 23.3101 38.715C23.3292 38.487 23.4385 38.2758 23.614 38.1279C23.7894 37.9801 24.0168 37.9077 24.246 37.9268C24.4751 37.9459 24.687 38.0546 24.8355 38.2293C24.984 38.404 25.0567 38.6304 25.0378 38.8584C24.9023 40.4536 23.9161 41.5426 22.3326 41.8494C22.0832 41.8987 21.8295 41.9237 21.5753 41.9239Z" fill="#182A34"/>
</g>
<path d="M42.2032 28.713C42.1388 28.713 42.0746 28.7057 42.0118 28.6915C41.7972 28.6427 39.8679 28.1311 37.9964 25.1658C36.1061 22.1719 36.7006 18.6634 36.7208 18.5144C36.7485 18.3574 36.8193 18.2111 36.9256 18.0919C37.032 17.9727 37.1693 17.8853 37.3226 17.8393C37.3486 17.8393 39.943 17.0396 43.6055 14.897C45.945 13.5297 47.1297 10.7723 48.083 8.55656C48.9267 6.59309 49.5384 5.16992 50.8413 5.16992H50.873C53.0325 5.20861 55.2238 7.41 57.3703 11.7124C58.9723 14.9852 60.1849 18.4329 60.9841 21.9856C61.521 24.541 61.4158 25.6302 60.5937 26.0056C59.586 26.4672 58.1708 26.1704 56.3827 25.7951C54.2634 25.3492 51.6245 24.7918 49.2246 25.4926C45.9349 26.45 42.71 28.5496 42.6783 28.5696C42.5374 28.6628 42.3723 28.7125 42.2032 28.713ZM38.3692 19.3026C38.2988 20.2557 38.3003 22.4155 39.4591 24.2515C40.5417 25.9712 41.6056 26.6493 42.1082 26.8942C43.0958 26.2866 45.8515 24.6857 48.7393 23.8429C51.5568 23.0232 54.4306 23.628 56.7398 24.1138C57.8412 24.3446 58.9742 24.5839 59.5947 24.5122C59.6639 22.6219 57.2912 13.8264 53.8662 9.19576C52.7834 7.7339 51.7583 6.93847 50.896 6.89262C50.5822 7.1162 50.0566 8.33585 49.6708 9.23445C48.6746 11.5519 47.3097 14.7264 44.4809 16.3803C41.5914 18.0701 39.3554 18.9572 38.3692 19.3026Z" fill="#182A34"/>
<path d="M60.2328 25.228C62.1036 24.3227 61.5212 19.2918 58.9325 13.9914C56.3436 8.69104 52.7285 5.12822 50.8579 6.03365C48.9871 6.93909 49.5695 11.9699 52.1584 17.2703C54.7471 22.5707 58.3622 26.1336 60.2328 25.228Z" fill="#182A34"/>
<path d="M59.5831 26.2307C56.9471 26.2307 53.5983 22.1818 51.377 17.6429C50.0812 14.9943 49.2288 12.3157 48.9726 10.1C48.5998 6.87818 49.5832 5.68864 50.4742 5.25725C51.3654 4.82585 52.9132 4.79002 55.2252 7.07166C56.8175 8.64817 58.407 10.9642 59.7013 13.6127C60.9956 16.2613 61.8492 18.9399 62.1055 21.1556C62.4785 24.3761 61.4937 25.567 60.6025 25.9984C60.2849 26.1519 59.9362 26.2314 59.5831 26.2307ZM51.4964 6.75207C51.4068 6.74938 51.3176 6.76701 51.2358 6.80365C50.8112 7.00861 50.4787 8.04766 50.6944 9.90222C50.9291 11.9316 51.7254 14.4125 52.9361 16.8919C54.1469 19.3713 55.6153 21.5254 57.0738 22.97C58.407 24.2829 59.432 24.6642 59.8567 24.4591C60.2816 24.2542 60.6127 23.2151 60.3981 21.3606C60.1634 19.3312 59.3673 16.8503 58.1564 14.3709C56.9456 11.8929 55.4758 9.73739 54.0187 8.29991C52.9072 7.20494 52.0103 6.75207 51.4964 6.75207Z" fill="#182A34"/>
<mask id="mask3_297_510" style="mask-type:luminance" maskUnits="userSpaceOnUse" x="49" y="5" width="13" height="21">
<path d="M60.2344 25.2281C62.105 24.3227 61.5226 19.2918 58.9339 13.9914C56.345 8.69104 52.7298 5.12822 50.8592 6.03365C48.9887 6.93909 49.5708 11.9699 52.1597 17.2703C54.7484 22.5707 58.3636 26.1335 60.2344 25.2281Z" fill="white"/>
</mask>
<g mask="url(#mask3_297_510)">
<path d="M54.6837 20.3211C56.4771 19.453 57.175 17.2017 56.2424 15.2925C55.3099 13.3833 53.1002 12.5393 51.3068 13.4074C49.5134 14.2754 48.8155 16.5268 49.7479 18.436C50.6804 20.3452 52.8901 21.1892 54.6837 20.3211Z" fill="#FEAF86"/>
<path d="M53.1923 21.5227C52.6426 21.5213 52.0979 21.4187 51.5856 21.2203C50.4426 20.7701 49.5106 19.9101 48.9727 18.8097C48.4351 17.7094 48.3307 16.4485 48.6802 15.2754C48.8503 14.7036 49.1383 14.1733 49.5258 13.7184C49.913 13.2636 50.3917 12.8942 50.9305 12.6337C51.4695 12.3733 52.0569 12.2276 52.6556 12.206C53.2544 12.1843 53.851 12.2871 54.4073 12.5079C55.5506 12.9579 56.4828 13.8179 57.0204 14.9184C57.5578 16.0188 57.6618 17.2799 57.3112 18.4528C57.1407 19.0244 56.8527 19.5546 56.4655 20.0098C56.0785 20.4649 55.6008 20.8352 55.0624 21.097C54.4798 21.3788 53.8401 21.5244 53.1923 21.5227ZM52.8022 13.9268C52.415 13.9258 52.033 14.0131 51.6851 14.1819C51.3601 14.3414 51.0724 14.5664 50.8393 14.8424C50.6065 15.1185 50.4336 15.4396 50.3317 15.7856C50.1112 16.5417 50.1806 17.3524 50.5264 18.0604C50.8722 18.7685 51.4698 19.3235 52.2033 19.618C52.5389 19.7538 52.8996 19.8178 53.2617 19.8058C53.6239 19.7939 53.9796 19.7062 54.3055 19.5484C54.6314 19.3906 54.9201 19.1664 55.1534 18.8902C55.3864 18.6141 55.5586 18.2922 55.6586 17.9454C55.8904 17.1874 55.8213 16.3697 55.4655 15.6609C55.1261 14.9481 54.5262 14.391 53.7885 14.1031C53.4735 13.984 53.139 13.9233 52.8022 13.9239V13.9268Z" fill="#182A34"/>
</g>
<path d="M59.5831 26.2307C56.9471 26.2307 53.5983 22.1818 51.377 17.6429C50.0812 14.9943 49.2288 12.3157 48.9726 10.1C48.5998 6.87818 49.5832 5.68864 50.4742 5.25725C51.3654 4.82585 52.9132 4.79002 55.2252 7.07166C56.8175 8.64817 58.407 10.9642 59.7013 13.6127C60.9956 16.2613 61.8492 18.9399 62.1055 21.1556C62.4785 24.3761 61.4937 25.567 60.6025 25.9984C60.2849 26.1519 59.9362 26.2314 59.5831 26.2307ZM51.4964 6.75207C51.4068 6.74938 51.3176 6.76701 51.2358 6.80365C50.8112 7.00861 50.4787 8.04766 50.6944 9.90222C50.9291 11.9316 51.7254 14.4125 52.9361 16.8919C54.1469 19.3713 55.6153 21.5254 57.0738 22.97C58.407 24.2829 59.432 24.6642 59.8567 24.4591C60.2816 24.2542 60.6127 23.2151 60.3981 21.3606C60.1634 19.3312 59.3673 16.8503 58.1564 14.3709C56.9456 11.8929 55.4758 9.73739 54.0187 8.29991C52.9072 7.20494 52.0103 6.75207 51.4964 6.75207Z" fill="#182A34"/>
</g>
<defs>
<clipPath id="clip0_297_510">
<rect width="225" height="58" fill="white" transform="translate(0 0.200195)"/>
</clipPath>
</defs>
</svg>
