<svg width="200" height="52" viewBox="0 0 200 52" fill="none" xmlns="http://www.w3.org/2000/svg">
<g clip-path="url(#clip0_297_1136)">
<path d="M68.9286 0.0726128C69.5608 0.0726128 70.0991 0.0910301 70.5438 0.127865C70.9882 0.164699 71.3956 0.213527 71.7659 0.274346C72.1503 0.338727 72.5311 0.42452 72.9061 0.531332L72.6501 3.05879C72.2368 3.03437 71.8541 3.02025 71.4983 3.01382L70.3671 2.99455C69.9665 2.99455 69.4855 2.98554 68.9261 2.98554C68.4284 2.98554 68.0303 3.08963 67.7501 3.2978C67.4699 3.50594 67.2663 3.87087 67.1575 4.39641C67.0307 5.12807 66.9753 5.87044 66.9924 6.6129C66.9753 7.35496 67.0307 8.09691 67.1575 8.82812C67.2667 9.35324 67.4642 9.71986 67.7501 9.92803C68.0353 10.1349 68.4284 10.239 68.9261 10.239C69.8143 10.239 70.553 10.2266 71.1427 10.2017C71.7322 10.1769 72.325 10.134 72.9215 10.0732L73.1775 12.5814C72.5699 12.789 71.9438 12.9366 71.3078 13.0221C70.5175 13.116 69.7219 13.1589 68.9261 13.1506C67.5764 13.1506 66.4972 12.9403 65.6884 12.5197C64.8796 12.0991 64.296 11.4138 63.9377 10.4638C63.5777 9.51129 63.3981 8.22934 63.3989 6.61804C63.3998 5.00673 63.5794 3.72439 63.9377 2.77097C64.296 1.81926 64.8796 1.13397 65.6884 0.715078C66.4972 0.29619 67.5772 0.0820355 68.9286 0.0726128Z" fill="#182A34"/>
<path d="M82.9263 3.82716V6.31736H73.8402V3.82716H82.9263ZM80.0444 3.82716V12.9296H76.7427V3.82716H80.0444Z" fill="#182A34"/>
<path d="M86.8053 3.82718L87.1341 5.3691L87.4617 5.64407V11.6331L87.371 11.8528C87.4076 12.2315 87.435 12.6375 87.4529 13.071C87.4708 13.504 87.4746 13.9229 87.4617 14.3263V16.3218H84.16V3.82718H86.8053ZM90.5089 3.60745C91.6758 3.60745 92.5057 4.02848 92.9979 4.87054C93.4901 5.7126 93.7367 6.91572 93.7375 8.47991C93.7375 9.71174 93.6095 10.6669 93.3537 11.3453C93.0977 12.0238 92.7177 12.5 92.2135 12.7741C91.7093 13.0491 91.08 13.1866 90.3257 13.1866C89.6815 13.1902 89.0409 13.0882 88.4293 12.8846C87.8497 12.6943 87.3325 12.3491 86.9333 11.8863L87.1495 10.5127C87.4657 10.6103 87.76 10.7041 88.0337 10.7966C88.3619 10.8958 88.7036 10.9422 89.0461 10.9341C89.307 10.948 89.5666 10.8874 89.7948 10.7594C89.9765 10.6437 90.1108 10.4112 90.1952 10.0642C90.296 9.54855 90.339 9.02316 90.3232 8.4979C90.3373 7.97008 90.2975 7.44221 90.2042 6.92257C90.1261 6.56794 89.9981 6.33408 89.8202 6.21715C89.6078 6.09214 89.3638 6.03185 89.1177 6.04369C88.811 6.03589 88.5061 6.09188 88.2219 6.20816C87.9413 6.33487 87.6701 6.48171 87.4106 6.64761L86.9716 5.29199C87.1882 4.95211 87.4708 4.65935 87.8021 4.4311C88.1836 4.16406 88.6053 3.96018 89.0512 3.82718C89.5234 3.68118 90.0148 3.60711 90.5089 3.60745Z" fill="#182A34"/>
<path d="M102.84 7.34403L102.821 9.02857H98.9358C98.7164 9.02316 98.5027 9.09806 98.3343 9.2393C98.2661 9.30715 98.213 9.38871 98.1783 9.47861C98.1438 9.56851 98.1284 9.66473 98.1335 9.76097V10.1092C98.1278 10.2108 98.1453 10.3124 98.1848 10.4062C98.2242 10.5 98.2846 10.5834 98.3611 10.6502C98.5617 10.793 98.8057 10.8608 99.0509 10.8416C99.3827 10.8361 99.7105 10.7676 100.017 10.6399C100.372 10.498 100.709 10.3138 101.02 10.0912C101.333 9.87334 101.621 9.62123 101.878 9.33952V10.5127C101.745 10.7665 101.596 11.0112 101.431 11.2451C101.204 11.5675 100.945 11.8652 100.656 12.133C100.088 12.6382 99.3918 12.9751 98.6444 13.1063C97.8973 13.2374 97.1284 13.1576 96.4236 12.8756C95.9836 12.697 95.6017 12.3989 95.3204 12.0147C95.0343 11.5951 94.8903 11.0941 94.9097 10.5859V9.66976C94.9097 8.93734 95.1682 8.3664 95.6853 7.95693C96.2023 7.54748 96.9044 7.34316 97.7916 7.34403H102.84ZM100.377 3.57018C101.078 3.55141 101.777 3.66338 102.438 3.90042C102.98 4.10386 103.434 4.49293 103.718 4.99904C104.01 5.51299 104.156 6.22142 104.156 7.1243V12.9296H101.508L101.052 10.9701L100.834 10.6399V7.10504C100.821 6.72726 100.726 6.45485 100.551 6.29039C100.375 6.12592 100.054 6.04367 99.5922 6.04367C99.1303 6.04367 98.5352 6.05267 97.8417 6.07066C97.148 6.08865 96.4248 6.12334 95.6661 6.17088L95.3743 4.0289C95.8238 3.94325 96.3528 3.867 96.9611 3.80019C97.5691 3.7321 98.1743 3.67171 98.7758 3.63444C99.3773 3.59717 99.9147 3.57018 100.377 3.57018Z" fill="#182A34"/>
<path d="M114.368 3.82716V6.31736H105.282V3.82716H114.368ZM111.486 3.82716V12.9296H108.184V3.82716H111.486Z" fill="#182A34"/>
<path d="M120.096 3.57018C121.725 3.57018 122.886 3.83916 123.581 4.37711C124.275 4.91508 124.628 5.70873 124.638 6.7581C124.651 7.60016 124.417 8.21649 123.936 8.6071C123.456 8.99773 122.62 9.19303 121.428 9.19303H116.448V7.52262H120.498C120.899 7.52262 121.155 7.46181 121.266 7.34016C121.377 7.21853 121.435 6.9988 121.44 6.68101C121.44 6.32635 121.346 6.08821 121.157 5.96658C120.968 5.84493 120.649 5.78369 120.2 5.78282C119.867 5.75589 119.533 5.80599 119.223 5.92931C118.998 6.03982 118.843 6.25953 118.758 6.58848C118.658 7.07652 118.615 7.57456 118.63 8.07258C118.613 8.58395 118.665 9.09524 118.784 9.59265C118.822 9.75025 118.891 9.89833 118.989 10.0275C119.086 10.1567 119.209 10.2641 119.35 10.3431C119.623 10.4895 120.009 10.5641 120.508 10.5641C120.908 10.5641 121.428 10.5486 122.068 10.5178C122.708 10.487 123.38 10.4351 124.084 10.3623L124.389 12.3809C123.978 12.5817 123.544 12.7334 123.097 12.8332C122.62 12.9448 122.135 13.0242 121.647 13.071C121.148 13.1198 120.649 13.1442 120.151 13.1442C118.947 13.1442 117.977 12.9729 117.241 12.6302C116.539 12.3215 115.974 11.7645 115.654 11.0652C115.332 10.3619 115.17 9.47958 115.17 8.41823C115.17 7.21895 115.335 6.2664 115.663 5.56053C115.976 4.86779 116.54 4.32097 117.241 4.03148C117.964 3.72394 118.916 3.57018 120.096 3.57018Z" fill="#182A34"/>
<path d="M128.578 3.69868C129.418 3.69868 130.284 3.71111 131.177 3.73595C131.982 3.75085 132.784 3.83033 133.577 3.97367L133.413 6.29938H130.074C129.88 6.28154 129.686 6.33345 129.526 6.44587C129.418 6.54352 129.363 6.72083 129.363 6.97783V12.9296H126.079V6.00642C126.079 5.21319 126.283 4.63026 126.691 4.25764C127.098 3.88499 127.728 3.69868 128.578 3.69868Z" fill="#182A34"/>
<path d="M144.097 3.82716V12.9296L141.141 12.9669V8.84995C141.141 8.58097 141.153 8.32141 141.178 8.07129C141.203 7.82116 141.233 7.54319 141.269 7.23736H141.196C141.011 7.77309 140.76 8.28368 140.449 8.75743L137.621 12.9335H134.703V3.82716H137.658V8.13168C137.658 8.35792 137.645 8.58397 137.621 8.80884C137.596 9.02813 137.566 9.27228 137.53 9.54124H137.603C137.683 9.29646 137.786 9.06017 137.912 8.83581C138.035 8.62253 138.162 8.41222 138.296 8.20492L141.196 3.82716H144.097Z" fill="#182A34"/>
<path d="M155.449 3.82716V12.9296L152.492 12.9669V8.84995C152.492 8.58097 152.505 8.32141 152.529 8.07129C152.554 7.82116 152.584 7.54319 152.62 7.23736H152.544C152.451 7.51391 152.338 7.78322 152.206 8.04303C152.085 8.29024 151.949 8.52895 151.796 8.75743L148.968 12.9335H146.05V3.82716H149.005V8.13168C149.005 8.35792 148.993 8.58397 148.968 8.80884C148.944 9.02855 148.914 9.2727 148.877 9.54124H148.95C149.03 9.29646 149.134 9.06017 149.26 8.83581C149.382 8.62253 149.51 8.41222 149.644 8.20492L152.544 3.82716H155.449Z" fill="#182A34"/>
<path d="M68.1813 22.7927C69.3758 22.7927 70.3303 22.9483 71.0453 23.2592C71.7381 23.5478 72.2933 24.0935 72.5952 24.7831C72.9116 25.4855 73.0699 26.4278 73.0699 27.6099C73.0699 28.7921 72.9116 29.7229 72.5952 30.402C72.2884 31.0831 71.7339 31.6204 71.0453 31.9041C70.327 32.2167 69.3724 32.3727 68.1813 32.3719C66.9903 32.3711 66.0417 32.2151 65.3352 31.9041C64.6449 31.6194 64.0876 31.0827 63.7752 30.402C63.4537 29.7167 63.2928 28.786 63.2928 27.6099C63.2928 26.4338 63.4537 25.4916 63.7752 24.7831C64.083 24.095 64.6411 23.5513 65.3352 23.263C66.0571 22.9495 67.0057 22.7927 68.1813 22.7927ZM68.1813 25.1185C67.8821 25.1018 67.5846 25.1718 67.324 25.3202C67.1166 25.4538 66.9707 25.6979 66.8863 26.0526C66.7863 26.5654 66.7434 27.0878 66.7583 27.6099C66.7436 28.1271 66.7865 28.6442 66.8863 29.1519C66.9707 29.5064 67.1166 29.7467 67.324 29.8753C67.5867 30.0173 67.8834 30.0841 68.1813 30.068C68.4853 30.0854 68.788 30.0188 69.0566 29.8753C69.264 29.7467 69.4061 29.5064 69.4853 29.1519C69.5779 28.6433 69.6179 28.1267 69.6044 27.6099C69.6181 27.0882 69.5781 26.5663 69.4853 26.0526C69.4061 25.6979 69.264 25.4538 69.0566 25.3202C68.7899 25.1707 68.4863 25.1008 68.1813 25.1185Z" fill="#182A34"/>
<path d="M83.1208 18.5987L83.5956 21.1262C83.2067 21.3439 82.7888 21.5039 82.3543 21.6016C81.9705 21.6855 81.5798 21.7345 81.1872 21.748C80.8101 21.7609 80.436 21.7764 80.0648 21.7943C79.6863 21.8136 79.3107 21.8717 78.9438 21.9679C78.6575 22.0476 78.3817 22.1615 78.1223 22.3069C77.9231 22.4194 77.7444 22.565 77.5937 22.7375C77.4621 22.8935 77.3516 23.0664 77.2648 23.2514C77.1368 23.4467 77.0474 23.6649 77.0013 23.894C76.9577 24.1136 76.9128 24.3514 76.8642 24.6083H76.9373C77.1137 24.4182 77.3059 24.2438 77.5118 24.0866C77.7206 23.9291 77.9469 23.7968 78.1863 23.6921C78.461 23.5757 78.749 23.4928 79.0436 23.4454C79.3964 23.3879 79.7535 23.3605 80.1109 23.3632C81.1074 23.3632 81.8949 23.5097 82.4733 23.8027C83.0467 24.0912 83.4922 24.5842 83.7223 25.1853C83.9783 25.8131 84.1063 26.6403 84.1063 27.6665C84.1063 28.7175 83.9604 29.591 83.6686 30.2864C83.3876 30.9687 82.8684 31.5247 82.2084 31.8502C81.5259 32.1929 80.6019 32.3668 79.4366 32.3719C78.4632 32.3719 77.6693 32.2742 77.0549 32.0789C76.5126 31.925 76.0154 31.642 75.605 31.2539C75.249 30.8933 74.9832 30.453 74.8295 29.9691C74.6596 29.4379 74.5556 28.8877 74.5198 28.3307C74.4781 27.738 74.4566 27.0998 74.4558 26.4162C74.452 25.6176 74.4979 24.8192 74.5928 24.0263C74.6699 23.355 74.8324 22.6965 75.0766 22.0668C75.2983 21.4993 75.6442 20.9889 76.0888 20.5737C76.588 20.1263 77.1754 19.7892 77.8126 19.5843C78.2535 19.4312 78.7088 19.3239 79.1716 19.2643C79.6162 19.2087 80.0568 19.1688 80.4937 19.1448C80.9341 19.1211 81.3728 19.073 81.808 19.0009C82.2608 18.9232 82.7019 18.7881 83.1208 18.5987ZM79.2907 25.3561C78.8888 25.3561 78.5842 25.4242 78.3783 25.558C78.2657 25.6402 78.1707 25.7442 78.0987 25.8639C78.0265 25.9833 77.9789 26.116 77.9585 26.2543C77.8076 27.2165 77.8137 28.1969 77.9764 29.157C78.0621 29.5051 78.2042 29.7429 78.405 29.8715C78.6684 29.9983 78.9568 30.064 79.249 30.064C79.5413 30.064 79.8297 29.9983 80.093 29.8715C80.2996 29.7429 80.4425 29.5047 80.5217 29.157C80.613 28.6588 80.6524 28.1523 80.6396 27.6458C80.653 27.1637 80.6137 26.6815 80.5217 26.208C80.4425 25.8844 80.3084 25.6616 80.12 25.5398C79.8663 25.4016 79.5787 25.338 79.2907 25.3561Z" fill="#182A34"/>
<path d="M88.9027 23.0485V32.1523H85.7109V23.0485H88.9027ZM100.724 29.9357V32.1523H88.776L88.7568 29.9357H100.724ZM93.9743 23.0485V32.1523H91.0551V23.0485H93.9743ZM99.3196 23.0485V32.1523H96.1446V23.0485H99.3196ZM100.727 32.0597V34.677H98.516L98.2831 32.0597H100.727Z" fill="#182A34"/>
<path d="M106.543 22.7927C108.173 22.7927 109.334 23.0614 110.027 23.5985C110.72 24.1354 111.071 24.9291 111.08 25.9793C111.091 26.8223 110.857 27.4391 110.378 27.8297C109.898 28.2204 109.066 28.4157 107.881 28.4157H102.89V26.7451H106.94C107.342 26.7451 107.6 26.6836 107.716 26.5614C107.832 26.4395 107.889 26.2196 107.889 25.9023C107.889 25.5476 107.795 25.3094 107.606 25.1879C107.418 25.0657 107.094 25.0042 106.649 25.0042C106.222 24.993 105.897 25.0422 105.672 25.1519C105.448 25.2614 105.294 25.4813 105.212 25.811C105.111 26.2985 105.068 26.7963 105.084 27.2939C105.067 27.8052 105.119 28.3165 105.238 28.8139C105.276 28.9716 105.346 29.1198 105.443 29.2492C105.54 29.3785 105.663 29.4861 105.804 29.5656C106.078 29.7121 106.463 29.7854 106.962 29.7854C107.364 29.7854 107.884 29.77 108.522 29.7391C109.16 29.7083 109.832 29.6565 110.538 29.5836L110.824 31.6023C110.417 31.8046 109.988 31.958 109.545 32.0597C109.067 32.1717 108.583 32.2516 108.095 32.2985C107.596 32.3474 107.097 32.3719 106.599 32.3719C105.394 32.3719 104.424 32.2005 103.69 31.8578C102.987 31.5492 102.422 30.9916 102.102 30.2917C101.779 29.5901 101.619 28.7078 101.619 27.6446C101.619 26.4454 101.784 25.4929 102.112 24.7869C102.425 24.094 102.989 23.5469 103.69 23.2579C104.412 22.9479 105.363 22.7927 106.543 22.7927Z" fill="#182A34"/>
<path d="M116.922 22.7927C117.275 22.7927 117.664 22.8107 118.089 22.8468C118.52 22.8844 118.947 22.9487 119.369 23.0394C119.77 23.1231 120.161 23.2489 120.536 23.4146L120.19 25.4846C119.643 25.4846 119.151 25.4817 118.713 25.4758C118.275 25.4692 117.867 25.4667 117.491 25.4667C117.124 25.4523 116.758 25.5113 116.414 25.6402C116.28 25.6998 116.16 25.7869 116.061 25.8956C115.962 26.0044 115.887 26.1327 115.84 26.2723C115.724 26.5781 115.666 27.0176 115.666 27.5906C115.648 28.032 115.706 28.4732 115.837 28.8949C115.882 29.0365 115.957 29.1671 116.056 29.2777C116.155 29.3885 116.276 29.477 116.412 29.5373C116.755 29.6673 117.121 29.7269 117.488 29.7121C117.693 29.7121 117.952 29.7091 118.263 29.703C118.575 29.6971 118.911 29.6846 119.271 29.6658C119.636 29.6478 120 29.6203 120.365 29.5836L120.657 31.6716C120.098 31.9445 119.501 32.1284 118.887 32.2163C118.229 32.3188 117.565 32.3708 116.899 32.3719C115.744 32.3719 114.82 32.2159 114.126 31.9041C113.451 31.6124 112.918 31.0666 112.639 30.3841C112.34 29.6825 112.192 28.7513 112.192 27.5906C112.192 26.4069 112.344 25.4646 112.648 24.7638C112.937 24.0842 113.476 23.5429 114.153 23.2527C114.857 22.9462 115.78 22.7927 116.922 22.7927Z" fill="#182A34"/>
<path d="M130.421 23.0485V25.5398H121.335V23.0485H130.421ZM127.539 23.0485V32.1523H124.237V23.0485H127.539Z" fill="#182A34"/>
<path d="M136.368 22.9392C137.392 22.9392 138.197 23.0094 138.784 23.1499C139.371 23.2905 139.797 23.5347 140.064 23.8824C140.325 24.2301 140.456 24.7213 140.457 25.3561C140.457 26.0038 140.304 26.4955 140 26.8314C139.695 27.167 139.183 27.3653 138.464 27.4262V27.4993C139.328 27.5611 139.933 27.7963 140.279 28.2049C140.624 28.6135 140.797 29.1779 140.798 29.8983C140.798 30.5221 140.662 31.0108 140.389 31.3645C140.116 31.7183 139.693 31.9654 139.12 32.106C138.389 32.2624 137.643 32.333 136.895 32.3167C136.117 32.3167 135.43 32.3136 134.833 32.3076C134.237 32.3017 133.687 32.2893 133.183 32.2704C132.678 32.2525 132.167 32.2309 131.647 32.2062L131.903 30.1374C132.183 30.1486 132.721 30.1575 133.518 30.1644C134.315 30.1712 135.253 30.1742 136.333 30.1733C136.573 30.1807 136.812 30.156 137.045 30.1002C137.122 30.0816 137.195 30.0465 137.258 29.9977C137.32 29.9486 137.372 29.8867 137.409 29.8161C137.492 29.6292 137.53 29.4254 137.52 29.2213C137.52 28.8545 137.431 28.6106 137.255 28.4888C137.078 28.3673 136.759 28.306 136.297 28.3051H131.882V26.6206H136.291C136.512 26.6265 136.732 26.605 136.948 26.5564C137.018 26.5409 137.084 26.5111 137.142 26.4686C137.2 26.4261 137.249 26.372 137.285 26.3097C137.359 26.1556 137.393 25.9856 137.385 25.8148C137.395 25.6487 137.357 25.483 137.275 25.3382C137.186 25.2177 137.056 25.1333 136.911 25.1006C136.677 25.0446 136.438 25.02 136.199 25.0272C135.543 25.0272 134.965 25.0243 134.466 25.0181C133.967 25.0122 133.511 25.0122 133.098 25.0181C132.685 25.0247 132.283 25.0388 131.894 25.0632L131.638 23.0485C132.111 23.0125 132.577 22.988 133.033 22.9751C133.488 22.9624 133.985 22.9546 134.52 22.9483C135.055 22.9417 135.674 22.9392 136.368 22.9392ZM134.762 23.0485V32.2062H131.643V23.0485H134.762Z" fill="#182A34"/>
<path d="M146.838 22.7927C148.468 22.7927 149.629 23.0614 150.322 23.5985C151.015 24.1354 151.368 24.9291 151.38 25.9793C151.391 26.8223 151.157 27.4391 150.678 27.8297C150.198 28.2204 149.362 28.4157 148.169 28.4157H143.19V26.7451H147.239C147.641 26.7451 147.899 26.684 148.014 26.5614C148.13 26.439 148.187 26.2192 148.187 25.9023C148.187 25.5476 148.093 25.3094 147.906 25.1879C147.716 25.0657 147.394 25.0042 146.947 25.0042C146.521 24.993 146.196 25.0422 145.972 25.1519C145.747 25.261 145.588 25.4808 145.506 25.811C145.406 26.2987 145.363 26.7963 145.378 27.2939C145.362 27.8052 145.414 28.3165 145.534 28.8139C145.572 28.9716 145.641 29.1196 145.738 29.2489C145.836 29.3783 145.958 29.4861 146.099 29.5656C146.373 29.7121 146.757 29.7854 147.25 29.7854C147.652 29.7854 148.172 29.77 148.81 29.7391C149.449 29.7083 150.121 29.6565 150.826 29.5836L151.118 31.5985C150.709 31.8012 150.277 31.9546 149.832 32.0559C149.354 32.1679 148.87 32.2478 148.382 32.2947C147.884 32.3436 147.386 32.3681 146.886 32.3681C145.683 32.3681 144.713 32.1967 143.977 31.854C143.274 31.5452 142.71 30.9878 142.39 30.2877C142.068 29.5861 141.906 28.7038 141.906 27.6407C141.906 26.4416 142.071 25.4889 142.399 24.7831C142.712 24.0902 143.276 23.5431 143.977 23.2539C144.705 22.9466 145.658 22.7927 146.838 22.7927Z" fill="#182A34"/>
<path d="M156.141 23.0485V32.1523H152.857V23.0485H156.141ZM159.096 26.2723V28.4567H156.013V26.2723H159.096ZM162.179 23.0485V32.1523H158.932V23.0485H162.179Z" fill="#182A34"/>
<path d="M167.414 23.0485V32.1523H164.132V23.0485H167.414ZM170.37 26.2723V28.4567H167.287V26.2723H170.37ZM173.453 23.0485V32.1523H170.204V23.0485H173.453Z" fill="#182A34"/>
<path d="M178.616 23.0485V32.1523H175.405V23.0485H178.616ZM179.582 26.0526C180.7 26.0526 181.582 26.1442 182.227 26.3276C182.872 26.5109 183.331 26.8252 183.604 27.2706C183.878 27.7162 184.015 28.3419 184.015 29.1479C184.015 29.9541 183.881 30.5828 183.613 31.0343C183.328 31.4997 182.879 31.8399 182.355 31.9863C181.782 32.1707 181.047 32.2622 180.147 32.2614C179.454 32.2614 178.846 32.2584 178.323 32.2525C177.799 32.2463 177.316 32.2345 176.872 32.2163C176.428 32.1971 175.977 32.1766 175.514 32.1523L175.732 30.0268C175.975 30.0397 176.444 30.0514 177.14 30.0642C177.836 30.0769 178.648 30.0822 179.584 30.0822C179.815 30.0909 180.045 30.0661 180.269 30.0089C180.343 29.9856 180.41 29.9452 180.465 29.8913C180.52 29.8374 180.562 29.7711 180.588 29.6979C180.657 29.4787 180.687 29.2492 180.678 29.0196C180.678 28.5911 180.611 28.3072 180.478 28.1675C180.344 28.028 180.045 27.9578 179.582 27.957H175.714V26.0526H179.582ZM188.32 23.0485V32.1523H184.981V23.0485H188.32Z" fill="#182A34"/>
<path d="M192.879 23.0485L195.215 27.4995L192.678 32.1523H189.359L192.077 27.4995L189.578 23.0485H192.879ZM196.364 26.4921V28.4336H193.025V26.4921H196.364ZM199.794 23.0485L197.275 27.4995L199.993 32.1523H196.674L194.135 27.4995L196.488 23.0485H199.794Z" fill="#182A34"/>
<path d="M73.0518 42.2709V51.3734L70.0968 51.4106V47.2887C70.0968 47.0213 70.1084 46.7604 70.1326 46.5175C70.157 46.2749 70.1878 45.9895 70.2235 45.6836H70.1505C70.0579 45.9601 69.9454 46.2292 69.8141 46.4894C69.693 46.7363 69.5558 46.975 69.4031 47.2039L66.5749 51.3798H63.6572V42.2709H66.6122V46.5742C66.6122 46.8008 66.5998 47.0274 66.5749 47.2527C66.5507 47.4724 66.5212 47.7165 66.4842 47.985H66.557C66.6374 47.7402 66.7417 47.5039 66.8682 47.2796C66.9884 47.0663 67.1164 46.856 67.252 46.6488L70.1518 42.2709H73.0518Z" fill="#182A34"/>
<path d="M78.0863 42.0321C78.9855 42.0181 79.8842 42.0767 80.7739 42.2067C81.4615 42.3223 81.9632 42.5576 82.2788 42.9123C82.5946 43.2667 82.7527 43.8039 82.7537 44.5234C82.7537 45.2311 82.5988 45.745 82.2891 46.0654C81.9794 46.3857 81.4714 46.5785 80.7649 46.6436V46.7169C81.6044 46.7767 82.2017 47.0025 82.5564 47.394C82.9114 47.7855 83.091 48.3534 83.0954 49.0977C83.0954 49.8302 82.9341 50.3764 82.6116 50.7361C82.2891 51.0959 81.8057 51.331 81.1617 51.4415C80.3647 51.5626 79.5592 51.6176 78.7531 51.606C78.0484 51.606 77.3434 51.5785 76.6377 51.5237C75.9063 51.4658 75.1796 51.3589 74.4623 51.2037L74.6811 49.0425C75.3739 49.1163 76.0516 49.1681 76.7146 49.1981C77.3775 49.2279 77.9748 49.2434 78.5061 49.2442C78.9809 49.2442 79.2996 49.2007 79.4634 49.1159C79.6272 49.0309 79.7103 48.8164 79.7103 48.4733C79.7211 48.32 79.6859 48.167 79.6093 48.0338C79.5644 47.9789 79.5091 47.9334 79.4465 47.9002C79.3838 47.8671 79.3152 47.847 79.2447 47.8413C78.9939 47.8047 78.7415 47.7833 78.4882 47.777L75.6421 47.7229V45.7955L78.4691 45.7403C78.6836 45.7357 78.8977 45.7141 79.1089 45.6761C79.1693 45.6687 79.2274 45.6486 79.2794 45.6173C79.3314 45.5858 79.3762 45.5435 79.411 45.4937C79.4718 45.3715 79.5 45.2356 79.4929 45.0992C79.5061 44.9455 79.4708 44.7919 79.3918 44.6597C79.2979 44.5608 79.1716 44.4991 79.036 44.4862C78.7817 44.4496 78.5249 44.4342 78.2682 44.4399C77.671 44.4399 77.0811 44.4583 76.4983 44.4953C75.9156 44.5321 75.3743 44.5809 74.8743 44.6418L74.6554 42.4804C75.2672 42.2889 75.8973 42.1631 76.5354 42.1052C77.1676 42.0572 77.6847 42.0329 78.0863 42.0321Z" fill="#182A34"/>
<path d="M96.1076 42.2709C96.8497 42.2709 97.2269 42.6495 97.2387 43.4069L97.4756 51.3735H94.4848L94.248 44.6919H94.0114L92.9351 49.1068C92.8928 49.4011 92.7469 49.6704 92.5242 49.8663C92.2878 50.0515 91.9933 50.1458 91.6937 50.1322H90.2349C89.9358 50.1458 89.6415 50.0515 89.4057 49.8663C89.1819 49.671 89.036 49.4015 88.9947 49.1068L87.8815 44.6919H87.6613L87.4796 51.3735H84.4888L84.7078 43.4069C84.7196 42.6487 85.1036 42.2701 85.8596 42.2709H88.6505C88.9484 42.257 89.2417 42.3479 89.4798 42.528C89.7093 42.7281 89.8503 43.0114 89.8726 43.3156L90.693 46.6861C90.7539 46.9048 90.7968 47.1283 90.821 47.3542C90.8453 47.5804 90.8632 47.8091 90.876 48.0417H91.0398C91.0642 47.8091 91.0859 47.5804 91.1038 47.3542C91.1219 47.1281 91.1617 46.9044 91.2227 46.6861L92.0253 43.3156C92.1335 42.6201 92.5469 42.2722 93.2653 42.2722L96.1076 42.2709Z" fill="#182A34"/>
<path d="M103.806 42.0141C105.437 42.0141 106.598 42.2826 107.291 42.8197C107.984 43.3568 108.337 44.1505 108.349 45.2007C108.361 46.0435 108.127 46.6603 107.647 47.0509C107.167 47.4415 106.331 47.6369 105.139 47.6369H100.158V45.9665H104.208C104.608 45.9665 104.867 45.9056 104.984 45.7841C105.101 45.6623 105.158 45.4423 105.157 45.1235C105.157 44.7707 105.062 44.5329 104.874 44.4103C104.686 44.2884 104.362 44.2266 103.916 44.2266C103.49 44.215 103.165 44.2626 102.94 44.3731C102.715 44.4837 102.556 44.7033 102.476 45.0324C102.375 45.5203 102.332 46.0183 102.348 46.5163C102.332 47.0294 102.385 47.542 102.506 48.0404C102.544 48.1979 102.613 48.3458 102.711 48.475C102.808 48.6041 102.931 48.7117 103.072 48.7908C103.346 48.9373 103.731 49.0104 104.23 49.0104C104.632 49.0104 105.152 48.9954 105.79 48.9654C106.428 48.9356 107.099 48.884 107.802 48.8113L108.093 50.826C107.686 51.0279 107.257 51.1813 106.814 51.2834C106.336 51.3944 105.852 51.4739 105.364 51.5212C104.865 51.5701 104.366 51.5946 103.868 51.5946C102.663 51.5946 101.693 51.4231 100.958 51.0805C100.255 50.7717 99.6903 50.2142 99.371 49.5141C99.0484 48.8126 98.8876 47.9307 98.8884 46.8685C98.8884 45.6693 99.0522 44.7166 99.3798 44.0108C99.6928 43.3181 100.257 42.7713 100.958 42.4817C101.678 42.1699 102.627 42.0141 103.806 42.0141Z" fill="#182A34"/>
<path d="M113.11 42.2709V51.3735H109.826V42.2709H113.11ZM116.071 45.4949V47.6793H112.982V45.4949H116.071ZM119.143 42.2709V51.3735H115.901V42.2709H119.143Z" fill="#182A34"/>
<path d="M125.643 42.0141C127.272 42.0141 128.433 42.2826 129.126 42.8197C129.819 43.3568 130.171 44.1505 130.184 45.2007C130.195 46.0435 129.961 46.6603 129.482 47.0509C129.002 47.4415 128.166 47.6369 126.973 47.6369H121.994V45.9665H126.043C126.445 45.9665 126.703 45.9056 126.819 45.7841C126.934 45.6623 126.991 45.4423 126.991 45.1235C126.991 44.7701 126.898 44.5325 126.708 44.4103C126.519 44.2884 126.197 44.2266 125.751 44.2266C125.325 44.215 125 44.2626 124.776 44.3731C124.552 44.4837 124.392 44.7033 124.31 45.0324C124.21 45.5203 124.167 46.0183 124.182 46.5163C124.166 47.0291 124.218 47.5415 124.337 48.0404C124.375 48.1979 124.444 48.3458 124.542 48.475C124.639 48.6041 124.762 48.7117 124.903 48.7908C125.177 48.9373 125.561 49.0104 126.055 49.0104C126.456 49.0104 126.976 48.9954 127.615 48.9654C128.253 48.9356 128.927 48.884 129.636 48.8113L129.928 50.826C129.521 51.0279 129.091 51.1813 128.649 51.2834C128.171 51.3946 127.687 51.4739 127.199 51.5212C126.7 51.5701 126.201 51.5946 125.703 51.5946C124.5 51.5946 123.53 51.4231 122.794 51.0805C122.091 50.7721 121.526 50.2145 121.207 49.5141C120.884 48.8126 120.723 47.9307 120.723 46.8685C120.723 45.6693 120.887 44.7166 121.216 44.0108C121.528 43.3175 122.093 42.7704 122.794 42.4817C123.516 42.1699 124.466 42.0141 125.643 42.0141Z" fill="#182A34"/>
<path d="M134.945 42.2709V51.3735H131.661V42.2709H134.945ZM137.9 45.4949V47.6793H134.817V45.4949H137.9ZM140.983 42.2709V51.3735H137.736V42.2709H140.983Z" fill="#182A34"/>
<path d="M152.329 42.2709V51.3735L149.374 51.4107V47.2887C149.374 47.0213 149.386 46.7605 149.411 46.5176C149.435 46.2749 149.465 45.9896 149.502 45.6837H149.429C149.335 45.96 149.222 46.2291 149.091 46.4895C148.971 46.7366 148.834 46.9754 148.681 47.204L145.853 51.3798H142.934V42.2709H145.889V46.5742C145.889 46.8008 145.877 47.0275 145.852 47.2528C145.827 47.472 145.797 47.7161 145.761 47.985H145.834C145.914 47.7402 146.017 47.5039 146.144 47.2796C146.266 47.0663 146.394 46.856 146.528 46.6489L149.427 42.2709H152.329Z" fill="#182A34"/>
<path d="M163.677 42.2709V51.3735L160.721 51.4107V47.2887C160.721 47.0213 160.734 46.7605 160.758 46.5178C160.783 46.2749 160.813 45.9896 160.849 45.6837H160.776C160.59 46.2195 160.339 46.73 160.029 47.2039L157.2 51.3798H154.283V42.2709H157.238V46.5742C157.238 46.8008 157.225 47.0274 157.2 47.2528C157.176 47.472 157.145 47.7161 157.11 47.985H157.183C157.263 47.7402 157.366 47.5041 157.492 47.2796C157.613 47.0663 157.741 46.856 157.876 46.6489L160.776 42.2709H163.677ZM160.064 38.2234H162.126C162.201 38.7216 162.118 39.231 161.889 39.6794C161.643 40.152 161.266 40.5431 160.803 40.805C160.243 41.0946 159.623 41.2457 158.993 41.2457C158.363 41.2457 157.742 41.0946 157.183 40.805C156.715 40.5439 156.332 40.1531 156.079 39.6794C155.844 39.2332 155.757 38.7229 155.832 38.2234H157.894C157.845 38.7717 157.918 39.1528 158.113 39.3672C158.307 39.5813 158.599 39.6883 158.988 39.6883C159.377 39.6883 159.666 39.5813 159.855 39.3672C160.043 39.1537 160.112 38.7721 160.063 38.2234H160.064Z" fill="#182A34"/>
<path d="M25.6177 51.8835C39.7659 51.8835 51.2352 40.3676 51.2352 26.1619C51.2352 11.9561 39.7659 0.440098 25.6177 0.440098C11.4694 0.440098 0 11.9561 0 26.1619C0 40.3676 11.4694 51.8835 25.6177 51.8835Z" fill="#FEAF86"/>
<mask id="mask0_297_1136" style="mask-type:luminance" maskUnits="userSpaceOnUse" x="0" y="0" width="52" height="52">
<path d="M25.6177 51.8835C39.7659 51.8835 51.2352 40.3676 51.2352 26.1619C51.2352 11.9561 39.7659 0.440098 25.6177 0.440098C11.4694 0.440098 0 11.9561 0 26.1619C0 40.3676 11.4694 51.8835 25.6177 51.8835Z" fill="white"/>
</mask>
<g mask="url(#mask0_297_1136)">
<path d="M40.3488 22.1311L37.6042 23.8699L41.6406 30.2934L44.3852 28.5546L40.3488 22.1311Z" fill="#00B1CD"/>
<path d="M41.6423 31.0613C41.5126 31.0613 41.3848 31.0284 41.2711 30.9656C41.1574 30.9026 41.0614 30.8117 40.9922 30.7016L36.956 24.2768C36.9021 24.1912 36.8654 24.0957 36.8484 23.9959C36.8311 23.8961 36.8339 23.7938 36.856 23.6951C36.8783 23.5964 36.9198 23.5029 36.9779 23.4201C37.0362 23.3374 37.1099 23.267 37.1953 23.2129L39.9404 21.4743C40.0256 21.4202 40.1206 21.3836 40.22 21.3663C40.3195 21.3492 40.4212 21.3517 40.5198 21.3741C40.6181 21.3963 40.7111 21.438 40.7936 21.4965C40.876 21.5548 40.9461 21.629 41 21.7146L45.0362 28.1394C45.0901 28.225 45.1267 28.3203 45.1438 28.4203C45.161 28.5201 45.1583 28.6222 45.1362 28.7211C45.1139 28.8198 45.0724 28.9133 45.0143 28.9961C44.956 29.0788 44.8823 29.1492 44.7968 29.2033L42.0518 30.9417C41.9292 31.0197 41.7873 31.0611 41.6423 31.0613ZM38.6644 24.1073L41.8816 29.2263L43.3278 28.3102L40.1105 23.1912L38.6644 24.1073Z" fill="#182A34"/>
<path d="M36.048 23.3852C37.2265 22.8098 37.685 21.3175 37.0722 20.0519C36.4594 18.7864 35.0071 18.2268 33.8288 18.8021C32.6503 19.3774 32.1918 20.8698 32.8046 22.1353C33.4175 23.4008 34.8697 23.9604 36.048 23.3852Z" fill="#182A34"/>
<path d="M35.0722 24.3783C34.4522 24.3681 33.8472 24.184 33.3257 23.8469C32.8042 23.5095 32.3872 23.0328 32.1213 22.4701C31.7404 21.6963 31.6682 20.8056 31.9189 19.98C32.0377 19.5746 32.2387 19.1982 32.5097 18.8749C32.7806 18.5515 33.1156 18.2881 33.4931 18.1014C35.0505 17.3408 36.9663 18.0616 37.7636 19.7063C38.1442 20.4803 38.2166 21.3709 37.9657 22.1966C37.8457 22.6016 37.6434 22.9772 37.3714 23.2998C37.0994 23.6222 36.7636 23.8845 36.3853 24.0699C35.9766 24.2715 35.5276 24.377 35.0722 24.3783ZM34.8162 19.344C34.5945 19.3448 34.376 19.3958 34.1764 19.493C33.9878 19.5869 33.8204 19.7191 33.6853 19.8812C33.5499 20.0433 33.4497 20.2319 33.3907 20.4349C33.2556 20.8868 33.2973 21.3735 33.5072 21.7956C33.9345 22.6771 34.9288 23.0806 35.7248 22.6887C35.9137 22.5948 36.0808 22.4625 36.2162 22.3004C36.3514 22.1383 36.4518 21.9497 36.5107 21.7468C36.6451 21.2948 36.6034 20.8084 36.3943 20.3861C36.2535 20.0809 36.0301 19.8215 35.7499 19.6373C35.4697 19.4531 35.1436 19.3515 34.8086 19.344H34.8162Z" fill="#182A34"/>
<path d="M48.2166 17.2317C49.3949 16.6564 49.8534 15.1641 49.2406 13.8985C48.6277 12.633 47.1757 12.0734 45.9972 12.6487C44.8187 13.224 44.3602 14.7163 44.973 15.9819C45.5861 17.2475 47.0381 17.807 48.2166 17.2317Z" fill="#FEAF86"/>
<path d="M47.2398 18.23C46.6175 18.2211 46.0099 18.0371 45.4865 17.6989C44.9629 17.3607 44.5446 16.8818 44.2785 16.3167C43.4813 14.672 44.0994 12.7189 45.6568 11.9479C47.2143 11.177 49.1301 11.9081 49.9274 13.5541C50.3095 14.3279 50.3836 15.2188 50.1347 16.0456C50.0147 16.4509 49.8122 16.8267 49.5398 17.1492C49.2676 17.4717 48.9314 17.7338 48.5528 17.919C48.1446 18.1217 47.6954 18.2281 47.2398 18.23ZM46.984 13.1956C46.76 13.1949 46.5389 13.2459 46.3377 13.3447C45.5417 13.7301 45.2423 14.7658 45.6684 15.646C46.0945 16.5261 47.0901 16.9309 47.8848 16.5454C48.0737 16.4517 48.2411 16.3196 48.3764 16.1574C48.5116 15.9953 48.6118 15.8067 48.6705 15.6036C48.8063 15.1517 48.7646 14.6648 48.5541 14.2428C48.4154 13.9377 48.1945 13.6776 47.9164 13.4919C47.6383 13.3061 47.3139 13.2022 46.98 13.1917L46.984 13.1956Z" fill="#182A34"/>
<path d="M33.4008 16.5595C33.4008 16.5595 32.8891 19.5149 34.4246 21.9793C35.9604 24.4438 37.5139 24.7985 37.5139 24.7985C37.5139 24.7985 40.4638 22.8466 43.5389 21.9434C47.5444 20.7677 51.9518 23.1742 53.5413 22.442C54.7545 21.8829 49.9709 5.32025 45.2078 5.23416C43.6387 5.2059 43.1204 11.5059 39.1495 13.8432C35.7608 15.84 33.4008 16.5595 33.4008 16.5595Z" fill="#00B1CD"/>
<path d="M37.5138 25.5631C37.4566 25.5631 37.3995 25.5565 37.3437 25.5438C37.153 25.5001 35.4383 25.0414 33.7745 22.3828C32.0943 19.6986 32.6227 16.5531 32.6408 16.4195C32.6652 16.2787 32.7284 16.1476 32.8227 16.0407C32.9172 15.9339 33.0393 15.8555 33.1755 15.8143C33.1987 15.8143 35.5048 15.0973 38.7604 13.1763C40.84 11.9505 41.8932 9.47827 42.7404 7.49178C43.4903 5.73141 44.0341 4.45549 45.1924 4.45549H45.2204C47.14 4.49018 49.0877 6.46383 50.9957 10.3212C52.4197 13.2554 53.4976 16.3465 54.208 19.5316C54.6852 21.8227 54.592 22.799 53.8612 23.1358C52.9654 23.5494 51.7073 23.2835 50.1181 22.947C48.2343 22.5473 45.8884 22.0474 43.7551 22.6758C40.8309 23.5342 37.9644 25.4166 37.9362 25.4346C37.8111 25.5178 37.6642 25.5627 37.5138 25.5631ZM34.1061 17.1262C34.0433 17.9807 34.0446 19.9171 35.0747 21.5631C36.037 23.1049 36.9829 23.7126 37.4294 23.9325C38.3073 23.3877 40.7568 21.9525 43.324 21.1968C45.8284 20.4619 48.3827 21.0041 50.4353 21.4396C51.4143 21.6466 52.4214 21.8611 52.973 21.7969C53.0345 20.1021 50.9254 12.2165 47.881 8.06486C46.9187 6.75423 46.0075 6.04109 45.241 5.99997C44.9619 6.20043 44.4949 7.29389 44.152 8.09955C43.2663 10.1773 42.053 13.0234 39.5385 14.5062C36.9701 16.0211 34.9827 16.8165 34.1061 17.1262Z" fill="#182A34"/>
<mask id="mask1_297_1136" style="mask-type:luminance" maskUnits="userSpaceOnUse" x="33" y="5" width="21" height="20">
<path d="M33.4008 16.5595C33.4008 16.5595 32.8891 19.5149 34.4246 21.9793C35.9604 24.4438 37.5139 24.7985 37.5139 24.7985C37.5139 24.7985 40.4638 22.8466 43.5389 21.9434C47.5444 20.7677 51.9518 23.1742 53.5413 22.442C54.7545 21.8829 49.9709 5.32025 45.2078 5.23416C43.6387 5.2059 43.1204 11.5059 39.1495 13.8432C35.7608 15.84 33.4008 16.5595 33.4008 16.5595Z" fill="white"/>
</mask>
<g mask="url(#mask1_297_1136)">
<path d="M38.0156 13.1609C38.0156 13.1609 38.1935 16.6071 39.5232 19.3517C40.8529 22.0964 44.0676 23.8953 44.0676 23.8953L36.1973 26.9571L29.6002 17.1146L38.0156 13.1609Z" fill="#FEAF86"/>
<path d="M36.1985 27.728C36.072 27.7287 35.9476 27.6978 35.836 27.6384C35.7244 27.579 35.6291 27.4928 35.5585 27.3877L28.9602 17.5451C28.8983 17.4527 28.857 17.3479 28.8392 17.2379C28.8215 17.128 28.8276 17.0155 28.8573 16.9081C28.8869 16.8008 28.9394 16.7011 29.0112 16.6161C29.0827 16.5311 29.172 16.4627 29.2726 16.4156L37.688 12.4619C37.8021 12.4082 37.9276 12.3835 38.0533 12.3899C38.1792 12.3964 38.3015 12.4339 38.4095 12.499C38.5175 12.5641 38.6078 12.655 38.6726 12.7634C38.7373 12.8719 38.7745 12.9947 38.7808 13.1211C38.7808 13.1532 38.9678 16.449 40.2116 19.0138C41.4171 21.5014 44.4093 23.2051 44.4347 23.2218C44.5619 23.2932 44.6661 23.3996 44.7354 23.5283C44.8046 23.657 44.836 23.8027 44.8257 23.9487C44.8156 24.0946 44.7642 24.2345 44.6779 24.3523C44.5914 24.47 44.4733 24.5605 44.3375 24.6135L36.4722 27.6754C36.3848 27.7094 36.2922 27.7272 36.1985 27.728ZM30.7379 17.4307L36.4966 26.0154L42.4103 23.7154C41.2865 22.884 39.7086 21.4847 38.8385 19.6883C37.9183 17.7905 37.5242 15.6112 37.3617 14.3212L30.7379 17.4307Z" fill="#182A34"/>
</g>
<path d="M37.5138 25.5631C37.4566 25.5631 37.3995 25.5565 37.3437 25.5438C37.153 25.5001 35.4383 25.0414 33.7745 22.3828C32.0943 19.6986 32.6227 16.5531 32.6408 16.4195C32.6652 16.2787 32.7284 16.1476 32.8227 16.0407C32.9172 15.9339 33.0393 15.8555 33.1755 15.8143C33.1987 15.8143 35.5048 15.0973 38.7604 13.1763C40.84 11.9505 41.8932 9.47827 42.7404 7.49178C43.4903 5.73141 44.0341 4.45549 45.1924 4.45549H45.2204C47.14 4.49018 49.0877 6.46383 50.9957 10.3212C52.4197 13.2554 53.4976 16.3465 54.208 19.5316C54.6852 21.8227 54.592 22.799 53.8612 23.1358C52.9654 23.5494 51.7073 23.2835 50.1181 22.947C48.2343 22.5473 45.8884 22.0474 43.7551 22.6758C40.8309 23.5342 37.9644 25.4166 37.9362 25.4346C37.8111 25.5178 37.6642 25.5627 37.5138 25.5631ZM34.1061 17.1262C34.0433 17.9807 34.0446 19.9171 35.0747 21.5631C36.037 23.1049 36.9829 23.7126 37.4294 23.9325C38.3073 23.3877 40.7568 21.9525 43.324 21.1968C45.8284 20.4619 48.3827 21.0041 50.4353 21.4396C51.4143 21.6466 52.4214 21.8611 52.973 21.7969C53.0345 20.1021 50.9254 12.2165 47.881 8.06486C46.9187 6.75423 46.0075 6.04109 45.241 5.99997C44.9619 6.20043 44.4949 7.29389 44.152 8.09955C43.2663 10.1773 42.053 13.0234 39.5385 14.5062C36.9701 16.0211 34.9827 16.8165 34.1061 17.1262Z" fill="#182A34"/>
<path d="M53.5402 22.4386C55.2031 21.6269 54.6854 17.1165 52.3844 12.3644C50.0831 7.61233 46.8696 4.41807 45.2069 5.22985C43.544 6.04162 44.0616 10.552 46.3629 15.3041C48.664 20.0562 51.8774 23.2503 53.5402 22.4386Z" fill="#182A34"/>
<path d="M52.9627 23.3374C50.6196 23.3374 47.6429 19.7076 45.6684 15.6382C44.5166 13.2637 43.7589 10.8621 43.5311 8.87564C43.1998 5.98712 44.0739 4.92064 44.8659 4.53387C45.6581 4.1471 47.0339 4.11497 49.089 6.16058C50.5044 7.57401 51.9172 9.65046 53.0678 12.025C54.2183 14.3996 54.977 16.8011 55.2048 18.7876C55.5364 21.6749 54.661 22.7426 53.8688 23.1294C53.5865 23.267 53.2766 23.3381 52.9627 23.3374ZM45.7745 5.87403C45.6949 5.87162 45.6156 5.88746 45.5429 5.9203C45.1655 6.10404 44.8699 7.03562 45.0617 8.69833C45.2703 10.5178 45.9781 12.742 47.0543 14.9649C48.1305 17.1879 49.4358 19.1191 50.7322 20.4143C51.9172 21.5912 52.8284 21.933 53.2059 21.7493C53.5836 21.5656 53.8779 20.634 53.6871 18.9713C53.4785 17.1519 52.7709 14.9277 51.6945 12.7047C50.6183 10.4831 49.3118 8.55055 48.0166 7.26178C47.0286 6.28008 46.2314 5.87403 45.7745 5.87403Z" fill="#182A34"/>
<mask id="mask2_297_1136" style="mask-type:luminance" maskUnits="userSpaceOnUse" x="44" y="5" width="11" height="18">
<path d="M53.5416 22.4386C55.2044 21.6269 54.6867 17.1165 52.3856 12.3644C50.0844 7.61231 46.8709 4.41806 45.2082 5.22983C43.5454 6.0416 44.0629 10.552 46.3642 15.3041C48.6652 20.0562 51.8787 23.2503 53.5416 22.4386Z" fill="white"/>
</mask>
<g mask="url(#mask2_297_1136)">
<path d="M48.6078 18.0395C50.2019 17.2612 50.8223 15.2427 49.9932 13.5311C49.1644 11.8194 47.2002 11.0627 45.6061 11.841C44.012 12.6192 43.3916 14.6377 44.2204 16.3494C45.0492 18.061 47.0135 18.8177 48.6078 18.0395Z" fill="#DBF06D"/>
<path d="M47.2821 19.1165C46.7934 19.1152 46.3092 19.0233 45.8539 18.8454C44.8379 18.4418 44.0094 17.6707 43.5313 16.6842C43.0534 15.6977 42.9606 14.5673 43.2713 13.5155C43.4225 13.0028 43.6785 12.5274 44.0229 12.1196C44.3671 11.7118 44.7926 11.3806 45.2715 11.1471C45.7507 10.9137 46.2728 10.783 46.805 10.7636C47.3372 10.7442 47.8675 10.8364 48.3621 11.0343C49.3783 11.4377 50.2069 12.2088 50.6848 13.1954C51.1625 14.182 51.2549 15.3126 50.9433 16.3642C50.7918 16.8767 50.5358 17.3521 50.1915 17.7601C49.8475 18.1682 49.4229 18.5001 48.9444 18.7349C48.4265 18.9876 47.8579 19.1181 47.2821 19.1165ZM46.9353 12.3064C46.5911 12.3055 46.2515 12.3838 45.9423 12.5351C45.6534 12.6782 45.3976 12.8798 45.1905 13.1273C44.9835 13.3748 44.8299 13.6628 44.7393 13.9729C44.5433 14.6508 44.605 15.3776 44.9124 16.0124C45.2198 16.6472 45.7509 17.1449 46.4029 17.4089C46.7012 17.5307 47.0219 17.588 47.3438 17.5773C47.6656 17.5666 47.9819 17.4879 48.2715 17.3465C48.5612 17.205 48.8179 17.004 49.0252 16.7564C49.2324 16.5088 49.3854 16.2202 49.4743 15.9093C49.6804 15.2297 49.6189 14.4966 49.3027 13.8612C49.001 13.2221 48.4678 12.7226 47.812 12.4644C47.532 12.3577 47.2347 12.3032 46.9353 12.3038V12.3064Z" fill="#182A34"/>
</g>
<path d="M52.9627 23.3374C50.6196 23.3374 47.6429 19.7076 45.6684 15.6382C44.5166 13.2637 43.7589 10.8621 43.5311 8.87564C43.1998 5.98712 44.0739 4.92064 44.8659 4.53387C45.6581 4.1471 47.0339 4.11497 49.089 6.16058C50.5044 7.57401 51.9172 9.65046 53.0678 12.025C54.2183 14.3996 54.977 16.8011 55.2048 18.7876C55.5364 21.6749 54.661 22.7426 53.8688 23.1294C53.5865 23.267 53.2766 23.3381 52.9627 23.3374ZM45.7745 5.87403C45.6949 5.87162 45.6156 5.88746 45.5429 5.9203C45.1655 6.10404 44.8699 7.03562 45.0617 8.69833C45.2703 10.5178 45.9781 12.742 47.0543 14.9649C48.1305 17.1879 49.4358 19.1191 50.7322 20.4143C51.9172 21.5912 52.8284 21.933 53.2059 21.7493C53.5836 21.5656 53.8779 20.634 53.6871 18.9713C53.4785 17.1519 52.7709 14.9277 51.6945 12.7047C50.6183 10.4831 49.3118 8.55055 48.0166 7.26178C47.0286 6.28008 46.2314 5.87403 45.7745 5.87403Z" fill="#182A34"/>
<path d="M4.77213 54.3364C4.77213 54.3364 0.213745 60.5696 -0.697421 64.053C-1.63418 67.638 0.174075 69.3213 1.44356 68.9473C3.16864 68.4436 4.56483 66.8067 5.97251 62.7374C7.38022 58.668 9.95632 54.979 9.95632 54.979C9.95632 54.979 9.21407 62.4714 9.78483 65.1143C10.3556 67.7575 11.9463 71.5482 14.3535 71.385C16.7606 71.2218 16.2731 66.6847 15.9493 64.8317C15.6255 62.979 17.755 55.3233 19.3354 54.6218C20.9159 53.9202 23.9987 55.9761 25.6688 57.7312C27.339 59.4865 28.3562 59.7228 29.7486 65.2596C31.0705 70.5086 34.284 70.8646 35.6815 68.6326C37.079 66.4006 35.9872 61.8997 34.3236 58.979C32.66 56.0583 28.428 53.0914 29.1419 51.421C29.4158 50.7784 31.5863 50.4227 34.5476 52.2638C37.8992 54.3468 29.3122 43.4917 29.3122 43.4917L12.6693 44.1072L4.77213 54.3364Z" fill="#182A34"/>
<path d="M14.205 72.161C11.4996 72.161 9.73747 68.4899 9.04128 65.279C8.69576 63.6844 8.79686 60.5246 8.94659 58.1026C8.06056 59.6626 7.31 61.2962 6.70322 62.9853C5.29553 67.0599 3.788 69.063 1.66494 69.6823C0.897102 69.906 0.0524809 69.6618 -0.593783 69.0283C-1.11975 68.5144 -2.25104 66.9828 -1.43328 63.8526C-0.496522 60.2678 3.97101 54.1385 4.16042 53.879L4.17193 53.8635L12.0666 43.6293C12.1354 43.5401 12.2229 43.4671 12.3228 43.4156C12.4228 43.3642 12.5327 43.3352 12.645 43.331L29.2905 42.7129C29.4107 42.7087 29.5305 42.7328 29.64 42.7833C29.7493 42.834 29.8453 42.9099 29.92 43.0046C29.9366 43.0251 31.5926 45.1197 33.1514 47.272C34.0754 48.5441 34.7869 49.5913 35.268 50.3827C36.0358 51.6445 36.3571 52.4386 35.8644 52.9899C35.3 53.6259 34.4349 53.0888 34.1495 52.9115C31.7987 51.4506 30.1914 51.5918 29.8343 51.7833C29.7358 52.3809 31.1703 53.9432 32.1314 54.9957C33.1897 56.1522 34.2853 57.3433 34.9966 58.5934C36.8164 61.7891 37.9042 66.5357 36.3379 69.0399C35.5764 70.2554 34.3697 70.862 33.1091 70.6614C31.265 70.3685 29.7716 68.4681 29.0141 65.446C27.8853 60.9615 27.0817 60.1777 25.8646 59.0008C25.6303 58.7733 25.3886 58.5383 25.1236 58.2607C23.2808 56.3255 20.6241 54.898 19.6553 55.3246C19.3418 55.4724 18.5241 56.7495 17.6654 59.543C16.927 61.9407 16.6032 64.0467 16.7158 64.6981C17.0217 66.4702 17.3557 69.6772 16.131 71.2423C15.9269 71.5091 15.668 71.7287 15.3719 71.8862C15.0758 72.0435 14.7494 72.1352 14.4149 72.1546C14.333 72.1584 14.2664 72.161 14.205 72.161ZM9.95629 54.2079C10.0475 54.2079 10.1381 54.2239 10.2238 54.2554C10.3829 54.3148 10.5179 54.4256 10.6077 54.5702C10.6976 54.7148 10.7372 54.8851 10.7203 55.0547C10.7203 55.1293 9.99469 62.4547 10.536 64.9486C11.1644 67.8475 12.6591 70.731 14.301 70.6126C14.4208 70.6086 14.5381 70.5771 14.6441 70.5209C14.75 70.4644 14.8419 70.3847 14.9127 70.2875C15.5103 69.5232 15.6204 67.4311 15.1917 64.959C14.9895 63.7871 15.55 61.1505 16.195 59.0587C16.8348 57.0028 17.8381 54.4328 19.0283 53.9098C21.1181 52.9899 24.5503 55.4352 26.2242 57.1928C26.4674 57.4499 26.6977 57.6722 26.9217 57.8893C28.2269 59.1551 29.257 60.156 30.4935 65.0657C31.0872 67.426 32.1571 68.9473 33.3421 69.1363C33.9819 69.2391 34.6013 68.9038 35.0314 68.2177C36.2189 66.3197 35.2425 62.1398 33.6568 59.3517C33.0324 58.2529 31.9933 57.1247 30.9949 56.0338C29.2878 54.1719 27.8137 52.5646 28.4356 51.1075C28.5495 50.8401 28.8196 50.4766 29.4747 50.2709C30.3705 49.9857 31.9267 50.0601 33.8257 50.9765C32.7918 49.3343 30.8236 46.6474 28.9526 44.2666L13.0532 44.8639L5.3864 54.8042C5.20722 55.0496 0.895822 61.0015 0.0460824 64.2498C-0.584823 66.6615 0.211167 67.6752 0.470952 67.9297C0.730737 68.1843 1.00076 68.2741 1.22983 68.2073C2.35088 67.8797 3.71122 66.9443 5.2469 62.4841C6.67124 58.3596 9.22046 54.6924 9.32795 54.5383C9.39852 54.4366 9.49248 54.3533 9.60187 54.2958C9.71126 54.2383 9.83284 54.2083 9.95629 54.2079Z" fill="#182A34"/>
<path d="M14.205 72.161C11.4996 72.161 9.73747 68.4899 9.04128 65.279C8.69576 63.6844 8.79686 60.5246 8.94659 58.1026C8.06056 59.6626 7.31 61.2962 6.70322 62.9853C5.29553 67.0599 3.788 69.063 1.66494 69.6823C0.897102 69.906 0.0524809 69.6618 -0.593783 69.0283C-1.11975 68.5144 -2.25104 66.9828 -1.43328 63.8526C-0.496522 60.2678 3.97101 54.1385 4.16042 53.879L4.17193 53.8635L12.0666 43.6293C12.1354 43.5401 12.2229 43.4671 12.3228 43.4156C12.4228 43.3642 12.5327 43.3352 12.645 43.331L29.2905 42.7129C29.4107 42.7087 29.5305 42.7328 29.64 42.7833C29.7493 42.834 29.8453 42.9099 29.92 43.0046C29.9366 43.0251 31.5926 45.1197 33.1514 47.272C34.0754 48.5441 34.7869 49.5913 35.268 50.3827C36.0358 51.6445 36.3571 52.4386 35.8644 52.9899C35.3 53.6259 34.4349 53.0888 34.1495 52.9115C31.7987 51.4506 30.1914 51.5918 29.8343 51.7833C29.7358 52.3809 31.1703 53.9432 32.1314 54.9957C33.1897 56.1522 34.2853 57.3433 34.9966 58.5934C36.8164 61.7891 37.9042 66.5357 36.3379 69.0399C35.5764 70.2554 34.3697 70.862 33.1091 70.6614C31.265 70.3685 29.7716 68.4681 29.0141 65.446C27.8853 60.9615 27.0817 60.1777 25.8646 59.0008C25.6303 58.7733 25.3886 58.5383 25.1236 58.2607C23.2808 56.3255 20.6241 54.898 19.6553 55.3246C19.3418 55.4724 18.5241 56.7495 17.6654 59.543C16.927 61.9407 16.6032 64.0467 16.7158 64.6981C17.0217 66.4702 17.3557 69.6772 16.131 71.2423C15.9269 71.5091 15.668 71.7287 15.3719 71.8862C15.0758 72.0435 14.7494 72.1352 14.4149 72.1546C14.333 72.1584 14.2664 72.161 14.205 72.161ZM9.95629 54.2079C10.0475 54.2079 10.1381 54.2239 10.2238 54.2554C10.3829 54.3148 10.5179 54.4256 10.6077 54.5702C10.6976 54.7148 10.7372 54.8851 10.7203 55.0547C10.7203 55.1293 9.99469 62.4547 10.536 64.9486C11.1644 67.8475 12.6591 70.731 14.301 70.6126C14.4208 70.6086 14.5381 70.5771 14.6441 70.5209C14.75 70.4644 14.8419 70.3847 14.9127 70.2875C15.5103 69.5232 15.6204 67.4311 15.1917 64.959C14.9895 63.7871 15.55 61.1505 16.195 59.0587C16.8348 57.0028 17.8381 54.4328 19.0283 53.9098C21.1181 52.9899 24.5503 55.4352 26.2242 57.1928C26.4674 57.4499 26.6977 57.6722 26.9217 57.8893C28.2269 59.1551 29.257 60.156 30.4935 65.0657C31.0872 67.426 32.1571 68.9473 33.3421 69.1363C33.9819 69.2391 34.6013 68.9038 35.0314 68.2177C36.2189 66.3197 35.2425 62.1398 33.6568 59.3517C33.0324 58.2529 31.9933 57.1247 30.9949 56.0338C29.2878 54.1719 27.8137 52.5646 28.4356 51.1075C28.5495 50.8401 28.8196 50.4766 29.4747 50.2709C30.3705 49.9857 31.9267 50.0601 33.8257 50.9765C32.7918 49.3343 30.8236 46.6474 28.9526 44.2666L13.0532 44.8639L5.3864 54.8042C5.20722 55.0496 0.895822 61.0015 0.0460824 64.2498C-0.584823 66.6615 0.211167 67.6752 0.470952 67.9297C0.730737 68.1843 1.00076 68.2741 1.22983 68.2073C2.35088 67.8797 3.71122 66.9443 5.2469 62.4841C6.67124 58.3596 9.22046 54.6924 9.32795 54.5383C9.39852 54.4366 9.49248 54.3533 9.60187 54.2958C9.71126 54.2383 9.83284 54.2083 9.95629 54.2079Z" fill="#182A34"/>
<path d="M29.796 24.2614L29.2444 21.4191C28.6059 18.1232 26.6899 15.2167 23.9177 13.3389C21.1452 11.4611 17.7438 10.7657 14.461 11.4057C12.8343 11.7222 11.2857 12.3574 9.90362 13.275C8.52154 14.1926 7.33306 15.3746 6.40609 16.7535C5.47912 18.1325 4.83181 19.6813 4.50118 21.3113C4.17053 22.9417 4.16301 24.6212 4.47906 26.2543L5.04215 29.1621C5.04215 29.1621 2.50188 30.6796 3.25053 34.551C3.89038 37.8469 6.79409 38.2132 6.79409 38.2132L7.36485 41.1686C7.81019 43.4686 7.03725 46.5575 5.7268 47.9787C4.44708 49.3613 -0.506754 52.6236 -2.49545 53.6849C-4.48414 54.7463 -8.17233 56.9527 -9.05277 59.3284C-9.93324 61.7043 -9.25625 63.818 -7.98421 64.0608C-6.08509 64.4244 -3.88907 60.936 -1.3053 59.5121C0.587413 58.4727 6.31803 55.5455 7.98169 54.2709C11.3243 51.7115 13.0929 46.6628 15.5794 46.9108C18.0659 47.1589 17.7038 49.0671 17.3557 50.7271C17.0076 52.3873 13.7724 58.6501 15.4834 64.9899C17.1944 71.3296 20.8481 73.7967 23.2539 73.6335C25.6598 73.4703 26.6055 71.3797 26.2345 69.798C25.8633 68.2164 20.395 64.5119 20.3682 60.5992C20.3413 56.6866 21.5109 53.2751 22.7996 50.8196C24.0884 48.3642 24.6987 46.7169 26.42 46.808C28.1412 46.8993 30.8299 50.7913 32.537 52.0442C34.2442 53.297 38.4328 56.5826 40.2078 58.1952C41.9827 59.8078 44.1749 63.5429 46.5181 63.3901C48.8612 63.2373 49.2337 60.4115 48.9842 58.808C48.7345 57.2044 47.5278 54.4394 44.8507 52.5747C42.1735 50.7104 38.557 48.4966 36.5324 46.7926C38.2537 47.498 41.3878 48.7959 45.7861 48.1765C51.152 47.4223 53.4863 42.2287 53.3276 36.4503C53.1996 31.9299 46.2673 25.4191 40.5175 26.7798C37.2644 27.5509 38.8307 31.9195 40.36 32.8268C44.0227 34.9905 45.9678 38.7053 44.1507 41.6748C42.6149 44.1882 40.7735 44.5016 37.2888 42.7888C33.7196 41.0375 32.4257 37.8006 31.805 34.6166C31.5735 33.4421 31.5492 33.2997 31.5492 33.2997C31.5492 33.2997 34.033 31.0907 33.4431 28.4825C32.9006 26.0924 29.796 24.2614 29.796 24.2614Z" fill="#007AA1"/>
<path d="M11.4957 18.7786C10.9403 18.4831 9.96003 18.1901 8.8198 19.2091C7.67956 20.228 7.95598 22.776 9.23828 23.2592C10.5206 23.7422 11.7312 22.4367 12.1176 21.5965C12.5041 20.7561 12.4299 19.2785 11.4957 18.7786Z" fill="#00B1CD"/>
<path d="M13.7609 15.3684C13.4832 15.2207 12.993 15.0742 12.4236 15.5843C11.8541 16.0944 11.991 17.3665 12.6321 17.6093C13.2733 17.8522 13.8786 17.1969 14.0718 16.7767C14.2651 16.3565 14.228 15.6177 13.7609 15.3684Z" fill="#00B1CD"/>
<path d="M-6.78259 63.845C-6.78259 63.845 -6.32701 59.5045 -2.82824 57.108C0.670533 54.7116 5.03313 53.9511 7.93427 52.2241C9.86991 51.0591 11.6664 49.6759 13.2886 48.1006C13.7122 47.687 9.1193 53.4628 6.74029 54.8748C4.36126 56.287 -0.710294 58.9006 -2.10008 59.9065C-3.48986 60.9127 -6.78259 63.845 -6.78259 63.845Z" fill="#00B1CD"/>
<path d="M24.3455 48.0057C24.3455 48.0057 19.6861 51.1536 18.2438 55.7499C16.8016 60.346 17.9879 63.6497 19.3162 66.0087C20.6446 68.3679 25.0009 71.5095 25.9261 71.0996C26.8512 70.6898 26.5543 68.9152 25.1173 67.6304C23.68 66.3454 20.7316 63.4017 20.5282 60.4566C20.3247 57.5116 21.168 51.8514 24.3455 48.0057Z" fill="#00B1CD"/>
<path d="M29.0345 48.5325C29.0345 48.5325 32.9452 50.6757 36.7128 51.457C40.4804 52.2382 43.805 55.2591 44.8532 56.891C45.9012 58.5228 48.3084 62.9519 47.4126 63.1715C46.5168 63.3914 44.3412 62.8593 42.716 60.9873C41.0907 59.1151 39.1084 57.4665 36.8907 55.696C34.673 53.9253 29.7421 50.3994 29.0345 48.5325Z" fill="#00B1CD"/>
<path d="M43.2741 46.2863C43.2741 46.2863 46.8675 45.2829 48.4734 42.7336C51.5743 37.8135 50.2113 33.7262 48.1625 31.0677C47.0288 29.599 43.1907 27.1191 41.9073 29.1879C40.6238 31.2566 42.6686 32.4002 44.2299 34.0217C45.5532 35.3928 47.3781 37.3626 46.8214 40.219C46.3709 42.5318 44.9671 44.828 43.2741 46.2863Z" fill="#00B1CD"/>
<path d="M5.04723 29.9332C4.86911 29.9332 4.6965 29.871 4.55898 29.7573C4.42149 29.6436 4.32761 29.4855 4.29347 29.3098L3.73039 26.4008C3.05311 22.9033 3.78732 19.279 5.77147 16.325C7.75563 13.3711 10.8272 11.3296 14.3105 10.6495C17.7939 9.96948 21.4035 10.7067 24.3456 12.6989C27.2875 14.6911 29.3208 17.7752 29.9981 21.2727L30.5496 24.1149C30.5886 24.3157 30.5463 24.5237 30.4326 24.6932C30.3187 24.8628 30.1423 24.9799 29.9425 25.019C29.7425 25.0579 29.5353 25.0156 29.3665 24.9012C29.1976 24.7869 29.081 24.61 29.0421 24.4091L28.4919 21.5707C27.8612 18.5056 26.0526 15.8135 23.4583 14.0784C20.8638 12.3433 17.6928 11.7049 14.6327 12.3018C11.5727 12.8987 8.87033 14.6826 7.11163 17.2669C5.35294 19.8511 4.67972 23.0273 5.23791 26.1065L5.801 29.0156C5.83856 29.2155 5.79589 29.4223 5.68226 29.591C5.56862 29.7594 5.39325 29.8759 5.19439 29.915C5.14608 29.9262 5.09677 29.9321 5.04723 29.9332Z" fill="#182A34"/>
<path d="M23.0351 74.4031C20.1954 74.4031 16.4842 71.5763 14.754 65.1826C13.3092 59.8719 15.1571 54.722 16.1489 51.9607C16.3264 51.502 16.4805 51.0344 16.6109 50.5601C16.7811 49.7505 17.014 48.643 16.6467 48.138C16.4624 47.881 16.0798 47.7282 15.5103 47.6703C14.5108 47.5726 13.3795 49.0992 12.183 50.7169C11.14 52.1302 9.95755 53.7249 8.45387 54.8761C7.12423 55.8951 3.52181 57.8058 0.895796 59.2052C0.149714 59.6009 -0.493988 59.9427 -0.926538 60.1815C-1.89145 60.7123 -2.82565 61.5809 -3.72914 62.4226C-5.20851 63.7987 -6.60853 65.0991 -8.11862 64.8112C-8.76744 64.6827 -9.33051 64.2511 -9.70419 63.5854C-10.3594 62.4161 -10.3812 60.7212 -9.76177 59.0521C-8.86596 56.6109 -5.50285 54.4148 -2.85125 52.9962C-0.803682 51.904 4.02216 48.6879 5.16882 47.4466C6.31545 46.2054 7.0065 43.3209 6.61619 41.3085L6.04543 38.3597C6.01886 38.1646 6.06766 37.9666 6.18183 37.8065C6.29602 37.6463 6.4669 37.5362 6.65943 37.4986C6.85195 37.4609 7.05153 37.4986 7.2172 37.604C7.38288 37.7095 7.50208 37.8746 7.55037 38.0655L8.12113 41.0143C8.60743 43.5213 7.78713 46.8774 6.29242 48.4953C4.93463 49.9678 -0.127987 53.2867 -2.12819 54.3584C-5.55276 56.1856 -7.75899 58.0434 -8.32721 59.5893C-8.87365 61.063 -8.69192 62.2554 -8.36944 62.8287C-8.26577 63.0149 -8.0879 63.2474 -7.83451 63.2963C-7.08586 63.4389 -5.91491 62.3467 -4.77725 61.2917C-3.80464 60.3923 -2.80007 59.4506 -1.66878 58.8285C-1.22599 58.5858 -0.577171 58.2415 0.174029 57.8418C2.60551 56.5479 6.29368 54.5922 7.52351 53.6503C8.85442 52.6314 9.96778 51.1255 10.9506 49.7955C12.4773 47.7307 13.7967 45.9407 15.6626 46.1335C16.6864 46.2362 17.4324 46.6038 17.8855 47.2257C18.6533 48.2845 18.3551 49.7224 18.1133 50.8761C17.9717 51.4206 17.7982 51.956 17.5937 52.4798C16.6595 55.0855 14.9203 59.9323 16.2308 64.7753C17.8944 70.943 21.3202 72.9807 23.2092 72.8522C24.0217 72.797 24.6705 72.4669 25.0865 71.9052C25.285 71.6306 25.4238 71.3169 25.4934 70.9849C25.5629 70.6528 25.5623 70.3097 25.4909 69.9778C25.4065 69.6155 24.5273 68.6751 23.8208 67.9219C22.0497 66.0267 19.6233 63.4324 19.6041 60.6109C19.5747 56.242 20.9606 52.684 22.1278 50.4599C22.2852 50.1618 22.4311 49.8752 22.5718 49.6027C23.6212 47.5468 24.4518 45.9357 26.4596 46.0397C27.8673 46.1143 29.3608 47.7178 30.9387 49.414C31.7065 50.235 32.4244 51.0099 32.9863 51.4248C34.6806 52.6661 38.9038 55.9723 40.7236 57.6234C41.324 58.2022 41.889 58.8171 42.4153 59.4645C43.6798 60.9474 45.109 62.6243 46.3825 62.6243H46.4745C46.7019 62.6173 46.925 62.5604 47.128 62.4573C47.3311 62.3543 47.509 62.2079 47.6494 62.028C48.261 61.2571 48.3789 59.8848 48.2303 58.9302C48.032 57.6528 47.0057 55.0124 44.4181 53.2108C43.5377 52.598 42.5726 51.9594 41.5516 51.2834C39.5257 49.942 37.432 48.5543 36.0486 47.3864C35.9082 47.2682 35.8145 47.1035 35.7844 46.922C35.7543 46.7406 35.7899 46.5544 35.8846 46.3969C35.9793 46.2394 36.1269 46.1213 36.3008 46.0633C36.4749 46.0056 36.6636 46.0124 36.833 46.0821C36.9829 46.1424 37.1402 46.2107 37.3067 46.28C39.0139 47.0008 41.5937 48.0905 45.3867 47.4737C47.1452 47.187 48.9048 45.9319 50.2166 44.0184C51.9006 41.5643 52.5802 38.5126 52.0349 35.854C51.4899 33.1954 48.9164 29.897 46.06 28.2242C44.8059 27.4892 42.9297 26.7375 41.1073 27.3247C39.9928 27.6845 39.3556 28.2447 39.2122 28.9887C38.9985 30.1053 39.8814 31.6099 40.8566 32.4207C41.1791 32.6879 41.5374 32.9579 41.9162 33.243C44.1455 34.9136 47.1989 37.2149 45.1027 41.5334C44.4269 42.9262 43.4749 43.8464 42.2745 44.2575C40.8168 44.7612 39.0265 44.5004 36.9547 43.4866C32.8019 41.4499 31.5977 37.5372 31.0539 34.7709C30.8273 33.6144 30.7979 33.4487 30.7979 33.4332C30.7789 33.3326 30.7804 33.2291 30.8017 33.1289C30.8231 33.0287 30.8642 32.9338 30.9225 32.8496C30.9808 32.7657 31.0551 32.694 31.1414 32.6393C31.2276 32.5843 31.3238 32.5473 31.4244 32.5302C31.525 32.5131 31.6282 32.5165 31.7276 32.5397C31.8269 32.5632 31.9206 32.6061 32.0031 32.6664C32.0859 32.7264 32.1556 32.8025 32.2086 32.89C32.2617 32.9777 32.2968 33.075 32.3118 33.1762C32.3118 33.1762 32.3438 33.3561 32.5678 34.4728C33.3421 38.4086 34.9059 40.7625 37.6368 42.1014C39.3299 42.9315 40.7236 43.1678 41.7819 42.8017C42.5945 42.5216 43.2318 41.8856 43.7297 40.8614C45.1629 37.9061 43.581 36.4169 41.0038 34.4792C40.6097 34.1837 40.236 33.9023 39.8865 33.6119C38.5916 32.5376 37.3591 30.5422 37.7109 28.6996C37.8876 27.7796 38.5389 26.5397 40.6442 25.8599C42.5139 25.2559 44.6562 25.6132 46.8393 26.8878C50.0861 28.7909 52.9065 32.4283 53.545 35.538C54.1747 38.6011 53.4044 42.091 51.4873 44.8897C49.917 47.1769 47.84 48.634 45.6377 48.9912C44.0774 49.2546 42.485 49.2596 40.9231 49.0066C41.412 49.3355 41.9111 49.6657 42.405 49.9934C43.388 50.6448 44.4052 51.3181 45.301 51.9414C48.1164 53.9035 49.4614 56.8022 49.7558 58.6886C49.9465 59.9144 49.8248 61.7724 48.86 62.9904C48.5861 63.3371 48.2412 63.6207 47.849 63.8224C47.4568 64.024 47.0261 64.139 46.5859 64.1598C46.5219 64.1598 46.4579 64.1598 46.3926 64.1598C44.4193 64.1598 42.748 62.1977 41.2673 60.4604C40.7823 59.8638 40.2625 59.2961 39.7111 58.7604C37.9286 57.1414 33.7707 53.8906 32.1006 52.6597C31.4225 52.1598 30.6532 51.3348 29.8393 50.4599C28.7196 49.2584 27.1865 47.6138 26.397 47.5713C25.4602 47.5212 25.0316 48.197 23.9551 50.3005C23.8132 50.578 23.6633 50.8697 23.5036 51.1731C22.3951 53.2417 21.1156 56.5492 21.1398 60.5942C21.1551 62.8105 23.3423 65.1518 24.9406 66.8606C26.0246 68.0171 26.809 68.8588 26.9882 69.6234C27.1116 70.1736 27.116 70.7441 27.0012 71.2962C26.8865 71.8484 26.6551 72.3694 26.3227 72.8241C25.6406 73.7504 24.572 74.3082 23.3141 74.3942C23.2193 74.3993 23.1246 74.4031 23.0351 74.4031Z" fill="#182A34"/>
<path d="M7.00647 38.172C6.65567 38.2101 6.30095 38.1862 5.95837 38.1014C5.60584 38.0186 5.26586 37.889 4.9474 37.7159C4.29335 37.3548 3.73512 36.8416 3.31959 36.2191C2.90323 35.602 2.60228 34.914 2.43144 34.1887C2.38384 34.0042 2.34624 33.8171 2.31883 33.6286C2.291 33.4322 2.27603 33.2343 2.27403 33.0363C2.27003 32.6361 2.31952 32.237 2.42121 31.8502C2.52224 31.467 2.67237 31.0985 2.86784 30.7542C2.9622 30.5857 3.06514 30.4223 3.17624 30.2646C3.28887 30.1103 3.40788 29.9613 3.53201 29.8214C4.02077 29.2783 4.58961 28.8137 5.2187 28.4438C5.82169 28.0882 6.46148 27.7995 7.12676 27.583C7.77952 27.3634 8.45626 27.2235 9.14234 27.1666C8.55367 27.5188 7.99058 27.8695 7.44285 28.2383C6.90571 28.5973 6.39037 28.9883 5.8995 29.4088C4.94483 30.226 4.1578 31.1846 3.90569 32.2358C3.84123 32.4981 3.80731 32.7672 3.8046 33.0375C3.80295 33.1743 3.80893 33.3111 3.82251 33.4474C3.83573 33.5909 3.85666 33.7338 3.88521 33.8753C3.93792 34.1708 4.00801 34.4631 4.09508 34.7504C4.13605 34.8954 4.18468 35.0355 4.23458 35.1769C4.28449 35.3181 4.34335 35.4532 4.40607 35.5881C4.9235 36.7435 5.85036 37.6645 7.00647 38.172Z" fill="#182A34"/>
<path d="M6.78249 38.9045H6.70954C6.56879 38.8903 3.23893 38.5254 2.35847 34C2.33923 33.9004 2.33967 33.7983 2.35978 33.6992C2.37988 33.5998 2.41925 33.5055 2.47563 33.4216C2.53203 33.3377 2.60432 33.2658 2.68841 33.2098C2.77249 33.154 2.86672 33.1153 2.96571 33.0959C3.06468 33.0766 3.16649 33.0771 3.26531 33.0971C3.36411 33.1174 3.45801 33.157 3.54161 33.2136C3.62521 33.2703 3.69689 33.3428 3.75253 33.4271C3.8082 33.5117 3.84674 33.6062 3.86599 33.7057C4.51481 37.058 6.76074 37.3586 6.85672 37.3702C7.05904 37.3893 7.24565 37.4878 7.37565 37.6446C7.50567 37.8015 7.56847 38.0035 7.55032 38.2067C7.53213 38.3982 7.44327 38.576 7.30119 38.7051C7.15912 38.8343 6.97411 38.9053 6.78249 38.9045Z" fill="#182A34"/>
<path d="M9.02338 36.3681C10.8949 36.3681 12.4121 34.8446 12.4121 32.9655C12.4121 31.0863 10.8949 29.5631 9.02338 29.5631C7.15184 29.5631 5.63464 31.0863 5.63464 32.9655C5.63464 34.8446 7.15184 36.3681 9.02338 36.3681Z" fill="#DEFBFF"/>
<path d="M9.02209 37.1403C8.09443 37.1403 7.19342 36.8289 6.46236 36.2554C5.73133 35.6819 5.21226 34.8795 4.98775 33.9759C4.76323 33.0722 4.84617 32.1189 5.22337 31.2681C5.6006 30.417 6.25039 29.7172 7.06938 29.2798C7.88839 28.8425 8.82956 28.6926 9.74316 28.8541C10.6568 29.0156 11.4903 29.4793 12.1112 30.1714C12.7321 30.8635 13.1046 31.7441 13.1696 32.6731C13.2346 33.6024 12.9882 34.5265 12.4697 35.2989C12.0881 35.8648 11.5744 36.3283 10.9735 36.6492C10.3727 36.9703 9.70272 37.1388 9.02209 37.1403ZM9.02209 30.3302C8.48205 30.3289 7.95483 30.4955 7.51253 30.8066C7.07026 31.1178 6.73451 31.5585 6.55123 32.0686C6.36794 32.5786 6.34607 33.1331 6.4886 33.656C6.6311 34.1792 6.93106 34.6451 7.34744 34.9905C7.76382 35.3359 8.27628 35.5437 8.81472 35.5853C9.35318 35.6272 9.89133 35.5008 10.3556 35.2239C10.8198 34.9467 11.1875 34.5324 11.4083 34.0376C11.6292 33.5427 11.6923 32.9915 11.5892 32.4592C11.4729 31.8623 11.1542 31.3243 10.6873 30.9368C10.2204 30.5494 9.63424 30.3363 9.02849 30.334L9.02209 30.3302Z" fill="#182A34"/>
<path d="M9.02332 34.5204C9.87852 34.5204 10.5718 33.8241 10.5718 32.9655C10.5718 32.1068 9.87852 31.4107 9.02332 31.4107C8.16812 31.4107 7.47485 32.1068 7.47485 32.9655C7.47485 33.8241 8.16812 34.5204 9.02332 34.5204Z" fill="#182A34"/>
<path d="M31.3648 33.4165C32.2477 32.5106 32.764 31.3076 32.8134 30.041C32.8134 29.892 32.8134 29.7429 32.8134 29.5952C32.8134 29.4474 32.7993 29.2971 32.7827 29.1479C32.7562 28.8456 32.7107 28.5452 32.6471 28.2485C32.6214 28.1066 32.5875 27.9665 32.5461 27.8285C32.5071 27.6976 32.4614 27.5689 32.409 27.4429C32.3054 27.1937 32.1741 26.9569 32.0174 26.7375C31.3905 25.8573 30.3027 25.265 29.1126 24.8666C28.501 24.6628 27.8778 24.4954 27.2467 24.3654C26.6069 24.2292 25.9477 24.1162 25.2707 24.0122C25.928 23.8056 26.608 23.6805 27.2953 23.6395C27.9928 23.5892 28.6934 23.616 29.385 23.7192C30.1067 23.8247 30.8075 24.0415 31.4633 24.3616C31.6311 24.4451 31.7962 24.5389 31.9587 24.6391C32.1212 24.7393 32.276 24.8537 32.4271 24.9771C33.0536 25.472 33.5374 26.1258 33.8284 26.8711C33.9 27.0554 33.9593 27.2442 34.0063 27.4366C34.0522 27.6217 34.0873 27.8096 34.1111 27.9992C34.224 28.7355 34.2027 29.4859 34.0484 30.2145C33.8953 30.948 33.5692 31.6342 33.0976 32.2151C32.8667 32.4947 32.6 32.7422 32.3042 32.9513C32.0208 33.1606 31.7027 33.318 31.3648 33.4165Z" fill="#182A34"/>
<path d="M31.5556 34.0693C31.3854 34.0676 31.2208 34.0093 31.0873 33.9036C30.9537 33.7979 30.8589 33.6506 30.8179 33.4848C30.7768 33.3191 30.7916 33.1445 30.86 32.9883C30.9284 32.8319 31.0465 32.7027 31.196 32.6211C31.2932 32.5672 33.2436 31.4391 32.6036 28.0994C32.5648 27.8988 32.6069 27.6908 32.7208 27.5213C32.8347 27.3518 33.0109 27.2347 33.2109 27.1956C33.4107 27.1565 33.6179 27.1988 33.7867 27.3131C33.9556 27.4275 34.0722 27.6046 34.1111 27.8052C34.9878 32.3307 32.0379 33.9215 31.9113 33.9871C31.801 34.0431 31.6789 34.0714 31.5556 34.0693Z" fill="#182A34"/>
<path d="M27.5501 32.7509C29.4215 32.7509 30.9387 31.2275 30.9387 29.3485C30.9387 27.4693 29.4215 25.9459 27.5501 25.9459C25.6785 25.9459 24.1613 27.4693 24.1613 29.3485C24.1613 31.2275 25.6785 32.7509 27.5501 32.7509Z" fill="#DEFBFF"/>
<path d="M27.5498 33.5206C26.5856 33.5191 25.6519 33.1815 24.9077 32.5657C24.1637 31.95 23.6557 31.0939 23.4703 30.1437C23.3071 29.3003 23.4073 28.4269 23.7572 27.6426C24.1071 26.8584 24.6894 26.2019 25.425 25.7626C26.1606 25.3234 27.0132 25.1228 27.8665 25.1885C28.7197 25.254 29.5319 25.5825 30.1924 26.1292C30.8526 26.6756 31.3288 27.4135 31.5557 28.2421C31.7827 29.0705 31.7494 29.9493 31.4602 30.758C31.1711 31.5667 30.6404 32.266 29.9404 32.7606C29.2406 33.2551 28.4056 33.5206 27.5498 33.5206ZM24.9776 29.8495C25.0762 30.361 25.3235 30.8316 25.6884 31.2019C26.0532 31.572 26.5193 31.8253 27.0275 31.9295C27.5359 32.0337 28.0635 31.9842 28.5437 31.7872C29.0242 31.5902 29.4353 31.2547 29.7256 30.8229C30.0157 30.3912 30.1719 29.8827 30.1743 29.3618C30.1768 28.841 30.025 28.3311 29.7387 27.8967C29.4524 27.4623 29.0442 27.1231 28.5656 26.9218C28.0873 26.7204 27.5602 26.6661 27.0509 26.7656C26.3692 26.8996 25.7684 27.2996 25.3797 27.8775C24.9911 28.4556 24.8465 29.1648 24.9776 29.8495Z" fill="#182A34"/>
<path d="M27.5501 30.9032C28.4053 30.9032 29.0985 30.2071 29.0985 29.3485C29.0985 28.4899 28.4053 27.7936 27.5501 27.7936C26.6947 27.7936 26.0015 28.4899 26.0015 29.3485C26.0015 30.2071 26.6947 30.9032 27.5501 30.9032Z" fill="#182A34"/>
<path d="M19.178 37.4074C18.1824 37.4074 17.1202 36.968 16.5929 35.7128C16.5195 35.5255 16.5219 35.3169 16.5996 35.1315C16.6772 34.9461 16.8239 34.7984 17.0085 34.7201C17.193 34.6419 17.4007 34.639 17.5873 34.7123C17.7738 34.7857 17.9245 34.9294 18.007 35.1127C18.3513 35.9312 19.1229 35.9132 19.5529 35.8284C20.2862 35.6857 20.6573 35.2733 20.72 34.5305C20.737 34.3261 20.8342 34.1367 20.9902 34.0042C21.1461 33.8717 21.3482 33.8068 21.552 33.8239C21.7556 33.841 21.944 33.9385 22.076 34.0951C22.208 34.2517 22.2726 34.4547 22.2558 34.6591C22.1353 36.0893 21.2587 37.0656 19.8511 37.3407C19.6294 37.3848 19.404 37.4072 19.178 37.4074Z" fill="#182A34"/>
</g>
<path d="M37.5139 25.5631C37.4566 25.5631 37.3996 25.5565 37.3438 25.5438C37.1531 25.5001 35.4381 25.0414 33.7745 22.3828C32.0943 19.6986 32.6227 16.5531 32.6406 16.4195C32.6653 16.2788 32.7282 16.1476 32.8227 16.0408C32.9173 15.9339 33.0394 15.8555 33.1756 15.8143C33.1987 15.8143 35.5048 15.0973 38.7604 13.1763C40.84 11.9505 41.8931 9.47831 42.7404 7.49181C43.4903 5.73146 44.0341 4.45551 45.1922 4.45551H45.2204C47.14 4.4902 49.0878 6.46385 50.9958 10.3212C52.4198 13.2555 53.4977 16.3465 54.208 19.5316C54.6853 21.8227 54.5918 22.7993 53.8611 23.1358C52.9653 23.5497 51.7074 23.2835 50.1179 22.947C48.2341 22.5473 45.8884 22.0476 43.7552 22.6758C40.831 23.5342 37.9644 25.4166 37.9362 25.4346C37.811 25.518 37.6642 25.5627 37.5139 25.5631ZM34.1059 17.1262C34.0434 17.9807 34.0446 19.9171 35.0747 21.5631C36.0371 23.1049 36.9827 23.7128 37.4295 23.9325C38.3074 23.3877 40.7568 21.9525 43.3238 21.1968C45.8282 20.4619 48.3827 21.0041 50.4354 21.4396C51.4143 21.6466 52.4215 21.8611 52.9731 21.7969C53.0345 20.1021 50.9255 12.2165 47.8811 8.06488C46.9185 6.75425 46.0074 6.04111 45.2408 6C44.9619 6.20045 44.4947 7.29393 44.1518 8.09957C43.2663 10.1773 42.0531 13.0234 39.5385 14.5062C36.9701 16.0212 34.9825 16.8165 34.1059 17.1262Z" fill="#182A34"/>
<path d="M53.5402 22.4386C55.2032 21.6269 54.6855 17.1165 52.3844 12.3644C50.0832 7.61236 46.8697 4.4181 45.207 5.22987C43.544 6.04164 44.0617 10.552 46.363 15.3041C48.664 20.0562 51.8775 23.2506 53.5402 22.4386Z" fill="#182A34"/>
<path d="M52.9627 23.3376C50.6196 23.3376 47.6429 19.7076 45.6684 15.6383C44.5166 13.2637 43.7589 10.8622 43.5311 8.87566C43.1998 5.98715 44.0739 4.92066 44.8659 4.53389C45.6581 4.14713 47.0339 4.115 49.089 6.16061C50.5044 7.57403 51.9172 9.65048 53.0678 12.025C54.2183 14.3996 54.977 16.8011 55.2048 18.7876C55.5364 21.6749 54.661 22.7426 53.8688 23.1294C53.5865 23.267 53.2766 23.3383 52.9627 23.3376ZM45.7745 5.87408C45.6949 5.87167 45.6156 5.88748 45.5429 5.92033C45.1655 6.10408 44.8699 7.03564 45.0617 8.69835C45.2703 10.5178 45.9781 12.742 47.0543 14.9649C48.1305 17.1879 49.4358 19.1191 50.7322 20.4143C51.9172 21.5914 52.8284 21.9332 53.2059 21.7493C53.5836 21.5656 53.8779 20.6341 53.6871 18.9714C53.4785 17.1519 52.7709 14.9277 51.6945 12.7048C50.6183 10.4831 49.3118 8.55058 48.0166 7.2618C47.0286 6.2801 46.2314 5.87408 45.7745 5.87408Z" fill="#182A34"/>
<mask id="mask3_297_1136" style="mask-type:luminance" maskUnits="userSpaceOnUse" x="44" y="5" width="11" height="18">
<path d="M53.5417 22.4386C55.2044 21.6269 54.6867 17.1165 52.3857 12.3644C50.0844 7.61231 46.871 4.41806 45.2082 5.22983C43.5455 6.0416 44.063 10.552 46.3642 15.3041C48.6653 20.0562 51.8787 23.2503 53.5417 22.4386Z" fill="white"/>
</mask>
<g mask="url(#mask3_297_1136)">
<path d="M48.6078 18.0395C50.2019 17.2612 50.8224 15.2427 49.9933 13.5311C49.1645 11.8194 47.2003 11.0627 45.6062 11.841C44.012 12.6192 43.3916 14.6377 44.2205 16.3494C45.0493 18.061 47.0135 18.8177 48.6078 18.0395Z" fill="#FEAF86"/>
<path d="M47.2821 19.1165C46.7935 19.1152 46.3093 19.0233 45.8539 18.8454C44.8379 18.4418 44.0095 17.6707 43.5314 16.6842C43.0535 15.6977 42.9607 14.5673 43.2714 13.5155C43.4226 13.0028 43.6785 12.5274 44.023 12.1196C44.3672 11.7118 44.7927 11.3806 45.2716 11.1471C45.7508 10.9137 46.2729 10.783 46.8051 10.7636C47.3373 10.7442 47.8676 10.8364 48.3621 11.0343C49.3783 11.4377 50.207 12.2088 50.6849 13.1954C51.1626 14.182 51.255 15.3126 50.9434 16.3642C50.7918 16.8767 50.5358 17.3521 50.1916 17.7601C49.8476 18.1682 49.423 18.5001 48.9444 18.7349C48.4265 18.9876 47.8579 19.1181 47.2821 19.1165ZM46.9354 12.3064C46.5912 12.3055 46.2516 12.3838 45.9423 12.5351C45.6535 12.6782 45.3977 12.8798 45.1905 13.1273C44.9836 13.3748 44.8299 13.6628 44.7394 13.9729C44.5434 14.6508 44.6051 15.3776 44.9124 16.0124C45.2198 16.6472 45.751 17.1449 46.403 17.4089C46.7013 17.5307 47.0219 17.588 47.3438 17.5773C47.6657 17.5666 47.9819 17.4879 48.2716 17.3465C48.5613 17.205 48.8179 17.004 49.0253 16.7564C49.2324 16.5088 49.3855 16.2202 49.4743 15.9093C49.6804 15.2297 49.619 14.4966 49.3028 13.8612C49.0011 13.2221 48.4678 12.7226 47.812 12.4644C47.532 12.3577 47.2348 12.3032 46.9354 12.3038V12.3064Z" fill="#182A34"/>
</g>
<path d="M52.9627 23.3376C50.6196 23.3376 47.6429 19.7076 45.6684 15.6383C44.5166 13.2637 43.7589 10.8622 43.5311 8.87566C43.1998 5.98715 44.0739 4.92066 44.8659 4.53389C45.6581 4.14713 47.0339 4.115 49.089 6.16061C50.5044 7.57403 51.9172 9.65048 53.0678 12.025C54.2183 14.3996 54.977 16.8011 55.2048 18.7876C55.5364 21.6749 54.661 22.7426 53.8688 23.1294C53.5865 23.267 53.2766 23.3383 52.9627 23.3376ZM45.7745 5.87408C45.6949 5.87167 45.6156 5.88748 45.5429 5.92033C45.1655 6.10408 44.8699 7.03564 45.0617 8.69835C45.2703 10.5178 45.9781 12.742 47.0543 14.9649C48.1305 17.1879 49.4358 19.1191 50.7322 20.4143C51.9172 21.5914 52.8284 21.9332 53.2059 21.7493C53.5836 21.5656 53.8779 20.6341 53.6871 18.9714C53.4785 17.1519 52.7709 14.9277 51.6945 12.7048C50.6183 10.4831 49.3118 8.55058 48.0166 7.2618C47.0286 6.2801 46.2314 5.87408 45.7745 5.87408Z" fill="#182A34"/>
</g>
<defs>
<clipPath id="clip0_297_1136">
<rect width="200" height="52" fill="white"/>
</clipPath>
</defs>
</svg>
