<svg width="44" height="44" viewBox="0 0 44 44" fill="none" xmlns="http://www.w3.org/2000/svg">
<path fill-rule="evenodd" clip-rule="evenodd" d="M4.928 39.072C7.86 42 12.572 42 22 42C31.428 42 36.142 42 39.07 39.07C42 36.144 42 31.428 42 22C42 12.572 42 7.858 39.07 4.928C36.144 2 31.428 2 22 2C12.572 2 7.858 2 4.928 4.928C2 7.86 2 12.572 2 22C2 31.428 2 36.144 4.928 39.072ZM35.5 30C35.5 30.3978 35.342 30.7794 35.0607 31.0607C34.7794 31.342 34.3978 31.5 34 31.5H10C9.60218 31.5 9.22064 31.342 8.93934 31.0607C8.65804 30.7794 8.5 30.3978 8.5 30C8.5 29.6022 8.65804 29.2206 8.93934 28.9393C9.22064 28.658 9.60218 28.5 10 28.5H34C34.3978 28.5 34.7794 28.658 35.0607 28.9393C35.342 29.2206 35.5 29.6022 35.5 30ZM34 23.5C34.3978 23.5 34.7794 23.342 35.0607 23.0607C35.342 22.7794 35.5 22.3978 35.5 22C35.5 21.6022 35.342 21.2206 35.0607 20.9393C34.7794 20.658 34.3978 20.5 34 20.5H10C9.60218 20.5 9.22064 20.658 8.93934 20.9393C8.65804 21.2206 8.5 21.6022 8.5 22C8.5 22.3978 8.65804 22.7794 8.93934 23.0607C9.22064 23.342 9.60218 23.5 10 23.5H34ZM35.5 14C35.5 14.3978 35.342 14.7794 35.0607 15.0607C34.7794 15.342 34.3978 15.5 34 15.5H10C9.60218 15.5 9.22064 15.342 8.93934 15.0607C8.65804 14.7794 8.5 14.3978 8.5 14C8.5 13.6022 8.65804 13.2206 8.93934 12.9393C9.22064 12.658 9.60218 12.5 10 12.5H34C34.3978 12.5 34.7794 12.658 35.0607 12.9393C35.342 13.2206 35.5 13.6022 35.5 14Z" fill="#007AA1"/>
</svg>
