<svg width="44" height="44" viewBox="0 0 44 44" fill="none" xmlns="http://www.w3.org/2000/svg">
<path fill-rule="evenodd" clip-rule="evenodd" d="M22 42C12.572 42 7.86 42 4.928 39.072C2 36.144 2 31.428 2 22C2 12.572 2 7.86 4.928 4.928C7.858 2 12.572 2 22 2C31.428 2 36.144 2 39.07 4.928C42 7.858 42 12.572 42 22C42 31.428 42 36.144 39.07 39.07C36.142 42 31.428 42 22 42ZM31.2739 12.0607C31.5552 12.342 31.7132 12.7235 31.7132 13.1213C31.7132 13.5191 31.5552 13.9007 31.2739 14.182L23.7427 21.7132L31.1526 29.1231C31.4339 29.4044 31.5919 29.7859 31.5919 30.1838C31.5919 30.5816 31.4339 30.9631 31.1526 31.2444C30.8713 31.5257 30.4897 31.6838 30.0919 31.6838C29.6941 31.6838 29.3125 31.5257 29.0312 31.2444L21.6213 23.8345L14.3033 31.1525C14.022 31.4338 13.6405 31.5919 13.2427 31.5919C12.8448 31.5919 12.4633 31.4338 12.182 31.1525C11.9007 30.8712 11.7427 30.4897 11.7427 30.0919C11.7427 29.6941 11.9007 29.3125 12.182 29.0312L19.5 21.7132L12.0607 14.2739C11.7794 13.9926 11.6213 13.611 11.6213 13.2132C11.6213 12.8154 11.7794 12.4338 12.0607 12.1525C12.342 11.8712 12.7235 11.7132 13.1213 11.7132C13.5192 11.7132 13.9007 11.8712 14.182 12.1525L21.6213 19.5919L29.1526 12.0607C29.4339 11.7794 29.8154 11.6213 30.2132 11.6213C30.611 11.6213 30.9926 11.7794 31.2739 12.0607Z" fill="#007AA1"/>
</svg>
