<svg width="375" height="113" viewBox="0 0 375 113" fill="none" xmlns="http://www.w3.org/2000/svg">
<g clip-path="url(#clip0_237_17241)">
<path d="M0.0001258 70.6157L0.000131936 0.427447L751 0.427513L751 105.492C729.086 111.59 705.054 114.564 671.544 112.747C594.251 108.571 564.707 27.5536 412.494 56.3467C335.201 70.9612 297.591 59.471 247.455 41.7174C197.318 23.9638 137.764 10.3857 51.0681 54.2589C33.3132 63.2409 16.2531 68.3176 0.0001258 70.6157Z" fill="#00B1CD"/>
<path d="M0.000125686 67.4011L0.000131541 0.427158L751 0.427223L751 104.26C732.571 108.075 711.843 109.682 685.062 108.241C607.769 104.065 578.225 23.0473 426.012 51.8404C348.719 66.4549 311.109 54.9646 260.973 37.2112C210.836 19.4575 151.297 5.87943 64.5861 49.7528C41.8308 61.2729 20.2459 66.3497 0.000125686 67.4011Z" fill="#007AA1"/>
</g>
<defs>
<clipPath id="clip0_237_17241">
<rect width="375" height="113" fill="white" transform="translate(375 113) rotate(-180)"/>
</clipPath>
</defs>
</svg>
