<svg width="1440" height="218" viewBox="0 0 1440 218" fill="none" xmlns="http://www.w3.org/2000/svg">
<path d="M0 81.7984V216.38H1440V14.9248C1397.98 3.23201 1351.9 -2.47051 1287.65 1.01435C1139.44 9.02067 1082.79 164.368 790.935 109.158C642.73 81.136 570.615 103.168 474.48 137.209C378.346 171.251 264.154 197.286 97.9201 113.162C63.8786 95.9392 31.1617 86.2048 0 81.7984Z" fill="#00B1CD"/>
<path d="M0 87.9617V216.38H1440V17.2864C1404.66 9.97122 1364.92 6.8896 1313.57 9.65446C1165.36 17.6608 1108.71 173.008 816.854 117.798C668.65 89.7761 596.534 111.808 500.4 145.849C404.266 179.891 290.102 205.926 123.84 121.801C80.2082 99.7121 38.8225 89.9777 0 87.9617Z" fill="#007AA1"/>
</svg>
