<svg width="375" height="81" viewBox="0 0 375 81" fill="none" xmlns="http://www.w3.org/2000/svg">
<g clip-path="url(#clip0_327_24097)">
<path d="M592.99 123.919C342.723 123.892 91.2611 123.892 -159 123.892C-159 100.356 -159 76.819 -159 53.2823C-155.266 52.9846 -151.611 52.2274 -147.965 51.4336C-136.732 48.9843 -125.886 45.334 -115.415 40.6131C-109.926 38.1377 -104.548 35.4169 -99.1373 32.7692C-94.7714 30.6333 -90.3325 28.6541 -85.8362 26.8211C-75.5849 22.638 -65.1821 18.8728 -54.4869 15.9222C-44.9668 13.2954 -35.3421 11.2483 -25.587 9.78085C-19.7589 8.90351 -13.8786 8.27162 -8.0036 8.03139C-2.78136 7.81728 2.45135 7.43083 7.71016 7.87472C11.4441 8.18806 15.2146 8.17762 18.9694 8.41784C22.8495 8.66329 26.7087 9.04973 30.5419 9.57718C35.785 10.3031 41.0021 11.2274 46.1982 12.298C55.7967 14.2824 65.2177 16.8779 74.5551 19.8128C83.5112 22.6276 92.3107 25.902 101.194 28.9361C111.351 32.4037 121.576 35.6571 131.963 38.3832C138.329 40.0543 144.779 41.3755 151.254 42.5349C154.983 43.2033 158.754 43.6263 162.508 44.1538C165.24 44.535 167.981 44.817 170.739 44.9945C173.966 45.2034 177.183 45.663 180.41 45.6995C190.86 45.8092 201.315 45.9868 211.744 44.958C215.003 44.6394 218.287 44.5193 221.536 44.1224C227.343 43.4174 233.145 42.6759 238.92 41.7672C245.443 40.7436 251.95 39.6052 258.436 38.3675C264.901 37.1298 271.413 36.195 277.936 35.3595C283.31 34.6701 288.72 34.1949 294.125 33.7824C298.867 33.422 303.624 33.187 308.376 33.0565C316.44 32.8371 324.492 33.0826 332.545 33.6988C335.125 33.8972 337.715 34.0539 340.284 34.3255C344.99 34.8268 349.679 35.4639 354.343 36.3151C360.348 37.4118 366.317 38.6599 372.219 40.2475C386.684 44.1329 400.539 49.5953 413.981 56.1597C426.358 62.2019 438.338 69.0013 450.521 75.4142C456.276 78.4431 462.099 81.3362 468.052 83.9839C476.382 87.6865 484.925 90.7154 493.798 92.8043C499.428 94.1256 505.146 94.9507 510.896 95.4677C514.468 95.7862 518.076 95.9429 521.654 95.9638C528.991 95.9951 536.328 96.2249 543.665 95.8176C548.663 95.5408 553.656 95.2588 558.632 94.7366C563.296 94.2457 567.933 93.6085 572.55 92.8095C579.051 91.6815 585.48 90.2297 591.851 88.5064C592.488 88.3341 593.021 88.0938 593.005 87.4672" fill="#F3F6F8"/>
<path d="M-159 47.0314C-143.636 46.1331 -128.695 43.1512 -114.214 37.929C-106.73 35.229 -99.5133 31.9495 -92.4058 28.3983C-72.8536 18.6275 -52.5913 10.7523 -31.2688 5.73374C-16.7143 2.30271 -1.97713 0.349589 12.9899 0.0414758C35.8842 -0.43375 58.1624 3.25839 80.075 9.6191C91.9608 13.0658 103.559 17.3742 115.263 21.364C128.663 25.9282 142.168 30.1217 156.033 33.0723C166.075 35.2082 176.206 36.6808 186.452 37.4537C201.503 38.587 216.512 38.1274 231.515 36.6861C245.328 35.3596 258.974 32.973 272.62 30.5238C289.759 27.4427 307.024 25.594 324.456 25.3224C347.429 24.9621 369.978 27.6307 392.011 34.2786C406.179 38.5556 419.71 44.3784 432.896 51.0577C443.116 56.2382 453.101 61.8626 463.232 67.2154C476.22 74.0827 489.437 80.3964 503.726 84.1616C512.332 86.4333 521.089 87.6188 529.983 87.9634C539.895 88.3499 549.802 88.4595 559.713 87.953C570.795 87.389 582.133 86.0991 593 83.8169C593.021 85.5351 593 88.1462 593 88.1462L591.846 88.5065C585.475 90.2247 579.046 91.6817 572.544 92.8097C567.928 93.6139 563.291 94.2458 558.627 94.7367C553.645 95.2589 548.658 95.5409 543.66 95.8177C536.323 96.225 528.98 95.9953 521.648 95.9639C518.071 95.9482 514.462 95.7916 510.89 95.4678C505.141 94.9508 499.422 94.1257 493.793 92.8045C484.915 90.7208 476.371 87.6866 468.047 83.9841C462.099 81.3364 456.271 78.4432 450.516 75.4143C438.332 69.0066 426.358 62.2072 413.976 56.1599C400.534 49.5955 386.679 44.133 372.213 40.2476C366.312 38.6653 360.348 37.412 354.338 36.3153C349.679 35.4641 344.984 34.8322 340.279 34.3256C337.71 34.0488 335.12 33.8974 332.54 33.6989C324.492 33.0827 316.434 32.8373 308.371 33.0566C303.619 33.1872 298.862 33.4222 294.12 33.7825C288.715 34.195 283.304 34.665 277.931 35.3596C271.408 36.1952 264.896 37.1352 258.431 38.3676C251.945 39.6053 245.438 40.7438 238.915 41.7673C233.139 42.676 227.337 43.4176 221.53 44.1226C218.282 44.5142 214.997 44.6343 211.739 44.9581C201.31 45.9869 190.855 45.8093 180.405 45.6997C177.178 45.6631 173.961 45.2036 170.733 44.9947C167.976 44.8171 165.234 44.5403 162.503 44.1539C158.748 43.6264 154.978 43.2034 151.249 42.535C144.774 41.3756 138.319 40.0544 131.958 38.3833C121.576 35.6573 111.351 32.4038 101.189 28.9362C92.3055 25.9021 83.506 22.6277 74.5499 19.8129C65.2124 16.878 55.7915 14.2826 46.193 12.2981C40.9968 11.2276 35.7798 10.3032 30.5367 9.57732C26.7035 9.04987 22.8391 8.66343 18.9641 8.41798C15.2093 8.18298 11.4389 8.1882 7.70494 7.87486C2.4409 7.43097 -2.79179 7.82264 -8.00883 8.03153C-13.8839 8.27176 -19.7589 8.90365 -25.5922 9.78099C-35.3474 11.2484 -44.972 13.2956 -54.4922 15.9224C-65.1873 18.8729 -75.5901 22.6382 -85.8414 26.8212C-90.3377 28.6542 -94.7767 30.6282 -99.1425 32.7694C-104.553 35.4171 -109.932 38.1378 -115.42 40.6132C-125.891 45.3341 -136.738 48.9845 -147.971 51.4337C-151.611 52.2327 -155.266 52.9847 -159 53.2824V47.0314Z" fill="#00B0CC"/>
</g>
<defs>
<clipPath id="clip0_327_24097">
<rect width="375" height="86" fill="white"/>
</clipPath>
</defs>
</svg>
