<svg width="375" height="109" viewBox="0 0 375 109" fill="none" xmlns="http://www.w3.org/2000/svg">
<g clip-path="url(#clip0_237_17447)">
<path d="M752 42.5504V112.832H0V7.62754C21.9433 1.52132 46.0073 -1.45666 79.5616 0.36321C156.957 4.54429 186.541 85.6699 338.956 56.8384C416.352 42.2045 454.012 53.71 504.216 71.4872C554.419 89.2645 614.053 102.861 700.864 58.929C718.643 49.9351 735.725 44.8515 752 42.5504Z" fill="#00B1CD"/>
<path d="M752 47.649V109.5H0L0 10.7408C18.454 6.92072 39.2092 5.3114 66.0256 6.75528C143.421 10.9363 173.005 92.0619 325.421 63.2302C402.816 48.5966 440.477 60.1021 490.68 77.8792C540.884 95.6565 600.502 109.253 687.328 65.3208C710.114 53.7854 731.727 48.7018 752 47.649Z" fill="#182A34"/>
</g>
<defs>
<clipPath id="clip0_237_17447">
<rect width="375" height="109" fill="white"/>
</clipPath>
</defs>
</svg>
