<svg width="1440" height="221" viewBox="0 0 1440 221" fill="none" xmlns="http://www.w3.org/2000/svg">
<g clip-path="url(#clip0_91_10392)">
<path d="M7.15104e-06 139.002L1.89166e-05 4.41951L1440 4.41963L1440 205.875C1397.98 217.568 1351.9 223.271 1287.65 219.786C1139.44 211.779 1082.79 56.4324 790.934 111.642C642.73 139.664 570.614 117.632 474.48 83.5908C378.346 49.5491 264.154 23.5139 97.9199 107.638C63.8759 124.861 31.1639 134.595 7.15104e-06 139.002Z" fill="#00B1CD"/>
<path d="M6.93353e-06 129.238L1.81602e-05 0.819439L1440 0.819565L1440 199.914C1404.66 207.229 1364.92 210.31 1313.57 207.545C1165.36 199.539 1108.71 44.1923 816.854 99.4019C668.65 127.424 596.534 105.392 500.4 71.3507C404.266 37.3091 290.102 11.2739 123.84 95.3987C80.2079 117.488 38.82 127.222 6.93353e-06 129.238Z" fill="#DEFBFF"/>
</g>
<defs>
<clipPath id="clip0_91_10392">
<rect width="1440" height="220.8" fill="white" transform="translate(1440 220.8) rotate(-180)"/>
</clipPath>
</defs>
</svg>
