<svg width="375" height="116" viewBox="0 0 375 116" fill="none" xmlns="http://www.w3.org/2000/svg">
<g clip-path="url(#clip0_237_17124)">
<path d="M754 42.8305V113.299H0V7.81477C22.0017 1.69231 46.1297 -1.29359 79.7732 0.531123C157.375 4.72332 187.037 86.0647 339.858 57.1565C417.46 42.4837 455.22 54.0198 505.557 71.8443C555.894 89.6688 615.686 103.301 702.728 59.2527C720.554 50.2348 737.682 45.1378 754 42.8305Z" fill="#00B1CD"/>
<path d="M754 47.9428V115.184H0V10.9364C18.5031 7.10615 39.3135 5.49255 66.2012 6.94027C143.803 11.1324 173.465 92.4738 326.286 63.5654C403.888 48.8928 441.648 60.429 491.985 78.2533C542.322 96.0779 602.099 109.71 689.156 65.6615C712.002 54.0954 733.673 48.9984 754 47.9428Z" fill="#F3F6F8"/>
</g>
<defs>
<clipPath id="clip0_237_17124">
<rect width="375" height="116" fill="white"/>
</clipPath>
</defs>
</svg>
