<svg width="375" height="115" viewBox="0 0 375 115" fill="none" xmlns="http://www.w3.org/2000/svg">
<g clip-path="url(#clip0_237_17104)">
<path d="M3.7394e-06 72.6862L9.89179e-06 2.31098L753 2.31104L753 107.656C731.028 113.77 706.932 116.752 673.333 114.93C595.834 110.743 566.211 29.5094 413.593 58.3792C336.094 73.0326 298.384 61.5117 248.114 43.7109C197.843 25.91 138.13 12.2958 51.204 56.2858C33.4018 65.2917 16.2962 70.382 3.7394e-06 72.6862Z" fill="#00B1CD"/>
<path d="M3.62566e-06 67.5807L9.4963e-06 0.428439L753 0.428505L753 104.538C734.521 108.363 713.739 109.975 686.887 108.529C609.388 104.342 579.765 23.1088 427.147 51.9789C349.648 66.632 311.938 55.1111 261.668 37.3104C211.397 19.5095 151.699 5.89523 64.758 49.8855C41.9421 61.4363 20.2996 66.5265 3.62566e-06 67.5807Z" fill="#DEFBFF"/>
</g>
<defs>
<clipPath id="clip0_237_17104">
<rect width="375" height="115" fill="white" transform="translate(375 115) rotate(-180)"/>
</clipPath>
</defs>
</svg>
