<svg width="375" height="113" viewBox="0 0 375 113" fill="none" xmlns="http://www.w3.org/2000/svg">
<g clip-path="url(#clip0_237_17238)">
<path d="M0 42.6601V112.848H751V7.78368C729.083 1.68558 705.051 -1.28844 671.544 0.52901C594.251 4.70453 564.707 85.7223 412.494 56.9291C335.201 42.3147 297.591 53.8049 247.455 71.5584C197.318 89.312 137.763 102.89 51.068 59.0169C33.3144 50.0349 16.2517 44.9582 0 42.6601Z" fill="#00B1CD"/>
<path d="M0 45.8747V112.849H751V9.0156C732.569 5.20055 711.842 3.59339 685.062 5.03535C607.769 9.21086 578.225 90.2285 426.012 61.4355C348.719 46.821 311.109 58.3112 260.973 76.0647C210.836 93.8183 151.296 107.396 64.586 63.523C41.8308 52.0029 20.247 46.9261 0 45.8747Z" fill="#007AA1"/>
</g>
<defs>
<clipPath id="clip0_237_17238">
<rect width="375" height="113" fill="white"/>
</clipPath>
</defs>
</svg>
