<svg width="1440" height="221" viewBox="0 0 1440 221" fill="none" xmlns="http://www.w3.org/2000/svg">
<path d="M1440 81.7984V216.38H0V14.9248C42.0191 3.23201 88.0991 -2.47051 152.352 1.01435C300.557 9.02067 357.206 164.368 649.066 109.158C797.27 81.136 869.386 103.168 965.52 137.209C1061.65 171.251 1175.85 197.286 1342.08 113.162C1376.12 95.9392 1408.84 86.2048 1440 81.7984Z" fill="#00B1CD"/>
<path d="M1440 91.5618V219.98H0V20.8864C35.3375 13.5714 75.0815 10.4897 126.432 13.2546C274.637 21.2608 331.286 176.608 623.146 121.398C771.35 93.3762 843.466 115.408 939.6 149.449C1035.73 183.491 1149.9 209.526 1316.16 125.401C1359.79 103.312 1401.18 93.5778 1440 91.5618Z" fill="#DEFBFF"/>
</svg>
