<svg width="375" height="115" viewBox="0 0 375 115" fill="none" xmlns="http://www.w3.org/2000/svg">
<g clip-path="url(#clip0_237_17052)">
<path d="M748 42.6033V112.698H0V7.77331C21.8266 1.68334 45.7626 -1.28672 79.1384 0.528305C156.123 4.69826 185.549 85.6081 337.154 56.8533C414.138 42.2583 451.598 53.7333 501.534 71.4631C551.47 89.1931 610.787 102.753 697.136 58.9383C714.82 49.9683 731.812 44.8983 748 42.6033Z" fill="#00B1CD"/>
<path d="M748 47.6884V114.573H0V10.8784C18.3559 7.06843 39.0007 5.46338 65.6744 6.90343C142.659 11.0734 172.085 91.9832 323.69 63.2282C400.674 48.6334 438.134 60.1084 488.07 77.8382C538.006 95.5682 597.308 109.128 683.672 65.3132C706.336 53.8084 727.835 48.7384 748 47.6884Z" fill="#DEFBFF"/>
</g>
<defs>
<clipPath id="clip0_237_17052">
<rect width="375" height="115" fill="white"/>
</clipPath>
</defs>
</svg>
