<svg width="375" height="113" viewBox="0 0 375 113" fill="none" xmlns="http://www.w3.org/2000/svg">
<g clip-path="url(#clip0_237_17026)">
<path d="M753 42.5562V112.574H0V7.76472C21.9725 1.68148 46.0685 -1.2853 79.6674 0.527721C157.166 4.69307 186.789 85.5135 339.407 56.7905C416.906 42.2116 454.616 53.6739 504.886 71.3842C555.157 89.0946 614.87 102.64 701.796 58.8732C719.598 49.9131 736.704 44.8487 753 42.5562Z" fill="#00B1CD"/>
<path d="M753 45.7629V112.574H0V8.99352C18.4786 5.18776 39.2614 3.58452 66.1134 5.02296C143.612 9.1883 173.235 90.0087 325.853 61.2857C403.352 46.7069 441.062 58.1691 491.332 75.8793C541.603 93.5898 601.301 107.135 688.242 63.3682C711.058 51.8761 732.7 46.8117 753 45.7629Z" fill="#007AA1"/>
</g>
<defs>
<clipPath id="clip0_237_17026">
<rect width="375" height="113" fill="white"/>
</clipPath>
</defs>
</svg>
