<svg width="1440" height="210" viewBox="0 0 1440 210" fill="none" xmlns="http://www.w3.org/2000/svg">
<g clip-path="url(#clip0_325_24089)">
<path d="M1439.98 237.291C960.747 237.241 479.223 237.241 0 237.241C0 192.171 0 147.1 0 102.03C7.15005 101.46 14.1501 100.01 21.1301 98.4899C42.6403 93.7999 63.4104 86.8098 83.4606 77.7698C93.9707 73.0298 104.271 67.8197 114.631 62.7497C122.991 58.6597 131.491 54.8696 140.101 51.3596C159.731 43.3495 179.651 36.1395 200.131 30.4895C218.362 25.4594 236.792 21.5394 255.472 18.7294C266.632 17.0494 277.892 15.8394 289.142 15.3794C299.142 14.9694 309.162 14.2293 319.232 15.0794C326.382 15.6794 333.602 15.6594 340.792 16.1194C348.222 16.5894 355.612 17.3294 362.953 18.3394C372.993 19.7294 382.983 21.4994 392.933 23.5494C411.313 27.3494 429.353 32.3195 447.233 37.9395C464.383 43.3295 481.233 49.5996 498.243 55.4096C517.694 62.0497 537.274 68.2797 557.164 73.4998C569.354 76.6998 581.704 79.2298 594.104 81.4498C601.244 82.7298 608.464 83.5398 615.654 84.5498C620.884 85.2798 626.134 85.8198 631.414 86.1599C637.594 86.5599 643.754 87.4399 649.935 87.5099C669.945 87.7199 689.965 88.0599 709.935 86.0898C716.175 85.4798 722.465 85.2498 728.685 84.4898C739.805 83.1398 750.915 81.7198 761.975 79.9798C774.465 78.0198 786.925 75.8398 799.346 73.4698C811.726 71.0997 824.196 69.3097 836.686 67.7097C846.976 66.3897 857.336 65.4797 867.686 64.6897C876.766 63.9997 885.876 63.5497 894.976 63.2997C910.416 62.8797 925.836 63.3497 941.257 64.5297C946.197 64.9097 951.157 65.2097 956.077 65.7297C965.087 66.6897 974.067 67.9097 982.997 69.5397C994.497 71.6397 1005.93 74.0298 1017.23 77.0698C1044.93 84.5098 1071.46 94.9699 1097.2 107.54C1120.9 119.11 1143.84 132.13 1167.17 144.41C1178.19 150.21 1189.34 155.75 1200.74 160.82C1216.69 167.91 1233.05 173.71 1250.04 177.71C1260.82 180.241 1271.77 181.821 1282.78 182.811C1289.62 183.421 1296.53 183.721 1303.38 183.761C1317.43 183.821 1331.48 184.261 1345.53 183.481C1355.1 182.951 1364.66 182.411 1374.19 181.411C1383.12 180.471 1392 179.251 1400.84 177.72C1413.29 175.56 1425.6 172.78 1437.8 169.48C1439.02 169.15 1440.04 168.69 1440.01 167.49" fill="#DEFBFF"/>
<path d="M0 90.0597C29.4202 88.3397 58.0304 82.6297 85.7606 72.6296C100.091 67.4596 113.911 61.1795 127.521 54.3795C164.961 35.6694 203.761 20.5892 244.592 10.9792C272.462 4.40913 300.682 0.669106 329.342 0.0791023C373.183 -0.830904 415.843 6.23914 457.803 18.4192C480.563 25.0193 502.773 33.2693 525.184 40.9094C550.844 49.6494 576.704 57.6795 603.254 63.3295C622.484 67.4196 641.884 70.2396 661.505 71.7196C690.325 73.8896 719.065 73.0096 747.795 70.2496C774.245 67.7096 800.376 63.1395 826.506 58.4495C859.326 52.5495 892.386 49.0094 925.766 48.4894C969.757 47.7994 1012.94 52.9095 1055.13 65.6395C1082.26 73.8296 1108.17 84.9797 1133.42 97.7698C1152.99 107.69 1172.11 118.46 1191.51 128.71C1216.38 141.86 1241.69 153.95 1269.05 161.16C1285.53 165.51 1302.3 167.78 1319.33 168.44C1338.31 169.18 1357.28 169.39 1376.26 168.42C1397.48 167.34 1419.19 164.87 1440 160.5C1440.04 163.79 1440 168.79 1440 168.79L1437.79 169.48C1425.59 172.77 1413.28 175.56 1400.83 177.72C1391.99 179.26 1383.11 180.47 1374.18 181.41C1364.64 182.41 1355.09 182.95 1345.52 183.48C1331.47 184.26 1317.41 183.82 1303.37 183.76C1296.52 183.73 1289.61 183.43 1282.77 182.81C1271.76 181.82 1260.81 180.24 1250.03 177.71C1233.03 173.72 1216.67 167.91 1200.73 160.82C1189.34 155.75 1178.18 150.21 1167.16 144.41C1143.83 132.14 1120.9 119.12 1097.19 107.54C1071.45 94.9698 1044.92 84.5097 1017.22 77.0696C1005.92 74.0396 994.497 71.6396 982.987 69.5396C974.067 67.9096 965.077 66.6996 956.067 65.7296C951.147 65.1996 946.187 64.9095 941.247 64.5295C925.836 63.3495 910.406 62.8795 894.966 63.2995C885.866 63.5495 876.756 63.9995 867.676 64.6896C857.326 65.4796 846.966 66.3796 836.676 67.7096C824.186 69.3096 811.716 71.1096 799.336 73.4696C786.915 75.8396 774.455 78.0196 761.965 79.9797C750.905 81.7197 739.795 83.1397 728.675 84.4897C722.455 85.2397 716.165 85.4697 709.925 86.0897C689.955 88.0597 669.935 87.7197 649.924 87.5097C643.744 87.4397 637.584 86.5597 631.404 86.1597C626.124 85.8197 620.874 85.2897 615.644 84.5497C608.454 83.5397 601.234 82.7297 594.094 81.4497C581.694 79.2296 569.334 76.6996 557.154 73.4996C537.274 68.2796 517.694 62.0495 498.233 55.4095C481.223 49.5994 464.373 43.3294 447.223 37.9394C429.343 32.3193 411.303 27.3493 392.923 23.5493C382.973 21.4993 372.983 19.7292 362.943 18.3392C355.602 17.3292 348.202 16.5892 340.782 16.1192C333.592 15.6692 326.372 15.6792 319.222 15.0792C309.142 14.2292 299.122 14.9792 289.132 15.3792C277.882 15.8392 266.632 17.0492 255.462 18.7292C236.782 21.5392 218.352 25.4593 200.121 30.4893C179.641 36.1394 159.721 43.3494 140.091 51.3595C131.481 54.8695 122.981 58.6495 114.621 62.7495C104.261 67.8196 93.9606 73.0296 83.4506 77.7696C63.4004 86.8097 42.6303 93.7997 21.1201 98.4898C14.1501 100.02 7.15005 101.46 0 102.03V90.0597Z" fill="#00B0CC"/>
</g>
<defs>
<clipPath id="clip0_325_24089">
<rect width="1440" height="210" fill="white"/>
</clipPath>
</defs>
</svg>
