<svg width="1440" height="218" viewBox="0 0 1440 218" fill="none" xmlns="http://www.w3.org/2000/svg">
<g clip-path="url(#clip0_91_10502)">
<path d="M7.15104e-06 135.402L1.89166e-05 0.819653L1440 0.819778L1440 202.275C1397.98 213.968 1351.9 219.671 1287.65 216.186C1139.44 208.18 1082.79 52.8325 790.934 108.042C642.73 136.064 570.614 114.032 474.48 79.9909C378.346 45.9493 264.154 19.9141 97.9199 104.039C63.8759 121.261 31.1639 130.995 7.15104e-06 135.402Z" fill="#00B1CD"/>
<path d="M6.93353e-06 129.238L1.81603e-05 0.819653L1440 0.819778L1440 199.914C1404.66 207.229 1364.92 210.311 1313.57 207.546C1165.36 199.539 1108.71 44.1926 816.854 99.4017C668.65 127.424 596.534 105.392 500.4 71.3509C404.266 37.3093 290.102 11.2741 123.84 95.3989C80.2079 117.488 38.82 127.222 6.93353e-06 129.238Z" fill="#007AA1"/>
</g>
<defs>
<clipPath id="clip0_91_10502">
<rect width="1440" height="217.2" fill="white" transform="translate(1440 217.2) rotate(-180)"/>
</clipPath>
</defs>
</svg>
