<svg width="1440" height="216" viewBox="0 0 1440 216" fill="none" xmlns="http://www.w3.org/2000/svg">
<path d="M1440 81.7984V216.38H0V14.9248C42.0191 3.23201 88.0991 -2.47051 152.352 1.01435C300.557 9.02067 357.206 164.368 649.066 109.158C797.27 81.136 869.386 103.168 965.52 137.209C1061.65 171.251 1175.85 197.286 1342.08 113.162C1376.12 95.9392 1408.84 86.2048 1440 81.7984Z" fill="#00B1CD"/>
<path d="M1440 87.9619V216.381H0V17.2866C35.3375 9.97146 75.0815 6.88984 126.432 9.6547C274.637 17.661 331.286 173.008 623.146 117.799C771.35 89.7763 843.466 111.808 939.6 145.849C1035.73 179.891 1149.9 205.926 1316.16 121.801C1359.79 99.7123 1401.18 89.9779 1440 87.9619Z" fill="#007AA1"/>
</svg>
