<svg width="375" height="81" viewBox="0 0 375 81" fill="none" xmlns="http://www.w3.org/2000/svg">
<g clip-path="url(#clip0_327_24097)">
<path d="M592.99 116.248C342.723 116.222 91.2611 116.222 -159 116.222C-159 92.6852 -159 69.1485 -159 45.6118C-155.266 45.3141 -151.611 44.5569 -147.965 43.7631C-136.732 41.3139 -125.886 37.6635 -115.415 32.9426C-109.926 30.4672 -104.548 27.7464 -99.1373 25.0988C-94.7714 22.9629 -90.3325 20.9836 -85.8362 19.1506C-75.5849 14.9676 -65.1821 11.2023 -54.4869 8.25175C-44.9668 5.62496 -35.3421 3.57783 -25.587 2.11038C-19.7589 1.23304 -13.8786 0.601145 -8.0036 0.360921C-2.78136 0.146808 2.45135 -0.239639 7.71016 0.204253C11.4441 0.517588 15.2146 0.507144 18.9694 0.747368C22.8495 0.992814 26.7087 1.37926 30.5419 1.90671C35.785 2.6326 41.0021 3.55694 46.1982 4.62751C55.7967 6.61196 65.2177 9.20743 74.5551 12.1423C83.5112 14.9571 92.3107 18.2315 101.194 21.2656C111.351 24.7332 121.576 27.9867 131.963 30.7127C138.329 32.3838 144.779 33.705 151.254 34.8644C154.983 35.5328 158.754 35.9558 162.508 36.4833C165.24 36.8645 167.981 37.1465 170.739 37.3241C173.966 37.533 177.183 37.9925 180.41 38.0291C190.86 38.1387 201.315 38.3163 211.744 37.2875C215.003 36.969 218.287 36.8488 221.536 36.4519C227.343 35.7469 233.145 35.0054 238.92 34.0967C245.443 33.0732 251.95 31.9347 258.436 30.697C264.901 29.4593 271.413 28.5246 277.936 27.689C283.31 26.9997 288.72 26.5244 294.125 26.1119C298.867 25.7515 303.624 25.5165 308.376 25.386C316.44 25.1666 324.492 25.4121 332.545 26.0283C335.125 26.2268 337.715 26.3834 340.284 26.655C344.99 27.1563 349.679 27.7934 354.343 28.6447C360.348 29.7413 366.317 30.9895 372.219 32.577C386.684 36.4624 400.539 41.9249 413.981 48.4893C426.358 54.5314 438.338 61.3308 450.521 67.7437C456.276 70.7726 462.099 73.6658 468.052 76.3135C476.382 80.016 484.925 83.0449 493.798 85.1339C499.428 86.4551 505.146 87.2802 510.896 87.7972C514.468 88.1158 518.076 88.2724 521.654 88.2933C528.991 88.3246 536.328 88.5544 543.665 88.1471C548.663 87.8703 553.656 87.5883 558.632 87.0661C563.296 86.5752 567.933 85.9381 572.55 85.1391C579.051 84.0111 585.48 82.5593 591.851 80.8359C592.488 80.6636 593.021 80.4234 593.005 79.7967" fill="#F3F6F8"/>
<path d="M-159 47.0314C-143.636 46.1331 -128.695 43.1512 -114.214 37.929C-106.73 35.229 -99.5133 31.9495 -92.4058 28.3983C-72.8536 18.6275 -52.5913 10.7523 -31.2688 5.73374C-16.7143 2.30271 -1.97713 0.349589 12.9899 0.0414758C35.8842 -0.43375 58.1624 3.25839 80.075 9.6191C91.9608 13.0658 103.559 17.3742 115.263 21.364C128.663 25.9282 142.168 30.1217 156.033 33.0723C166.075 35.2082 176.206 36.6808 186.452 37.4537C201.503 38.587 216.512 38.1274 231.515 36.6861C245.328 35.3596 258.974 32.973 272.62 30.5238C289.759 27.4427 307.024 25.594 324.456 25.3224C347.429 24.9621 369.978 27.6307 392.011 34.2786C406.179 38.5556 419.71 44.3784 432.896 51.0577C443.116 56.2382 453.101 61.8626 463.232 67.2154C476.22 74.0827 489.437 80.3964 503.726 84.1616C512.332 86.4333 521.089 87.6188 529.983 87.9634C539.895 88.3499 549.802 88.4595 559.713 87.953C570.795 87.389 582.133 86.0991 593 83.8169C593.021 85.5351 593 88.1462 593 88.1462L591.846 88.5065C585.475 90.2247 579.046 91.6817 572.544 92.8097C567.928 93.6139 563.291 94.2458 558.627 94.7367C553.645 95.2589 548.658 95.5409 543.66 95.8177C536.323 96.225 528.98 95.9953 521.648 95.9639C518.071 95.9482 514.462 95.7916 510.89 95.4678C505.141 94.9508 499.422 94.1257 493.793 92.8045C484.915 90.7208 476.371 87.6866 468.047 83.9841C462.099 81.3364 456.271 78.4432 450.516 75.4143C438.332 69.0066 426.358 62.2072 413.976 56.1599C400.534 49.5955 386.679 44.133 372.213 40.2476C366.312 38.6653 360.348 37.412 354.338 36.3153C349.679 35.4641 344.984 34.8322 340.279 34.3256C337.71 34.0488 335.12 33.8974 332.54 33.6989C324.492 33.0827 316.434 32.8373 308.371 33.0566C303.619 33.1872 298.862 33.4222 294.12 33.7825C288.715 34.195 283.304 34.665 277.931 35.3596C271.408 36.1952 264.896 37.1352 258.431 38.3676C251.945 39.6053 245.438 40.7438 238.915 41.7673C233.139 42.676 227.337 43.4176 221.53 44.1226C218.282 44.5142 214.997 44.6343 211.739 44.9581C201.31 45.9869 190.855 45.8093 180.405 45.6997C177.178 45.6631 173.961 45.2036 170.733 44.9947C167.976 44.8171 165.234 44.5403 162.503 44.1539C158.748 43.6264 154.978 43.2034 151.249 42.535C144.774 41.3756 138.319 40.0544 131.958 38.3833C121.576 35.6573 111.351 32.4038 101.189 28.9362C92.3055 25.9021 83.506 22.6277 74.5499 19.8129C65.2124 16.878 55.7915 14.2826 46.193 12.2981C40.9968 11.2276 35.7798 10.3032 30.5367 9.57732C26.7035 9.04987 22.8391 8.66343 18.9641 8.41798C15.2093 8.18298 11.4389 8.1882 7.70494 7.87486C2.4409 7.43097 -2.79179 7.82264 -8.00883 8.03153C-13.8839 8.27176 -19.7589 8.90365 -25.5922 9.78099C-35.3474 11.2484 -44.972 13.2956 -54.4922 15.9224C-65.1873 18.8729 -75.5901 22.6382 -85.8414 26.8212C-90.3377 28.6542 -94.7767 30.6282 -99.1425 32.7694C-104.553 35.4171 -109.932 38.1378 -115.42 40.6132C-125.891 45.3341 -136.738 48.9845 -147.971 51.4337C-151.611 52.2327 -155.266 52.9847 -159 53.2824V47.0314Z" fill="#00B0CC"/>
</g>
<defs>
<clipPath id="clip0_327_24097">
<rect width="375" height="86" fill="white"/>
</clipPath>
</defs>
</svg>
